<?xml version="1.0" encoding="UTF-8" standalone="no"?>
<!-- Created with Inkscape (http://www.inkscape.org/) -->

<svg
   xmlns:dc="http://purl.org/dc/elements/1.1/"
   xmlns:cc="http://creativecommons.org/ns#"
   xmlns:rdf="http://www.w3.org/1999/02/22-rdf-syntax-ns#"
   xmlns:svg="http://www.w3.org/2000/svg"
   xmlns="http://www.w3.org/2000/svg"
   xmlns:sodipodi="http://sodipodi.sourceforge.net/DTD/sodipodi-0.dtd"
   xmlns:inkscape="http://www.inkscape.org/namespaces/inkscape"
   width="168.95535mm"
   height="167.44345mm"
   viewBox="0 0 168.95535 167.44345"
   version="1.1"
   id="svg8"
   inkscape:version="0.92.2 (5c3e80d, 2017-08-06)"
   sodipodi:docname="Fatemiyoun_Seal.svg"
   inkscape:export-filename="D:\Dropbox\Military Logos (PNG)\IRGC\Fatemiyoun\Fatemiyoun_Seal.png"
   inkscape:export-xdpi="171.03999"
   inkscape:export-ydpi="171.03999">
  <defs
     id="defs2" />
  <sodipodi:namedview
     id="base"
     pagecolor="#ffffff"
     bordercolor="#666666"
     borderopacity="1.0"
     inkscape:pageopacity="0.0"
     inkscape:pageshadow="2"
     inkscape:zoom="1.979899"
     inkscape:cx="298.82102"
     inkscape:cy="104.57154"
     inkscape:document-units="mm"
     inkscape:current-layer="layer1"
     showgrid="false"
     inkscape:snap-global="false"
     inkscape:window-width="1366"
     inkscape:window-height="715"
     inkscape:window-x="-8"
     inkscape:window-y="-8"
     inkscape:window-maximized="1"
     fit-margin-top="0"
     fit-margin-left="0"
     fit-margin-right="0"
     fit-margin-bottom="0" />
  <metadata
     id="metadata5">
    <rdf:RDF>
      <cc:Work
         rdf:about="">
        <dc:format>image/svg+xml</dc:format>
        <dc:type
           rdf:resource="http://purl.org/dc/dcmitype/StillImage" />
        <dc:title />
      </cc:Work>
    </rdf:RDF>
  </metadata>
  <g
     inkscape:label="Layer 1"
     inkscape:groupmode="layer"
     id="layer1"
     transform="translate(-26.080357,-70.686752)">
    <rect
       style="opacity:1;fill:#faea00;fill-opacity:1;fill-rule:evenodd;stroke:none;stroke-width:0.80000001;stroke-linecap:round;stroke-linejoin:round;stroke-miterlimit:4;stroke-dasharray:none;stroke-dashoffset:0;stroke-opacity:1"
       id="rect4616"
       width="168.95535"
       height="167.44345"
       x="26.080357"
       y="70.686752"
       rx="0" />
    <g
       id="g4776"
       transform="translate(0,0.84259321)">
      <path
         sodipodi:nodetypes="cssc"
         inkscape:connector-curvature="0"
         id="path4515"
         d="M 109.93734,84.787993 C 94.908291,86.618114 84.723076,92.09486 76.697908,98.577105 64.200506,108.67175 56.928271,121.34989 55.55886,134.99122 c -1.817365,18.1036 -0.810446,37.43732 -1.039435,51.28091"
         style="fill:none;fill-rule:evenodd;stroke:#000000;stroke-width:1.5;stroke-linecap:butt;stroke-linejoin:miter;stroke-miterlimit:4;stroke-dasharray:none;stroke-opacity:1" />
      <path
         id="path4517"
         transform="scale(0.26458333)"
         d="m 407.14258,286.0918 v 42.85742 c 84.53172,23.3218 167.75161,48.09832 209.03125,119.39062 9.94023,19.80969 16.08596,40.70655 18.24805,62.24414 6.41821,63.93481 3.45416,132.18921 3.79687,183.8086 l 7.52539,-3.13477 c -0.44028,-46.30747 0.52149,-105.35129 0.52148,-163.35937 0,-113.67944 -58.73993,-187.50709 -239.12304,-241.80664 z"
         style="color:#000000;font-style:normal;font-variant:normal;font-weight:normal;font-stretch:normal;font-size:medium;line-height:normal;font-family:sans-serif;font-variant-ligatures:normal;font-variant-position:normal;font-variant-caps:normal;font-variant-numeric:normal;font-variant-alternates:normal;font-feature-settings:normal;text-indent:0;text-align:start;text-decoration:none;text-decoration-line:none;text-decoration-style:solid;text-decoration-color:#000000;letter-spacing:normal;word-spacing:normal;text-transform:none;writing-mode:lr-tb;direction:ltr;text-orientation:mixed;dominant-baseline:auto;baseline-shift:baseline;text-anchor:start;white-space:normal;shape-padding:0;clip-rule:nonzero;display:inline;overflow:visible;visibility:visible;opacity:1;isolation:auto;mix-blend-mode:normal;color-interpolation:sRGB;color-interpolation-filters:linearRGB;solid-color:#000000;solid-opacity:1;vector-effect:none;fill:#000000;fill-opacity:1;fill-rule:evenodd;stroke:none;stroke-width:7.55905533;stroke-linecap:butt;stroke-linejoin:miter;stroke-miterlimit:4;stroke-dasharray:none;stroke-dashoffset:0;stroke-opacity:1;color-rendering:auto;image-rendering:auto;shape-rendering:auto;text-rendering:auto;enable-background:accumulate"
         inkscape:connector-curvature="0" />
      <path
         sodipodi:nodetypes="ccc"
         inkscape:connector-curvature="0"
         id="path4524"
         d="m 57.1689,137.58854 c 5.637708,1.0055 6.039631,-3.55201 7.937499,-6.52009 -4.236202,1.2336 -9.049931,2.12593 -7.937499,6.52009 z"
         style="fill:#000000;fill-rule:evenodd;stroke:#000000;stroke-width:0.26458332px;stroke-linecap:butt;stroke-linejoin:miter;stroke-opacity:1" />
      <path
         sodipodi:nodetypes="ccc"
         inkscape:connector-curvature="0"
         id="path4526"
         d="m 64.633928,137.11606 c -0.200562,5.84272 -3.954287,6.79984 -8.126489,7.18155 -0.09413,-5.81049 6.218878,-4.77309 8.126489,-7.18155 z"
         style="fill:#000000;fill-rule:evenodd;stroke:#000000;stroke-width:0.26458332px;stroke-linecap:butt;stroke-linejoin:miter;stroke-opacity:1" />
      <path
         sodipodi:nodetypes="ccc"
         inkscape:connector-curvature="0"
         id="path4528"
         d="m 45.451635,121.24107 c 4.680333,1.67183 10.451875,2.02511 9.354913,10.67783 -9.682478,0.54172 -4.721778,-7.10799 -9.354913,-10.67783 z"
         style="fill:#000000;fill-rule:evenodd;stroke:#000000;stroke-width:0.26458332px;stroke-linecap:butt;stroke-linejoin:miter;stroke-opacity:1" />
      <path
         sodipodi:nodetypes="ccc"
         inkscape:connector-curvature="0"
         id="path4530"
         d="m 42.994791,132.58035 c 5.189371,0.22349 11.405499,-0.66906 11.055802,5.57515 -5.873752,1.17183 -8.35695,-2.35096 -11.055802,-5.57515 z"
         style="fill:#000000;fill-rule:evenodd;stroke:#000000;stroke-width:0.26458332px;stroke-linecap:butt;stroke-linejoin:miter;stroke-opacity:1" />
      <path
         sodipodi:nodetypes="ccc"
         inkscape:connector-curvature="0"
         id="path4532"
         d="m 43.845239,140.70684 c 3.549493,-0.48616 7.441843,-4.17232 10.29985,1.79539 -3.989803,3.29718 -7.014258,-0.16309 -10.29985,-1.79539 z"
         style="fill:#000000;fill-rule:evenodd;stroke:#000000;stroke-width:0.26458332px;stroke-linecap:butt;stroke-linejoin:miter;stroke-opacity:1" />
      <path
         sodipodi:nodetypes="ccc"
         inkscape:connector-curvature="0"
         id="path4534"
         d="m 44.979166,147.41592 c 2.693612,1.88563 5.534023,2.59687 8.976934,-1.5119 -3.052686,-3.23115 -5.477064,1.51827 -8.976934,1.5119 z"
         style="fill:#000000;fill-rule:evenodd;stroke:#000000;stroke-width:0.26458332px;stroke-linecap:butt;stroke-linejoin:miter;stroke-opacity:1" />
      <path
         sodipodi:nodetypes="ccc"
         inkscape:connector-curvature="0"
         id="path4536"
         d="m 65.975797,116.35097 c 24.450841,-3.87763 37.178053,-15.96181 45.919183,-30.83624 -7.08919,18.97932 -22.714913,28.91995 -45.919183,30.83624 z"
         style="fill:#000000;fill-rule:evenodd;stroke:#000000;stroke-width:0.23462357px;stroke-linecap:butt;stroke-linejoin:miter;stroke-opacity:1" />
      <path
         sodipodi:nodetypes="cccc"
         inkscape:connector-curvature="0"
         id="path4538"
         d="m 80.849032,95.34514 c -2.479352,14.29532 -4.954972,25.60333 1.603616,43.03039 -1.412287,-9.47297 -5.13714,-22.80269 0.53574,-43.955916 z"
         style="fill:#000000;fill-rule:evenodd;stroke:#000000;stroke-width:0.26458332px;stroke-linecap:butt;stroke-linejoin:miter;stroke-opacity:1" />
      <path
         sodipodi:nodetypes="cccc"
         inkscape:connector-curvature="0"
         id="path4540"
         d="M 82.319012,94.676967 C 92.634465,97.571964 102.93005,100.53649 111.8523,108.30771 105.74287,102.76028 99.538628,97.228018 84.72444,93.073348 Z"
         style="fill:#000000;fill-rule:evenodd;stroke:#000000;stroke-width:0.26458332px;stroke-linecap:butt;stroke-linejoin:miter;stroke-opacity:1" />
      <path
         sodipodi:nodetypes="ccc"
         inkscape:connector-curvature="0"
         id="path4542"
         d="m 84.590804,92.939715 c 11.002595,-2.361794 22.005186,-4.774522 33.007786,-2.271791 -8.83495,-3.07781 -21.84702,-2.839809 -33.007786,2.271791 z"
         style="fill:#000000;fill-rule:evenodd;stroke:#000000;stroke-width:0.26458332px;stroke-linecap:butt;stroke-linejoin:miter;stroke-opacity:1" />
      <path
         transform="scale(0.26458333)"
         inkscape:connector-curvature="0"
         id="path4554"
         d="m 485.34275,702.40717 c -4.4673,-0.84041 -10.09404,-4.47475 -13.5433,-8.74765 -1.49834,-1.85612 -3.881,-4.45245 -5.2948,-5.7696 -6.00021,-5.59005 -8.14207,-24.87426 -8.38707,-75.51292 -0.0129,-2.55357 -0.69963,-4.64286 -1.52729,-4.64286 -0.82765,0 -5.91511,3.51889 -11.30544,7.81975 -9.90971,7.9068 -14.04376,14.69073 -12.07648,19.81737 0.49785,1.2974 5.01533,5.62943 10.03883,9.62676 11.57886,9.21357 11.82014,12.94558 1.53912,23.80755 -5.9068,6.24059 -10.71829,6.03676 -24.88562,-1.05421 -10.51319,-5.26203 -17.00285,-10.81522 -26.43445,-22.61996 -4.41577,-5.52684 -5.41088,-4.21731 -9.03411,11.88846 -1.97741,8.78991 -13.6656,30.58137 -18.83923,35.12388 -14.32237,12.5752 -33.70478,13.19182 -43.63686,1.38822 -1.99312,-2.3687 -5.41071,-8.01722 -7.59464,-12.55227 -3.67198,-7.62507 -3.97652,-9.58927 -4.0471,-26.10269 -0.0644,-15.07403 0.43764,-19.34458 3.22146,-27.40093 4.76206,-13.78137 9.55249,-19.45915 28.13592,-33.34764 16.83269,-12.58004 23.92343,-20.61089 23.92343,-27.0952 0,-2.20057 -2.19662,-5.97517 -5.67031,-9.74367 -8.35935,-9.06883 -10.90202,-16.93547 -10.119,-31.30674 0.6786,-12.45499 4.34925,-22.76017 7.12009,-19.98933 0.79462,0.79463 2.32883,6.08448 3.40934,11.75522 2.21616,11.63083 5.78353,18.38202 16.13018,30.52603 8.16543,9.5839 9.82184,15.4557 7.24587,25.68582 -2.26746,9.00488 -10.85101,18.31893 -27.20434,29.51954 -17.544,12.01612 -21.87764,16.01957 -26.7627,24.72359 -5.12021,9.123 -6.19163,13.4947 -6.10682,24.91771 0.1119,15.07224 7.12583,24.37132 19.31234,25.60432 7.9946,0.80887 15.85964,-3.22512 15.85964,-8.13443 0,-3.39246 -0.50113,-3.61192 -10,-4.37925 -11.97354,-0.96724 -13.75432,-1.68534 -16.70686,-6.73698 -3.18215,-5.44453 -2.33066,-15.40224 2.11153,-24.69304 4.34196,-9.0812 6.31983,-11.69222 10.57284,-13.95739 8.32514,-4.43399 18.86838,-0.19867 26.84327,10.7832 2.37714,3.27346 5.02601,5.99101 5.88638,6.03903 2.67595,0.14931 6.29284,-4.95833 6.29284,-8.88656 0,-5.5158 2.94459,-11.02616 5.89209,-11.02616 2.59046,0 9.82219,9.14355 9.82219,12.41883 0,3.01763 6.07643,7.58117 10.09446,7.58117 4.5525,0 5.73848,-1.35792 9.0772,-10.39321 5.03625,-13.62921 10.36856,-19.44019 25.82834,-28.14693 10.47102,-5.89713 14.40762,-8.88286 14.74222,-11.18126 0.62448,-4.28962 -2.96936,-4.0909 -11.89644,0.65785 -17.43595,9.27501 -30.20483,21.82237 -34.94965,34.34334 -1.43042,3.77469 -3.49342,7.04433 -4.58445,7.26587 -2.26271,0.45946 -7.65427,-9.7315 -9.031,-17.07008 -0.98868,-5.27015 1.46492,-9.17315 14.32397,-22.78549 3.42685,-3.6276 7.66062,-9.09189 9.40839,-12.14286 1.74777,-3.05097 4.62938,-8.11865 6.40358,-11.26151 5.36437,-9.50259 8.11744,-22.83216 8.11401,-39.28572 -0.003,-13.86992 -0.37954,-15.91482 -4.99934,-27.14285 -10.31256,-25.06381 -11.7792,-30.95026 -11.7459,-47.14286 0.0348,-16.92191 2.76623,-28.6978 9.60936,-41.42857 8.80312,-16.37706 11.40417,-15.16944 6.99792,3.249 -5.02913,21.02215 -4.37971,31.77489 3.28266,54.35235 9.15663,26.98031 10.70796,34.8942 10.73213,54.74816 0.0226,18.51449 -2.24421,29.08657 -9.43017,43.98236 -1.87322,3.883 -3.40586,7.58254 -3.40586,8.2212 0,2.16897 5.60499,1.17249 13.36169,-2.37551 7.26171,-3.32159 7.78553,-3.90816 8.6109,-9.64286 0.48335,-3.35837 0.96768,-20.24899 1.07625,-37.5347 0.21542,-34.2928 -0.52677,-39.7642 -8.81712,-65 -6.41718,-19.5338 -7.36818,-39.72376 -2.48973,-52.85714 1.89707,-5.10715 6.54193,-13.67142 10.3219,-19.03173 9.82805,-13.93701 11.00968,-11.3441 5.26908,11.56231 -4.34983,17.35691 -4.50507,18.87654 -2.95128,28.89086 0.90201,5.81366 3.18353,16.65495 5.07003,24.09174 5.11328,20.15718 6.43247,35.71391 6.3769,75.2011 l -0.0503,35.71429 5.7783,2.66354 c 6.6814,3.07981 17.0148,15.31943 17.0148,20.15351 0,2.85895 -1.53436,3.75318 -12.0833,7.04216 -14.74794,4.59817 -14.03824,2.42643 -13.3862,40.96367 0.43276,25.57696 0.72214,28.22139 3.6978,33.79053 1.77557,3.3231 5.11864,7.01953 7.42906,8.21429 10.06941,5.2071 25.05693,0.0637 25.05693,-8.59889 v -4.22881 l -8.78806,0.4826 c -10.46902,0.57493 -14.31782,-1.1623 -17.04717,-7.69456 -5.0913,-12.18521 -0.0449,-27.68621 10.79245,-33.15094 7.70723,-3.88637 13.83818,-3.24635 22.06588,2.3035 7.60578,5.13034 11.17057,13.55355 11.9729,28.2907 1.14398,21.01265 -5.53495,34.4676 -21.3364,42.98298 -8.1978,4.41779 -11.82949,5.08182 -19.69769,3.6016 z"
         style="opacity:1;fill:#000000;fill-opacity:1;fill-rule:evenodd;stroke:none;stroke-width:10.79865074;stroke-linecap:round;stroke-linejoin:round;stroke-miterlimit:4;stroke-dasharray:none;stroke-dashoffset:0;stroke-opacity:1" />
      <path
         transform="scale(0.26458333)"
         inkscape:connector-curvature="0"
         id="path4556"
         d="m 369.0475,616.78176 c -1.87622,-1.87622 -0.88403,-4.35132 3.3883,-8.45237 7.63203,-7.32607 20.76804,-24.01039 22.72836,-28.86775 2.1981,-5.44654 1.24446,-19.01753 -1.85818,-26.44318 -1.08769,-2.60322 -5.54949,-10.21317 -9.91511,-16.911 -10.83408,-16.62191 -13.03737,-23.87263 -12.01285,-39.53252 1.67133,-25.5464 6.89176,-31.06949 8.24873,-8.72695 1.00536,16.55318 4.16407,26.37023 11.45104,35.58893 6.68032,8.45124 13.76487,22.02025 17.06366,32.68195 l 2.39841,7.75168 2.34906,-6.89412 c 1.29198,-3.79176 2.33804,-8.54745 2.32458,-10.5682 -0.0472,-7.08297 -5.34513,-24.05413 -11.09564,-35.5433 -11.12346,-22.22399 -12.55254,-38.92845 -5.38032,-62.89067 7.12449,-23.80277 13.58846,-32.85058 11.65336,-16.31154 -2.45763,21.00511 -2.5405,29.9477 -0.38163,41.1802 2.32667,12.10551 6.51528,24.10128 10.93607,31.3198 6.15651,10.0527 8.74462,30.48618 5.81681,45.92449 -1.77413,9.35492 -6.64654,22.16339 -9.74156,25.60833 -1.37329,1.52856 -4.6582,5.3447 -7.2998,8.48033 -18.91944,22.45769 -36.62653,36.65265 -40.67329,32.60589 z"
         style="opacity:1;fill:#000000;fill-opacity:1;fill-rule:evenodd;stroke:none;stroke-width:10.79865074;stroke-linecap:round;stroke-linejoin:round;stroke-miterlimit:4;stroke-dasharray:none;stroke-dashoffset:0;stroke-opacity:1" />
      <path
         inkscape:connector-curvature="0"
         id="path4568"
         d="m 66.282842,156.6835 v 35.54684"
         style="fill:none;fill-rule:evenodd;stroke:#000000;stroke-width:1;stroke-linecap:round;stroke-linejoin:miter;stroke-miterlimit:4;stroke-dasharray:none;stroke-opacity:1" />
      <path
         sodipodi:nodetypes="ccc"
         inkscape:connector-curvature="0"
         id="path4570"
         d="m 65.767856,154.50298 c 7.289492,-0.94169 3.125208,-5.72674 5.197173,-8.12649 -3.820731,1.58434 -6.00003,4.05253 -5.197173,8.12649 z"
         style="fill:#000000;fill-rule:evenodd;stroke:#000000;stroke-width:0.26458332px;stroke-linecap:butt;stroke-linejoin:miter;stroke-opacity:1" />
      <path
         sodipodi:nodetypes="ccc"
         inkscape:connector-curvature="0"
         id="path4572"
         d="m 67.090772,157.2433 c -0.0058,-3.39401 3.02382,-4.00549 7.276041,-3.49628 -2.071985,1.96049 -3.847584,4.58785 -7.276041,3.49628 z"
         style="fill:#000000;fill-rule:evenodd;stroke:#000000;stroke-width:0.26458332px;stroke-linecap:butt;stroke-linejoin:miter;stroke-opacity:1" />
      <path
         sodipodi:nodetypes="ccc"
         style="fill:#000000;fill-rule:evenodd;stroke:#000000;stroke-width:0.26458332px;stroke-linecap:butt;stroke-linejoin:miter;stroke-opacity:1"
         d="m 66.901784,160.36161 c 1.816456,-4.09015 4.714211,-2.12501 7.370535,-1.5119 -2.848965,1.9156 -5.409889,2.79425 -7.370535,1.5119 z"
         id="path4574"
         inkscape:connector-curvature="0" />
      <path
         sodipodi:nodetypes="ccc"
         inkscape:connector-curvature="0"
         id="path4576"
         d="m 66.996278,162.53497 c 1.852486,1.78023 3.852099,2.62866 6.236606,1.03943 -2.242992,-0.93732 -4.819543,-3.07546 -6.236606,-1.03943 z"
         style="fill:#000000;fill-rule:evenodd;stroke:#000000;stroke-width:0.26458332px;stroke-linecap:butt;stroke-linejoin:miter;stroke-opacity:1" />
      <path
         sodipodi:nodetypes="ccc"
         style="fill:#000000;fill-rule:evenodd;stroke:#000000;stroke-width:0.26458332px;stroke-linecap:butt;stroke-linejoin:miter;stroke-opacity:1"
         d="m 61.326636,163.47991 c 1.203665,-0.94631 2.120897,-2.63735 4.157737,-1.41741 -1.385912,2.03555 -2.771825,1.38092 -4.157737,1.41741 z"
         id="path4578"
         inkscape:connector-curvature="0" />
      <path
         sodipodi:nodetypes="ccc"
         inkscape:connector-curvature="0"
         id="path4580"
         d="m 59.909225,156.10937 c 1.058827,1.99067 0.39519,4.87702 5.575148,4.7247 -0.508033,-4.20038 -3.567115,-2.74459 -5.575148,-4.7247 z"
         style="fill:#000000;fill-rule:evenodd;stroke:#000000;stroke-width:0.26458332px;stroke-linecap:butt;stroke-linejoin:miter;stroke-opacity:1" />
      <path
         sodipodi:nodetypes="ccc"
         style="fill:#000000;fill-rule:evenodd;stroke:#000000;stroke-width:0.26458332px;stroke-linecap:butt;stroke-linejoin:miter;stroke-opacity:1"
         d="m 59.720237,152.4241 c 2.103522,1.18847 5.395234,0.1986 5.575148,4.91369 -3.661646,-0.0922 -4.258794,-2.8112 -5.575148,-4.91369 z"
         id="path4582"
         inkscape:connector-curvature="0" />
      <g
         transform="translate(-0.17385201)"
         id="g4702">
        <g
           id="g4686">
          <path
             style="fill:none;fill-rule:evenodd;stroke:#000000;stroke-width:0.80000001;stroke-linecap:butt;stroke-linejoin:miter;stroke-miterlimit:4;stroke-dasharray:none;stroke-opacity:1"
             d="m 67.082507,190.35946 0.4009,-3.87541 c 7.834188,6.30005 15.565803,4.86392 23.957653,4.87932 9.00563,-0.0427 17.18474,5.52899 20.27546,17.57132 l 0.76839,2.83974"
             id="path4594"
             inkscape:connector-curvature="0"
             sodipodi:nodetypes="ccccc" />
          <path
             style="fill:none;fill-rule:evenodd;stroke:#000000;stroke-width:0.80000001;stroke-linecap:butt;stroke-linejoin:miter;stroke-miterlimit:4;stroke-dasharray:none;stroke-opacity:1"
             d="m 68.352039,188.82266 c 13.687818,10.04585 32.463371,-6.27936 42.495851,19.57749 l 1.1693,4.64381"
             id="path4596"
             inkscape:connector-curvature="0"
             sodipodi:nodetypes="ccc" />
          <path
             sodipodi:nodetypes="ccc"
             inkscape:connector-curvature="0"
             id="path4598"
             d="m 68.752947,190.15901 c 14.556437,8.34382 31.928813,-6.15176 41.560393,18.04069 l 0.86864,4.87767"
             style="fill:none;fill-rule:evenodd;stroke:#000000;stroke-width:0.5;stroke-linecap:butt;stroke-linejoin:miter;stroke-miterlimit:4;stroke-dasharray:none;stroke-opacity:1" />
          <path
             style="fill:none;fill-rule:evenodd;stroke:#000000;stroke-width:0.80000001;stroke-linecap:butt;stroke-linejoin:miter;stroke-miterlimit:4;stroke-dasharray:none;stroke-opacity:1"
             d="m 68.485677,189.89174 c 15.363116,10.11328 30.48776,-4.9728 41.760853,19.10976 l -0.4009,3.0402"
             id="path4600"
             inkscape:connector-curvature="0"
             sodipodi:nodetypes="ccc" />
          <path
             sodipodi:nodetypes="cc"
             inkscape:connector-curvature="0"
             id="path4602"
             d="M 110.11289,208.6006 C 97.474522,185.55009 82.039854,200.27168 67.750684,189.49084"
             style="fill:none;fill-rule:evenodd;stroke:#000000;stroke-width:0.5;stroke-linecap:butt;stroke-linejoin:miter;stroke-miterlimit:4;stroke-dasharray:none;stroke-opacity:1" />
          <path
             style="fill:none;fill-rule:evenodd;stroke:#000000;stroke-width:0.69999999;stroke-linecap:butt;stroke-linejoin:miter;stroke-miterlimit:4;stroke-dasharray:none;stroke-opacity:1"
             d="M 109.91244,209.60286 C 98.610418,188.02234 74.689942,199.2026 69.621571,192.23035"
             id="path4647"
             inkscape:connector-curvature="0"
             sodipodi:nodetypes="cc" />
        </g>
        <g
           id="g4678"
           transform="matrix(-1,0,0,1,221.46377,0)">
          <path
             sodipodi:nodetypes="ccccc"
             inkscape:connector-curvature="0"
             id="path4660"
             d="m 67.082507,190.35946 0.4009,-3.87541 c 7.834188,6.30005 15.565803,4.86392 23.957653,4.87932 9.00563,-0.0427 17.18474,5.52899 20.27546,17.57132 l 0.76839,2.83974"
             style="fill:none;fill-rule:evenodd;stroke:#000000;stroke-width:0.80000001;stroke-linecap:butt;stroke-linejoin:miter;stroke-miterlimit:4;stroke-dasharray:none;stroke-opacity:1" />
          <path
             sodipodi:nodetypes="ccc"
             inkscape:connector-curvature="0"
             id="path4662"
             d="m 68.352039,188.82266 c 13.687818,10.04585 32.463371,-6.27936 42.495851,19.57749 l 1.1693,4.64381"
             style="fill:none;fill-rule:evenodd;stroke:#000000;stroke-width:0.80000001;stroke-linecap:butt;stroke-linejoin:miter;stroke-miterlimit:4;stroke-dasharray:none;stroke-opacity:1" />
          <path
             style="fill:none;fill-rule:evenodd;stroke:#000000;stroke-width:0.5;stroke-linecap:butt;stroke-linejoin:miter;stroke-miterlimit:4;stroke-dasharray:none;stroke-opacity:1"
             d="m 68.752947,190.15901 c 14.556437,8.34382 31.928813,-6.15176 41.560393,18.04069 l 0.86864,4.87767"
             id="path4664"
             inkscape:connector-curvature="0"
             sodipodi:nodetypes="ccc" />
          <path
             sodipodi:nodetypes="ccc"
             inkscape:connector-curvature="0"
             id="path4666"
             d="m 68.485677,189.89174 c 15.363116,10.11328 30.48776,-4.9728 41.760853,19.10976 l -0.4009,3.0402"
             style="fill:none;fill-rule:evenodd;stroke:#000000;stroke-width:0.80000001;stroke-linecap:butt;stroke-linejoin:miter;stroke-miterlimit:4;stroke-dasharray:none;stroke-opacity:1" />
          <path
             style="fill:none;fill-rule:evenodd;stroke:#000000;stroke-width:0.5;stroke-linecap:butt;stroke-linejoin:miter;stroke-miterlimit:4;stroke-dasharray:none;stroke-opacity:1"
             d="M 110.11289,208.6006 C 97.474522,185.55009 82.039854,200.27168 67.750684,189.49084"
             id="path4668"
             inkscape:connector-curvature="0"
             sodipodi:nodetypes="cc" />
          <path
             sodipodi:nodetypes="cc"
             inkscape:connector-curvature="0"
             id="path4670"
             d="M 109.91244,209.60286 C 98.610418,188.02234 74.689942,199.2026 69.621571,192.23035"
             style="fill:none;fill-rule:evenodd;stroke:#000000;stroke-width:0.69999999;stroke-linecap:butt;stroke-linejoin:miter;stroke-miterlimit:4;stroke-dasharray:none;stroke-opacity:1" />
        </g>
      </g>
      <circle
         r="2.5040922"
         cy="208.62178"
         cx="110.55803"
         id="path4641"
         style="opacity:1;fill:#faea00;fill-opacity:1;fill-rule:evenodd;stroke:none;stroke-width:1;stroke-linecap:round;stroke-linejoin:round;stroke-miterlimit:4;stroke-dasharray:none;stroke-dashoffset:0;stroke-opacity:1;paint-order:stroke fill markers" />
      <g
         aria-label="اِن یَنصُرکُمُ اللهُ فَلا غالِبَ لَکُم"
         transform="matrix(1.0005765,0,0,1.0005765,-0.06132837,-0.04439678)"
         style="color:#000000;font-style:normal;font-variant:normal;font-weight:bold;font-stretch:normal;font-size:15.20325661px;line-height:125%;font-family:'B Zar';-inkscape-font-specification:'B Zar Bold';text-indent:0;text-align:end;text-decoration:none;text-decoration-line:none;text-decoration-style:solid;text-decoration-color:#000000;letter-spacing:0px;word-spacing:0px;text-transform:none;writing-mode:lr-tb;direction:ltr;baseline-shift:baseline;text-anchor:end;white-space:normal;clip-rule:nonzero;display:inline;overflow:visible;visibility:visible;opacity:1;isolation:auto;mix-blend-mode:normal;color-interpolation:sRGB;color-interpolation-filters:linearRGB;solid-color:#000000;solid-opacity:1;fill:#000000;fill-opacity:1;fill-rule:nonzero;stroke:none;stroke-width:0.20271008px;stroke-linecap:butt;stroke-linejoin:miter;stroke-miterlimit:4;stroke-dasharray:none;stroke-dashoffset:0;stroke-opacity:1;color-rendering:auto;image-rendering:auto;shape-rendering:auto;text-rendering:auto;enable-background:accumulate"
         id="text4630">
        <path
           d="m 104.74565,78.285247 0.0507,3.079709 q 0.004,0.227709 -0.0984,0.237863 -0.10506,0.01041 -0.16758,-0.272499 l -0.55276,-2.525984 0.65815,-0.585106 q 0.0439,-0.03883 0.0702,-0.04143 0.0368,-0.0036 0.0398,0.107452 z"
           style="font-size:5.40560246px;stroke-width:0.20271008px"
           id="path4778" />
        <path
           d="m 105.37298,83.249339 -0.012,0.25317 -0.99814,0.446402 0.012,-0.25317 z"
           style="font-size:5.40560246px;stroke-width:0.20271008px"
           id="path4780" />
        <path
           d="m 103.67186,80.851082 q 0.10566,0.704777 -0.13856,1.12305 -0.35009,0.602288 -1.44902,0.767039 -0.50117,0.07514 -0.8927,-0.07968 -0.542,-0.214997 -0.63435,-0.831024 -0.0708,-0.472461 0.06,-0.935118 0.0543,-0.18963 0.14306,-0.202936 0.0861,-0.01291 0.10374,0.104549 0.0161,0.107022 -0.002,0.32589 -0.0183,0.216258 -0.002,0.32328 0.0516,0.344557 0.47607,0.451742 0.33841,0.08538 0.80043,0.01612 0.38894,-0.05831 0.78597,-0.240603 0.54922,-0.253151 0.50578,-0.542892 -0.0434,-0.289742 -0.78967,-0.83443 l 0.26617,-0.645756 q 0.0294,-0.07113 0.0529,-0.07465 0.0209,-0.0031 0.0813,0.04386 0.19628,0.152063 0.36749,0.457345 0.20409,0.364408 0.26553,0.774222 z m -1.41792,-1.322074 q 0.0386,0.02624 0.008,0.06826 l -0.27737,0.375202 q -0.0288,0.03902 -0.0705,0.01057 l -0.37964,-0.271366 q -0.0446,-0.03067 -0.005,-0.0847 l 0.25883,-0.356409 q 0.0333,-0.04502 0.0809,-0.01213 z"
           style="font-size:5.40560246px;stroke-width:0.20271008px"
           id="path4782" />
        <path
           d="m 98.247781,81.440572 q 0.08968,0.399165 -0.02458,0.75758 -0.144092,0.45439 -0.576736,0.551589 l -0.19057,0.04281 -0.176463,-0.785455 0.159667,-0.03587 q 0.509902,-0.114556 0.476345,-0.263921 -0.02951,-0.131339 -0.582789,-0.450697 l 0.240979,-0.649293 q 0.02049,-0.0533 0.06921,-0.02908 0.249936,0.1251 0.430735,0.436163 0.127911,0.220146 0.174196,0.426167 z m 0.815268,1.810605 q 0.03727,0.02138 0.01131,0.06239 l -0.231616,0.365844 q -0.01398,0.02208 -0.02943,0.02555 -0.01545,0.0035 -0.03753,-0.0105 l -0.353229,-0.22363 -0.22363,0.353229 q -0.02396,0.03785 -0.06438,0.01446 l -0.369837,-0.225309 q -0.04673,-0.02737 -0.01278,-0.08099 l 0.214486,-0.345764 q 0.02995,-0.04731 0.07726,-0.01736 l 0.346921,0.219637 0.219637,-0.346921 q 0.02995,-0.04731 0.07726,-0.01736 z"
           style="font-size:5.40560246px;stroke-width:0.20271008px"
           id="path4784" />
        <path
           d="m 97.646331,77.764003 0.01891,0.25275 -0.936286,0.564736 -0.01891,-0.25275 z"
           style="font-size:5.40560246px;stroke-width:0.20271008px"
           id="path4786" />
        <path
           d="m 97.599354,82.758244 -0.191936,0.04846 q -0.435055,0.109841 -0.720983,-0.34337 -0.02117,0.530745 -0.433194,0.634771 l -0.220086,0.05557 -0.197067,-0.780541 0.140753,-0.03554 q 0.409464,-0.10338 0.386381,-0.66923 -0.0075,-0.180509 0.08467,-0.203769 0.09213,-0.02326 0.155892,0.143033 0.197105,0.521915 0.606569,0.418536 l 0.191936,-0.04846 z m -1.169365,-2.108537 q 0.04102,0.02231 0.01424,0.06718 l -0.239775,0.3981 q -0.02487,0.04167 -0.0691,0.01744 l -0.40128,-0.230805 q -0.04808,-0.02869 -0.01364,-0.08639 l 0.220619,-0.37693 q 0.03061,-0.05128 0.08189,-0.02068 z"
           style="font-size:5.40560246px;stroke-width:0.20271008px"
           id="path4788" />
        <path
           d="m 96.169272,83.093136 -0.192155,0.05759 q -0.197213,0.0591 -0.399194,0.0011 -0.201981,-0.05795 -0.326572,-0.216252 -0.399355,0.552281 -1.044088,0.745494 -0.677601,0.203063 -0.999124,0.01285 -0.07796,0.309927 -0.351021,0.391759 l -0.217439,0.06516 -0.231098,-0.771151 0.141588,-0.04243 q 0.21744,-0.06516 0.27513,-0.231243 0.02935,-0.08595 0.02107,-0.279101 -0.0073,-0.143853 0.05592,-0.162796 0.04298,-0.01288 0.206743,0.202565 0.16553,0.21216 0.291948,0.174275 0.207974,-0.547281 0.58152,-1.020186 0.437783,-0.552775 0.877718,-0.684614 0.214911,-0.06441 0.416876,0.04866 0.204493,0.11231 0.268897,0.327221 0.08562,0.285705 -0.01713,0.641636 0.09074,0.06374 0.222216,0.02434 l 0.187099,-0.05607 z M 95.210837,82.29472 q -0.04622,-0.15423 -0.298011,-0.194501 -0.208561,-0.03394 -0.38049,0.01759 -0.523371,0.156843 -0.788525,0.85352 0.16838,-0.01739 0.481896,-0.111349 0.407067,-0.121989 0.688744,-0.267022 0.334271,-0.171815 0.296386,-0.298233 z"
           style="font-size:5.40560246px;stroke-width:0.20271008px"
           id="path4790" />
        <path
           d="m 93.469546,78.507061 q 0.06213,0.207325 -0.04006,0.408788 0.0364,0.01113 0.145616,0.01698 l -8.31e-4,0.245482 q -0.157253,0.0085 -0.286677,-0.04635 -0.23699,0.349319 -0.52827,0.480697 -0.133492,0.02347 -0.175932,-0.09056 0.373736,-0.260794 0.51436,-0.462751 -0.125628,-0.06981 -0.162755,-0.193704 -0.0341,-0.113776 0.06532,-0.306138 0.09941,-0.192362 0.21066,-0.225701 0.189627,-0.05683 0.258578,0.173254 z m -0.201256,0.0548 q -0.03489,-0.0061 -0.06017,0.0015 -0.04551,0.01364 -0.0875,0.07582 -0.04274,0.05965 -0.02911,0.105162 0.01137,0.03793 0.07102,0.08067 0.05965,0.04274 0.09505,0.03214 0.04551,-0.01364 0.06172,-0.10667 0.01494,-0.07887 -9.73e-4,-0.131969 -0.01591,-0.05309 -0.05004,-0.05664 z"
           style="font-size:5.40560246px;stroke-width:0.20271008px"
           id="path4792" />
        <path
           d="m 92.77886,84.12085 -0.139262,0.04953 q -0.06715,0.02388 -0.127829,-0.005 0.300072,0.812143 -0.02939,1.579261 -0.05182,0.122087 -0.08614,0.159505 -0.04161,0.04842 -0.155119,0.09159 -0.213701,0.08441 -0.57601,0.168459 -0.488586,0.114952 -0.525736,0.0105 -0.03096,-0.08704 0.14217,-0.238264 0.346257,-0.302451 0.569775,-0.564047 0.58004,-0.676954 0.473013,-0.977861 -0.09022,-0.253657 -0.937521,-0.501368 l 0.178095,-0.696473 q 0.01856,-0.07384 0.04094,-0.0818 0.02238,-0.008 0.09583,0.03315 0.538815,0.30981 0.737762,0.239048 l 0.06963,-0.02477 z"
           style="font-size:5.40560246px;stroke-width:0.20271008px"
           id="path4794" />
        <path
           d="m 89.309632,82.221668 -1.708297,1.491738 q 0.116511,0.08382 0.411054,0.311978 0.307359,0.245751 0.425224,0.536893 0.169368,0.418364 0.06652,0.790317 -0.117819,0.426421 -0.565541,0.607675 l -0.205512,0.0832 -0.30209,-0.746204 0.07829,-0.03169 q 0.682593,-0.276338 0.624156,-0.420685 -0.04061,-0.10031 -1.032935,-0.757867 -0.0089,-0.0078 -0.01381,-0.02004 -0.02476,-0.06116 -0.04255,-0.330176 -0.01534,-0.270003 0.01641,-0.297092 l 1.950559,-1.695175 q 0.0127,-0.01084 0.0215,-0.01724 0.06011,-0.04142 0.0928,0.03932 z"
           style="font-size:5.40560246px;stroke-width:0.20271008px"
           id="path4796" />
        <path
           d="m 87.985249,81.271409 q 0.08122,0.200619 -0.0017,0.410744 0.03728,0.0077 0.146565,0.0033 l 0.02209,0.244487 q -0.155767,0.0232 -0.289752,-0.01938 -0.203339,0.369921 -0.48108,0.527921 -0.130718,0.03583 -0.183619,-0.07374 0.347753,-0.29455 0.468907,-0.508755 -0.131598,-0.05778 -0.180131,-0.177661 -0.04457,-0.110095 0.03645,-0.310899 0.08102,-0.200804 0.188667,-0.244384 0.183493,-0.07429 0.273625,0.148353 z m -0.19526,0.07335 q -0.0353,-0.0028 -0.05977,0.0071 -0.04404,0.01783 -0.08003,0.08366 -0.03699,0.06338 -0.01916,0.10742 0.01486,0.0367 0.07824,0.07368 0.06338,0.03699 0.09763,0.02312 0.04404,-0.01783 0.05149,-0.111965 0.0075,-0.07992 -0.01329,-0.131302 -0.0208,-0.05138 -0.05511,-0.05173 z"
           style="font-size:5.40560246px;stroke-width:0.20271008px"
           id="path4798" />
        <path
           d="m 87.864104,85.982786 -0.134214,0.06192 q -0.07669,0.03538 -0.15043,0.01417 0.06211,0.09052 0.114082,0.203167 0.276435,0.599169 -0.183727,0.811471 -0.421815,0.19461 -0.850003,-0.160136 -0.301556,-0.250387 -0.465206,-0.605095 -0.289448,0.153889 -0.37094,0.229275 -0.184925,0.172523 -0.08393,0.378822 l 0.484141,0.980061 q 0.06893,0.136796 0.100791,0.325572 0.04292,0.250535 -0.06254,0.299187 -0.10785,0.04976 -0.277775,-0.255545 l -0.669376,-1.211444 q -0.03575,-0.06489 -0.05566,-0.108035 -0.233312,-0.505699 0.01524,-0.89943 0.18273,-0.290689 0.575785,-0.472031 -0.131583,-0.285204 -0.07167,-0.312848 0.03355,-0.01548 0.245915,0.02898 0.289786,0.06106 0.437998,0.07988 0.34583,0.04393 0.501974,0.03584 0.250714,-0.01103 0.478398,-0.11607 l 0.08388,-0.0387 z m -0.537591,0.233491 q -0.03649,-0.07909 -0.28259,-0.102169 -0.4039,-0.03748 -0.702346,-0.123614 0.121631,0.263635 0.337294,0.428657 0.265247,0.203189 0.507311,0.09151 0.08868,-0.04091 0.133854,-0.125706 0.04628,-0.0824 0.0065,-0.168677 z"
           style="font-size:5.40560246px;stroke-width:0.20271008px"
           id="path4800" />
        <path
           d="m 84.850301,81.390994 q 0.09067,0.196527 0.01782,0.41036 0.03761,0.0059 0.146556,-0.0037 l 0.0337,0.243159 q -0.154488,0.03058 -0.290346,-0.0056 -0.185508,0.379176 -0.455418,0.550212 -0.128865,0.04201 -0.186919,-0.06492 0.333345,-0.310762 0.44417,-0.530488 -0.134198,-0.05145 -0.188379,-0.16889 -0.04976,-0.10785 0.02161,-0.312281 0.07137,-0.204431 0.176826,-0.253084 0.17975,-0.08293 0.280373,0.135167 z m -0.191549,0.08256 q -0.0354,-0.0011 -0.05936,0.0099 -0.04314,0.0199 -0.07596,0.08737 -0.03393,0.06507 -0.01403,0.10821 0.01659,0.03595 0.08166,0.06988 0.06507,0.03393 0.09862,0.01845 0.04314,-0.0199 0.0461,-0.114289 0.0037,-0.08019 -0.01952,-0.130521 -0.02322,-0.05033 -0.05751,-0.04905 z"
           style="font-size:5.40560246px;stroke-width:0.20271008px"
           id="path4802" />
        <path
           d="m 82.298018,85.01065 1.209852,2.832566 q 0.0897,0.209337 -0.0013,0.257421 -0.09335,0.04932 -0.25808,-0.189038 l -1.465693,-2.13023 0.388471,-0.790315 q 0.02598,-0.05253 0.04932,-0.06486 0.03267,-0.01726 0.07746,0.08446 z"
           style="font-size:5.40560246px;stroke-width:0.20271008px"
           id="path4804" />
        <path
           d="m 79.536639,86.26426 q 0.0482,0.08189 0.08343,0.198975 0.04755,0.158838 -0.0048,0.189632 -0.04322,0.02544 -0.106809,-0.05658 -0.120485,-0.152661 -0.142037,-0.173666 -0.04806,-0.04522 -0.152461,-0.118527 -0.07335,-0.05177 -0.102807,-0.101812 -0.03079,-0.05232 0.05376,-0.148026 0.06582,-0.0755 0.129511,-0.112985 0.112309,0.102345 0.242182,0.322987 z m 0.741772,0.396451 q 0.07498,0.127381 0.05334,0.277941 -0.02217,0.160062 -0.147277,0.233701 -0.125106,0.07364 -0.322786,0.0032 -0.0168,0.221219 -0.166928,0.309586 -0.106909,0.06293 -0.243965,-0.0034 -0.125812,-0.05764 -0.191418,-0.169102 -0.147278,-0.250213 -0.02217,-0.323852 0.01592,-0.0094 0.142685,0.09672 0.127699,0.102475 0.164093,0.08105 0.109184,-0.06427 0.106059,-0.230879 -0.0022,-0.170225 0.01601,-0.180936 0.02957,-0.01741 0.14496,0.09538 0.11405,0.110508 0.209586,0.05427 0.13193,-0.07766 0.04222,-0.230058 -0.02678,-0.04549 -0.07658,-0.09888 l 0.09497,-0.150848 q 0.09142,0.05645 0.197191,0.236147 z m 2.017561,0.971678 q 0.285184,0.484503 0.131386,0.847615 -0.09977,0.236364 -0.365903,0.393015 -0.377593,0.222256 -0.968518,-0.07922 0.128089,0.540218 -0.385985,0.842808 -0.477678,0.281168 -1.00523,-0.235252 -0.03422,0.13959 -0.111918,0.335399 -0.04482,0.05394 -0.135803,0.1075 -0.218367,0.128534 -0.467011,0.143191 -0.289862,0.01748 -0.390279,-0.153121 -0.124517,-0.211544 0.0025,-0.516033 0.07302,-0.177741 0.40771,-0.681019 l -0.141102,-0.17728 0.182691,-0.407684 q 0.042,-0.09516 0.06702,-0.109889 0.0364,-0.02142 0.110293,0.0729 0.111517,0.142627 0.399479,0.512172 0.441647,0.557796 0.78967,0.352945 0.316178,-0.186106 0.135428,-0.493186 -0.07766,-0.13193 -0.547117,-0.612099 -0.07764,-0.07987 0.12365,-0.492379 0.04561,-0.09423 0.09942,-0.03402 0.494238,0.548279 0.881076,0.841248 0.294614,0.224745 0.549376,0.07479 0.295706,-0.174056 0.118972,-0.474312 -0.112467,-0.191071 -0.801449,-0.836052 l 0.118022,-0.522756 q 0.008,-0.03841 0.02622,-0.04912 0.02275,-0.01339 0.07442,0.03277 0.717357,0.661969 1.102959,1.317071 z m -2.743774,1.624208 -0.364394,-0.431753 q -0.164956,0.182852 -0.256705,0.380806 -0.07423,0.160076 -0.05548,0.191921 0.03481,0.05914 0.208377,0.03661 0.211169,-0.02629 0.468206,-0.177584 z"
           style="font-size:5.40560246px;stroke-width:0.20271008px"
           id="path4806" />
        <path
           d="m 78.152867,86.542782 q 0.109789,0.186522 0.0586,0.406546 0.03801,0.0021 0.145463,-0.01824 l 0.05775,0.238595 q -0.150675,0.04581 -0.289458,0.02337 -0.14683,0.395764 -0.398367,0.592826 -0.124041,0.05463 -0.192454,-0.04598 0.300744,-0.342411 0.389138,-0.57208 -0.138654,-0.03783 -0.204259,-0.149292 -0.06025,-0.10236 -0.0096,-0.312882 0.05066,-0.210522 0.150746,-0.269433 0.1706,-0.100417 0.292439,0.106577 z m -0.182376,0.101223 q -0.03533,0.0024 -0.05808,0.01581 -0.04094,0.0241 -0.06689,0.0945 -0.02728,0.06812 -0.0032,0.109069 0.02008,0.03412 0.08821,0.0614 0.06813,0.02728 0.09997,0.0085 0.04094,-0.0241 0.03449,-0.118311 -0.0043,-0.08016 -0.03242,-0.127928 -0.02812,-0.04777 -0.06211,-0.04307 z"
           style="font-size:5.40560246px;stroke-width:0.20271008px"
           id="path4808" />
        <path
           d="m 76.836751,90.39997 q 0.376912,0.551244 0.304299,1.038945 -0.07904,0.501686 -0.625924,0.875618 l -0.305037,0.208568 -0.454379,-0.664543 0.505488,-0.345627 q 0.174307,-0.119182 0.335448,-0.299706 0.223992,-0.252275 0.139075,-0.376468 -0.298631,0.255347 -0.431539,0.346223 -0.533814,0.364994 -0.779626,0.0055 -0.184731,-0.270175 -0.25959,-0.66024 -0.09592,-0.500366 0.174256,-0.685097 0.276711,-0.189201 0.638971,-0.07558 0.414421,0.129113 0.758558,0.632423 z m -0.559267,0.0051 q -0.3509,-0.143768 -0.586214,0.01713 -0.08062,0.05512 -0.10369,0.147637 -0.02089,0.09103 0.03423,0.171643 0.07896,0.115478 0.366564,-0.08117 0.16777,-0.114712 0.289114,-0.255235 z m -0.854662,-1.27335 q 0.04769,0.009 0.03873,0.05665 l -0.08613,0.458575 q -0.009,0.04769 -0.05883,0.04022 l -0.459953,-0.07879 q -0.05354,-0.0082 -0.04114,-0.07419 l 0.07546,-0.432094 q 0.0088,-0.05721 0.06972,-0.04767 z"
           style="font-size:5.40560246px;stroke-width:0.20271008px"
           id="path4810" />
        <path
           d="m 75.113827,88.441312 0.111024,0.227845 -0.66112,0.870907 -0.111025,-0.227846 z"
           style="font-size:5.40560246px;stroke-width:0.20271008px"
           id="path4812" />
        <path
           d="m 76.320363,92.424498 -0.178027,0.132149 Q 75.709983,92.87758 75.043426,91.988469 74.9569,91.871903 74.842603,91.713496 L 74.643899,91.43695 q -0.01573,-0.02119 -0.08447,-0.104941 0.177973,0.518748 0.305277,1.035662 0.169738,0.689218 0.126917,0.914946 -0.03415,0.179844 -0.367151,0.479625 -0.206803,0.18638 -0.342443,0.287065 -0.279757,0.207662 -0.334819,0.133484 -0.04405,-0.05934 0.05875,-0.244126 0.07457,-0.134244 0.293276,-0.592432 0.273655,-0.574582 0.188352,-0.724927 -0.05076,-0.09052 -0.273494,-0.204594 -0.366485,-0.188162 -0.875841,-0.201241 -0.295056,-0.0078 -0.905661,0.06414 -0.06708,0.0071 -0.107916,-0.06124 -0.157605,-0.261033 -0.321984,-0.540049 -0.04658,-0.08047 -0.01903,-0.100923 0.01907,-0.01416 0.09668,-0.01589 0.386474,-0.01076 0.854619,-0.203761 0.142829,-0.06 0.174293,-0.01761 0.03933,0.05299 -0.101267,0.301984 0.409045,0.01522 0.835638,0.217935 0.428713,0.201139 0.706469,0.504472 -0.03377,-0.855889 -0.790137,-2.158261 -0.089,-0.150891 -0.0042,-0.213819 0.0763,-0.05663 0.178075,0.07162 l 1.080284,1.344623 q 0.277014,0.346616 0.395397,0.426386 0.183079,0.127074 0.371703,-0.01294 l 0.05934,-0.04405 z"
           style="font-size:5.40560246px;stroke-width:0.20271008px"
           id="path4814" />
        <path
           d="m 72.202166,94.740344 q 0.207202,0.62014 0.114571,0.698633 -0.479264,0.406114 -0.79742,0.471592 -0.03776,0.298391 -0.335792,0.550932 l -0.289975,0.245717 -0.52044,-0.614183 0.255741,-0.216708 q -0.161192,0.0017 -0.268693,-0.1252 -0.179168,-0.21144 -0.219316,-0.65485 -0.06014,-0.654807 0.268098,-0.932944 0.418853,-0.354924 0.983033,-0.134147 0.123409,0.04765 0.171187,0.104034 0.06826,0.08055 -0.02236,0.157335 -0.05034,0.04266 -0.160514,0.08412 -0.264814,0.09985 -0.611173,0.393343 -0.42288,0.358337 -0.238593,0.575818 0.218415,0.257755 0.902082,-0.197017 0.34284,-0.22824 0.573293,-0.478874 0.02881,-0.03133 0.04492,-0.04498 0.0584,-0.04948 0.09423,-0.0072 0.0256,0.03021 0.05713,0.124574 z m -2.015913,-1.395068 q 0.04666,0.002 0.04235,0.05406 l -0.03842,0.46501 q -0.004,0.04836 -0.05437,0.04607 l -0.463611,-0.03269 q -0.0558,-0.0046 -0.05027,-0.07157 l 0.03224,-0.435556 q 0.0049,-0.05952 0.06444,-0.0546 z"
           style="font-size:5.40560246px;stroke-width:0.20271008px"
           id="path4816" />
        <path
           d="m 71.00469,96.618193 -0.192132,0.173187 q -0.519538,0.468313 -1.274141,-0.36883 -0.600855,-0.666578 -1.31611,-1.361515 l 0.130611,-0.572581 q 0.02424,-0.107138 0.04581,-0.126578 0.02745,-0.02474 0.115808,0.07328 l 1.408281,1.566265 q 0.252712,0.280355 0.487975,0.06829 l 0.0549,-0.04948 z"
           style="font-size:5.40560246px;stroke-width:0.20271008px"
           id="path4818" />
        <path
           d="m 68.149615,95.776617 q 0.02951,0.01209 0.04037,0.02362 0.02895,0.03075 -0.03447,0.09045 -0.04036,0.03799 -0.120401,0.09159 l 1.04753,1.11275 q 0.251479,0.267137 0.299567,0.591619 0.05431,0.365748 -0.203217,0.608182 l -0.136451,0.128453 -0.551808,-0.586163 0.144139,-0.13569 q 0.242153,-0.22796 0.07571,-0.40477 -0.133881,-0.142217 -0.526127,-0.447214 -0.485303,-0.376893 -0.920055,-0.634625 l -0.004,-0.670456 q -0.0014,-0.07847 0.02362,-0.101985 0.02498,-0.02352 0.107975,0.01073 z"
           style="font-size:5.40560246px;stroke-width:0.20271008px"
           id="path4820" />
        <path
           d="m 71.046495,98.90392 0.144968,0.207904 -0.51828,0.962776 -0.144969,-0.207901 z"
           style="font-size:5.40560246px;stroke-width:0.20271008px"
           id="path4822" />
        <path
           d="m 69.10379,98.276725 -0.13254,0.139852 q -0.230584,0.243305 -0.520218,0.234277 -0.201797,-0.0058 -0.373016,-0.124414 0.06042,0.511816 -0.05866,0.944434 -0.209097,0.765506 -0.953502,1.550976 -0.987697,1.04219 -1.82298,0.25058 -0.264379,-0.25056 -0.362648,-0.57279 -0.02046,-0.0667 0.02311,-0.11264 0.0581,-0.0613 0.150058,0.0258 0.03257,0.0309 0.08671,0.10036 0.05223,0.0677 0.0848,0.0986 0.39082,0.37039 0.954138,-0.0667 0.151799,-0.11796 0.464085,-0.44748 1.051244,-1.109241 1.015046,-2.249036 -0.0042,-0.156719 0.04481,-0.208446 0.03994,-0.04215 0.102464,-0.0084 0.04739,0.02673 0.08288,0.09673 0.04143,0.0829 0.07017,0.11014 0.136021,0.128909 0.402917,-0.152712 l 0.156143,-0.164758 z m -0.885585,2.411725 q 0.04851,-0.001 0.04991,0.0509 l 0.01242,0.46269 q 0.0013,0.0485 -0.04902,0.0517 l -0.466225,0.02 q -0.05406,0.003 -0.05586,-0.0638 l -0.01545,-0.43648 q -0.0034,-0.0578 0.0581,-0.0613 z"
           style="font-size:5.40560246px;stroke-width:0.20271008px"
           id="path4824" />
        <path
           d="m 64.03122,96.058543 0.156581,0.199305 -0.46257,0.990751 -0.156582,-0.199305 z"
           style="font-size:5.40560246px;stroke-width:0.20271008px"
           id="path4826" />
        <path
           d="m 62.725884,101.52654 q 0.03093,0.008 0.04331,0.0177 0.03302,0.0263 -0.0213,0.0944 -0.03456,0.0433 -0.106195,0.10774 l 1.194733,0.95296 q 0.286818,0.22878 0.380432,0.54317 0.105625,0.35435 -0.114923,0.63085 l -0.116858,0.1465 -0.62935,-0.50199 0.123442,-0.15476 q 0.207381,-0.25999 0.01754,-0.41141 -0.152695,-0.1218 -0.584226,-0.36809 -0.533843,-0.30427 -1.000748,-0.49775 l -0.09906,-0.66311 q -0.01248,-0.0775 0.0089,-0.1043 0.0214,-0.0268 0.108406,-0.005 z"
           style="font-size:5.40560246px;stroke-width:0.20271008px"
           id="path4828" />
        <path
           d="m 61.381825,100.49836 0.172985,0.18524 -0.376521,1.02655 -0.172985,-0.18525 z"
           style="font-size:5.40560246px;stroke-width:0.20271008px"
           id="path4830" />
        <path
           d="m 64.063908,103.89423 -0.222305,0.30176 q -0.28023,0.38038 -0.560595,0.49839 -0.230376,0.0991 -0.642387,0.071 0.187908,0.24334 0.200902,0.466 0.01736,0.30129 -0.256606,0.67318 l -0.08454,0.11475 -0.64814,-0.47749 0.04697,-0.0638 q 0.436783,-0.59289 0.311405,-0.68526 -0.08713,-0.0642 -1.180228,-0.10233 -0.01163,-0.002 -0.03501,-0.0192 -0.07225,-0.0532 -0.25188,-0.2544 -0.195623,-0.21952 -0.182766,-0.25922 l 0.711091,-2.15786 q 0.0051,-0.0159 0.01241,-0.0302 0.02907,-0.0573 0.09495,-0.009 l 0.39526,0.29119 -0.609682,1.85555 q 1.113571,0.086 1.228092,0.0819 0.469156,-0.0183 0.68833,-0.31578 l 0.336589,-0.45689 z"
           style="font-size:5.40560246px;stroke-width:0.20271008px"
           id="path4832" />
        <path
           d="m 60.025274,101.84674 q 0.174254,0.12838 0.213641,0.35082 0.03579,-0.013 0.126593,-0.0739 l 0.14686,0.19671 q -0.120551,0.10134 -0.256989,0.13523 0.0205,0.42163 -0.133359,0.70168 -0.09259,0.099 -0.195041,0.0333 0.141994,-0.43305 0.133025,-0.67898 -0.142367,0.0197 -0.246495,-0.057 -0.09563,-0.0704 -0.131769,-0.28394 -0.03614,-0.2135 0.03274,-0.307 0.117415,-0.15938 0.310794,-0.0169 z m -0.127927,0.16475 q -0.03154,0.0161 -0.04719,0.0374 -0.02818,0.0383 -0.02437,0.11318 0.0017,0.0734 0.03993,0.10155 0.03188,0.0235 0.105241,0.0218 0.07336,-0.002 0.09528,-0.0314 0.02818,-0.0383 -0.01477,-0.12235 -0.03546,-0.072 -0.08009,-0.1049 -0.04463,-0.0329 -0.07404,-0.0152 z"
           style="font-size:5.40560246px;stroke-width:0.20271008px"
           id="path4834" />
        <path
           d="m 62.568735,105.89371 -0.07974,0.12446 q -0.04557,0.0711 -0.119118,0.093 0.101086,0.0428 0.20554,0.10975 0.555603,0.35599 0.282208,0.78269 -0.250613,0.39115 -0.80245,0.32284 -0.388935,-0.0486 -0.717853,-0.25932 -0.161011,0.28555 -0.189077,0.39296 -0.06291,0.24496 0.133292,0.36439 l 0.935743,0.56507 q 0.131748,0.0781 0.260262,0.22004 0.171086,0.18799 0.108433,0.28577 -0.06408,0.10001 -0.371675,-0.0657 l -1.216432,-0.66027 q -0.06508,-0.0354 -0.105079,-0.0611 -0.46893,-0.30045 -0.471539,-0.76606 -0.0026,-0.34334 0.230943,-0.70782 -0.264467,-0.16945 -0.228869,-0.22501 0.01993,-0.0311 0.222814,-0.10802 0.277056,-0.10461 0.412077,-0.16857 0.31505,-0.14924 0.442259,-0.24014 0.205314,-0.14431 0.340588,-0.35544 l 0.04984,-0.0778 z m -0.327226,0.48626 q -0.07334,-0.047 -0.293132,0.0661 -0.36051,0.18594 -0.658366,0.27409 0.244466,0.15663 0.515054,0.17954 0.332923,0.0284 0.476741,-0.19611 0.05268,-0.0822 0.04509,-0.17801 -0.0054,-0.0944 -0.08538,-0.14561 z"
           style="font-size:5.40560246px;stroke-width:0.20271008px"
           id="path4836" />
      </g>
      <path
         sodipodi:nodetypes="cc"
         inkscape:connector-curvature="0"
         id="path4632"
         d="M 58.775296,112.73661 C 65.297404,97.398999 85.244288,83.253192 105.07738,81.553571"
         style="fill:none;fill-rule:evenodd;stroke:none;stroke-width:0.26458332px;stroke-linecap:butt;stroke-linejoin:miter;stroke-opacity:1" />
      <g
         transform="translate(-0.09449551)"
         id="g4715">
        <path
           style="fill:#000000;fill-rule:evenodd;stroke:#000000;stroke-width:0.26458332px;stroke-linecap:butt;stroke-linejoin:miter;stroke-opacity:1"
           d="m 182.38715,173.77957 -2.54454,0.93379 1.03249,2.46807 -54.42872,23.62388 -0.7555,3.02359 c -6.90145,2.91083 -14.67583,6.29495 -18.30793,9.8578 -1.42003,1.39296 -2.72233,2.79622 -2.97501,4.44985 -0.54653,3.57671 -1.02775,7.19919 -1.03663,10.35544 -0.41313,3.39161 1.04869,3.55852 2.9502,1.33946 1.40295,-1.66382 2.21849,-3.96448 3.15795,-6.16914 1.08521,-2.54668 4.18706,-3.88204 7.57318,-5.87147 4.39091,-3.01688 8.24549,-7.1061 13.17387,-9.04803 0.45592,0.61129 0.92604,1.20461 2.07895,0.94465 l -0.69091,5.25032 c -0.34338,2.05251 -0.48736,2.18675 1.58853,2.21899 0.74109,0.007 1.29538,-0.15389 1.76837,-0.38809 1.43516,-0.60543 1.36505,-1.39671 1.53324,-2.87683 l 0.71416,-6.28334 12.09539,-5.66942 c 1.57127,2.61114 2.60037,5.17263 7.9375,8.12612 l 5.4808,-5.10253 c -4.21475,-2.22669 -7.02922,-4.8453 -6.80372,-8.31525 l 8.00432,-3.68045 0.31094,-1.98949 13.49537,-6.32628 1.06269,-1.798 -19.45884,9.10665 c -0.30213,0.14193 -0.56228,-0.642 -0.26015,-0.78393 l 20.46568,-9.57435 c 0.02,-0.0101 3.97321,-1.77009 6.21773,-2.76925 1.51384,-0.70502 1.69706,-0.23914 1.06657,-1.7202 l -0.34273,-0.80511 c -0.59358,-1.58454 -0.48486,-1.2155 -1.97436,-0.63016 l -1.17235,0.46071 z"
           id="path4564"
           inkscape:connector-curvature="0"
           sodipodi:nodetypes="cccccccccsccccccccccccccccccccccccc" />
        <path
           sodipodi:nodetypes="cccccccccsccccccccccccccccccccccccc"
           inkscape:connector-curvature="0"
           id="path4711"
           d="m 38.917907,173.77957 2.54454,0.93379 -1.03249,2.46807 54.42872,23.62388 0.7555,3.02359 c 6.901453,2.91083 14.675833,6.29495 18.307933,9.8578 1.42003,1.39296 2.72233,2.79622 2.97501,4.44985 0.54653,3.57671 1.02775,7.19919 1.03663,10.35544 0.41313,3.39161 -1.04869,3.55852 -2.9502,1.33946 -1.40295,-1.66382 -2.21849,-3.96448 -3.15795,-6.16914 -1.08521,-2.54668 -4.18706,-3.88204 -7.57318,-5.87147 -4.390913,-3.01688 -8.245493,-7.1061 -13.173873,-9.04803 -0.45592,0.61129 -0.92604,1.20461 -2.07895,0.94465 l 0.69091,5.25032 c 0.34338,2.05251 0.48736,2.18675 -1.58853,2.21899 -0.74109,0.007 -1.29538,-0.15389 -1.76837,-0.38809 -1.43516,-0.60543 -1.36505,-1.39671 -1.53324,-2.87683 l -0.71416,-6.28334 -12.09539,-5.66942 c -1.57127,2.61114 -2.60037,5.17263 -7.9375,8.12612 l -5.4808,-5.10253 c 4.21475,-2.22669 7.02922,-4.8453 6.80372,-8.31525 l -8.00432,-3.68045 -0.31094,-1.98949 -13.49537,-6.32628 -1.06269,-1.798 19.45884,9.10665 c 0.30213,0.14193 0.56228,-0.642 0.26015,-0.78393 l -20.46568,-9.57435 c -0.02,-0.0101 -3.97321,-1.77009 -6.21773,-2.76925 -1.51384,-0.70502 -1.69706,-0.23914 -1.06657,-1.7202 l 0.34273,-0.80511 c 0.59358,-1.58454 0.48486,-1.2155 1.97436,-0.63016 l 1.17235,0.46071 z"
           style="fill:#000000;fill-rule:evenodd;stroke:#000000;stroke-width:0.26458332px;stroke-linecap:butt;stroke-linejoin:miter;stroke-opacity:1" />
      </g>
      <g
         aria-label="1434"
         style="color:#000000;font-style:normal;font-variant:normal;font-weight:bold;font-stretch:normal;font-size:6.58392572px;line-height:125%;font-family:'B Zar';-inkscape-font-specification:'B Zar Bold';text-indent:0;text-align:end;text-decoration:none;text-decoration-line:none;text-decoration-style:solid;text-decoration-color:#000000;letter-spacing:0px;word-spacing:0px;text-transform:none;writing-mode:lr-tb;direction:ltr;baseline-shift:baseline;text-anchor:end;white-space:normal;clip-rule:nonzero;display:inline;overflow:visible;visibility:visible;opacity:1;isolation:auto;mix-blend-mode:normal;color-interpolation:sRGB;color-interpolation-filters:linearRGB;solid-color:#000000;solid-opacity:1;fill:#faea00;fill-opacity:1;fill-rule:nonzero;stroke:none;stroke-width:0.08778567px;stroke-linecap:butt;stroke-linejoin:miter;stroke-miterlimit:4;stroke-dasharray:none;stroke-dashoffset:0;stroke-opacity:1;color-rendering:auto;image-rendering:auto;shape-rendering:auto;text-rendering:auto;enable-background:accumulate"
         id="text4639">
        <path
           d="m 105.99461,215.64954 q 0,0.54331 -0.0964,0.97087 -0.10609,0.47258 -0.27004,0.47258 -0.10288,0 -0.1286,-0.21218 -0.01,-0.0804 -0.01,-0.37934 0,-1.65241 -0.83264,-2.84189 0.0932,-0.15431 0.50794,-0.78763 0.18968,0.12859 0.45008,0.74905 0.37934,0.90015 0.37934,2.02854 z"
           style="font-style:normal;font-variant:normal;font-weight:bold;font-stretch:normal;font-family:'B Nazanin';-inkscape-font-specification:'B Nazanin Bold';fill:#faea00;fill-opacity:1;stroke-width:0.08778567px"
           id="path4589" />
        <path
           d="m 109.43767,213.91676 q 0,0.30541 -0.31183,0.62046 -0.35685,0.36327 -0.85193,0.36327 -0.1093,0 -0.22182,-0.0193 0.12216,0.68797 0.12216,0.85836 0,0.41792 -0.0418,0.77155 -0.0739,0.6301 -0.25718,0.6301 -0.15753,0 -0.18325,-0.434 -0.0514,-0.8037 -0.11573,-1.13482 -0.19932,-1.01267 -0.76191,-1.74243 0.14788,-0.27969 0.47579,-0.83906 0.1736,0.14145 0.44043,0.57223 0.33434,-0.64296 0.90658,-0.64296 0.24111,0 0.44685,0.19289 0.17039,0.16074 0.17039,0.24754 0,0.13181 -0.0836,0.13181 -0.0739,0 -0.25718,-0.0547 -0.18324,-0.0547 -0.2829,-0.0547 -0.26683,0 -0.41471,0.17039 -0.11574,0.13502 -0.11574,0.29898 0,0.0386 0.0129,0.0739 0.10931,0.29897 0.54652,0.29897 0.29576,0 0.52723,-0.19289 0.20253,-0.17038 0.21861,-0.17038 0.0321,0 0.0321,0.0547 z"
           style="font-style:normal;font-variant:normal;font-weight:bold;font-stretch:normal;font-family:'B Nazanin';-inkscape-font-specification:'B Nazanin Bold';fill:#faea00;fill-opacity:1;stroke-width:0.08778567px"
           id="path4591" />
        <path
           d="m 113.12827,213.13878 q 0,0.3697 -0.15431,0.7169 -0.1961,0.44364 -0.53366,0.44364 -0.18003,0 -0.27004,-0.0386 -0.0868,-0.0418 -0.19932,-0.18003 -0.21218,0.31826 -0.58831,0.33434 0.21539,0.63974 0.21539,1.55918 0,0.41471 -0.0643,0.7169 -0.0836,0.39221 -0.2379,0.39221 -0.12538,0 -0.15752,-0.31184 -0.01,-0.20575 -0.0161,-0.41149 -0.0354,-0.45972 -0.19932,-1.06089 -0.26361,-0.97087 -0.81013,-1.63634 l 0.47258,-0.83263 q 0.0804,0.0643 0.20253,0.27326 0.13181,0.22182 0.20575,0.29254 0.14788,0.14467 0.33434,0.14467 0.24754,0 0.35363,-0.17682 0.045,-0.0739 0.0997,-0.32469 0.0386,-0.17682 0.13502,-0.17682 0.12859,0 0.16074,0.16075 0.0547,0.27968 0.0611,0.29254 0.0772,0.16074 0.31184,0.16074 0.18324,0 0.27969,-0.16395 0.0354,-0.0579 0.1093,-0.29898 0.0514,-0.16395 0.12538,-0.16395 0.16395,0 0.16395,0.28933 z"
           style="font-style:normal;font-variant:normal;font-weight:bold;font-stretch:normal;font-family:'B Nazanin';-inkscape-font-specification:'B Nazanin Bold';fill:#faea00;fill-opacity:1;stroke-width:0.08778567px"
           id="path4593" />
        <path
           d="m 116.45881,213.91676 q 0,0.30541 -0.31183,0.62046 -0.35685,0.36327 -0.85193,0.36327 -0.1093,0 -0.22182,-0.0193 0.12216,0.68797 0.12216,0.85836 0,0.41792 -0.0418,0.77155 -0.0739,0.6301 -0.25718,0.6301 -0.15753,0 -0.18325,-0.434 -0.0514,-0.8037 -0.11573,-1.13482 -0.19932,-1.01267 -0.76191,-1.74243 0.14788,-0.27969 0.47579,-0.83906 0.1736,0.14145 0.44043,0.57223 0.33434,-0.64296 0.90658,-0.64296 0.24111,0 0.44685,0.19289 0.17039,0.16074 0.17039,0.24754 0,0.13181 -0.0836,0.13181 -0.0739,0 -0.25718,-0.0547 -0.18324,-0.0547 -0.2829,-0.0547 -0.26683,0 -0.41471,0.17039 -0.11574,0.13502 -0.11574,0.29898 0,0.0386 0.0129,0.0739 0.10931,0.29897 0.54652,0.29897 0.29576,0 0.52723,-0.19289 0.20253,-0.17038 0.2186,-0.17038 0.0322,0 0.0322,0.0547 z"
           style="font-style:normal;font-variant:normal;font-weight:bold;font-stretch:normal;font-family:'B Nazanin';-inkscape-font-specification:'B Nazanin Bold';fill:#faea00;fill-opacity:1;stroke-width:0.08778567px"
           id="path4595" />
      </g>
      <path
         inkscape:connector-curvature="0"
         id="path4717"
         d="m 107.67611,182.34135 a 3.1738255,3.1738255 0 0 0 -3.17396,3.17396 3.1738255,3.1738255 0 0 0 3.17396,3.17345 3.1738255,3.1738255 0 0 0 2.83859,-1.76216 3.1738255,3.1738255 0 0 0 2.84117,1.76216 3.1738255,3.1738255 0 0 0 3.17345,-3.17345 3.1738255,3.1738255 0 0 0 -3.17345,-3.17396 3.1738255,3.1738255 0 0 0 -2.83859,1.76216 3.1738255,3.1738255 0 0 0 -2.84117,-1.76216 z"
         style="opacity:1;fill:#000000;fill-opacity:1;fill-rule:evenodd;stroke:none;stroke-width:0.91566265;stroke-linecap:round;stroke-linejoin:round;stroke-miterlimit:4;stroke-dasharray:none;stroke-dashoffset:0;stroke-opacity:1;paint-order:stroke fill markers" />
      <circle
         r="3.2127976"
         cy="117.08332"
         cx="99.407738"
         id="path4722"
         style="opacity:1;fill:#000000;fill-opacity:1;fill-rule:evenodd;stroke:none;stroke-width:0.80000001;stroke-linecap:round;stroke-linejoin:round;stroke-miterlimit:4;stroke-dasharray:none;stroke-dashoffset:0;stroke-opacity:1;paint-order:stroke fill markers" />
      <circle
         style="opacity:1;fill:#000000;fill-opacity:1;fill-rule:evenodd;stroke:none;stroke-width:0.80000001;stroke-linecap:round;stroke-linejoin:round;stroke-miterlimit:4;stroke-dasharray:none;stroke-dashoffset:0;stroke-opacity:1;paint-order:stroke fill markers"
         id="circle4724"
         cx="134.08705"
         cy="160.3616"
         r="3.2127976" />
    </g>
  </g>
</svg>
