<?xml version="1.0" encoding="utf-8"?>
<!-- Generator: Adobe Illustrator 15.0.2, SVG Export Plug-In . SVG Version: 6.00 Build 0)  -->
<!DOCTYPE svg PUBLIC "-//W3C//DTD SVG 1.1//EN" "http://www.w3.org/Graphics/SVG/1.1/DTD/svg11.dtd">
<svg version="1.1"
	 id="svg2" xmlns:rdf="http://www.w3.org/1999/02/22-rdf-syntax-ns#" xmlns:dc="http://purl.org/dc/elements/1.1/" xmlns:cc="http://creativecommons.org/ns#" xmlns:svg="http://www.w3.org/2000/svg"
	 xmlns="http://www.w3.org/2000/svg" xmlns:xlink="http://www.w3.org/1999/xlink" x="0px" y="0px" width="288.406px"
	 height="236.135px" viewBox="0 0 288.406 236.135" enable-background="new 0 0 288.406 236.135" xml:space="preserve">
<g id="layer1" transform="translate(67.90625,9.482594)">
	
		<linearGradient id="path4120_1_" gradientUnits="userSpaceOnUse" x1="214.6196" y1="325.6243" x2="295.9746" y2="375.8937" gradientTransform="matrix(1.0979 0 0 -1.0979 -210.1219 560.5248)">
		<stop  offset="0" style="stop-color:#FFFF00"/>
		<stop  offset="0.0313" style="stop-color:#C5C505;stop-opacity:0.9843"/>
		<stop  offset="0.1394" style="stop-color:#8B8B0A;stop-opacity:0.9686"/>
		<stop  offset="0.2605" style="stop-color:#F2F27E;stop-opacity:0.9373"/>
		<stop  offset="0.3799" style="stop-color:#81560A;stop-opacity:0.9732"/>
		<stop  offset="0.5526" style="stop-color:#FFD000"/>
		<stop  offset="0.7109" style="stop-color:#453E0A"/>
		<stop  offset="0.8784" style="stop-color:#BFBF03"/>
		<stop  offset="1" style="stop-color:#1F1F07"/>
	</linearGradient>
	<path id="path4120" fill="url(#path4120_1_)" d="M129.94,172.271c0,30.195-24.478,54.673-54.673,54.673
		c-30.195,0-54.673-24.478-54.673-54.673c0-30.196,24.478-54.673,54.673-54.673C105.462,117.598,129.94,142.076,129.94,172.271z"/>
	
		<linearGradient id="path4108_1_" gradientUnits="userSpaceOnUse" x1="78.2666" y1="393.3162" x2="176.6743" y2="393.3162" gradientTransform="matrix(1.0825 0 0 -1.0825 -152.0103 562.0137)">
		<stop  offset="0" style="stop-color:#FFFF00"/>
		<stop  offset="0.0313" style="stop-color:#C5C505;stop-opacity:0.9843"/>
		<stop  offset="0.1394" style="stop-color:#8B8B0A;stop-opacity:0.9686"/>
		<stop  offset="0.2605" style="stop-color:#F2F27E;stop-opacity:0.9373"/>
		<stop  offset="0.3799" style="stop-color:#81560A;stop-opacity:0.9732"/>
		<stop  offset="0.5526" style="stop-color:#FFD000"/>
		<stop  offset="0.7109" style="stop-color:#453E0A"/>
		<stop  offset="0.8784" style="stop-color:#BFBF03"/>
		<stop  offset="1" style="stop-color:#1F1F07"/>
	</linearGradient>
	<path id="path4108" fill="url(#path4108_1_)" d="M-67.285,58.062c0.021,11.127,0.296,22.479,3.507,33.191
		c2.167,6.109,6.154,11.382,10.052,16.527c8.871,11.212,20.449,20.088,33.418,26.066c10.973,5.481,22.001,10.859,33.013,16.265
		c-0.298,11.854-0.531,23.926,2.214,35.522c2.523,9.271,7.046,18.195,14.017,24.877c2.995,2.577,6.223,5.275,10.308,5.767
		c-11.907-10.107-19.541-25.012-20.503-40.615c-0.968-13.266,2.679-26.728,10.275-37.631C9.362,125.754-10.158,113.235-28.31,98.841
		c-14.555-11.903-27.146-26.036-38.003-41.372C-67.324,56.262-67.265,55.121-67.285,58.062z"/>
	
		<linearGradient id="path4110_1_" gradientUnits="userSpaceOnUse" x1="87.2803" y1="371.8885" x2="159.6284" y2="371.8885" gradientTransform="matrix(1.0825 0 0 -1.0825 -152.0103 562.0137)">
		<stop  offset="0" style="stop-color:#FFFF00"/>
		<stop  offset="0.0313" style="stop-color:#C5C505;stop-opacity:0.9843"/>
		<stop  offset="0.1394" style="stop-color:#8B8B0A;stop-opacity:0.9686"/>
		<stop  offset="0.2605" style="stop-color:#F2F27E;stop-opacity:0.9373"/>
		<stop  offset="0.3799" style="stop-color:#81560A;stop-opacity:0.9732"/>
		<stop  offset="0.5526" style="stop-color:#FFD000"/>
		<stop  offset="0.7109" style="stop-color:#453E0A"/>
		<stop  offset="0.8784" style="stop-color:#BFBF03"/>
		<stop  offset="1" style="stop-color:#1F1F07"/>
	</linearGradient>
	<path id="path4110" fill="url(#path4110_1_)" d="M-57.332,115.471c3.038,16.806,14.305,31.461,28.729,40.269
		c9.873,5.991,21.176,9.68,32.657,10.947c0.008,13.998,6.492,27.258,15.538,37.658c1.95,1.646,1.145-0.937,0.225-1.816
		c-3.997-6.293-6.748-13.415-8.542-20.618c-2.064-10.007-2.014-20.429-0.902-30.585c-12.528-5.214-25.19-10.202-37.353-16.172
		c-10.729-6.231-20.622-13.778-30.547-21.164C-57.462,114.484-57.397,114.977-57.332,115.471z"/>
	
		<linearGradient id="path4112_1_" gradientUnits="userSpaceOnUse" x1="105.624" y1="356.6736" x2="149.6113" y2="356.6736" gradientTransform="matrix(1.0825 0 0 -1.0825 -152.0103 562.0137)">
		<stop  offset="0" style="stop-color:#FFFF00"/>
		<stop  offset="0.0313" style="stop-color:#C5C505;stop-opacity:0.9843"/>
		<stop  offset="0.1394" style="stop-color:#8B8B0A;stop-opacity:0.9686"/>
		<stop  offset="0.2605" style="stop-color:#F2F27E;stop-opacity:0.9373"/>
		<stop  offset="0.3799" style="stop-color:#81560A;stop-opacity:0.9732"/>
		<stop  offset="0.5526" style="stop-color:#FFD000"/>
		<stop  offset="0.7109" style="stop-color:#453E0A"/>
		<stop  offset="0.8784" style="stop-color:#BFBF03"/>
		<stop  offset="1" style="stop-color:#1F1F07"/>
	</linearGradient>
	<path id="path4112" fill="url(#path4112_1_)" d="M-36.769,159.781c5.811,9.807,15.768,16.928,26.861,19.647
		c3.377,0.924,6.839,1.595,10.298,2.042c2.218,4.29,5.432,7.98,8.538,11.667c2.049,1.933,0.467-1.769-0.104-2.596
		c-3.234-6.607-6.065-13.61-6.515-21.023c-10.139-1.28-20.338-2.905-29.759-7.013c-3.45-1.359-6.855-2.825-10.22-4.38
		C-37.37,158.677-37.069,159.229-36.769,159.781L-36.769,159.781z"/>
	
		<linearGradient id="path4094_1_" gradientUnits="userSpaceOnUse" x1="166.7881" y1="429.2381" x2="237.3721" y2="429.2381" gradientTransform="matrix(1.0825 0 0 -1.0825 -152.0103 562.0137)">
		<stop  offset="0" style="stop-color:#FFFF00"/>
		<stop  offset="0.0313" style="stop-color:#C5C505;stop-opacity:0.9843"/>
		<stop  offset="0.1394" style="stop-color:#8B8B0A;stop-opacity:0.9686"/>
		<stop  offset="0.2605" style="stop-color:#F2F27E;stop-opacity:0.9373"/>
		<stop  offset="0.3799" style="stop-color:#81560A;stop-opacity:0.9732"/>
		<stop  offset="0.5526" style="stop-color:#FFD000"/>
		<stop  offset="0.7109" style="stop-color:#453E0A"/>
		<stop  offset="0.8784" style="stop-color:#BFBF03"/>
		<stop  offset="1" style="stop-color:#1F1F07"/>
	</linearGradient>
	<path id="path4094" fill="url(#path4094_1_)" d="M36.255,73.972c-3.294-0.008-7.229,1.743-7.602,5.398
		c-0.374,2.807,0.158,5.735,2.055,7.922c0.703,2.046,1.568,0.604,2.569-0.417c1.853-1.812,4.491-3.134,7.112-2.126
		c1.75,0.458,3.44,1.108,5.104,1.813c-2.584,0.825-5.308,0.583-7.964,0.382c0.195,2.919,3.801,3.256,6.044,3.635
		c3.131,0.66,6.58,0.743,9.346,2.419c4.03,4.484,7.608,9.493,10.168,14.959c1.155,4.11,0.944,8.52,0.892,12.785
		c7.007-0.11,14.016-0.222,21.023-0.333c0.03-3.709-0.047-7.705,2.364-10.755c1.037-1.715,2.649-3.771,4.924-2.94
		c2.795,0.56,4.496,3.006,6.427,4.859C97.371,104.349,93,97.947,86.977,93.826c-1.215-1.065-3.25-2.245-4.158-3.092
		c5.068-1.089,10.537-0.916,15.233,1.46c2.446,1.065,4.706,2.486,6.897,4.016c-3.428-9.495-12.681-16.242-22.679-17.193
		c-8.676-1.039-17.688,0.353-25.521,4.174c2.661,2.414,5.62,4.482,7.818,7.318c-6.392-4.38-12.578-9.107-19.006-13.353
		C42.727,75.545,39.618,73.88,36.255,73.972L36.255,73.972z"/>
	
		<linearGradient id="path4096_1_" gradientUnits="userSpaceOnUse" x1="179.4546" y1="453.5721" x2="214.6953" y2="453.5721" gradientTransform="matrix(1.0825 0 0 -1.0825 -152.0103 562.0137)">
		<stop  offset="0" style="stop-color:#FFFF00"/>
		<stop  offset="0.0313" style="stop-color:#C5C505;stop-opacity:0.9843"/>
		<stop  offset="0.1394" style="stop-color:#8B8B0A;stop-opacity:0.9686"/>
		<stop  offset="0.2605" style="stop-color:#F2F27E;stop-opacity:0.9373"/>
		<stop  offset="0.3799" style="stop-color:#81560A;stop-opacity:0.9732"/>
		<stop  offset="0.5526" style="stop-color:#FFD000"/>
		<stop  offset="0.7109" style="stop-color:#453E0A"/>
		<stop  offset="0.8784" style="stop-color:#BFBF03"/>
		<stop  offset="1" style="stop-color:#1F1F07"/>
	</linearGradient>
	<path id="path4096" fill="url(#path4096_1_)" d="M78.263,63.411c-0.911,3.297-2.101,7.507-5.937,8.328
		c-7.093,1.896-13.918-2.127-20.582-3.958c-2.488-0.836-5.653-1.435-7.652,0.754c-2.347,2.128-2.724,6.83,0.5,8.337
		c2.724,1.072,5.507-1.044,8.308-0.695c3.479-0.035,6.051,2.856,9.16,3.938c4.288,0.096,8.724-0.599,12.647-2.312
		c2.756-1.788,4.026-5.134,5.192-8.062c1.094-2.602,0.278-5.582-1.253-7.837C78.518,62.406,78.39,62.909,78.263,63.411
		L78.263,63.411z"/>
	
		<linearGradient id="path4090_1_" gradientUnits="userSpaceOnUse" x1="87.7163" y1="488.8914" x2="333.7607" y2="488.8914" gradientTransform="matrix(1.0825 0 0 -1.0825 -152.0103 562.0137)">
		<stop  offset="0" style="stop-color:#FFFF00"/>
		<stop  offset="0.0313" style="stop-color:#C5C505;stop-opacity:0.9843"/>
		<stop  offset="0.1394" style="stop-color:#8B8B0A;stop-opacity:0.9686"/>
		<stop  offset="0.2605" style="stop-color:#F2F27E;stop-opacity:0.9373"/>
		<stop  offset="0.3799" style="stop-color:#81560A;stop-opacity:0.9732"/>
		<stop  offset="0.5526" style="stop-color:#FFD000"/>
		<stop  offset="0.7109" style="stop-color:#453E0A"/>
		<stop  offset="0.8784" style="stop-color:#BFBF03"/>
		<stop  offset="1" style="stop-color:#1F1F07"/>
	</linearGradient>
	<path id="path4090" fill="url(#path4090_1_)" d="M96.352-5.432c-1.385,0.348-3.792,0.57-3.507,2.576
		c-0.518,5.827-0.99,11.657-1.469,17.487c-1.471-0.367-3.546,0.315-4.625-0.959c0.263-2.457-0.056-5.168,0.554-7.473
		c2.105-1.342-1.577-2.319-2.359-3.481c-1.18-1.95-3.192-0.471-4.269,0.638c-0.351,3.511-0.058,7.228-0.323,10.659
		c-1.692,0.25-2.861-1.616-2.355-3.155c0.319-2.03-0.829-4.62,1.072-6.044c-1.624-1.178-3.257-2.345-4.878-3.527
		c-1.404,0.851-3.364,1.544-2.775,3.546c0.004,2.983,0.337,6.236,0.14,9.053c-1.016,0.237-1.896-0.45-1.511-1.585
		c0.026-2.179-0.55-4.55-0.164-6.614c1.963-1.547-1.809-2.142-2.707-3.219c-1.377-1.82-3.191-0.131-4.17,1.064
		c-0.058,3.621,0.588,7.414,0.568,10.933c-1.716,0.217-3.833,0.854-5.143-0.715c-0.131-2.352-0.261-4.703-0.392-7.054
		c2.479-1.313-1.677-2.05-2.676-3.07c-1.337-1.452-3.38-0.488-3.927,1.11c-0.413-0.324-1.609-0.002-1.058-0.783
		c0.583-2.526-2.255-4.041-3.585-5.741c0.091,1.488,0.742,3.108,0.313,4.565c-2.694,2.45-6.388,4.431-7.298,8.249
		c-1.236,4.394,2.943,9.501,7.602,8.493c1.81-0.246,3.722-0.727,5.075-2.038c0.669,1.909-0.18,2.382-1.911,1.832
		c-1.342-0.355-2.889,0.064-3.292,1.509c-0.738,1.64,1.495,2.149,2.674,2.165c0.748,0.093,1.514-0.47,1.548-1.225
		c2.146,1.178,5.097,1.321,6.779-0.666c0.675-1.139,0.346-2.705,0.382-3.879c2.051,1.205,4.6,0.083,6.827,0.229
		c1.461-0.183,3.834-0.074,4.537-0.66c1.94,0.856,4.277,0.163,6.349,0.373c1.143,0.285,1.291-0.593,2.135-0.078
		c2.658,0.212,5.715,0.269,8.131,0.039c2.379,1.308,5.289,0.623,7.865,1.277c0.965,0.029,3.875,0.93,3.411-0.983
		c-0.973-1.943,0.283-4.249,0.181-6.304c0.579-3.888,0.71-7.999,1.621-11.743c2.096-1.404-1.411-2.692-2.204-4.034
		C97.124-4.85,96.884-5.696,96.352-5.432L96.352-5.432z M106.138-3.844c-1.491,0.278-3.933,0.495-3.624,2.635
		c-0.871,6.699-1.708,13.402-2.567,20.103c2.833,0.464,5.685,1.056,8.445,1.646c2.25,0.041,3.155-3.424,0.999-4.311
		c-0.772-0.369-1.717-0.228-2.4,0.265c0.733-5.188,1.562-10.362,2.38-15.538c2.234-1.222-0.932-2.433-1.678-3.646
		C107.193-2.993,106.771-3.999,106.138-3.844L106.138-3.844z M31.959,6.295c-1.685,0.337-3.626,1.896-3.135,3.85
		c0.868,4.332,2.304,8.832,2.998,13.069c-1.492-0.109-3.411,1.702-2.263,3.077c1.042,0.493,2.632,0.838,3.419-0.206
		c1.755,0.264,3.729-0.039,4.624-1.744c1.336-1.979-0.448-4.343-0.4-6.454c-0.369-2.839-1.38-5.827-1.343-8.572
		c1.589-1.553-2.19-1.791-3.121-2.735C32.469,6.539,32.249,6.188,31.959,6.295L31.959,6.295z M13.57,7.725
		c1.531,1.259,1.194,3.933-0.607,4.751c-0.732,0.633-1.257,1.516-2.357,0.815c-2.294-0.592-2.722,2.509-3.93,3.841
		c0.672,0.715,2.231,2.346,2.456,4.182c0.732,1.375,0.75,3.241,2.059,4.231c-2.653,1.066-6.082,2.716-8.807,1.058
		C0.422,24.459,2.979,21.174,5.403,21c1.931,0.175,1.001-2.589-0.415-2.695c0.86-2.255-1.801-3.881-2.841-5.545
		c0.004,2.007,0.027,4.181-1.565,5.669c-1.579,2.545-3.911,5.643-2.745,8.781c1.684,2.828,5.233,4.538,8.464,3.4
		c1.465-0.336,3.032-0.664,4.36-1.244c-1.602,1.288-0.394,3.897,1.557,3.84c1.555,0.2,3.344-0.905,3.478-2.488
		c1.887,1.543,5.709-0.304,4.712-2.851c-0.382-0.846-1.287-1.327-2.195-1.381c3.264-1.465,6.645-2.237,10.169-2.762
		c-2.275-0.849-5.058-2.156-6.387-3.831c1.274,0.184,2.506,0.582,3.771,0.881c-1.322-2.086-2.593-4.312-2.566-6.857
		c-0.103-1.806-1.486-3.42-3.39-3.312c-0.942-0.023-1.609-0.071-1.372-1.137c-0.213-2.516-3.386-2.664-5.306-2.896
		C11.428,6.132,13.291,7.241,13.57,7.725L13.57,7.725z M147.49,7.764c-1.506-0.013-2.66,1.704-1.92,3.057
		c-1.582-1.48-5.044-0.376-4.34,2.057c0.583,2.458,4.973,3.179,5.554,0.411c0.271-0.438-0.572-1.68,0.226-1.009
		c1.628,1.114,4.551-0.101,3.918-2.292C150.5,8.553,148.952,7.645,147.49,7.764z M129.298,9.223
		c-0.941,1.776-2.238,3.426-4.271,3.86c-3.856,1.097-8.27,3.75-8.435,8.2c0.015,4.009,3.974,6.659,7.485,7.641
		c3.775,1.124,7.564,2.224,11.148,3.879c-0.063-1.711,0.162-3.451,0.95-4.947c2.411,1.221,4.964,2.146,7.456,3.193
		c0.207-0.855,0.909,0.703,1.606,0.695c3.319,1.712,6.6,2.912,9.721,4.844c0.727,0.451,2.077,0.906,0.624,0.701
		c-1.931-0.152-3.066,2.356-1.675,3.694c0.949,1.265,3.011,1.554,4.203,0.793c-0.188,2.863,4.806,4.208,5.604,1.254
		c0.154-0.607-0.036-1.254-0.372-1.763c2.106,1.464,4.735,3.002,6.534,4.359c-2.058,0.105-2.608,2.962-0.96,4.046
		c1.476,1.616,5.113,0.83,4.624-1.705c0.433,0.388,2.326,0.872,1.411,1.881c-0.763,1.441-0.231,3.064,0.304,4.487
		c1.842,0.037,3.683,0.08,5.525,0.108c-0.694-2.479,1.381,0.064,2.331,0.618c1.779,1.12,3.141,3.277,5.281,3.624
		c1.323-0.387,0.746-2.285,1.974-2.915c3.353-3.978,6.772-7.901,10.204-11.838c2.557,0.174,0.52-2.552,0.532-3.981
		c0.016-1.287-0.642-2.054-1.845-2.259c-1.189-0.573-2.797-0.667-3.373,0.829c-3.703,4.51-7.378,9.068-11.067,13.601
		c-1.349-1.068-3.43-2.025-1.294-3.532c1.426-1.597,2.533-3.779,4.163-5.01c1.833,0.305,0.37-1.932,0.433-2.899
		c-0.273-1.28-0.563-3.309-2.302-3.174c-0.999,0.008-1.952,0.205-2.244-0.97c-2.021-3.771-6.581-6.295-10.854-4.987
		c-1.818,0.414-2.807,2.024-3.743,3.449c-0.783,0.724-1.748,1.373-2.664,1.999c0.965,1.343,2.424,2.579,4.212,2.008
		c1.219-0.504,1.987,0.125,2.861,0.804c0.97,0.445,2.099-0.032,3.115,0.009c-0.333-0.904-1.918-2.825-0.206-3.213
		c1.958-0.896,4.167,0.635,4.928,2.381c0.589,2.46-2.084,4.006-3.057,6.003c-0.651,2.221-1.998,0.593-3.19-0.144
		c-3.706-2.519-7.675-4.747-11.191-7.437c-0.525-2.02,1.666-3.637,2.31-5.47c0.817-1.855,3.283-1.635,1.318-3.91
		c-0.91-1.396-0.945-4.208-3.235-3.359c-2.532-0.421-2.755,2.886-3.965,4.428c-0.955,1.682-1.803,3.648-2.825,5.157
		c-1.417-0.691-3.534-0.999-3.87-2.841c1.166-2.092,1.901-4.641,3.327-6.458c2.445-0.411-0.556-2.752-0.819-4.12
		c-0.323-2.251-2.752-1.673-4.173-1.07c-1.741,3.062-2.857,6.716-4.516,9.669c-1.438-0.492-2.251-2.511-1.407-3.758
		c1.109-1.783,1.078-4.672,3.416-5.264c-1.042-1.721-2.09-3.438-3.125-5.163c-1.613,0.251-3.695,0.109-3.939,2.178
		c-1.192,2.721-2.101,5.984-3.467,8.373c-1.297-0.275-1.73-1.833-0.863-2.863c0.786-1.716,1.098-3.85,2.17-5.314
		c2.418-0.63-0.795-2.696-1.186-4.039c-0.526-2.205-2.881-1.412-4.237-0.695c-1.562,4.504-3.062,9.148-4.937,13.585
		c-0.422,1.418-2.368-0.273-3.449-0.281c-2.496-0.586-5.241-2.024-5.614-4.84c-0.409-2.97,3.393-4.977,5.957-3.909
		c1.357,0.409,2.497,1.273,3.487,2.244c0.917-1.418,1.145-3.452-0.333-4.566c1.939-1.984,0.964-4.842,0.225-7.112
		C129.788,8.414,129.543,8.819,129.298,9.223z M49.367,8.077c1.651-0.053,2.329,1.835,2.498,3.204
		c-1.736-1.173-5.12,0.005-4.584,2.4c0.505,1.357,2.623,0.96,3.36,0.97c-0.539,0.923-2.201,0.802-3.184,0.618
		C44.615,13.338,45.549,7.982,49.367,8.077L49.367,8.077z M149.097,12.672c-2.004-0.041-2.901,2.665-1.342,3.889
		c1.361,1.693,5.042,1.255,4.849-1.303C152.391,13.634,150.667,12.537,149.097,12.672z M17.078,14.26
		c0.854,0.191,1.679,1.482,0.382,1.753c-1.078,0.193-1.396,0.772-0.607,1.617c0.597,1.246,1.989,1.321,3.194,1.107
		c0.5,0.491,1.055,1.014,1.773,1.126c0.043,1.423-0.846,2.474-2.224,2.782c-1.48,0.973-3.451-0.126-3.733-1.824
		c-0.528-1.656-2.115-3.837-1.028-5.503C15.477,14.797,16.248,14.378,17.078,14.26L17.078,14.26z M-22.785,19.383
		c-1.053,1.105-2.825,2.765-1.322,4.3c3.348,5.863,6.68,11.735,10.051,17.585c2.523-1.263,5.065-2.607,7.631-3.674
		c1.909-1.227,0.689-4.629-1.616-4.144c-0.86,0.155-1.603,0.839-1.822,1.685c-2.561-4.591-4.976-9.238-7.456-13.852
		c1.07-2.323-2.203-1.374-3.529-1.9C-21.427,19.49-22.386,18.826-22.785,19.383L-22.785,19.383z M-31.67,24.428
		c-1.009,1.163-2.75,2.938-1.088,4.4c2.916,4.758,6.13,9.566,8.896,14.272c-1.151,0.48-2.568,2.678-3.193,0.559
		c-1.106-1.896-2.805-3.695-3.499-5.675c0.836-1.569-1.489-1.012-2.426-1.331c-1.354-0.141-3.497-0.608-3.932,1.176
		c-0.368,0.727-0.236,1.902-1.361,1.724c-4.073,0.643-7.92,3.728-8.416,8.014c-0.388,1.992,0.602,3.84,1.93,5.221
		c0.502,1.063,0.809,2.211,1.106,3.351c1.555-0.545,3.236-1.47,3.252-3.37c0.095-1.034,0.42-1.833,1.392-2.214
		c1.063-0.725,0.892-2.208,1.332-3.282c-0.88,0.11-3.004,0.967-3.115-0.49c-0.432-2.183,1.69-3.802,3.605-4.173
		c2.547,0.004,3.208,3.018,4.721,4.572c2.147,1.588-0.769,2.397-1.83,3.527c-3.71,2.885-7.297,5.883-10.719,9.113
		c-1.862-2.167-4.35-4.105-5.819-6.417c0.48-2.171-2.817-0.307-4.108-0.58c-1.646,0.169-2.158,2.357-2.112,3.772
		c1.317,2.787,4.35,4.324,6.343,6.6c1.333,1.353,3.061,2.638,4.168,4.03c-1.33,0.69-1.943,3.386-0.176,3.811
		c1.115-0.158,2.642-0.732,2.685-2.038c1.6-0.74,3.106-2.067,2.929-4.007c0.08-1.114-0.663-2.036-1.479-2.694
		c4.158-3.811,8.65-7.727,13.196-10.875c1.223,1.545,3.168,1.974,5.045,1.773c0.618-1.726,1.244-3.448,1.861-5.173
		c-0.477-0.233-2.64-0.291-1.156-0.931c2.323-1.877,5.202-2.898,7.553-4.653c0.501-1.292-1.658-1.393-1.861-2.635
		c-2.772-4.539-5.477-9.117-8.18-13.696c0.951-2.377-2.259-1.306-3.612-1.766C-30.317,24.47-31.271,23.873-31.67,24.428z
		 M15.402,27.573c-0.637,0.292-0.275,1.892-1.068,1.137c-0.366-0.329-1.969-0.162-0.677-0.496
		C14.2,28.01,14.978,27.705,15.402,27.573L15.402,27.573z M158.305,38.359c0.452,0.36,3.516,1.587,2.508,1.44
		c-0.628-0.185-1.537,0.358-1.871,0.333c0.025-0.731-0.372-1.413-0.882-1.91L158.305,38.359L158.305,38.359z M204.81,43.914
		c-1.839,1.113-2.962,3.309-4.562,4.787c-3.389,3.817-6.76,7.652-10.142,11.475c2.08,1.982,4.106,4.092,6.063,6.123
		c1.844,1.277,4.502-1.065,3.243-3.007c-0.431-0.724-1.281-1.173-2.126-1.127c3.494-3.863,7.115-7.699,10.698-11.521
		c2.533,0.254,0.594-2.532,0.66-3.956c0.049-1.285-0.565-2.065-1.767-2.324C206.217,44.134,205.53,43.846,204.81,43.914
		L204.81,43.914z"/>
	
		<linearGradient id="path3783_1_" gradientUnits="userSpaceOnUse" x1="190.665" y1="443.4901" x2="190.5344" y2="447.0594" gradientTransform="matrix(1.0825 0 0 -1.0825 -152.0103 562.0137)">
		<stop  offset="0" style="stop-color:#FFD4D9"/>
		<stop  offset="0.5" style="stop-color:#E94154"/>
		<stop  offset="1" style="stop-color:#430007"/>
	</linearGradient>
	<path id="path3783" fill="url(#path3783_1_)" d="M47.705,77.897c0,0,4.137-1.532,6.282-1.073c2.145,0.46,6.895,3.984,6.895,3.984
		s-5.21,1.226-7.202,0.612C51.689,80.808,47.705,77.897,47.705,77.897z"/>
	<path id="path3791" fill="#4D4D4D" d="M158.185,40.532c-0.378,0.884-1.621,1.199-2.776,0.703c-1.155-0.496-1.785-1.613-1.407-2.497
		c0.001-0.002,0.002-0.004,0.003-0.006c0.377-0.884,1.621-1.199,2.775-0.704c1.155,0.496,1.785,1.614,1.407,2.498
		C158.187,40.527,158.186,40.53,158.185,40.532z"/>
	
		<linearGradient id="path4127_1_" gradientUnits="userSpaceOnUse" x1="243.9146" y1="393.3162" x2="342.3228" y2="393.3162" gradientTransform="matrix(1.0825 0 0 -1.0825 -152.0103 562.0137)">
		<stop  offset="0" style="stop-color:#FFFF00"/>
		<stop  offset="0.0313" style="stop-color:#C5C505;stop-opacity:0.9843"/>
		<stop  offset="0.1394" style="stop-color:#8B8B0A;stop-opacity:0.9686"/>
		<stop  offset="0.2605" style="stop-color:#F2F27E;stop-opacity:0.9373"/>
		<stop  offset="0.3799" style="stop-color:#81560A;stop-opacity:0.9732"/>
		<stop  offset="0.5526" style="stop-color:#FFD000"/>
		<stop  offset="0.7109" style="stop-color:#453E0A"/>
		<stop  offset="0.8784" style="stop-color:#BFBF03"/>
		<stop  offset="1" style="stop-color:#1F1F07"/>
	</linearGradient>
	<path id="path4127" fill="url(#path4127_1_)" d="M218.561,58.062c-0.021,11.127-0.297,22.479-3.507,33.191
		c-2.167,6.109-6.154,11.382-10.051,16.527c-8.871,11.212-20.449,20.088-33.418,26.066c-10.973,5.481-22.001,10.859-33.012,16.265
		c0.298,11.854,0.531,23.926-2.214,35.522c-2.523,9.271-7.046,18.195-14.017,24.877c-2.995,2.577-6.223,5.275-10.308,5.767
		c11.907-10.107,19.541-25.012,20.502-40.615c0.969-13.266-2.679-26.728-10.275-37.631c19.653-12.278,39.173-24.797,57.325-39.191
		c14.556-11.903,27.146-26.036,38.004-41.372C218.599,56.262,218.54,55.121,218.561,58.062L218.561,58.062z"/>
	
		<linearGradient id="path4129_1_" gradientUnits="userSpaceOnUse" x1="260.9609" y1="371.8885" x2="333.3091" y2="371.8885" gradientTransform="matrix(1.0825 0 0 -1.0825 -152.0103 562.0137)">
		<stop  offset="0" style="stop-color:#FFFF00"/>
		<stop  offset="0.0313" style="stop-color:#C5C505;stop-opacity:0.9843"/>
		<stop  offset="0.1394" style="stop-color:#8B8B0A;stop-opacity:0.9686"/>
		<stop  offset="0.2605" style="stop-color:#F2F27E;stop-opacity:0.9373"/>
		<stop  offset="0.3799" style="stop-color:#81560A;stop-opacity:0.9732"/>
		<stop  offset="0.5526" style="stop-color:#FFD000"/>
		<stop  offset="0.7109" style="stop-color:#453E0A"/>
		<stop  offset="0.8784" style="stop-color:#BFBF03"/>
		<stop  offset="1" style="stop-color:#1F1F07"/>
	</linearGradient>
	<path id="path4129" fill="url(#path4129_1_)" d="M208.607,115.471c-3.038,16.806-14.306,31.461-28.729,40.269
		c-9.873,5.991-21.177,9.68-32.657,10.947c-0.007,13.998-6.491,27.258-15.537,37.658c-1.95,1.646-1.145-0.937-0.225-1.816
		c3.996-6.293,6.748-13.415,8.542-20.618c2.064-10.007,2.014-20.429,0.901-30.585c12.528-5.214,25.191-10.202,37.353-16.172
		c10.729-6.231,20.621-13.778,30.547-21.164C208.738,114.484,208.672,114.977,208.607,115.471L208.607,115.471z"/>
	
		<linearGradient id="path4131_1_" gradientUnits="userSpaceOnUse" x1="270.978" y1="356.6736" x2="314.9644" y2="356.6736" gradientTransform="matrix(1.0825 0 0 -1.0825 -152.0103 562.0137)">
		<stop  offset="0" style="stop-color:#FFFF00"/>
		<stop  offset="0.0313" style="stop-color:#C5C505;stop-opacity:0.9843"/>
		<stop  offset="0.1394" style="stop-color:#8B8B0A;stop-opacity:0.9686"/>
		<stop  offset="0.2605" style="stop-color:#F2F27E;stop-opacity:0.9373"/>
		<stop  offset="0.3799" style="stop-color:#81560A;stop-opacity:0.9732"/>
		<stop  offset="0.5526" style="stop-color:#FFD000"/>
		<stop  offset="0.7109" style="stop-color:#453E0A"/>
		<stop  offset="0.8784" style="stop-color:#BFBF03"/>
		<stop  offset="1" style="stop-color:#1F1F07"/>
	</linearGradient>
	<path id="path4131" fill="url(#path4131_1_)" d="M188.044,159.781c-5.811,9.807-15.768,16.928-26.861,19.647
		c-3.377,0.924-6.839,1.595-10.298,2.042c-2.218,4.29-5.432,7.98-8.538,11.667c-2.05,1.933-0.467-1.769,0.104-2.596
		c3.234-6.607,6.065-13.61,6.515-21.023c10.139-1.28,20.338-2.905,29.759-7.013c3.45-1.359,6.854-2.825,10.22-4.38
		C188.645,158.677,188.345,159.229,188.044,159.781L188.044,159.781z"/>
	<g id="g4215" transform="matrix(1.0825192,0,0,1.0825192,14.138024,10.782496)">
		<g id="g4211">
			<path id="path3779" fill="#F4E4A7" d="M48.761,75.792L33.333,64.894c0,0-7.643-6.228-12.738-5.945
				c-5.095,0.283-6.086,2.831-6.369,3.963c-0.284,1.132-0.284,4.104,0.424,5.378c0.709,1.274,1.699,2.689,1.699,2.689
				s2.972-3.538,5.945-3.538s8.492,2.689,8.492,2.689s-3.114,0.991-4.953,0.991c-1.84,0-3.397-0.142-3.397-0.142
				s0.283,1.133,2.547,1.698c2.265,0.567,9.341,1.274,11.181,2.689c1.84,1.415,8.917,11.181,9.907,14.72
				c0.991,3.538,0.562,12.354,0.562,12.354l18.258,0.154c0,0,0.146-5.715,0.57-7.696c0.425-1.981,2.69-5.52,4.105-6.511
				c1.415-0.991,3.68-0.283,5.095,0.566c1.415,0.849,2.548,2.265,2.548,2.265s-1.557-7.077-7.784-12.172
				c-6.228-5.095-7.643-5.378-7.643-5.378s6.731-1.788,11.606-0.566c5.254,1.318,9.341,4.246,9.341,4.246
				s-4.388-11.04-17.833-13.446c-13.446-2.406-24.344,3.114-24.344,3.114s4.53,3.821,5.803,5.237
				C47.628,73.669,48.761,75.791,48.761,75.792L48.761,75.792z"/>
			<path id="path3781" fill="#F4E4A7" d="M59.942,48.759c0,0-1.208,4.985-3.114,6.652c-2.265,1.982-6.794,2.689-12.455,0.991
				s-11.747-4.387-14.012-3.821c-2.265,0.566-3.59,2.545-3.68,4.812c-0.075,1.914,1.415,3.396,2.973,3.396
				c1.557,0,4.953-1.557,8.067-0.708c3.114,0.849,5.378,3.114,6.794,3.397c1.415,0.283,10.19-0.708,12.172-2.689
				c1.981-1.982,4.104-6.793,4.104-8.633C60.791,50.315,59.942,48.759,59.942,48.759z"/>
		</g>
		<g id="g3980">
			<path id="path3785" d="M176.403,31.06c-0.105,0.008-0.184,0.03-0.235,0.081c-0.412,0.413-12.697,14.344-12.697,14.344
				l4.444,4.371c0.198,0.604,0.791,1.041,1.493,1.041c0.865,0,1.566-0.664,1.566-1.484s-0.701-1.484-1.566-1.484
				c-0.637,0-1.184,0.361-1.43,0.878c-0.134-0.15-0.238-0.437,0.109-0.932c0.577-0.824,10.806-11.701,10.806-11.701l0.904-0.163
				l-0.824-4.127C178.973,31.884,177.137,31.005,176.403,31.06z"/>
			<path id="path3787" d="M146.73,35.148c-0.349,0.817-1.497,1.108-2.564,0.65c-1.067-0.458-1.649-1.491-1.299-2.307
				c0-0.002,0.001-0.005,0.002-0.006c0.349-0.817,1.497-1.107,2.564-0.65c1.067,0.458,1.649,1.491,1.299,2.307
				C146.731,35.144,146.73,35.146,146.73,35.148z"/>
			<path id="path3789" d="M137.661,29.79c-0.349,0.816-1.497,1.107-2.564,0.65c-1.067-0.458-1.649-1.49-1.299-2.307
				c0-0.002,0.001-0.004,0.003-0.006c0.349-0.816,1.497-1.107,2.564-0.65c1.067,0.458,1.649,1.491,1.3,2.307
				C137.663,29.786,137.662,29.788,137.661,29.79z"/>
			<path id="path3793" d="M133.21,27.481c-0.35,0.816-1.497,1.107-2.565,0.65c-1.067-0.458-1.649-1.49-1.3-2.307
				c0.001-0.002,0.001-0.004,0.002-0.006c0.35-0.816,1.498-1.107,2.564-0.65c1.067,0.458,1.649,1.491,1.3,2.307
				C133.21,27.477,133.21,27.48,133.21,27.481z"/>
			<path id="path3795" d="M127.356,4.728c-0.349,0.816-1.497,1.107-2.565,0.65c-1.067-0.458-1.649-1.491-1.3-2.307
				c0.001-0.002,0.002-0.004,0.003-0.006c0.349-0.816,1.497-1.107,2.564-0.649c1.067,0.458,1.649,1.49,1.3,2.307
				C127.357,4.724,127.357,4.726,127.356,4.728z"/>
			<path id="path3797" d="M125.872,0.194c-0.35,0.816-1.497,1.107-2.564,0.649c-1.067-0.457-1.649-1.49-1.3-2.307
				c0.001-0.002,0.002-0.004,0.003-0.005c0.349-0.816,1.497-1.108,2.564-0.65c1.067,0.458,1.649,1.49,1.3,2.307
				C125.873,0.19,125.873,0.192,125.872,0.194z"/>
			<path id="path3799" d="M121.997,2.419c-0.349,0.817-1.498,1.108-2.564,0.65c-1.067-0.458-1.649-1.49-1.3-2.307
				c0.001-0.002,0.002-0.004,0.003-0.006c0.349-0.817,1.497-1.107,2.564-0.65c1.067,0.458,1.65,1.491,1.3,2.307
				C121.999,2.415,121.998,2.417,121.997,2.419z"/>
			<path id="path3801" d="M5.472,16.166c0.182,0.869-0.592,1.765-1.728,2.002c-1.137,0.236-2.206-0.276-2.388-1.145
				c0-0.002,0-0.004-0.001-0.006c-0.182-0.869,0.592-1.765,1.728-2.003c1.137-0.236,2.205,0.277,2.388,1.146
				C5.471,16.162,5.471,16.164,5.472,16.166z"/>
			<path id="path3803" d="M0.937,17.98c0.182,0.869-0.592,1.765-1.728,2.002c-1.137,0.236-2.206-0.276-2.387-1.145
				c0-0.002,0-0.004-0.001-0.006c-0.183-0.869,0.591-1.765,1.728-2.002c1.137-0.237,2.206,0.276,2.387,1.145
				C0.937,17.976,0.937,17.978,0.937,17.98z"/>
			<path id="path3807" d="M107-1.257c0,0-0.986,1.646-1.729,2.47c-0.742,0.825-3.384,1.648-3.384,1.648s-5.519,1.569-6.426,5.773
				c-0.907,4.205,3.793,6.348,4.452,6.76c0.65,0.406,7.071,2.234,7.267,2.29c1.032,0.392,3.295,1.253,4.244,1.674l0.064-1.72
				l1.131-3.077c0.089,0.197,0.2,0.375,0.344,0.488c0.547,0.436,6.47,2.806,6.47,2.806l0.461-1.068
				c0.247,0.598,0.555,1.26,0.824,1.493c0.528,0.459,6.344,3.086,6.344,3.086l0.516-1.14c0,0,0.253,1.447,0.281,1.475
				c0.495,0.495,8.163,4.407,8.163,4.407l0.39-0.678c0.055,0.425,0.124,0.805,0.226,0.959c0.298,0.447,9.302,6.107,12.353,8.19
				c0.235,0.16,0.509,0.357,0.77,0.543l-0.217,0.308c0,0-0.66,1.321-0.66,2.063c0,0.742,0.488,2.054,0.488,2.054l4.046,0.082
				c0,0-0.166-1.152,0.081-1.647c0.003-0.006,0.023-0.038,0.028-0.046c2.158,1.673,4.027,3.185,4.027,3.185
				c4.453,3.82,3.421,2.352,4.118,0.941c0.547-0.844,10.371-12.091,10.371-12.091l0.896-0.19l-0.968-4.09
				c0,0-2.426-1.069-2.823-0.642c-0.358,0.385-9.323,11.432-11.267,13.828c-0.77-0.616-1.944-1.541-3.203-2.516
				c1.836-2.43,5.167-6.706,5.167-6.706l0.824-0.081c0,0-0.655-3.797-1.15-4.208c-0.494-0.413-2.724-0.163-2.724-0.163
				s-2.143-5.188-6.842-5.765c-4.699-0.576-5.606,2.137-6.018,2.797c-0.413,0.659-2.389,1.982-2.389,1.982s1.069,1.24,1.728,1.24
				c0.66,0,3.05-0.253,3.05-0.253s0.989,1.077,1.484,1.077s1.403-0.081,1.403-0.081s-0.91-1.575-0.498-2.317
				c0.412-0.742,2.398-1.152,3.222-0.905c0.825,0.247,2.802,1.653,3.05,2.642c0.247,0.989,0.082,2.054,0.082,2.054l-4.172,5.855
				c-0.211-0.149-0.44-0.311-0.633-0.443c-3.051-2.084-12.056-7.735-12.353-8.182c-0.152-0.228-0.244-0.94-0.299-1.583l3.194-5.62
				l0.986-0.326l-1.891-4.127l-2.226,0.082l-0.336,0.416l-4.534,8.57c0,0-3.542-1.229-4.037-2.135
				c-0.206-0.378-0.379-0.857-0.516-1.286l2.996-6.253l0.968-0.397l-2.181-3.982l-2.217,0.244l-0.298,0.434l-3.918,8.869
				c0,0-1.317-0.161-1.874-1.032c-0.254-0.398-0.618-1.261-0.941-2.082l2.452-5.728l0.95-0.443l-2.353-3.882l-2.199,0.335
				l-0.281,0.443l-3.538,9.032c0,0-1.325-0.105-1.918-0.95c-0.191-0.271-0.366-0.634-0.525-1.005l2.407-6.579l0.922-0.48
				l-2.534-3.765l-2.18,0.443l-0.263,0.452c-0.656,2.943-3.412,9.929-4.697,13.113c-1.28-0.342-3.876-1.074-5.801-1.855
				c-2.638-1.071-3.376-3.788-3.294-4.86c0.083-1.072,1.151-3.381,4.036-3.71c2.885-0.33,5.114,1.891,5.114,1.891
				s0.334-0.661,0.334-1.402c0-0.742-1.24-1.81-1.24-1.81s0.993-1.074,1.24-2.064C107.664,0.885,107-1.257,107-1.257z"/>
			<path id="path3807-6" d="M76.168-14.523c0,0-2.604,0.5-2.688,1.077c-0.075,0.518-1.227,14.442-1.484,17.548
				c-0.347-0.048-0.752-0.103-1.005-0.118c-0.509-0.03-1.982-0.154-2.371-0.154c-0.39,0-0.957-0.204-1.466-0.443
				c-0.194-0.092-0.382-0.384-0.543-0.706l0.326-7.077l0.733-0.742l-3.566-2.814l-1.945,1.086l-0.1,0.516L61.914,3.35
				c0,0-1.274,0.366-2.127-0.217c-0.415-0.283-0.882-0.779-1.258-1.212l0.018-6.679l0.697-0.779L55.57-8.189l-1.9,1.168
				l-0.082,0.525l0.272,9.692c0,0-1.259,0.419-2.136-0.127c-0.146-0.092-0.297-0.215-0.452-0.344l-0.425-7.511L51.498-5.6
				L47.66-8.035l-1.819,1.286l-0.054,0.525l0.687,9.972c0,0-3.608,0.719-4.516,0.226c-0.538-0.291-1.098-0.736-1.484-1.068
				l-0.399-7.05l0.598-0.498l-3.765-2.163h-0.642c0,0-1.013,0.782-1.104,1.149c-0.092,0.368-0.136,0.779-0.136,0.779
				s-1.06-0.507-1.611-0.507c-0.552,0-0.823-0.136-0.823-0.136s0.728-1.19,0.452-2.063c-0.276-0.873-1.928-2.488-1.928-2.488
				s0.368,2.253,0,2.805c-0.368,0.552-4.499,3.673-5.005,4.317c-0.505,0.643-2.296,2.995-1.837,5.384
				c0.459,2.39,2.436,5.281,5.882,5.005c3.447-0.276,4.818-1.512,5.186-2.018c0.368-0.506,0.643-1.104,0.643-1.104l0.281,3.584
				c0,0,0.088,0.505-0.326,0.597c-0.413,0.092-1.79-0.135-2.525-0.181c-0.735-0.046-1.335-0.095-1.611,0.226
				c-0.276,0.322-1.005,1.335-0.363,1.611c0.644,0.276,1.93,0.639,2.389,0.272c0.46-0.368,0.002-1.058,0.507-1.105
				c1.382,0.425,2.067,1.044,3.991,0.923c1.103-0.184,2.163-1.24,2.163-1.24l0.181-0.687l0.045-1.204l-0.136-2.398
				c0.56,0.38,1.374,0.902,1.81,0.995c0.684,0.146,8.579-0.525,8.579-0.525l0.055-0.995c0,0,1.112,0.863,1.348,0.923
				c0.675,0.187,6.091,0.063,6.091,0.063L58.52,4.01c0.231,0.354,0.728,0.985,1.095,1.104c0.665,0.216,6.877,0.153,6.877,0.153
				L66.538,4.2c0.257,0.392,0.603,0.87,0.86,1.041c0.449,0.3,1.109,0.54,1.737,0.57c0.496,0.024,1.974,0.135,2.697,0.19v0.036
				c7.331,0.832,4.756,0.74,4.769-1.023c-0.029-1.006,1.82-15.719,1.82-15.719l0.814-0.851L76.168-14.523z M32.628-3.193
				c3.125-0.037,2.995,4.706,2.995,4.706s-0.508-0.601-1.611-0.922c-1.103-0.322-2.622,0.328-2.76,1.339
				c-0.138,1.011,1.019,1.005,1.846,1.005c0.827,0,0.778-0.824,0.778-0.824l0.507,0.416c0,0,0.138,0.963-0.046,1.285
				c-0.184,0.321-0.28,0.776-2.67,0.914c-2.389,0.138-2.85-3.215-2.896-3.674c-0.046-0.459,0.092-3.858,3.539-4.226
				C32.42-3.187,32.527-3.192,32.628-3.193z"/>
			<path id="path3873" d="M17.195,13.415c0,0,2.206,0.184,2.803-0.092c0.597-0.275,1.47-1.194,1.654-1.93
				c0.184-0.735-0.276-1.976-0.276-1.976L19.401-1.382l0.506-0.69L16.644-3.68l-0.414,0.046c0,0-1.792,1.057-1.93,1.7
				c-0.138,0.644,0,1.47,0,1.47l2.849,11.718l-0.138,0.643c0,0-1.379,0.092-1.792,0.459c-0.414,0.368-0.781,1.057-0.552,1.332
				c0.23,0.276,1.7,0.46,1.976,0.322C16.92,13.874,17.195,13.415,17.195,13.415L17.195,13.415z"/>
			<path id="path3875" d="M11.278,11.614c0,0-1.562-0.67-2.232-1.116c-0.669-0.447-1.451-1.172-1.451-1.172
				s-0.111,0.949-0.781,1.339c-0.67,0.391-2.176,1.116-2.679,1.116s-1.562-0.223-2.12-0.837S0.061,6.703-0.049,6.145
				c-0.112-0.558-0.168-1.507,0.111-2.121c0.279-0.614,2.12-1.562,2.846-1.507c0.725,0.056,1.898,1.396,1.451,2.009
				C3.912,5.14,2.852,5.475,2.852,5.475S3.522,6.703,4.08,6.703c0.558,0,1.73-0.056,1.73-0.056s0.893,1.005,1.507,1.06
				C7.93,7.763,9.66,8.21,9.66,8.21S8.098,5.754,8.042,4.08C7.986,2.406,7.54,1.011,6.702,0.62C5.865,0.23,3.41,0.118,3.41,0.118
				s0.446-1.73-0.335-2.456C2.294-3.063,0.006-3.341,0.006-3.341s1.06,1.06,1.06,1.953c0,0.894-0.056,2.121-1.005,2.79
				c-0.948,0.67-1.562,1.34-1.562,1.34l-0.168,0.39l-1.953-0.446l-0.669,0.167L-6.132,5.81l0.949,0.391l2.399,6.306
				c0,0,0.224,0.335,0.67,0.669c0.447,0.335,0.726,0.502,0.726,0.502l-3.963,1.562c0,0-5.58,1.73-6.473-1.451
				c-0.893-3.181,2.846-4.855,2.846-4.855l1.451-0.279c0,0,0.055-0.781-0.502-1.06c-0.558-0.279-1.172-0.391-1.172-0.391
				s0.614-0.781,0.447-1.507c-0.167-0.726-1.674-2.455-1.674-2.455s0,1.451-0.335,2.287c-0.335,0.837-5.692,7.088-3.292,9.822
				c2.399,2.734,4.241,2.567,5.078,2.567s4.297-0.893,4.297-0.893s11.384-4.353,12.277-4.632
				C8.488,12.116,11.278,11.614,11.278,11.614L11.278,11.614z"/>
			<path id="path3807-6-4" d="M-41.761,12.88c0,0-1.781,1.968-1.502,2.479c0.249,0.457,7.437,11.843,9.131,14.525
				c-0.587,0.367-1.653,1.056-3.267,2.199c-1.735-2.566-4.443-6.679-4.443-6.679l0.181-0.805c0,0-3.804-0.599-4.353-0.263
				c-0.549,0.336-1.023,2.525-1.023,2.525s-5.611,0.36-7.665,4.625c-2.055,4.265,0.231,6.004,0.724,6.606
				c0.493,0.602,1.104,2.896,1.104,2.896s1.517-0.616,1.728-1.24c0.212-0.625,0.742-2.969,0.742-2.969s1.334-0.599,1.493-1.068
				c0.159-0.469,0.371-1.349,0.371-1.349s-1.774,0.357-2.344-0.272c-0.57-0.628-0.327-2.638,0.172-3.339
				c0.499-0.701,2.459-2.129,3.475-2.046c1.016,0.084,1.982,0.589,1.982,0.589l4.027,5.593c-0.668,0.502-1.358,1.028-2.127,1.62
				c-6.53,5.034-10.518,8.848-11.185,9.493l-5.964-6.235l0.045-0.851l-3.611,0.443l-0.317,0.272c0,0-0.917,1.866-0.679,2.479
				c0.238,0.613,0.806,1.231,0.806,1.231l8.824,8.217l0.235,0.615c0,0-1.096,0.832-1.24,1.367c-0.143,0.534-0.072,1.317,0.272,1.42
				c0.344,0.104,1.673-0.548,1.828-0.814c0.154-0.267,0.126-0.805,0.126-0.805s1.942-1.061,2.29-1.62s0.576-1.801,0.326-2.516
				c-0.251-0.716-1.321-1.502-1.321-1.502l-0.208-0.217c0.674-0.652,4.662-4.455,11.185-9.484c0.691-0.533,1.301-0.998,1.909-1.457
				l0.344,0.47c0,0,1.035,1.047,1.738,1.286c0.702,0.238,2.117,0.19,2.117,0.19l1.367-3.792c0,0-1.14-0.222-1.53-0.615
				c-0.032-0.033-0.145-0.189-0.245-0.326c1.647-1.172,2.749-1.906,3.385-2.308c6.1-3.579,4.819-2.069,3.385-3.629
				c-0.629-0.785-8.199-13.656-8.199-13.656l0.09-0.914L-41.761,12.88z"/>
			<path id="path3785-0" d="M82.617-12.295c-0.083,0.066-0.135,0.129-0.149,0.2c-0.109,0.572-2.434,19.001-2.434,19.001l6.132,1.116
				c0.504,0.388,1.239,0.416,1.82,0.021c0.715-0.486,0.921-1.43,0.46-2.107c-0.461-0.678-1.414-0.834-2.129-0.347
				c-0.527,0.358-0.777,0.964-0.689,1.53c-0.196-0.048-0.442-0.228-0.434-0.832C85.208,5.281,87.55-9.465,87.55-9.465l0.657-0.644
				l-3.001-2.949C85.205-13.058,83.193-12.752,82.617-12.295L82.617-12.295z"/>
			<path id="path3785-2" d="M-35.178,10.396c-0.026,0.102-0.031,0.184,0.001,0.249c0.258,0.523,9.48,16.646,9.48,16.646l5.571-2.796
				c0.636,0.007,1.24-0.412,1.467-1.077c0.279-0.819-0.124-1.696-0.9-1.961c-0.776-0.264-1.631,0.184-1.91,1.003
				c-0.206,0.603-0.041,1.238,0.369,1.637c-0.186,0.079-0.491,0.084-0.847-0.404c-0.594-0.812-7.589-14.003-7.589-14.003
				l0.138-0.909l-4.172-0.552C-33.569,8.229-34.994,9.684-35.178,10.396L-35.178,10.396z"/>
		</g>
		<g id="g4201">
			<path id="path3768" d="M-74.494,43.694c0,0-0.561,24.472,4.751,34.109c7.932,14.39,20.163,25.988,33.656,32.996
				c7.346,3.815,35.502,17.557,35.502,17.557s-1.038,20.13,1.738,31.928c2.775,11.797,9.362,20.474,12.833,23.597
				c2.277,2.049,5.426,4.426,7.339,4.873c-10.823-9.851-17.647-24.241-17.647-40.272c0-11.438,3.473-22.036,9.394-30.751
				C8.454,114.889-26.143,93.454-43.3,78.563C-61.69,62.602-74.494,43.694-74.494,43.694z"/>
			<path id="path4000" d="M-65.309,96.639c0,0,20.043,15.213,28.253,19.318c8.211,4.106,33.083,14.248,33.083,14.248
				s-2.415,19.077,2.173,32.6c4.006,11.805,7.487,15.696,7.487,15.696S-3.49,168.6-6.871,156.042
				c-2.167-8.05-1.69-12.557-1.69-12.557s-20.042-1.209-36.464-14.248C-63.103,114.886-65.309,96.639-65.309,96.639L-65.309,96.639z
				"/>
			<path id="path4002" d="M-46.374,137.364c0,0,11.591,5.284,18.75,6.988c7.159,1.705,16.285,2.788,16.285,2.788
				s0.342,4.206,1.534,8.078c2.046,6.648,5.351,12.711,5.351,12.711s-4.079-4.998-5.613-7.214c-1.534-2.216-2.1-3.586-2.1-3.586
				s-11.623-1.14-20.168-6.045C-41.996,145.539-46.374,137.364-46.374,137.364z"/>
		</g>
		<g id="g4122" transform="translate(3.2938526,6.0609124)">
			<path id="path4014" fill="#007A3D" d="M53.511,94.161c26.95,0.103,48.765,21.983,48.765,48.958l0,0
				c0,26.974-21.815,48.854-48.765,48.958"/>
			<path id="path4009" d="M53.511,192.077c-0.064,0-0.129,0-0.192,0c-27.039,0-48.958-21.919-48.958-48.958
				S26.28,94.161,53.318,94.161c0.064,0,0.128,0,0.192,0"/>
			<path id="path4004" fill="#FFFFFF" d="M53.321,94.158c-5.688,0-11.148,0.977-16.226,2.76v92.408
				c5.078,1.783,10.538,2.751,16.226,2.751c5.426,0,10.642-0.886,15.52-2.516V96.683C63.963,95.053,58.746,94.158,53.321,94.158z"/>
		</g>
		<g id="g4026" transform="translate(1.9595932,8.463664)">
			<path id="path4020" fill="#CE1126" d="M58.97,118.849l-5.257-2.709l-5.212,2.795l0.952-5.837l-4.268-4.092l5.844-0.899
				l2.574-5.324l2.661,5.281l5.858,0.803l-4.2,4.161L58.97,118.849z"/>
			<path id="path4022" fill="#CE1126" d="M58.97,146.349l-5.257-2.709l-5.212,2.794l0.952-5.836l-4.268-4.092l5.844-0.899
				l2.574-5.323l2.661,5.281l5.858,0.802l-4.2,4.162L58.97,146.349z"/>
			<path id="path4024" fill="#CE1126" d="M58.97,173.849l-5.257-2.709l-5.212,2.795l0.952-5.836l-4.268-4.093l5.844-0.898
				l2.574-5.324l2.661,5.281l5.858,0.803l-4.2,4.162L58.97,173.849z"/>
		</g>
		<g id="g4206">
			<path id="path4133" fill="#007A3D" d="M188.403,43.694c0,0,0.561,24.472-4.751,34.109c-7.932,14.39-20.163,25.988-33.656,32.996
				c-7.345,3.815-35.502,17.557-35.502,17.557s1.038,20.13-1.737,31.928c-2.776,11.797-9.363,20.474-12.833,23.597
				c-2.277,2.049-5.426,4.426-7.339,4.873c10.823-9.851,17.647-24.241,17.647-40.272c0-11.438-3.473-22.036-9.393-30.751
				c4.618-2.843,39.215-24.277,56.371-39.168C175.598,62.602,188.403,43.694,188.403,43.694z"/>
			<path id="path4135" fill="#007A3D" d="M179.218,96.639c0,0-20.043,15.213-28.254,19.318c-8.21,4.106-33.083,14.248-33.083,14.248
				s2.415,19.077-2.173,32.6c-4.006,11.805-7.486,15.696-7.486,15.696s9.176-9.901,12.557-22.458
				c2.167-8.05,1.691-12.557,1.691-12.557s20.041-1.209,36.463-14.248C177.012,114.886,179.218,96.639,179.218,96.639
				L179.218,96.639z"/>
			<path id="path4137" fill="#007A3D" d="M160.283,137.364c0,0-11.591,5.284-18.75,6.988c-7.159,1.705-16.285,2.788-16.285,2.788
				s-0.342,4.206-1.534,8.078c-2.046,6.648-5.351,12.711-5.351,12.711s4.078-4.998,5.613-7.214c1.535-2.216,2.1-3.586,2.1-3.586
				s11.624-1.14,20.168-6.045C155.905,145.539,160.283,137.364,160.283,137.364L160.283,137.364z"/>
		</g>
	</g>
	
		<linearGradient id="path4343_1_" gradientUnits="userSpaceOnUse" x1="192.1665" y1="453.7781" x2="192.1665" y2="413.3167" gradientTransform="matrix(0.9895 0 0 -0.9895 -114.3727 561.3932)">
		<stop  offset="0" style="stop-color:#FFFFFF"/>
		<stop  offset="0.3884" style="stop-color:#FFFFFF;stop-opacity:0.3661"/>
		<stop  offset="1" style="stop-color:#FFFFFF;stop-opacity:0"/>
	</linearGradient>
	<path id="path4343" fill="url(#path4343_1_)" d="M125.498,172.919c-14.997-47.572-87.827-47.101-99.427,0
		c0-27.457,22.258-49.714,49.714-49.714C103.24,123.204,125.498,145.462,125.498,172.919z"/>
</g>
</svg>
