<?xml version="1.0" encoding="UTF-8" standalone="no"?>
<svg xmlns="http://www.w3.org/2000/svg" xmlns:xlink="http://www.w3.org/1999/xlink" width="1024" height="500">
  <rect x="0" y="0" width="1024" height="500" fill="#fff" />
  <rect x="0" y="190" width="1024" height="120" fill="#357e77" />
  <circle cx="512" cy="250" r="220" fill="#fff" />
  <circle cx="512" cy="250" r="160" fill="#357e77" />
  <path fill="#fff" d="m 505.99175,393.82026 c -0.79256,-0.79214 -1.58439,-2.08979 -1.75957,-2.88366 -0.17517,-0.79386 -0.3921,-1.69068 -0.48207,-1.99295 -0.11165,-0.37519 -1.33229,-0.25089 -3.84697,0.39174 -11.2219,2.86779 -23.48507,1.15478 -36.29966,-5.07062 -6.34744,-3.08361 -13.57992,-7.53099 -12.27673,-7.54915 0.42336,-0.006 4.48785,1.23704 9.03221,2.7621 19.49541,6.54259 23.91737,7.03665 42.01495,4.69438 4.21272,-0.54523 9.29334,-0.92508 11.29025,-0.84413 l 3.63075,0.14721 0.14668,3.02879 c 0.12052,2.4895 -0.0603,3.33567 -1.01553,4.75233 -2.78724,4.13364 -7.66458,5.33211 -10.43431,2.56396 z m 6.76076,-2.69716 c -1.0538,-3.44854 -2.34285,-5.4473 -3.05438,-4.73615 -0.43064,0.43038 0.72562,3.92319 1.629,4.92084 1.15793,1.27873 1.84538,1.18965 1.42538,-0.18469 z m 24.95483,0.78641 c -3.18446,-1.56836 -5.90662,-8.33396 -7.12651,-17.71215 -0.30499,-2.34453 -0.64561,-8.66347 -0.75696,-14.04209 -0.18821,-9.0916 -0.15363,-9.58534 0.49126,-7.02104 0.38156,1.51704 1.05175,6.28934 1.4893,10.6051 1.13255,11.16957 3.06549,16.60994 6.56678,18.48269 1.33932,0.71638 1.43159,0.67932 3.14113,-1.26116 2.55186,-2.89656 4.7917,-8.05536 7.42679,-17.10548 2.76456,-9.49477 5.36734,-15.31299 8.24691,-18.43518 2.23326,-2.42139 6.86562,-5.04986 8.06966,-4.57884 1.26177,0.49358 2.90406,3.59035 4.77544,9.00469 3.20643,9.27695 5.42875,11.48551 11.56703,11.49535 3.86864,0.006 7.94971,-1.88877 12.84681,-5.96519 l 3.38707,-2.81946 -0.0155,-5.85468 c -0.0166,-6.10932 -0.34653,-12.63361 -1.80865,-35.74392 l -0.87568,-13.84113 1.91228,-2.33234 c 2.78859,-3.40121 3.2967,-3.14416 3.2967,1.66779 0,2.20008 0.38135,9.02679 0.84748,15.17048 0.47404,6.24837 0.86096,17.06031 0.87813,24.53756 0.0201,8.76111 0.20357,13.26777 0.53244,13.0786 0.86333,-0.4966 6.32956,-5.17074 11.10651,-9.49711 12.9175,-11.69905 20.60216,-24.68236 23.0877,-39.00708 0.98543,-5.67919 0.73197,-15.90894 -0.79538,-32.10399 -1.75917,-18.65249 -1.47375,-26.76698 1.08528,-30.85515 l 1.09079,-1.74257 0.88063,5.43339 c 2.74875,16.9586 3.53585,42.08178 1.74668,55.75002 -3.78404,28.9076 -14.29125,46.95244 -32.13833,55.1936 -1.97589,0.91239 -4.6133,1.91579 -5.86095,2.22976 -2.15449,0.54221 -2.33904,0.73286 -3.6743,3.79616 -4.04463,9.27886 -15.89768,14.88191 -24.19186,11.43575 -3.97622,-1.65209 -5.88263,-4.37026 -7.68073,-10.95121 -1.20074,-4.39402 -2.88213,-7.79246 -3.85546,-7.79246 -2.44385,0 -6.26242,3.15389 -8.02319,6.62666 -0.6844,1.34979 -2.59205,7.51857 -4.23927,13.7084 -4.08311,15.34358 -5.61998,19.04792 -8.5256,20.54961 -1.81934,0.94028 -2.82844,0.91902 -4.90439,-0.10338 z m -60.16517,-15.89358 c -0.53822,-0.68379 -1.38599,-2.33184 -1.88401,-3.6623 -1.33968,-3.57912 -1.70559,-3.90625 -3.00467,-2.68649 -3.22961,3.03229 -6.91059,-0.64092 -6.08971,-6.0768 0.41904,-2.77481 1.81337,-3.59814 4.51912,-2.66848 2.57262,0.88392 3.12644,1.46589 4.87031,5.11774 0.93498,1.95798 1.73071,3.06223 2.00745,2.78568 0.2521,-0.25199 0.93695,-2.70077 1.52182,-5.44171 0.58489,-2.74096 1.48746,-5.8252 2.00572,-6.85385 0.96428,-1.9141 3.10316,-3.39549 4.90242,-3.39549 2.04364,0 2.66671,7.47616 0.75525,9.06164 -0.59126,0.49045 -0.99089,0.48671 -1.9347,-0.0181 -0.65424,-0.34993 -1.46207,-0.46788 -1.79521,-0.26214 -1.14678,0.70837 -3.01244,5.81906 -3.80546,10.42474 -0.43711,2.53843 -0.86112,4.68362 -0.94226,4.76709 -0.0812,0.0834 -0.5879,-0.40767 -1.12607,-1.09147 z m 40.58766,-0.87628 c -3.79753,-0.63108 -9.89452,-2.7553 -13.12875,-4.57413 -1.51792,-0.85364 -4.59654,-3.39607 -6.84135,-5.64987 -3.51223,-3.52628 -4.47405,-4.89599 -6.89568,-9.82027 -3.14361,-6.39229 -4.98097,-12.24837 -6.2402,-19.88905 -0.46586,-2.82677 -0.95992,-5.13899 -1.09792,-5.13827 -0.13798,5e-4 -1.09631,1.6365 -2.12964,3.63506 -2.67906,5.18159 -6.1837,9.61904 -11.84498,14.99769 -8.63223,8.20128 -18.74394,14.56522 -27.92477,17.57482 -4.9388,1.61899 -13.1128,1.65558 -16.05725,0.0719 -7.08025,-3.8082 -8.73704,-12.88752 -5.06511,-27.75685 0.91156,-3.69126 1.30084,-6.6154 1.30185,-9.77933 0,-4.57021 1.09991,-8.35195 2.2579,-7.7733 0.69362,0.34663 0.39344,3.99146 -1.03821,12.6058 -1.29351,7.78329 -1.55569,14.50031 -0.6879,17.62349 2.22323,8.00109 12.77179,9.32573 25.0055,3.14007 11.39463,-5.76138 31.20201,-21.85878 33.9636,-27.60206 0.76543,-1.59187 0.9558,-3.04139 0.92214,-7.02104 -0.0524,-6.19637 -1.15533,-9.81528 -6.71364,-22.02925 -5.94841,-13.07121 -6.34663,-14.85374 -5.21785,-23.3568 l 0.43274,-3.25977 2.55802,3.15819 c 8.28092,10.22379 12.53335,25.29204 14.51621,51.43764 l 0.33715,4.4455 1.5302,-2.69024 c 6.04646,-10.63011 16.45945,-19.82779 30.06987,-26.56033 l 5.35585,-2.64931 -1.04448,-2.03615 c -1.26692,-2.46975 -1.74036,-8.16474 -0.92826,-11.16579 1.0667,-3.94185 4.42112,-6.674 8.18037,-6.66282 3.04119,0.009 6.57448,2.19266 12.24852,7.56974 3.16954,3.00368 5.52084,5.63816 5.61121,6.28701 0.4246,3.04825 -2.78324,5.99059 -9.0007,8.25579 -2.31074,0.84187 -4.95853,1.99737 -5.88387,2.56777 -1.80765,1.11426 -3.58137,3.60275 -3.58443,5.02887 -0.005,1.43853 -1.33652,0.99576 -2.02834,-0.67353 -0.55915,-1.34905 -0.82991,-1.51379 -2.07815,-1.26429 -4.11854,0.82325 -15.97843,7.73187 -20.73393,12.07796 l -2.00715,1.83435 13.2974,-0.26925 c 7.31358,-0.1481 21.751,-0.73755 32.08319,-1.3099 10.33214,-0.57236 19.65874,-0.97332 20.72575,-0.89103 l 1.94002,0.14962 -2.66135,3.82042 c -5.63513,8.08931 -5.14368,7.73973 -14.47746,10.29763 -20.58555,5.64142 -32.26936,10.3665 -41.12266,16.63049 -3.88375,2.74786 -8.53043,7.02373 -8.53043,7.84968 0,1.237 3.55804,4.665 6.35967,6.12727 1.60789,0.83921 4.69325,2.15848 6.8564,2.93169 4.4313,1.58402 4.55454,1.7507 5.10696,6.90597 l 0.36009,3.36048 -1.68927,-0.0586 c -0.92912,-0.0322 -2.89417,-0.25885 -4.36688,-0.50359 z m -16.13949,-18.17677 c 0,-1.85244 3.6863,-7.82479 6.62431,-10.73235 4.11402,-4.07141 6.89664,-5.89878 17.21068,-11.30251 9.01834,-4.7249 11.24473,-6.20479 8.53041,-5.67021 -0.82796,0.16306 -7.73548,0.52607 -15.35013,0.80668 -14.79029,0.54505 -20.13635,1.03146 -25.92203,2.35856 -3.07847,0.7061 -3.63796,0.99442 -3.63796,1.87465 0,2.17701 2.55901,10.22665 4.49416,14.13698 2.8579,5.77479 8.05056,11.27554 8.05056,8.5282 z m 30.97209,-62.61991 c 1.31828,-0.6151 2.49188,-1.18019 2.60794,-1.25574 0.11611,-0.0756 -0.33551,-0.72262 -1.00358,-1.43794 -2.30748,-2.47075 -7.74356,-4.43113 -8.29624,-2.99183 -0.14808,0.38569 0.53798,1.87399 1.5245,3.30733 0.98652,1.43336 1.79369,2.80645 1.79369,3.05133 0,0.69278 0.77958,0.53723 3.37369,-0.67315 z m 5.69831,71.75974 c -1.07504,-1.00098 -1.14388,-1.39209 -0.94899,-5.39398 0.2938,-6.03455 1.7936,-9.08147 8.31059,-16.88367 1.38107,-1.65344 1.63081,-1.78973 1.63081,-0.88992 0,0.58438 -0.79599,2.15911 -1.76886,3.49942 -2.98293,4.10953 -4.40967,7.51688 -4.10332,9.79954 0.32926,2.45368 0.33483,2.45927 2.55676,2.5741 2.14359,0.11079 2.31094,0.94827 0.83748,4.19162 -1.5413,3.39279 -4.62545,4.8618 -6.51447,3.10289 z m -131.8753,-19.36266 c -0.21225,-0.75852 -0.36505,-2.7871 -0.33951,-4.50798 0.0612,-4.12467 2.53218,-9.18229 6.67957,-13.67149 3.51393,-3.80355 4.0533,-3.08639 0.97482,1.29598 -3.8592,5.49372 -4.80617,8.79582 -2.99282,10.43596 0.66232,0.59902 1.35367,0.75173 2.31356,0.51095 1.26114,-0.31635 1.34118,-0.24915 1.01611,0.85327 -1.305,4.42605 -3.20974,6.46246 -6.04455,6.46246 -0.90427,0 -1.32146,-0.35803 -1.60718,-1.37915 z m 45.76567,-12.68887 -2.8343,-5.64821 -1.08526,1.27074 c -1.41731,1.65943 -2.37975,1.94247 -4.55961,1.34093 -2.38336,-0.65771 -3.29987,-2.50624 -3.29987,-6.65554 0,-2.91184 0.13694,-3.35594 1.32216,-4.28768 3.57576,-2.81113 7.894,-0.15007 11.18288,6.89133 0.66817,1.43045 1.38664,2.60082 1.59659,2.60082 0.21,0 0.75785,-1.74899 1.21749,-3.88664 2.15317,-10.01424 3.19971,-12.76698 5.55882,-14.62156 1.5448,-1.21448 4.95643,-1.44454 5.37195,-0.36229 1.19842,3.12135 0.58839,10.0906 -0.93438,10.67461 -0.36244,0.13902 -1.35006,-0.25789 -2.19468,-0.88199 l -1.53567,-1.13475 -1.32673,1.21966 c -2.10691,1.93685 -3.16709,4.98526 -4.18884,12.04457 -0.52381,3.61937 -1.06579,6.69397 -1.20434,6.83245 -0.13854,0.13847 -1.52735,-2.28993 -3.08621,-5.39645 z m 153.30958,1.23014 c 0,-0.44098 0.70129,-1.45652 1.55845,-2.25677 0.85711,-0.80022 1.31454,-1.45496 1.01643,-1.45496 -0.86549,0 -2.0731,-2.79424 -2.0731,-4.79688 0,-2.44059 2.26232,-6.50357 4.33371,-7.78302 1.15014,-0.71042 2.30451,-0.97303 3.80225,-0.86504 2.38008,0.17164 2.78799,0.94849 2.18494,4.16113 l -0.30369,1.61786 -2.18594,-0.49993 c -2.99121,-0.6841 -4.93418,-0.15993 -4.72766,1.27537 0.37479,2.60463 4.38981,2.87439 9.31566,0.62593 1.44893,-0.66136 2.6323,-1.0457 2.62968,-0.85411 -0.014,1.03184 -3.22278,5.72837 -4.66492,6.82774 -1.93105,1.472 -8.93672,4.80447 -10.10027,4.80447 -0.43204,0 -0.78554,-0.36081 -0.78554,-0.80179 z m -29.44323,-1.6757 c -1.91875,-0.87066 -2.12564,-1.15045 -2.4502,-3.31351 -0.53846,-3.58878 0.0734,-10.12862 1.28409,-13.72655 1.70753,-5.07412 4.08817,-10.07114 4.79796,-10.07114 0.35702,0 1.13474,0.61705 1.72831,1.37122 1.50737,1.91526 1.05867,3.56236 -2.313,8.49042 -3.45769,5.05381 -3.74938,6.88707 -1.32442,8.32363 1.98934,1.17849 5.6397,1.24439 8.25749,0.14903 2.24184,-0.93806 5.4129,-3.62511 5.4129,-4.58675 0,-1.07319 -7.11332,-11.33622 -11.82762,-17.06482 -4.95517,-6.02125 -9.22926,-10.64508 -21.27642,-23.01739 -11.8665,-12.18686 -16.73561,-17.65402 -16.43047,-18.44867 0.14009,-0.36489 1.19717,-0.94563 2.34902,-1.29053 l 2.09432,-0.62712 3.26851,2.91423 c 1.79765,1.60283 3.74354,3.25188 4.32411,3.66457 0.58062,0.41268 8.35333,8.39573 17.27274,17.7401 21.38565,22.40466 22.9992,24.83973 22.63992,34.16742 -0.21633,5.61773 -1.42599,9.05145 -4.36863,12.40101 -3.29193,3.74721 -8.92462,4.97312 -13.43861,2.92485 z M 402.63609,319.75413 c -7.815,-1.68356 -14.42878,-6.63465 -17.76448,-13.29845 -2.73194,-5.45779 -3.47685,-9.77352 -3.18239,-18.43822 0.24342,-7.16337 0.46354,-8.40943 3.18014,-18.00088 0.27206,-0.96062 0,-1.25711 -1.87875,-2.06287 -3.43751,-1.47264 -3.62367,-1.8961 -3.29119,-7.48522 0.49045,-8.24451 2.87209,-13.25951 10.39195,-21.88232 2.92759,-3.35696 3.79829,-4.09759 3.92038,-3.33467 0.19741,1.23363 -0.19836,1.95852 -3.43872,6.29825 -3.85669,5.16513 -5.16525,8.25509 -4.89178,11.55103 0.31607,3.80955 0.96564,4.41607 4.28553,4.00151 l 2.68788,-0.33564 -1.47522,2.92312 c -3.61587,7.16501 -6.10596,16.85332 -6.10596,23.75707 0,10.9263 4.83449,20.39649 12.3572,24.20637 8.4259,4.26729 19.43184,4.14735 30.54576,-0.33288 5.41206,-2.18168 6.87457,-2.8787 11.45329,-5.45833 9.94467,-5.6028 19.04868,-13.72958 22.44157,-20.03263 l 1.70554,-3.16838 0.27627,-10.53156 c 0.1947,-7.42131 0.47611,-10.90184 0.95275,-11.78532 0.81862,-1.51717 3.09363,-4.01204 3.65849,-4.01204 0.22435,0 0.40701,2.87738 0.40591,6.39418 -0.005,10.69664 -1.85742,19.35035 -6.01631,28.08054 -8.49428,17.83109 -23.8526,29.64268 -42.84863,32.95343 -5.41942,0.94453 -12.96883,0.94188 -17.36923,-0.006 z m 214.11216,-7.29106 c -0.50349,-5.30074 -1.55705,-42.0407 -1.21532,-42.38223 0.72678,-0.72639 2.90439,0.41575 3.70354,1.9425 1.16214,2.22027 2.04348,24.90341 1.24193,31.96357 -0.58207,5.12698 -1.62549,9.22673 -2.73385,10.74164 -0.62101,0.84878 -0.72238,0.6183 -0.9963,-2.26548 z m -67.0162,-0.12434 c -1.65213,-6.55759 0.66683,-13.0749 7.21694,-20.28256 2.89196,-3.18225 3.45522,-2.29677 0.81656,1.28375 -3.30288,4.48192 -4.76263,7.85799 -4.43933,10.2672 0.31483,2.3457 0.99861,2.93286 2.95916,2.54096 1.22361,-0.24457 1.40214,-0.12781 1.39251,0.91053 -0.017,1.8145 -1.76619,5.28016 -3.10935,6.15972 -0.65849,0.43122 -1.88707,0.92194 -2.73012,1.09046 -1.4736,0.29455 -1.555,0.21846 -2.10637,-1.97006 z m -126.5226,-5.48189 c 0,-0.0765 -0.43801,-3.29238 -0.97342,-7.14641 -1.03097,-7.42177 -1.80503,-17.35677 -2.28479,-29.32423 -0.75259,-18.77289 -1.30656,-30.00036 -1.56514,-31.7201 -0.27759,-1.8463 -0.2529,-1.88063 1.35268,-1.88063 0.89945,0 2.03395,-0.36051 2.52114,-0.80112 0.8275,-0.74845 0.90216,-0.69077 1.13584,0.87763 0.1376,0.92332 0.50902,7.99769 0.8254,15.72084 0.50826,12.40739 2.16893,39.95115 2.85131,47.29243 0.29958,3.22241 -0.0569,4.82126 -1.36682,6.13042 -0.81229,0.81181 -2.4962,1.386 -2.4962,0.85117 z m 209.80394,-2.61917 c -0.13196,-3.34767 -1.71968,-10.82421 -3.31762,-15.62249 -3.32275,-9.9776 -7.69539,-17.16079 -18.92066,-31.082 -10.15039,-12.58818 -11.41671,-14.38286 -11.33528,-16.06474 0.0381,-0.78275 -0.11431,-3.11577 -0.33835,-5.18447 l -0.4073,-3.76127 3.01113,4.01202 c 1.65611,2.20662 4.977,6.2688 7.37976,9.02705 14.78147,16.96853 19.66898,24.16812 22.81029,33.60072 2.55918,7.68482 3.16112,16.97739 1.59178,24.57367 -0.37053,1.7935 -0.42071,1.84663 -0.47375,0.50151 z m -43.72555,-3.60685 c -1.64601,-1.12581 -1.98207,-1.66905 -1.95672,-3.16346 0.0242,-1.42849 -0.009,-1.37845 8.6529,-13.10686 3.5373,-4.78969 8.39212,-11.67837 10.78846,-15.30819 2.39635,-3.62982 4.56954,-6.54921 4.82936,-6.48755 0.25979,0.0617 1.13361,0.92865 1.94183,1.92661 l 1.46945,1.81452 -3.45899,5.17454 c -1.90243,2.84601 -6.64455,9.57524 -10.53802,14.95386 -3.89348,5.37862 -7.80267,10.96413 -8.68712,12.4122 -0.88447,1.4481 -1.65134,2.6329 -1.70428,2.6329 -0.0529,0 -0.65448,-0.38185 -1.33687,-0.84857 z m -185.64816,-0.48514 c -11.36548,-3.94778 -16.19851,-20.73881 -10.72951,-37.2768 1.72164,-5.20622 2.93085,-6.99379 1.86937,-2.76351 -1.09942,4.38148 -1.08516,13.30745 0.0271,17.02969 3.1828,10.65042 10.56232,15.6009 20.64091,13.8468 1.84973,-0.32193 3.43349,-0.51505 3.51943,-0.42912 0.0861,0.0859 0.31363,2.09369 0.50586,4.4617 l 0.34955,4.30548 -3.30208,0.82899 c -4.1096,1.0317 -9.90536,1.03024 -12.88072,-0.003 z m 92.14719,-3.8879 c -7.11647,-2.63289 -10.55524,-13.8079 -8.08342,-26.26886 0.69673,-3.51239 4.9946,-13.5704 5.55811,-13.00724 0.12034,0.12025 -0.44478,2.79052 -1.25572,5.93394 -4.46783,17.31812 -2.44,25.02318 6.58559,25.02318 6.00018,0 11.51319,-4.39107 22.98187,-18.30487 7.79892,-9.46161 11.95111,-13.80958 15.86025,-16.60793 4.93973,-3.53609 7.29883,-4.38626 12.22675,-4.40629 7.45864,-0.0304 11.03349,2.56906 11.0375,8.02568 0,2.14217 -0.76848,5.71674 -1.23148,5.71674 -0.0724,0 -0.96038,-0.78113 -1.97323,-1.73587 -3.08445,-2.90735 -6.60877,-3.43266 -11.95589,-1.78205 -6.6612,2.05626 -11.70037,6.52101 -20.95129,18.56302 -6.75951,8.7989 -13.83694,15.88145 -17.80364,17.81655 -3.52803,1.7211 -8.00127,2.14176 -10.9954,1.034 z m -67.05774,-5.04098 0,-4.74607 6.39781,-3.26723 c 13.61445,-6.95268 17.97921,-13.10869 15.41441,-21.74037 l -0.76823,-2.58555 -7.63674,-0.13837 -7.63667,-0.13835 -1.19843,-2.41566 c -3.22484,-6.50026 -0.93327,-17.67952 4.11478,-20.0736 5.88543,-2.79124 11.91568,1.13516 15.17039,9.87768 0.88164,2.36813 0.95219,2.42603 2.62596,2.15456 2.8349,-0.45977 7.60175,-3.01569 12.65627,-6.78608 2.62184,-1.95575 4.9928,-3.48422 5.26879,-3.3966 0.27597,0.0876 0.67455,2.04768 0.8857,4.35569 0.21116,2.308 0.71496,4.70129 1.11955,5.31838 1.09726,1.6737 4.5423,2.05677 7.34674,0.81693 2.46473,-1.08966 3.9973,-2.72199 7.91407,-8.42932 l 2.71418,-3.95495 0.84029,2.57626 c 1.63699,5.0185 4.25898,7.40596 7.67566,6.98906 2.9,-0.35387 3.44745,-1.01127 2.57664,-3.09417 -0.99123,-2.37099 -0.87466,-5.60325 0.29496,-8.17919 1.15738,-2.54897 1.82555,-2.50779 3.37288,0.20785 2.55049,4.47632 0.76742,12.26615 -3.73668,16.3247 -4.05025,3.64956 -8.05326,3.67224 -11.22347,0.0635 -0.90126,-1.02586 -1.72669,-1.60116 -1.83434,-1.27841 -0.10763,0.32273 -0.94266,1.56448 -1.85561,2.75942 -3.13343,4.1014 -9.3238,6.26558 -14.17409,4.95537 -2.39675,-0.64744 -3.91737,-2.64243 -4.87558,-6.39643 l -0.58153,-2.27821 -4.21838,3.34875 c -4.30853,3.42031 -7.4017,5.28064 -8.78006,5.28064 -0.57521,0 -0.77265,0.54797 -0.77265,2.14455 0,3.76399 -1.02691,10.49356 -2.07936,13.62655 -2.25876,6.724 -6.96886,12.39896 -14.16702,17.06913 -3.65217,2.36954 -9.89442,5.77552 -10.58504,5.77552 -0.14587,0 -0.2652,-2.13573 -0.2652,-4.74605 z m 16.85309,-41.51897 c 0.49149,-0.4912 -2.15795,-3.50006 -3.97317,-4.51218 -2.45766,-1.37035 -3.52034,-1.13113 -4.75891,1.07129 -1.52304,2.70832 -1.41535,3.45954 0.53486,3.73141 2.24194,0.31253 7.79062,0.11588 8.19722,-0.29052 z m 148.57007,25.07652 c -1.84383,-16.19363 -2.55934,-29.34805 -3.33455,-61.30879 -0.9132,-37.64813 -1.69293,-50.56552 -4.08325,-67.64341 -1.01427,-7.24673 -0.99966,-11.63865 0.0441,-13.32689 0.36537,-0.59081 0.62986,-0.4994 1.46333,0.50583 1.52066,1.83395 3.79447,6.24514 5.54416,10.75552 0.85595,2.20662 2.04424,5.08847 2.64056,6.4041 0.82982,1.83062 0.94608,2.53022 0.49537,2.98063 -0.45065,0.45043 -0.91999,0.27154 -1.99958,-0.76218 -1.71983,-1.64675 -2.61101,-1.72274 -2.60794,-0.22236 0.006,2.84857 4.62638,85.10386 5.81708,103.55485 l 1.33466,20.68144 -2.08793,2.76383 c -1.14836,1.52011 -2.16091,2.76384 -2.25019,2.76384 -0.0893,0 -0.52843,-3.21588 -0.97598,-7.14641 z m -23.70291,-10.28111 c -0.0277,-13.36535 -0.31493,-20.56473 -1.36512,-34.22731 -0.73141,-9.51603 -1.46527,-19.22011 -1.63087,-21.56465 l -0.30097,-4.26277 1.58656,1.50452 c 3.57946,3.39429 4.84352,8.2106 5.26482,20.06012 0.1569,4.41324 0.64495,13.55313 1.08456,20.31088 1.24529,19.14363 0.54208,26.68518 -3.06136,32.83052 -0.73362,1.2511 -1.38077,2.27457 -1.43813,2.27442 -0.0574,-1.7e-4 -0.12018,-7.61675 -0.13949,-16.92573 z m -69.02286,12.35052 c -0.94455,-0.94406 -1.03874,-1.48268 -0.82935,-4.74371 0.20358,-3.16995 0.59277,-4.39251 2.81428,-8.83971 2.40352,-4.81147 6.08656,-9.92527 7.14834,-9.92527 1.00935,0 0.35557,1.7257 -1.79485,4.73749 -2.83159,3.96588 -3.76593,6.1828 -3.75619,8.91237 0.0111,3.03111 0.46245,3.54673 2.73325,3.12097 l 1.88391,-0.35324 -0.3665,1.69591 c -0.52829,2.44454 -2.09944,5.3407 -3.22339,5.94189 -1.55023,0.8292 -3.45934,0.60276 -4.6095,-0.5467 z m 147.23046,0.56347 c 0.16548,-0.41374 0.90467,-2.20615 1.64264,-3.98314 4.38323,-10.55458 4.19286,-22.46831 -0.55076,-34.45502 -2.50152,-6.32117 -2.89371,-10.02524 -1.43185,-13.52203 l 0.80788,-1.93236 1.24198,1.49499 c 1.97499,2.37728 4.55654,8.08531 5.52961,12.2263 1.38067,5.87579 1.25181,20.3349 -0.23378,26.23411 -1.32989,5.28077 -3.424,9.97924 -5.65302,12.68339 -0.90943,1.10331 -1.51815,1.66751 -1.3527,1.25376 z M 404.79274,274.7736 c -0.56521,-0.6202 -1.29778,-1.65069 -1.628,-2.28997 -0.83499,-1.61667 -0.73848,-5.93598 0.19087,-8.54375 0.95456,-2.67856 4.46733,-7.99262 7.50737,-11.35706 2.74896,-3.04231 3.12339,-1.99515 0.56321,1.57513 -4.41148,6.15203 -5.64423,9.65735 -4.28734,12.19129 0.49923,0.93224 0.9388,1.0929 2.56595,0.93783 1.0799,-0.10295 1.9635,-0.009 1.9635,0.20768 0,1.49891 -2.69471,5.70444 -4.82465,7.52959 -0.98115,0.8408 -1.0656,0.83047 -2.05091,-0.25074 z m 174.98509,-3.36443 c -2.07941,-4.07365 -0.9418,-10.09057 2.98671,-15.79723 2.07886,-3.01975 6.41632,-7.57975 6.82317,-7.17317 0.16384,0.16377 -0.96363,2.09707 -2.50548,4.29624 -4.24449,6.05384 -5.25283,9.68169 -3.24799,11.68539 0.77964,0.7792 1.43593,0.97925 2.50895,0.76479 0.79921,-0.15976 1.45309,-0.19173 1.45309,-0.071 0,1.32398 -2.39349,6.0093 -3.57926,7.00649 -2.156,1.81309 -3.2391,1.63949 -4.43919,-0.71146 z M 521.36567,261.3919 c -0.32305,-4.2768 -0.0726,-11.73026 0.48557,-14.45555 0.223,-1.0886 0.28126,-1.10071 1.48882,-0.30994 0.69122,0.45264 1.67567,1.41381 2.18764,2.13594 0.87553,1.23484 0.88878,1.59645 0.22281,6.07723 -0.94638,6.36725 -1.49709,8.25543 -2.8747,9.85609 l -1.15889,1.34652 -0.35125,-4.65029 z m 98.54229,-5.41602 c -1.46372,-1.85979 -1.05646,-3.59067 1.80133,-7.65584 6.78249,-9.64788 18.09858,-27.08931 20.98692,-32.34696 3.10814,-5.65776 3.30608,-5.90387 3.30684,-4.11103 0,2.77862 -1.39693,8.47637 -3.08179,12.55993 -2.1742,5.26944 -5.22622,10.20664 -11.99771,19.40847 -3.33947,4.53798 -6.78832,9.42927 -7.66413,10.86953 -0.87583,1.44028 -1.74532,2.62509 -1.9323,2.6329 -0.18696,0.008 -0.82559,-0.60282 -1.41916,-1.357 z m -91.24431,-5.7752 c -3.71575,-3.85128 -6.26243,-6.957 -15.90717,-19.39904 -7.21282,-9.30482 -10.03037,-12.44806 -13.32427,-14.86462 -3.09453,-2.27033 -3.96513,-3.90859 -3.96513,-7.46158 0,-1.53075 0.0847,-2.78318 0.18817,-2.78318 0.10352,0 2.381,1.01716 5.061,2.26035 5.7781,2.68026 10.89805,5.93814 13.29003,8.45655 l 1.72922,1.82069 -2.85824,0 c -1.57206,0 -2.8583,0.14916 -2.8583,0.33148 0,0.98751 6.42782,8.58669 13.52523,15.98988 4.44455,4.63606 9.33332,10.06333 10.86403,12.06062 l 2.78303,3.63142 -1.91955,1.78309 c -1.05576,0.98072 -2.18513,1.78921 -2.5098,1.79666 -0.32465,0.008 -2.16889,-1.62257 -4.09825,-3.62232 z m 86.81784,-0.033 c -1.52012,-1.61714 -2.09393,-3.90881 -2.09416,-8.36381 -3.1e-4,-5.01489 -2.31628,-45.04082 -3.26475,-56.42243 -0.90217,-10.82662 -1.53307,-16.7392 -2.55773,-23.97042 l -0.76723,-5.4148 1.35745,-4.07383 c 1.26425,-3.79398 1.40857,-4.00765 2.10084,-3.11074 2.1338,2.76447 8.86656,19.03416 8.55208,20.66609 -0.12042,0.62508 -0.54434,0.45281 -1.97503,-0.80263 -2.82829,-2.48185 -3.042,-2.24407 -2.73255,3.04036 0.14943,2.5514 0.39786,7.45986 0.55207,10.9077 0.15424,3.44783 0.72418,12.13638 1.26656,19.30788 0.54238,7.1715 1.20244,17.77829 1.46678,23.57065 0.46802,10.25591 0.2218,23.92698 -0.45411,25.21256 -0.24583,0.46759 -0.63467,0.32104 -1.45022,-0.54658 z m -67.43519,-6.73726 c -1.45555,-1.6677 -1.89852,-3.07988 -1.89852,-6.05235 0,-2.47459 0.33966,-3.66214 1.98979,-6.95717 2.02066,-4.03484 8.5799,-12.34554 8.92558,-11.30897 0.2567,0.76969 -0.46662,2.03007 -3.35021,5.83762 -4.43977,5.86245 -4.46269,12.48715 -0.0381,11.08371 2.26953,-0.71993 0.64012,4.7178 -2.10561,7.02688 -1.75591,1.47666 -2.48978,1.55381 -3.52272,0.37028 z m -85.39527,-9.52855 c -0.88545,-19.56668 -4.09385,-71.06645 -5.63158,-90.39597 -0.95506,-12.00522 -0.5583,-23.06915 0.82735,-23.06915 1.05582,0 9.88354,20.5712 9.26027,21.57911 -0.47324,0.76522 -1.04919,0.58739 -2.76155,-0.85263 l -1.59303,-1.33969 0.31452,5.97859 c 0.17298,3.28821 0.65403,13.65158 1.06901,23.02968 1.00584,22.72965 3.1401,59.87654 3.67381,63.94167 0.23539,1.79289 0.31869,3.99748 0.18505,4.89913 -0.27417,1.8506 -2.17902,3.62644 -3.88982,3.62644 -1.09214,0 -1.12742,-0.17939 -1.45403,-7.39718 z m -55.58042,0.73754 c -2.92217,-1.51123 -3.32245,-1.92477 -4.9363,-5.09965 l -1.75626,-3.45504 0.10643,-14.00308 c 0.0954,-12.54037 0.026,-13.93636 -0.66391,-13.36416 -0.99762,0.82744 -2.44302,3.68239 -3.15044,6.22257 -0.30725,1.10332 -1.12105,6.19044 -1.80845,11.30472 -1.55952,11.60313 -2.29524,14.17308 -4.76388,16.64028 -1.5981,1.59721 -2.2301,1.89445 -4.02791,1.89445 -2.90221,0 -5.05076,-1.45104 -6.73903,-4.55118 -2.18013,-4.00329 -2.83773,-7.15295 -3.14,-15.03892 -0.25124,-6.55596 0.49898,-16.53862 1.19099,-15.847 0.124,0.12392 0.43802,3.23951 0.6979,6.92351 0.82866,11.74846 1.796,15.3767 4.85572,18.2122 1.92285,1.78195 2.73228,1.60717 4.60095,-0.9934 2.06852,-2.87874 4.07317,-8.36863 6.27337,-17.18032 2.78768,-11.16458 5.04944,-15.87414 8.99557,-18.73109 3.35676,-2.43023 3.54282,-2.2082 3.17566,3.78946 -0.17607,2.87599 -0.6884,8.2358 -1.13846,11.9107 -1.081,8.82667 -0.78489,15.04447 0.85641,17.9817 1.56663,2.80359 3.08746,3.86511 6.51408,4.54666 6.5073,1.29431 11.96846,-1.71177 13.70069,-7.54146 0.95109,-3.20079 1.06847,-11.83373 0.25958,-19.0876 -0.67029,-6.01054 -0.74039,-17.42762 -0.11656,-18.98095 0.44453,-1.10696 0.56591,-1.00168 2.02341,1.75526 1.84322,3.48658 2.85423,7.98058 3.93171,17.47645 2.09487,18.46245 5.44829,23.95328 14.58611,23.88319 3.7577,-0.0288 6.28094,-1.04765 7.7697,-3.13718 1.25328,-1.75912 1.19446,-1.97989 -3.35174,-12.58147 -5.34004,-12.45278 -7.20449,-20.15435 -6.46234,-26.69491 0.53821,-4.74353 0.76377,-4.79705 3.67525,-0.87197 3.93944,5.31103 6.72808,11.19848 4.96249,10.47704 -0.34498,-0.14095 -1.01808,-0.41328 -1.49584,-0.60514 -0.68558,-0.27537 -0.48844,0.47345 0.93585,3.55436 2.93611,6.35117 4.76613,14.36063 5.07363,22.20537 0.30609,7.81012 -0.25516,11.09908 -2.39885,14.05663 -1.97519,2.72514 -3.77687,3.56555 -7.64391,3.56555 -7.13293,0 -11.29436,-2.64241 -14.83333,-9.41879 l -2.01715,-3.86248 -0.605,2.40139 c -1.33546,5.30051 -6.37965,11.01694 -11.36699,12.88187 -4.17658,1.56179 -7.90724,1.35969 -11.76915,-0.63757 z m 115.94033,-3.38816 -2.31265,-2.74054 -0.58714,-13.03908 c -0.32296,-7.1715 -1.15106,-21.0506 -1.84026,-30.84245 -0.68921,-9.79185 -1.69807,-24.68651 -2.24184,-33.09922 -0.54379,-8.41273 -1.2441,-18.34249 -1.5562,-22.06615 -0.71736,-8.55812 -0.11144,-19.05713 1.09972,-19.05713 1.3183,0 9.87932,19.85355 9.25841,21.47076 -0.22972,0.59826 -0.74049,0.33569 -2.33443,-1.20003 l -2.04032,-1.96586 0.32731,8.77631 c 0.43817,11.74707 1.57667,33.35518 2.77455,52.65784 1.29166,20.81431 2.15122,39.38486 1.93736,41.8578 l -0.17192,1.98827 -2.31259,-2.74052 z m -47.53489,0.24489 c -0.32029,-0.70256 -0.58233,-2.92327 -0.58233,-4.93494 0,-3.10062 0.24111,-4.1398 1.58341,-6.82444 1.54561,-3.09124 7.56045,-10.07798 8.16321,-9.48223 0.16664,0.16467 -0.93564,2.15952 -2.44944,4.43298 -2.77595,4.16887 -3.5033,6.18247 -3.19841,8.85433 0.15124,1.32507 0.36069,1.47241 2.29188,1.61221 l 2.12547,0.15386 -1.4872,2.94437 c -2.24867,4.45205 -5.21525,5.9448 -6.44659,3.24386 z m 111.71221,-4.86608 c -0.95285,-1.17225 -4.73844,-6.19356 -8.41251,-11.15843 -3.67399,-4.96489 -8.68811,-11.04073 -11.14246,-13.50187 l -4.46247,-4.47481 0.14437,-3.91238 0.14431,-3.91236 9.0322,5.16199 c 6.80703,3.89028 9.03221,5.40057 9.03221,6.13041 0,0.8478 -0.32817,0.95481 -2.63439,0.85917 -1.44892,-0.0601 -2.6344,0.005 -2.6344,0.14536 0,1.03084 2.50294,4.6483 5.70038,8.2387 5.40517,6.0694 6.98044,9.2002 7.25462,14.41821 0.11957,2.27559 0.10336,4.13741 -0.0362,4.13741 -0.13935,0 -1.03299,-0.95912 -1.98588,-2.1314 z m -56.15583,-1.25374 c 3.0408,-5.94261 11.57839,-10.89475 24.37295,-14.13725 9.86478,-2.50003 10.21367,-2.43896 7.26326,1.27156 -1.39587,1.75548 -2.02277,2.06898 -6.55171,3.27658 -8.00676,2.13488 -16.81611,5.89781 -22.89996,9.78173 -1.45428,0.92841 -2.75722,1.68802 -2.89547,1.68802 -0.13825,0 0.18165,-0.84629 0.71093,-1.88064 z m 102.75061,-1.13296 c -0.15416,-1.51453 -0.9094,-8.62129 -1.67824,-15.79277 -1.46402,-13.65496 -1.87012,-29.76252 -0.8148,-32.31694 0.48368,-1.17074 0.59531,-1.07272 2.57915,2.26464 1.14046,1.91859 2.85452,5.29021 3.80902,7.49251 1.84217,4.25035 4.48525,12.77379 4.08512,13.17369 -0.13117,0.13113 -1.25457,-0.8064 -2.4964,-2.08341 -1.24183,-1.27702 -2.49209,-2.32185 -2.77836,-2.32185 -0.72262,0 -0.65042,3.25992 0.22816,10.29989 0.86022,6.8925 0.97633,14.72873 0.25616,17.28279 -0.27221,0.96539 -1.03819,2.43024 -1.70226,3.25522 l -1.20731,1.49994 -0.28024,-2.75371 z m -216.2984,-5.13583 c -2.04303,-25.54953 -2.94033,-39.93652 -3.1696,-50.82295 -0.29832,-14.16033 -0.0347,-18.21097 1.12346,-17.25051 1.98361,1.64534 9.16262,19.32336 8.52333,20.98839 -0.21626,0.56326 -0.7729,0.2694 -2.31987,-1.22478 l -2.0354,-1.96587 0.28662,4.26279 c 0.15766,2.34453 0.41458,7.19657 0.57098,10.78232 0.41202,9.44673 1.67798,30.62225 2.02728,33.91029 0.29666,2.79195 0.28387,2.82661 -1.43226,3.88664 -2.89562,1.78855 -3.24642,1.53669 -3.57454,-2.56632 z m 180.86687,-12.88075 c -0.28572,-0.53351 -0.51946,-2.53428 -0.51946,-4.44615 0,-2.97199 0.25306,-3.97681 1.74468,-6.92863 2.02668,-4.01054 7.44188,-10.59503 7.71255,-9.37791 0.0958,0.4307 -0.3503,1.48875 -0.99133,2.35122 -4.51766,6.0784 -5.24386,8.19646 -3.96385,11.56122 0.44024,1.15722 0.61143,1.22571 1.75838,0.70344 0.69884,-0.31824 1.41519,-0.43416 1.59187,-0.25759 0.51052,0.51022 -1.37716,4.95058 -2.64191,6.21467 -1.45013,1.44924 -3.95963,1.54541 -4.69093,0.17973 z m -88.61892,-0.48072 c -6.08715,-2.76313 -7.87302,-9.88319 -6.73962,-26.87002 0.34271,-5.13635 0.48879,-9.4731 0.32455,-9.6372 -0.60089,-0.60054 -2.34452,2.18482 -3.34513,5.34362 -0.56506,1.78373 -1.36882,6.18441 -1.78621,9.77932 -1.66062,14.30292 -2.88805,18.52457 -5.92377,20.37466 -5.46284,3.32923 -10.48619,-1.49991 -12.64705,-12.15809 -1.19928,-5.91543 -0.80326,-18.53191 0.713,-22.71428 1.52403,-4.20376 2.25765,-4.74261 1.74682,-1.283 -0.224,1.51704 -0.40729,6.25626 -0.40729,10.53156 0,6.32376 0.17657,8.28029 0.94697,10.49207 0.92218,2.64745 4.37032,7.06155 5.51476,7.05958 0.73848,-0.002 3.51333,-4.13616 4.77438,-7.11451 0.54755,-1.29316 1.70683,-4.90399 2.57622,-8.02405 3.03964,-10.90841 4.11598,-14.20355 5.59762,-17.13694 1.8418,-3.6466 5.86431,-8.11044 6.62417,-7.35101 0.89092,0.89042 0.94792,9.92368 0.1028,16.28674 -0.93664,7.05207 -1.03253,14.47168 -0.21797,16.87174 1.27751,3.76429 4.58895,6.42947 8.024,6.45799 1.30777,0.0109 1.33175,0.0749 1.68145,4.49063 0.19509,2.46379 0.20574,4.72055 0.0236,5.01503 -0.5319,0.86012 -5.35691,0.59681 -7.58334,-0.41384 z m 31.07264,-3.48397 c -3.2553,-2.372 -6.04731,-6.64237 -7.41202,-11.33687 l -0.59111,-2.03327 -1.69008,4.89398 c -1.72209,4.98683 -3.17477,7.89435 -3.94431,7.89435 -0.75705,0 -1.59328,-2.4895 -1.59328,-4.74317 0,-1.58482 0.65744,-3.54781 2.3835,-7.11654 2.30637,-4.76859 2.38118,-5.06622 2.3121,-9.19714 -0.0472,-2.83144 -0.62278,-6.63343 -1.70876,-11.29011 -2.0079,-8.60963 -2.31219,-16.23256 -0.78078,-19.55862 l 0.92364,-2.00601 0.93178,2.05961 c 1.38429,3.05987 2.28489,6.88229 4.24132,18.00051 2.04107,11.59969 3.29319,16.43199 5.27787,20.36932 2.99623,5.94408 7.26078,7.40384 13.13106,4.49479 4.57191,-2.26563 4.55489,-1.39289 0.2231,-11.46332 -4.55032,-10.57844 -6.01645,-14.73931 -6.86422,-19.48036 -0.69473,-3.88534 -0.49713,-12.93114 0.29992,-13.72772 0.79448,-0.794 8.73324,11.09206 8.73324,13.07551 0,0.55053 -0.294,0.51492 -3.13057,-0.37908 -0.73597,-0.23194 -0.64525,0.22604 0.57947,2.92558 4.16114,9.17197 6.56541,18.43484 6.56541,25.29447 0,5.44361 -0.66923,7.70796 -3.09087,10.45746 -2.28235,2.59142 -4.57722,3.59645 -9.24115,4.04715 -3.32099,0.32091 -3.56618,0.2688 -5.55526,-1.18052 z m -155.84099,-9.73424 c -0.92635,-1.74232 -1.12987,-2.90954 -1.11512,-6.39417 0.0216,-5.11836 1.12891,-8.31232 4.74702,-13.69288 2.80123,-4.16583 8.74915,-10.78586 9.25464,-10.3005 0.46632,0.44773 -0.94507,3.13592 -3.31075,6.30582 -5.01578,6.72091 -6.2116,11.89003 -3.51934,15.21292 0.82518,1.01847 1.04839,1.05764 2.77745,0.48731 1.03409,-0.34107 1.98854,-0.51184 2.12096,-0.37945 0.13247,0.13238 -0.65483,2.17823 -1.74954,4.54634 -2.12633,4.59986 -3.96513,6.34038 -6.70239,6.34413 -1.09998,0.002 -1.59288,-0.41787 -2.50293,-2.12952 z m 184.64494,-1.66453 c -2.89628,-1.57048 -4.38323,-6.99561 -4.3891,-16.01346 0,-2.75827 -0.4783,-11.67249 -1.05898,-19.80937 -1.06063,-14.86203 -1.10082,-30.87206 -0.0862,-34.29377 l 0.42857,-1.44528 1.57254,2.9498 c 1.83199,3.43644 7.67006,17.56996 7.67006,18.56859 0,1.12261 -0.99008,0.77303 -2.33502,-0.82444 -2.00882,-2.38593 -2.81188,-2.01815 -2.46399,1.12837 0.16012,1.44809 0.73603,11.54712 1.27977,22.44227 0.54373,10.89516 1.12666,21.67122 1.2954,23.94679 0.16871,2.27556 0.11713,4.12836 -0.1146,4.11732 -0.23177,-0.0111 -1.04111,-0.35611 -1.79856,-0.76682 z m 6.1719,-10.68835 c -2.81443,-0.78511 -2.66635,-7.97315 0.28733,-13.94748 1.74833,-3.5364 8.64477,-11.75603 8.69606,-10.36455 0.0116,0.31445 -1.02757,1.99538 -2.30924,3.73541 -3.26876,4.43776 -4.27725,6.93019 -4.09354,10.11685 l 0.15149,2.62714 2.13455,-0.0952 c 2.07801,-0.0926 2.12603,-0.0595 1.81131,1.25376 -0.48803,2.03635 -1.65489,4.20037 -3.09342,5.73705 -1.3468,1.43864 -1.57356,1.49792 -3.58454,0.93696 z m -140.4618,-8.01652 c -0.67898,-0.67857 -1.12717,-2.01089 -1.35574,-4.03001 -0.19293,-1.70453 -0.57409,-2.9708 -0.87642,-2.91171 -0.29425,0.0575 -0.62202,-0.29357 -0.7284,-0.78019 -0.21392,-0.9787 2.54487,-5.06395 3.06724,-4.54189 0.1805,0.18041 0.32822,1.62602 0.32822,3.21244 0,3.80073 0.30629,4.47097 2.04319,4.47097 2.05207,0 2.63077,-1.39799 2.25328,-5.44347 -0.52839,-5.66292 1.68164,-6.21526 2.4261,-0.60636 0.35888,2.70373 1.7803,4.93149 2.7603,4.32615 0.41587,-0.25687 0.56315,-1.53328 0.45762,-3.96645 -0.17964,-4.14224 0.43981,-4.9239 1.76098,-2.22208 1.96436,4.01722 1.54662,10.02072 -0.81214,11.67192 -1.50512,1.05363 -2.20938,0.94885 -3.71128,-0.55218 l -1.30672,-1.30597 -1.45574,1.55674 c -0.80065,0.8562 -1.65163,1.55673 -1.89104,1.55673 -0.2394,0 -0.77502,0.13028 -1.19024,0.28952 -0.41518,0.15924 -1.21138,-0.16663 -1.76921,-0.72416 z m 38.57088,-10.58155 c 13.6617,-5.0817 18.97866,-7.75912 23.53013,-11.84899 l 2.62431,-2.3581 -1.5839,-1.4458 c -0.99469,-0.90802 -1.47275,-1.73517 -1.28512,-2.22373 0.16423,-0.42784 0.29866,-0.96379 0.29866,-1.19096 0,-0.22716 0.80336,-1.37404 1.78526,-2.5486 0.98186,-1.17458 1.91333,-2.77566 2.06988,-3.55797 0.35783,-1.78822 0.71565,-1.77802 3.44408,0.0981 4.10695,2.82405 6.10702,8.28503 4.28257,11.69305 -0.84245,1.57367 -2.75477,1.76844 -5.15969,0.52552 -1.42403,-0.736 -1.59479,-0.73641 -2.00446,-0.005 -0.24627,0.43983 -1.36099,1.85424 -2.47717,3.14313 -6.64017,7.66774 -15.10059,11.49098 -26.52814,11.98795 l -5.77058,0.25097 6.77417,-2.51977 z m 33.79509,-15.94262 c 0.21772,-0.35212 -1.86867,-3.13138 -2.35073,-3.13138 -0.11904,0 -0.32772,0.5818 -0.46376,1.29287 -0.18812,0.98375 0.008,1.39585 0.81967,1.72348 1.38048,0.55714 1.7097,0.57613 1.99482,0.11503 z m -4.20721,-3.09841 c 0.28573,-0.53352 0.51945,-1.09772 0.51945,-1.25376 0,-0.49041 -1.69503,-0.26574 -3.26163,0.43229 l -1.50536,0.67076 1.25448,0.5286 c 1.8404,0.77545 2.41425,0.703 2.99306,-0.37789 z m -73.49443,6.31534 c 4.57451,-1.95869 9.49365,-4.58491 9.66164,-5.15815 0.25296,-0.86286 -1.23219,-1.26154 -5.82506,-1.56375 l -4.1921,-0.27583 0.31482,-1.96735 c 0.58243,-3.64051 2.29985,-5.15288 6.50243,-5.72617 3.95134,-0.53903 12.35536,1.69071 12.35536,3.27809 0,1.24113 -1.91658,4.61195 -3.6882,6.48666 -3.32275,3.51614 -9.73888,6.13977 -14.79726,6.05074 l -2.84057,-0.05 2.50894,-1.07426 z m 104.36651,-4.96917 c -0.92264,-2.57045 -2.24064,-7.31277 -2.24597,-8.08115 -0.009,-1.24828 2.05073,-4.86084 2.58342,-4.53183 0.23148,0.14297 0.42391,1.43144 0.42767,2.86325 0.0105,3.9942 0.37418,4.86006 2.04123,4.86006 2.03119,0 2.58702,-1.35311 2.22297,-5.41123 -0.34913,-3.89152 0.26866,-5.5202 1.48851,-3.92424 0.39742,0.51994 0.87251,1.98683 1.05581,3.25978 0.18331,1.27292 0.65951,3.10428 1.05823,4.06967 l 0.72504,1.75527 0.88033,-1.07391 c 0.76715,-0.9358 0.81631,-1.50206 0.38247,-4.40329 -0.65709,-4.39428 0.10022,-5.35893 1.7509,-2.23039 1.56808,2.97192 1.70376,9.78224 0.22741,11.41481 -1.21299,1.34137 -3.1801,1.35322 -4.59188,0.0277 l -1.09636,-1.02939 -1.53176,1.53089 c -1.14182,1.14118 -1.99271,1.53091 -3.34242,1.53091 -0.9958,0 -1.91187,-0.2821 -2.0356,-0.62688 z m -56.71055,-12.71355 c 0.82022,-0.46772 3.0304,-1.4847 4.91145,-2.25995 1.88111,-0.77526 4.11714,-1.90556 4.96898,-2.51179 l 1.54882,-1.10222 -1.4424,-0.76903 c -0.89378,-0.4765 -2.82618,-0.78042 -5.08021,-0.799 -3.54373,-0.0292 -3.63771,-0.0625 -3.63797,-1.29157 -3e-4,-1.92485 1.67819,-4.64417 3.54143,-5.73732 2.37437,-1.39303 7.22441,-1.31057 11.9339,0.20291 2.02592,0.65105 3.79428,1.47229 3.92966,1.82495 0.62894,1.63808 -4.49302,7.83116 -8.36584,10.11531 -2.32608,1.3719 -6.52043,2.51943 -10.53756,2.88294 l -3.26163,0.29517 1.49137,-0.8504 z m 60.84629,-6.20322 c -0.17175,-1.27999 -1.28246,-3.73442 -2.8347,-6.26412 -3.80493,-6.20105 -4.12331,-10.84259 -0.57028,-8.31408 2.43497,1.73288 4.194,6.01 4.44609,10.811 0.24157,4.59992 -0.54659,7.45189 -1.04111,3.7672 z" />
  <circle cx="512" cy="250" r="165" fill="none" stroke="#1a1a1a" stroke-width="3" />
  <circle cx="512" cy="250" r="211" fill="none" stroke="#1a1a1a" stroke-width="3" />
  <path id="key" stroke="#1a1a1a" stroke-width="5" stroke-linecap="square" fill="none" d="m 494.48372,67.664712 -0.93458,-6.407381 9.65482,-0.396832 0.12415,15.519491 -16.76105,1.614027 -3.35221,-25.948588 28.80418,-1.738183 0,26.1969 26.32105,1.614027 3.47637,-26.072744 -20.36157,-1.365716 -0.62078,17.009362 9.56,-0.124156 0.37247,-6.207796" />
  <use xlink:href="#key" transform="matrix(0.93969262,-0.34202014,0.34202014,0.93969262,-54.627656,190.19116)" />
  <use xlink:href="#key" transform="matrix(0.76604444,-0.64278761,0.64278761,0.76604444,-40.911654,387.59615)" />
  <use xlink:href="#key" transform="matrix(0.5,-0.8660254,0.8660254,0.5,39.493655,568.40501)" />
  <use xlink:href="#key" transform="matrix(0.17364818,-0.98480775,0.98480775,0.17364818,176.8902,710.80953)" />
  <use xlink:href="#key" transform="matrix(-0.17364817,-0.98480775,0.98480775,-0.17364817,354.70593,797.63362)" />
  <use xlink:href="#key" transform="matrix(-0.49999999,-0.8660254,0.8660254,-0.49999999,551.49365,818.40501)" />
  <use xlink:href="#key" transform="matrix(-0.76604443,-0.64278761,0.64278761,-0.76604443,743.51785,770.61837)" />
  <use xlink:href="#key" transform="matrix(-0.93969261,-0.34202015,0.34202015,-0.93969261,907.61758,660.03747)" />
  <use xlink:href="#key" transform="matrix(-0.99999999,0,0,-0.99999999,1024,500)" />
  <use xlink:href="#key" transform="matrix(-0.93969261,0.34202014,-0.34202014,-0.93969261,1078.6277,309.80884)" />
  <use xlink:href="#key" transform="matrix(-0.76604443,0.6427876,-0.6427876,-0.76604443,1064.9117,112.40384)" />
  <use xlink:href="#key" transform="matrix(-0.49999999,0.86602539,-0.86602539,-0.49999999,984.50638,-68.405034)" />
  <use xlink:href="#key" transform="matrix(-0.17364817,0.98480774,-0.98480774,-0.17364817,847.10982,-210.80956)" />
  <use xlink:href="#key" transform="matrix(0.17364818,0.98480774,-0.98480774,0.17364818,669.29407,-297.63365)" />
  <use xlink:href="#key" transform="matrix(0.5,0.86602539,-0.86602539,0.5,472.50633,-318.40504)" />
  <use xlink:href="#key" transform="matrix(0.76604444,0.6427876,-0.6427876,0.76604444,280.48211,-270.61839)" />
  <use xlink:href="#key" transform="matrix(0.93969261,0.34202014,-0.34202014,0.93969261,116.38237,-160.03748)" />
</svg>