<?xml version="1.0" encoding="UTF-8"?>
<svg width="300" height="200" version="1.0" xmlns="http://www.w3.org/2000/svg"><path d="m300 0v200h-300v-200h300z" fill="#f7e117"/><g fill="#197b30"><path d="m120.05 181.73c-0.31454-0.18317-0.31469-0.18409-0.0795-0.49015l0.18296-0.23807 0.68908 0.37109 0.24112-0.22653 0.24112-0.22652 0.59399 0.37609-0.24793 0.23293c-0.20962 0.19694-0.27707 0.21475-0.43641 0.11525-0.26503-0.16553-0.48562-0.14658-0.71795 0.0617-0.1863 0.167-0.21849 0.16868-0.4665 0.0242zm41.584-1.2304c0.14675-0.0674 0.15897-0.35065 0.0211-0.48857-0.0551-0.0551-0.0746-0.16645-0.0435-0.24753 0.0457-0.11916 0.11337-0.0944 0.3527 0.12919 0.16286 0.15214 0.38967 0.27969 0.50395 0.28345 0.15206 5e-3 0.1168 0.0403-0.13139 0.13155-0.37566 0.1381-0.89353 0.27952-0.70277 0.19191zm-42.595-0.17283c-0.22263-0.073-0.56173-0.22978-0.75358-0.34834-1.0358-0.64016-0.8363-2.1324 0.51632-3.8617 0.55646-0.71141 0.78554-0.64539 0.25736 0.0741-0.44844 0.61089-0.67187 1.2628-0.6046 1.7642 0.0574 0.42825 0.25821 0.69842 0.69825 0.93961 0.64421 0.35311 3.9958 0.0899 4.1556-0.32636 0.0791-0.20621-0.0747-0.25865-0.96072-0.32755-0.44429-0.0345-0.83694-0.0919-0.8725-0.12751-0.12261-0.12259 0.28995-0.99222 0.63388-1.3362 0.58757-0.58755 1.0605-0.67897 3.5125-0.67897h2.1327l-0.0401-0.6298c-0.0517-0.81204-0.14778-0.90506-0.5573-0.53944-0.57573 0.51401-1.2684 0.505-1.712-0.0223-0.23313-0.27706-0.25208-0.36012-0.20785-0.911 0.0613-0.7634 0.66049-2.0336 1.065-2.2574 0.23872-0.1321 0.29439-0.13206 0.5331 4.5e-4 0.33492 0.1859 0.81791 0.89778 1.1007 1.6223 0.18987 0.48652 0.22234 0.78378 0.2593 2.3737l0.0422 1.8175h-2.4338c-2.0233 0-2.4338 0.0229-2.4338 0.13592 0 0.0747 0.13086 0.18153 0.2908 0.23729 0.19334 0.0674 0.2908 0.16683 0.2908 0.29665 0 0.3789-0.40214 1.2637-0.68098 1.4983-0.60677 0.51055-3.3325 0.90124-4.2312 0.60646zm7.7679-6.4824 0.24937-0.2181-0.19405-0.31503c-0.31237-0.5071-0.97235-0.32912-0.97235 0.2622 0 0.51148 0.47993 0.65327 0.91703 0.27093zm10.473 6.166c-0.21323-0.12402-0.43131-0.24077-0.48457-0.25946-0.12343-0.0433 0.33561-1.0369 0.47689-1.0322 0.0576 2e-3 0.21367 0.0658 0.34696 0.14197 0.3932 0.22479 0.54065 0.17176 0.78072-0.28075 0.22317-0.4207 0.22924-0.42422 0.4739-0.27493 0.13631 0.0832 0.34759 0.21158 0.46948 0.28533l0.22166 0.13409-0.26127 0.48009c-0.27887 0.51233-0.36496 0.55553-0.66101 0.33162-0.33953-0.25683-0.571-0.17366-0.78116 0.28067l-0.19387 0.41909-0.38773-0.22548zm45.807-0.0404c-0.49126-0.22286-1.9449-1.2447-1.9449-1.3672 0-0.13612 0.14806-0.0934 0.64208 0.18521 0.3991 0.22509 0.58572 0.26657 1.1996 0.26657 0.86147 0 1.3296-0.19484 2.1083-0.8775 0.61461-0.5388 0.65143-0.72176 0.14542-0.72226-0.49243-4.9e-4 -0.97242-0.31302-1.1562-0.75279-0.41996-1.0051 0.42542-3.2211 1.2288-3.2211 0.31464 0 0.75368 0.46697 0.93683 0.99643 0.13595 0.39307 0.17536 0.80898 0.17648 1.8631 1e-3 1.3068-9e-3 1.3786-0.28373 1.9387-0.15679 0.31988-0.50577 0.80125-0.77545 1.0697-0.8304 0.82663-1.4512 0.99596-2.2773 0.62118zm2.7078-4.0594c0-0.73673-0.78495-1.3074-1.0688-0.77698-0.27407 0.51212 0.0765 0.96003 0.75382 0.96311 0.24734 1e-3 0.315-0.0389 0.315-0.18613zm-88.258 4.0316c-1.8365-0.47696-2.2602-1.8815-1.2036-3.9895 0.46052-0.91876 0.70477-1.2618 0.83921-1.1787 0.05931 0.0367-0.05728 0.35797-0.29328 0.80836-0.32256 0.61557-0.39953 0.86957-0.43607 1.4389-0.04276 0.6661-0.03313 0.70415 0.26263 1.041 0.4607 0.5247 1.0244 0.7015 2.2366 0.7015 0.93798 0 1.0631-0.0228 1.595-0.2908 0.31751-0.15994 0.66452-0.41134 0.77115-0.55867 0.29669-0.40996 0.24353-1.1704-0.13999-2.0025l-0.30896-0.67027 0.46698-1.401 0.28437 0.61989c0.26181 0.57079 0.28711 0.72463 0.3194 1.9422 0.0471 1.7784-0.0703 2.335-0.6006 2.8458-0.26944 0.25957-0.59435 0.44834-0.98297 0.5711-0.72879 0.23021-2.156 0.29252-2.81 0.12267zm11.954-0.11516c-0.24957-0.12995-0.47943-0.27784-0.51085-0.32864-0.0639-0.10342 0.43149-1.1708 0.54342-1.1708 0.0393 0 0.33154 0.15238 0.64936 0.33864l0.57779 0.33864-0.28909 0.53376c-0.159 0.29356-0.34032 0.53172-0.40299 0.52924-0.0626-2e-3 -0.31807-0.11085-0.56764-0.24081zm52.568-0.55845c0.24903-0.20301 0.50559-0.18232 0.54923 0.0443 0.0247 0.12846-0.0458 0.15628-0.36583 0.14428-0.39638-0.0149-0.39643-0.0149-0.1834-0.18858zm-1.0786-1.6996c0-0.78553 6.9e-4 -0.78775 0.30601-0.94563 0.38719-0.20023 1.2449-0.9973 1.2449-1.1569 0-0.0662-0.32872-0.49647-0.73053-0.95607-0.69297-0.79262-1.0371-1.0093-1.1353-0.71469-0.0542 0.16269-0.90646-0.36798-1.1782-0.73363-0.16499-0.22203-0.2095-0.44528-0.2368-1.1874-0.0196-0.53392 5e-3 -0.91399 0.0582-0.91399 0.35249 0 1.9832 1.643 2.9462 2.9685 0.32719 0.45034 0.63965 0.80388 0.69435 0.78564 0.17543-0.0585 0.36578-0.77454 0.42562-1.6008 0.0539-0.7444 0.0424-0.81776-0.15715-1.0037-0.18223-0.16975-0.20502-0.26166-0.14825-0.59765 0.0369-0.21837 0.11913-0.54736 0.18274-0.73107l0.11565-0.33403 0.19899 0.33728c0.15229 0.25816 0.3043 0.36677 0.64798 0.46299 0.49865 0.13961 0.5132 0.17955 0.34716 0.95376-0.0896 0.41783-0.12796 0.47007-0.31846 0.43365-0.20238-0.0387-0.22391 9e-3 -0.32826 0.72497-0.0614 0.42151-0.22348 1.0191-0.36007 1.328-0.30504 0.68972-0.30517 0.70919-7e-3 1.2304 0.24614 0.43055 0.313 1.1629 0.158 1.7304-0.0874 0.31998-0.83865 0.57417-1.9232 0.65071l-0.80234 0.0566v-0.78737zm1.9561-0.94679c0.21999-0.11377 0.25259-0.17578 0.18667-0.3552-0.0439-0.11955-0.16232-0.22811-0.26316-0.24124-0.19127-0.0249-0.91033 0.57775-0.91033 0.76297 0 0.1324 0.6068 0.03 0.98682-0.16653zm-17.836 1.4117c0.0236-0.0707 0.33523-0.22708 0.6926-0.34764 0.94651-0.31928 2.4072-1.1398 3.0104-1.6911 0.30762-0.28116 0.59223-0.64905 0.68905-0.89078 0.2475-0.61773 0.28891-1.6328 0.10878-2.667l-0.15644-0.89819 0.2969-0.65274c0.22957-0.50476 0.31651-0.61807 0.38347-0.49981 0.15562 0.27488 0.28266 1.3647 0.38102 3.269 0.0584 1.1302 0.14614 1.9746 0.22163 2.1325 0.11803 0.24688 0.1674 0.26307 0.88436 0.28995 0.9958 0.0373 1.5095-0.18843 1.8016-0.7919 0.10981-0.22688 0.19969-0.52823 0.19969-0.66966 0-0.18876 0.0387-0.24232 0.14537-0.20136 0.10668 0.0409 0.14543 0.20917 0.14543 0.63143 0 0.48192 0.0387 0.61437 0.23792 0.81356 0.21333 0.21334 0.31884 0.23793 1.0209 0.23793 1.2029 0 1.546-0.1994 1.6868-0.98026 0.0347-0.19261 0.15551-0.43252 0.26842-0.53313l0.20529-0.18294-0.0489 0.7038-0.0489 0.70379 0.52995 0.15406c0.29146 0.0847 0.56628 0.11699 0.61069 0.0717 0.0444-0.0453 4.1e-4 -0.30932-0.0978-0.58668l-0.17851-0.50428 0.32603-0.4586 0.32606-0.4586 0.10935 0.28435c0.0601 0.15639 0.13434 0.95648 0.16494 1.778l0.0556 1.4936-0.57346-0.0599c-0.31538-0.033-0.76774-0.12849-1.0052-0.21227-0.40726-0.1437-0.45776-0.14117-0.88943 0.0445-0.65967 0.28378-2.1749 0.28408-2.5355 4.9e-4 -0.13733-0.10802-0.27702-0.2825-0.31041-0.38774-0.0828-0.26094-0.25966-0.24014-0.53966 0.0635-0.34936 0.37885-0.77716 0.52064-1.5708 0.52064-0.65071 0-0.73373-0.0229-0.96497-0.26656-0.2781-0.29302-0.50747-0.83131-0.60926-1.4298l-0.0659-0.38773-0.33482 0.66214c-0.71187 1.4079-1.5531 1.8753-3.5601 1.9782-0.85043 0.0436-1.0466 0.0291-1.0121-0.0744zm21.251-0.15866c-0.0736-0.0267-0.0798-0.20533-0.0203-0.5849 0.10082-0.64275-0.0254-2.2096-0.32729-4.0628l-0.20706-1.2712 0.3215-0.6675 0.32148-0.6675 0.2739 1.5994c0.1506 0.87967 0.30301 2.1752 0.33861 2.879 0.0625 1.2356 0.0556 1.3047-0.20233 2.0118-0.27717 0.75994-0.32148 0.82782-0.49848 0.76369zm36.35 0c-0.0737-0.0267-0.0798-0.20533-0.0203-0.5849 0.10082-0.64275-0.0254-2.2096-0.32729-4.0628l-0.20706-1.2712 0.3215-0.6675 0.32148-0.6675 0.2739 1.5994c0.15062 0.87967 0.30302 2.1752 0.33861 2.879 0.0625 1.2356 0.0556 1.3047-0.20233 2.0118-0.27717 0.75994-0.32147 0.82782-0.49847 0.76369zm-99.445-0.64405c-0.45372-0.45372-0.55079-0.92727-0.61976-3.0233-0.0521-1.582-0.0865-1.8802-0.24409-2.1145-0.18135-0.26976-0.18092-0.27902 0.0397-0.82394 0.12268-0.30311 0.25495-0.58708 0.2939-0.63105 0.0389-0.044 0.1731 0.13052 0.29812 0.38774 0.20642 0.42464 0.23336 0.64605 0.29285 2.4063 0.0628 1.8583 0.15223 2.4276 0.40683 2.5895 0.15019 0.0955 3.8218 0.0985 3.8807 3e-3 0.0701-0.11347-0.1758-0.75155-0.39902-1.0354l-0.20117-0.25573 0.1964-0.58161c0.15265-0.45195 0.22422-0.55854 0.3211-0.47812 0.237 0.19667 0.51791 1.0208 0.58667 1.721l0.069 0.70277h1.3388c0.73635 0 1.3591-0.0328 1.3839-0.073 0.0701-0.11347-0.17579-0.75155-0.39902-1.0354l-0.20117-0.25573 0.19641-0.58161c0.15265-0.45195 0.22419-0.55854 0.32112-0.47812 0.23697 0.19667 0.51789 1.0208 0.58664 1.721l0.069 0.70277h1.086c0.59732 0 1.1078-0.0217 1.1343-0.0483 0.0266-0.0266-0.11795-0.9753-0.32114-2.1083-0.30535-1.7027-0.40468-2.0889-0.57266-2.2269-0.22325-0.18338-0.21531-0.25721 0.12022-1.1174 0.2159-0.55345 0.43597-0.66408 0.4846-0.24359 0.0228 0.19719 0.13646 0.3235 0.44263 0.49193 0.24096 0.13256 0.41197 0.29691 0.41197 0.39596 0 0.29401-0.29991 1.0635-0.42665 1.0948-0.0923 0.0227-0.0445 0.46177 0.19854 1.8232 0.18712 1.0482 0.32115 2.1255 0.32258 2.593l2e-3 0.79969h-10.779l-0.32091-0.32089zm31.924 0.17247c-0.34421-0.18693-0.75639-1.0497-0.82663-1.7304-0.0309-0.29945-0.0786-0.54445-0.10597-0.54445-0.0274 0-0.2858 0.22322-0.57427 0.49605-0.4948 0.46796-0.54624 0.49258-0.90823 0.4347-0.87657-0.14017-1.3486-0.27519-1.3486-0.38576 0-0.0646 0.20719-0.52991 0.46043-1.034 0.42823-0.85244 0.50703-0.94844 1.1268-1.3729 0.36647-0.251 0.70636-0.46972 0.75532-0.48603 0.049-0.0163 0.10525-0.22869 0.12507-0.47192 0.0392-0.481 0.35167-1.2958 0.40552-1.0575 0.0181 0.08 0.16501 1.0103 0.32655 2.0674 0.28514 1.8662 0.46311 2.5475 0.70566 2.7017 0.15181 0.0965 3.8235 0.10084 3.883 5e-3 0.0702-0.11347-0.17574-0.75155-0.39901-1.0354l-0.20113-0.25573 0.19641-0.58161c0.15263-0.45195 0.2242-0.55854 0.3211-0.47812 0.23823 0.19773 0.51804 1.0224 0.58774 1.7322l0.0701 0.71397 0.83455-0.0415c0.95481-0.0475 1.1676-0.14894 1.4732-0.70243 0.36947-0.66923 0.74029-1.0792 1.1939-1.3198l0.43566-0.23112 0.23564 0.22137c0.12958 0.12175 0.38089 0.5349 0.55843 0.91811 0.28089 0.60627 0.32798 0.82111 0.36263 1.6546l0.0399 0.95787-0.47223-0.0685c-0.25972-0.0377-0.8564-0.1961-1.3259-0.35203-1.0202-0.33881-1.0524-0.34073-1.288-0.0763-0.39141 0.4393-0.63953 0.47153-3.5984 0.46741-2.249-3e-3 -2.8402-0.0312-3.049-0.14454zm8.6437-1.5263c0-0.28245-0.51049-0.84554-0.76657-0.84554-0.21313 0-0.39664 0.26242-0.39664 0.56715 0 0.13857 0.11491 0.23282 0.41198 0.33799 0.59922 0.21211 0.75123 0.20005 0.75123-0.0596zm-9.9748-1.3996c0.30035-0.17742 0.31502-0.22354 0.22094-0.69398-0.039-0.19495-0.11859-0.30292-0.22335-0.30292-0.26261 0-1.0399 0.54108-1.0984 0.76454-0.10251 0.39204 0.58485 0.53713 1.1008 0.23236zm40.686 2.9259c-0.34422-0.18693-0.7564-1.0497-0.82664-1.7304-0.0309-0.29945-0.0786-0.54445-0.10596-0.54445-0.0274 0-0.28581 0.22322-0.57428 0.49605-0.49479 0.46796-0.54623 0.49258-0.90825 0.4347-0.87657-0.14017-1.3486-0.27519-1.3486-0.38576 0-0.0646 0.20719-0.52991 0.46045-1.034 0.42821-0.85244 0.507-0.94844 1.1267-1.3729 0.36647-0.251 0.70636-0.46972 0.75535-0.48603 0.049-0.0163 0.10524-0.22869 0.12506-0.47192 0.0392-0.481 0.35167-1.2958 0.40552-1.0575 0.0181 0.08 0.16446 1.0067 0.3253 2.0594 0.32649 2.1368 0.48577 2.6624 0.83327 2.7496 0.12624 0.0317 0.76472 0.041 1.4189 0.0208 1.3404-0.0415 1.4947-0.10104 1.828-0.70472 0.36944-0.66923 0.74026-1.0792 1.1938-1.3198l0.43569-0.23112 0.23561 0.22137c0.12963 0.12175 0.38089 0.5349 0.55846 0.91811 0.28086 0.60627 0.32795 0.82111 0.36263 1.6546l0.0398 0.95787-0.47223-0.0685c-0.25972-0.0377-0.85635-0.1961-1.3259-0.35203-1.0202-0.33881-1.0524-0.34073-1.2881-0.0763-0.33049 0.37094-0.73988 0.47154-1.9021 0.46741-0.76577-3e-3 -1.1712-0.046-1.3526-0.14454zm5.2511-1.5263c0-0.28245-0.51051-0.84554-0.76659-0.84554-0.2131 0-0.39658 0.26242-0.39658 0.56715 0 0.13857 0.11487 0.23282 0.41195 0.33799 0.59922 0.21211 0.75122 0.20005 0.75122-0.0596zm-6.5822-1.3996c0.30032-0.17742 0.315-0.22354 0.22091-0.69398-0.039-0.19495-0.11859-0.30292-0.22335-0.30292-0.26258 0-1.0399 0.54108-1.0984 0.76454-0.1025 0.39204 0.58486 0.53713 1.1008 0.23236zm14.481 2.7534c-0.45372-0.45372-0.5508-0.92727-0.61978-3.0233-0.0521-1.582-0.0865-1.8802-0.24407-2.1145-0.18135-0.26976-0.18092-0.27902 0.0396-0.82394 0.12271-0.30311 0.25495-0.58708 0.2939-0.63105 0.0389-0.044 0.17311 0.13052 0.29815 0.38774 0.20619 0.42414 0.23359 0.64809 0.29449 2.4063 0.0714 2.0606 0.16486 2.5433 0.50572 2.6118 0.11465 0.023 0.91724 0.0638 1.7836 0.0906 1.7128 0.053 1.9567-0.0249 1.1354-0.36264-0.5269-0.2167-0.72349-0.54354-0.72349-1.2029 0-0.66477 0.25402-1.3323 0.67558-1.7754 0.42245-0.44409 0.73161-0.48617 1.0953-0.14908 0.51707 0.47921 0.85414 1.4097 0.93488 2.581l0.0568 0.82393h0.78547c0.93434 0 1.1925-0.11461 1.496-0.66406 0.37436-0.67787 0.74339-1.0871 1.1975-1.328 0.43252-0.22944 0.4351-0.2296 0.64501-0.04 0.25715 0.23225 0.71235 1.1145 0.86223 1.671l0.11027 0.40952h1.0948c0.60217 0 1.1166-0.0217 1.1431-0.0483 0.0266-0.0266-0.11795-0.9753-0.32115-2.1083-0.30532-1.7027-0.40468-2.0889-0.57266-2.2269-0.22325-0.18338-0.21531-0.25721 0.12025-1.1174 0.2159-0.55345 0.43595-0.66408 0.48457-0.24359 0.0228 0.19719 0.13647 0.3235 0.44263 0.49193 0.24097 0.13256 0.41198 0.29691 0.41198 0.39596 0 0.29401-0.29992 1.0635-0.42668 1.0948-0.0923 0.0227-0.0445 0.46177 0.19856 1.8232 0.18909 1.0592 0.32115 2.1243 0.32258 2.6019l2e-3 0.80861-1.866-0.0369c-1.8018-0.0356-1.897-0.0476-2.7681-0.34819-1.0687-0.36876-1.0986-0.3711-1.3365-0.10407-0.39745 0.44605-0.61274 0.47129-4.0201 0.47129h-3.2116l-0.32089-0.32089zm9.5489-1.3538c0-0.28245-0.51051-0.84554-0.76659-0.84554-0.21311 0-0.39658 0.26242-0.39658 0.56715 0 0.13857 0.11487 0.23282 0.41195 0.33799 0.59922 0.21211 0.75122 0.20005 0.75122-0.0596zm-4.7497-0.77809c0-0.0695-0.12909-0.32998-0.28689-0.57877-0.41676-0.65721-1.0702-0.77032-1.0702-0.18528 0 0.33019 0.23713 0.56896 0.74483 0.75003 0.47192 0.16831 0.61225 0.17152 0.61225 0.014zm-43.837-0.44333c-0.51292-0.91247-1.625-1.7166-1.625-1.175 0 0.26834-0.19565 0.24251-0.63976-0.0844-0.85537-0.62972-1.105-1.0759-1.105-1.9747 0-0.54968 0.0865-0.57389 0.78917-0.22096 0.70621 0.35473 1.2267 0.73823 1.8641 1.3736 0.72244 0.72009 1.1255 1.4097 1.1247 1.9244-9.2e-4 0.62658-0.11885 0.67201-0.40821 0.15725zm-49.9-1.1852c-0.29172-0.15953-0.56572-0.32538-0.6089-0.36856-0.08684-0.0869 0.41072-1.1722 0.5374-1.1722 0.04372 0 0.34022 0.13161 0.65886 0.29247l0.5794 0.29247-0.30281 0.60416c-0.16658 0.33229-0.30978 0.6126-0.31822 0.62292-0.0084 0.0103-0.25403-0.11175-0.54573-0.27126zm8.025-1.4494-0.55604-0.28702 0.30675-0.62206 0.30675-0.62205 0.44314 0.22746c0.8471 0.43483 0.83783 0.41646 0.52834 1.0475-0.14904 0.30387-0.31641 0.55039-0.37195 0.54782-0.0555-3e-3 -0.35116-0.13381-0.65699-0.29167zm83.334-0.24521c-0.21163-0.12808-0.42834-0.24763-0.48163-0.26567-0.12361-0.0419 0.33605-1.0357 0.47694-1.0311 0.0575 2e-3 0.21365 0.0658 0.34691 0.14196 0.32926 0.18822 0.55719 0.17938 0.62513-0.0242 0.0311-0.0933 0.13603-0.27256 0.2331-0.39838 0.17381-0.22531 0.18143-0.22622 0.50729-0.0606 0.59292 0.3014 0.59758 0.31415 0.30586 0.83362-0.2857 0.50871-0.35743 0.54469-0.64787 0.32503-0.35249-0.26661-0.59482-0.17987-0.79602 0.28494l-0.18493 0.42726-0.38478-0.23287zm-64.146-1.2117-0.56119-0.28935 0.30813-0.57811c0.16947-0.31796 0.35656-0.5777 0.41579-0.57721 0.15178 1e-3 1.1259 0.56968 1.1232 0.65535-5e-3 0.1408-0.53328 1.0275-0.6278 1.0528-0.0533 0.0143-0.34944-0.10431-0.65811-0.26345zm6.5064-0.2613-0.45236-0.26642 0.23373-0.38623c0.12857-0.21242 0.25046-0.42984 0.2709-0.48316 0.0209-0.0545 0.20977-2e-3 0.43172 0.12117 0.21697 0.11996 0.43294 0.2181 0.47991 0.2181 0.047 0 0.18614-0.21513 0.30931-0.47807 0.24609-0.52541 0.1653-0.51961 0.90544-0.065l0.27226 0.16726-0.26222 0.45445c-0.1442 0.24995-0.2758 0.47077-0.29237 0.49071-0.0166 0.0199-0.18716-0.0564-0.37909-0.16963-0.19191-0.11324-0.39065-0.20589-0.44158-0.20589-0.051 0-0.18804 0.1963-0.3046 0.4362-0.11654 0.23991-0.23592 0.43546-0.26527 0.43455-0.0294-9.1e-4 -0.25697-0.12154-0.50578-0.26807zm39.355 0-0.45239-0.26642 0.23378-0.38623c0.12852-0.21242 0.25046-0.42984 0.27087-0.48316 0.0209-0.0545 0.20978-2e-3 0.4317 0.12117 0.21699 0.11996 0.43297 0.2181 0.47993 0.2181 0.047 0 0.18617-0.21513 0.30929-0.47807 0.24609-0.52541 0.16532-0.51961 0.90546-0.065l0.27229 0.16726-0.26222 0.45445c-0.14425 0.24995-0.27582 0.47077-0.29239 0.49071-0.0166 0.0199-0.18717-0.0564-0.3791-0.16963-0.1919-0.11324-0.39061-0.20589-0.4416-0.20589-0.051 0-0.18798 0.1963-0.30455 0.4362-0.11657 0.23991-0.23597 0.43546-0.26532 0.43455-0.0294-9.1e-4 -0.25695-0.12154-0.50575-0.26807z"/><path d="m136.72 46.955c-0.1617-0.37117-0.52381-1.052-0.80474-1.513-0.62442-1.0246-0.69972-1.304-0.54569-2.0243 0.14166-0.66244 0.41289-0.93004 1.3409-1.323 0.35214-0.14911 0.59746-0.30427 0.58161-0.36787-0.0452-0.18119-0.81784-0.53006-1.0473-0.47285-0.11729 0.0292-0.30302 0.21006-0.4127 0.40182-0.31543 0.55135-0.44491 0.31841-0.245-0.4407 0.20546-0.78001 0.57033-1.2065 1.0316-1.2058 0.29171 4.5e-4 1.3057 0.56541 1.9163 1.0676 0.30812 0.25344 0.33522 0.25683 0.66383 0.0831l0.34264-0.18118-0.0936-0.63747c-0.10416-0.70937-0.0135-1.4248 0.22473-1.7727 0.14324-0.20926 0.14028-0.24471-0.0338-0.40569-0.16832-0.15569-0.19-0.2442-0.18468-0.75388 3e-3 -0.31761 0.0191-0.59918 0.035-0.6257 0.0487-0.081 0.89018 0.335 1.486 0.73466 0.83785 0.56199 1.7471 1.4409 2.1543 2.0825 0.42162 0.6642 0.53539 1.2482 0.37674 1.9338-0.0979 0.42295-0.11537 0.44054-0.46148 0.464-0.19788 0.0134-0.7397-0.0572-1.2041-0.15695-0.46437-0.0997-0.88067-0.17228-0.92511-0.1612-0.0444 0.0111-0.28474 0.19171-0.53404 0.40142-0.41488 0.34901-0.5832 0.41984-1.9886 0.83676-1.5458 0.45857-2.3434 0.82558-2.4995 1.1501-0.0605 0.12582 0.034 0.34292 0.43756 1.0052 0.55796 0.91558 0.86698 1.8711 0.74815 2.3134-0.0597 0.22219-0.0902 0.18556-0.35919-0.43207zm6.133-6.6946c0.0213-0.17394-0.18959-0.42348-0.68215-0.80708-0.54446-0.42399-0.57721-0.38951-0.66089 0.69572-9e-3 0.11705 0.12485 0.18488 0.48886 0.24771 0.59072 0.10196 0.8296 0.0638 0.85418-0.13635zm-1.9766-0.33674c0.14543-0.16379 0.12602-0.42667-0.0552-0.74783-0.13456-0.23848-0.22479-0.29935-0.3846-0.25951-0.53018 0.13219-0.67016 0.77571-0.23256 1.0692 0.20205 0.13555 0.52335 0.10597 0.67237-0.0619zm50.958-7.6329c0.0907-0.0852-2e-3 -0.36746-0.14984-0.45634-0.21819-0.13108-0.0828-0.34437 0.14218-0.22402 0.10603 0.0567 0.35289 0.12794 0.54861 0.15825l0.35576 0.0551-0.37395 0.20789c-0.51434 0.28594-0.59255 0.32471-0.52276 0.25911zm-81.038 19.981c-0.53863-0.10468-2.1798-0.74167-2.2086-0.85723-0.0328-0.13145 0.12051-0.12585 0.66463 0.0243 0.43961 0.12127 0.62982 0.11639 1.2226-0.0314 0.8319-0.20742 1.237-0.50827 1.8246-1.355 0.46375-0.66827 0.45527-0.85381-0.0335-0.73247-0.47561 0.11809-1.0144-0.0681-1.2977-0.44858-0.64755-0.8695-0.36472-3.213 0.4111-3.4064 0.29657-0.0739 0.83975 0.26774 1.107 0.69632 0.13929 0.22341 0.34717 0.66241 0.46194 0.97556l0.2087 0.56937 1.2929-0.32235c0.71107-0.17729 1.3045-0.35893 1.3188-0.40365 0.0404-0.12647-0.35069-0.68343-0.6346-0.90374l-0.25582-0.19852 0.0496-0.60893c0.0386-0.47319 0.082-0.59335 0.19496-0.53902 0.27618 0.13286 0.74588 0.86104 0.98088 1.5207l0.23583 0.66202 1.0488-0.26149c0.57682-0.14381 1.0645-0.28771 1.0838-0.31975 0.0192-0.032-0.34871-0.91342-0.81772-1.9586-0.70484-1.5707-0.89375-1.9198-1.0892-2.0126-0.25975-0.12332-0.26985-0.19654-0.15294-1.108 0.0752-0.58642 0.26112-0.74625 0.4093-0.35189 0.0695 0.18493 0.20965 0.27953 0.54588 0.36846 0.26461 0.07 0.46931 0.18753 0.49316 0.28318 0.0708 0.28391-0.0335 1.0992-0.14844 1.1599-0.0837 0.0442 0.0682 0.45663 0.63073 1.7128 0.43306 0.96713 0.82189 1.9752 0.93579 2.4263l0.19491 0.77166-6.0404 1.506-0.0494 0.48458c-0.0655 0.64183-0.43825 1.4824-0.89692 2.0223-0.47543 0.5597-1.0233 0.76585-1.6907 0.63616zm1.6362-4.5773c-0.17738-0.71144-1.0728-1.0735-1.2192-0.49296-0.14135 0.56051 0.30502 0.90865 0.95981 0.74854 0.23913-0.0585 0.29486-0.11336 0.2594-0.25558zm53.837-9.3637c-0.3201-0.0838-0.62464-0.178-0.67674-0.20931-0.10925-0.0656 0.117-1.2315 0.2452-1.2634 0.0469-0.0117 0.36555 0.0659 0.70814 0.17247l0.62286 0.19373-0.15235 0.60863c-0.0838 0.33474-0.15524 0.61801-0.15874 0.62947-4e-3 0.0115-0.26828-0.0477-0.58837-0.13154zm5.5317-1.2633c-0.5585-0.0721-1.9948-0.51161-2.0214-0.61864-0.0295-0.11852 0.12145-0.11976 0.70949-6e-3 1.0876 0.21068 1.7262-0.16211 2.65-1.5468 0.82385-1.235 0.83376-1.7925 0.0458-2.579l-0.44859-0.44774-0.0233-0.60236c-0.0128-0.3313-7e-3 -0.62996 0.0136-0.6637 0.0514-0.0856 0.70443 0.59599 0.9067 0.9463 0.0919 0.15907 0.20646 0.44745 0.25467 0.64085l0.0877 0.35164 1.879-0.46848c2.1298-0.53103 2.1204-0.52309 1.1865-0.99415-0.80364-0.40536-1.5612-0.53044-2.1159-0.34936l-0.44289 0.14458 0.0864-0.27008c0.15415-0.48223 0.35651-0.80772 0.63117-1.0153 0.65844-0.49759 1.1425-0.39646 2.8616 0.59785 0.88708 0.51309 1.4637 0.78224 1.7159 0.80094l0.37984 0.0282 0.17324 0.69478 0.17323 0.69478-6.1779 1.5403 0.0557 0.22334c0.0766 0.30719-0.35681 1.4705-0.73466 1.9719-0.64276 0.85299-1.0044 1.0344-1.8457 0.92589zm-67.338 16.749c-1.8883-0.0184-2.6356-1.2727-2.1228-3.5627 0.22352-0.9981 0.37678-1.3882 0.52663-1.3403 0.0661 0.0211 0.0309 0.35947-0.0886 0.85122-0.16328 0.6721-0.17644 0.93591-0.0747 1.4945 0.11909 0.65352 0.13752 0.68795 0.50425 0.94204 0.57119 0.39577 1.1581 0.43078 2.3287 0.13891 0.90578-0.22584 1.0211-0.27798 1.4703-0.66485 0.26807-0.2309 0.54265-0.55722 0.61013-0.72516 0.18783-0.46733-0.0466-1.1889-0.61734-1.9001l-0.45971-0.57287 0.0568-0.73266 0.0568-0.73265 0.42383 0.53014c0.39025 0.48816 0.45171 0.63062 0.77605 1.7986 0.4737 1.706 0.49427 2.2718 0.10521 2.8927-0.19768 0.31553-0.46599 0.57604-0.81172 0.78816-0.64836 0.39778-2.0115 0.80156-2.684 0.795zm10.86-2.8259c-0.27231-0.0654-0.52989-0.15287-0.57244-0.19436-0.0866-0.0845 0.13477-1.2345 0.24285-1.2615 0.038-9e-3 0.35686 0.0673 0.70859 0.17067l0.63951 0.1879-0.15066 0.58503c-0.0829 0.32177-0.20065 0.59542-0.26173 0.6081-0.0611 0.0127-0.33384-0.0305-0.60612-0.0959zm70.857-17.549c-1.8883-0.0184-2.6356-1.2727-2.1228-3.5627 0.22352-0.9981 0.37677-1.3882 0.52662-1.3403 0.0661 0.0211 0.0309 0.35947-0.0886 0.85122-0.16328 0.6721-0.17645 0.93591-0.0747 1.4945 0.11907 0.65352 0.13753 0.68796 0.50426 0.94205 0.57118 0.39576 1.1581 0.43077 2.3287 0.1389 0.90578-0.22584 1.0211-0.27797 1.4703-0.66486 0.26807-0.23088 0.54265-0.5572 0.61013-0.72515 0.18782-0.46732-0.0466-1.1889-0.61734-1.9001l-0.45972-0.57287 0.0568-0.73266 0.0568-0.73265 0.42386 0.53014c0.39025 0.48816 0.45171 0.63062 0.77605 1.7986 0.4737 1.706 0.49426 2.2718 0.10521 2.8927-0.19769 0.31553-0.46599 0.57604-0.81173 0.78815-0.64835 0.39779-2.0115 0.80157-2.684 0.79501zm5.7236-2.4162c0.19162-0.25601 0.44436-0.2978 0.54105-0.0895 0.0548 0.11811-7e-3 0.16196-0.31853 0.22742-0.38634 0.0811-0.38641 0.081-0.22252-0.13794zm-40.515 9.0846c-0.15497-0.0401-0.42139-0.24034-0.59206-0.44495-0.17066-0.20461-0.33168-0.36669-0.3578-0.36018-0.0261 7e-3 -0.20033 0.2338-0.38716 0.50507-0.33015 0.47937-0.35455 0.49533-0.86783 0.56819-0.29049 0.0412-0.68149 0.0608-0.86893 0.0435-0.30929-0.0285-0.34204-0.059-0.35477-0.32996-0.0169-0.35834 0.28265-1.4994 0.52177-1.988 0.0945-0.19302 0.31422-0.4749 0.48829-0.62638 0.25499-0.22188 0.30369-0.32695 0.25046-0.54038-0.0679-0.27241-0.0478-0.88582 0.0342-1.0426 0.0254-0.0485 0.39302 0.52639 0.81694 1.2776 0.44768 0.79334 0.86153 1.4204 0.98722 1.496 0.30937 0.18588 0.83321 0.0264 1.2488-0.38008 0.1907-0.18656 0.33798-0.37421 0.32732-0.417-0.0107-0.0428-0.28807-0.52736-0.61647-1.0768-0.3284-0.54946-0.6236-1.1191-0.65602-1.2658-0.0748-0.33871-0.0108-0.9943 0.0873-0.89433 0.0408 0.0415 0.46301 0.70261 0.9384 1.4691 0.99601 1.6061 1.2462 1.838 1.7854 1.6552 0.47223-0.16015 0.43745-0.31052-0.38838-1.6785-0.37829-0.62658-0.70996-1.2292-0.73709-1.3393-0.0826-0.33486-0.035-0.97869 0.0674-0.91214 0.0529 0.0344 0.4897 0.70261 0.97066 1.485 0.81759 1.3299 0.8826 1.469 0.99956 2.137 0.0688 0.39297 0.11084 0.89701 0.0934 1.1201l-0.0317 0.40559-0.54791 0.16696c-0.43744 0.1333-0.61002 0.14125-0.85607 0.0394-0.39442-0.16318-0.47617-0.13833-0.73914 0.22468-0.37855 0.52255-1.1001 0.83644-1.6158 0.70296zm-1.4544-1.4663c0.0777-0.0814 0.0679-0.21385-0.0333-0.44989-0.0789-0.18396-0.17627-0.35418-0.21636-0.37826-0.0401-0.0241-0.24225 0.11479-0.44927 0.30862-0.40247 0.37681-0.48079 0.7515-0.1577 0.75446 0.31229 3e-3 0.74227-0.11504 0.85667-0.23493zm-19.207 6.5038c-0.0775-8e-3 -0.12656-0.17906-0.16046-0.55993-0.0574-0.64495-0.55656-2.1276-1.2943-3.8445l-0.506-1.1777 0.14976-0.72199 0.14974-0.72199 0.64954 1.4785c0.35726 0.8132 0.81634 2.0276 1.0202 2.6986 0.35788 1.1781 0.36779 1.2465 0.289 1.9915-0.0847 0.80058-0.11112 0.87681-0.29748 0.85749zm26.677-6.6514c-0.0775-8e-3 -0.12655-0.17906-0.16046-0.55993-0.0574-0.64495-0.55656-2.1276-1.2943-3.8445l-0.50601-1.1777 0.14974-0.72198 0.14974-0.722 0.64957 1.4786c0.35726 0.8132 0.81633 2.0276 1.0202 2.6986 0.35788 1.1781 0.3678 1.2466 0.289 1.9915-0.0847 0.80058-0.11112 0.8768-0.29748 0.85749zm-36.734 8.509c-0.5614-0.33732-0.76428-0.75819-1.339-2.7778-0.43116-1.5151-0.53621-1.7948-0.74479-1.9832-0.24011-0.21683-0.24189-0.22587-0.1601-0.80519 0.0455-0.32224 0.10484-0.62831 0.13187-0.68015 0.027-0.0518 0.1986 0.0844 0.38127 0.30265 0.30156 0.36035 0.3809 0.56768 0.86216 2.2532 0.50804 1.7794 0.73151 2.3076 1.0163 2.4026 0.20709 0.0691 1.8683-0.3766 2.1775-0.5842 0.31538-0.21176 0.317-0.33204 9e-3 -0.68179-0.23973-0.27249-0.65087-0.3164-0.81906-0.0875-0.0617 0.084-0.13749 0.13747-0.16841 0.1189-0.10016-0.0602-0.1165-1.0369-0.0219-1.3082 0.19263-0.55209 0.97615-0.93559 1.8298-0.89565 0.45201 0.0212 1.0799 0.41215 1.153 0.71793 0.0595 0.24913-0.0729 1.0314-0.19599 1.1575-0.14021 0.14376-0.0165 0.44189 0.20676 0.49819 0.20321 0.0512 3.1478-0.63407 3.2167-0.74864 0.0192-0.032-0.34872-0.91341-0.81772-1.9586-0.70481-1.5707-0.89375-1.9198-1.0892-2.0126-0.25973-0.12332-0.26985-0.19654-0.15294-1.108 0.0752-0.58643 0.26112-0.74625 0.4093-0.3519 0.0695 0.18493 0.20965 0.27954 0.54587 0.36847 0.26462 0.07 0.46932 0.18753 0.49317 0.28317 0.0708 0.28392-0.0336 1.0992-0.14845 1.1599-0.0836 0.0442 0.0683 0.45663 0.63073 1.7128 0.43307 0.96713 0.8219 1.9752 0.9358 2.4263l0.19491 0.77165-1.9128 0.47692c-2.0297 0.50606-2.2835 0.52646-2.8114 0.22592-0.31634-0.18008-0.32567-0.17928-0.53542 0.0458-0.5042 0.54111-0.79394 0.69901-1.835 1.0001l-1.0426 0.3015-0.39971-0.24017zm42.344-10.371c-0.58778-0.076-0.77043-0.17234-1.1335-0.59759-0.23422-0.27433-0.40341-0.58191-0.47244-0.85886-0.19322-0.77494 0.0448-2.2308 0.34883-2.1336 0.0882 0.0282 0.10102 0.12943 0.0458 0.36204-0.0421 0.1776-0.0444 0.549-5e-3 0.82535 0.0648 0.45473 0.10423 0.52458 0.41546 0.73561 0.21062 0.14282 0.49731 0.23048 0.73983 0.22622 0.21779-4e-3 1.523-0.28688 2.9005-0.62902 2.084-0.51763 2.499-0.64405 2.4719-0.75297-0.0179-0.072-0.22069-0.34161-0.45052-0.59915-0.41249-0.46226-0.41738-0.47419-0.3806-0.93429 0.0616-0.77042 0.0927-0.78621 0.52938-0.26821 0.37049 0.43952 0.42873 0.5756 0.78898 1.8441l0.38894 1.3695-2.9397 0.72537c-2.0122 0.49654-3.0369 0.71281-3.2478 0.68551zm28.128-7.2104c-0.5474-0.3289-0.75516-0.76282-1.3264-2.7703-0.43116-1.5151-0.53619-1.7948-0.74479-1.9832-0.2401-0.21683-0.24189-0.22587-0.16007-0.80519 0.0455-0.32225 0.10481-0.62832 0.13184-0.68014 0.027-0.0518 0.1986 0.0843 0.38127 0.30263 0.30158 0.36036 0.3809 0.56769 0.86217 2.2532 0.50806 1.7794 0.73151 2.3076 1.0163 2.4026 0.0708 0.0236 1.05-0.18604 2.1759-0.46593l2.0472-0.5089-0.19038-0.59852c-0.24544-0.77171-0.36064-0.83839-0.66809-0.38673-0.4322 0.63498-1.1032 0.79304-1.6586 0.39069-0.29185-0.21142-0.33016-0.28707-0.4201-0.82968-0.12464-0.75195 0.14822-2.1228 0.48494-2.4363 0.19871-0.18504 0.25251-0.1984 0.51493-0.12792 0.36817 0.0989 1.006 0.67003 1.4535 1.3016 0.30051 0.4241 0.40342 0.70333 0.82188 2.2297l0.47837 1.7449-4.8128 1.2-0.3871-0.23261zm2.9261-4.2034 0.18826-0.27064-0.26323-0.2575c-0.42371-0.41449-1.0182-0.0837-0.87584 0.48731 0.12317 0.49391 0.62077 0.51529 0.95081 0.0408zm-89.996 22.055c-0.3201-0.0838-0.62462-0.17799-0.67673-0.20929-0.1048-0.063 0.1144-1.2308 0.23671-1.2614 0.0422-0.0105 0.36024 0.0452 0.70669 0.12379l0.62992 0.14294-0.147 0.65633c-0.0808 0.36098-0.15161 0.66614-0.15729 0.67815-6e-3 0.012-0.27221-0.0467-0.5923-0.13057zm81.717-20.374c-0.32013-0.0838-0.62462-0.17799-0.67674-0.20929-0.10479-0.063 0.11438-1.2308 0.23672-1.2614 0.0422-0.0105 0.36024 0.0452 0.70668 0.1238l0.6299 0.14293-0.14697 0.65633c-0.0808 0.36098-0.15162 0.66615-0.15729 0.67815-6e-3 0.012-0.27221-0.0467-0.5923-0.13057zm-14.316 2.4805-0.60604-0.14329 0.14723-0.67823 0.14726-0.67825 0.59255 0.16163c0.32587 0.0889 0.63402 0.18297 0.68474 0.20907 0.11589 0.0596-0.12717 1.2256-0.26107 1.2525-0.0542 0.0109-0.37134-0.0447-0.70467-0.12347zm-49.212 11.574-0.60604-0.14329 0.14645-0.67455 0.14643-0.67457 0.4827 0.11297c0.9227 0.21595 0.90934 0.20044 0.76241 0.88434-0.0708 0.32933-0.17304 0.60769-0.22728 0.61858-0.0543 0.0109-0.37135-0.0447-0.70467-0.12348zm27.707-6.8252c-0.10867-0.0944-0.21101-0.22552-0.22739-0.29129-0.0354-0.14203 0.11225-0.19675 0.22752-0.0843 0.2656 0.25903 0.67574-0.27502 0.56403-0.73444l-0.0576-0.23693 0.17612 0.20377c0.19095 0.22095 0.49319 0.2545 0.6057 0.0672 0.0387-0.0644 0.0685-0.26618 0.0663-0.44841-4e-3 -0.31775 8.8e-4 -0.3132 0.11637 0.1109 0.15091 0.55409-0.0219 0.92109-0.43915 0.93283-0.20753 6e-3 -0.30699 0.0748-0.43309 0.30035-0.20132 0.36005-0.34294 0.40269-0.59886 0.1803zm42.492-11.873-0.61159-0.1443 0.15837-0.63246c0.0871-0.34784 0.20522-0.64372 0.26253-0.65749 0.14687-0.0353 1.2244 0.27903 1.2424 0.36242 0.0295 0.13705-0.26759 1.1206-0.35276 1.1678-0.0481 0.0266-0.3626-0.0166-0.69898-0.096zm-42.44 9.7015c-0.0609-0.0991-0.34454-0.3228-0.63018-0.49721-0.47972-0.29292-0.70519-0.56788-0.50636-0.61746 0.27231-0.0679 1.4087 1.0262 1.2831 1.2353-0.0197 0.0327-0.0856-0.0216-0.14656-0.12065z"/><path d="m114.03 165.08c-1.9452-1.3516-3.1664-2.7591-4.0241-4.9654-0.22201-0.59479-0.31124-0.64098-1.4628-0.75725-0.67453-0.0681-3.6464-0.14158-6.6041-0.16326-3.482-0.0255-5.3531-0.10964-5.308-0.23861 1.4509-2.1805 2.5112-4.8416 3.6379-7.2418 1.2212-2.6112 3.5776-5.5286 5.2638-6.5168 0.53246-0.31205 1.4174-0.56424 2.4992-0.71219 2.1888-0.29938 2.7154-0.56973 2.8865-1.4818 0.26997-1.4391-0.18998-3.3887-1.3732-5.8209-0.71341-1.4664-1.5097-2.16-2.1106-1.8384-0.59327 0.31751-0.61588 0.28661-0.61588-0.84213 0-1.5814 0.79621-2.6149 1.9787-2.5686 0.70018 0.0274 0.76259-0.0185 0.97195-0.71494 0.21999-0.73183 0.5801-1.1771 2.1927-2.711 0.82806-0.78767 1.6285-2.208 1.6285-2.8895 0-0.20857 0.14374-0.43437 0.31942-0.50178 0.17569-0.0674 0.27064-0.24971 0.21102-0.4051-0.0596-0.15539 0.01-0.38069 0.15444-0.50067 0.41262-0.34244 0.43307 0.15779 0.28869 7.0605-0.23326 11.151-0.47729 27.833-0.42915 29.335 0.0256 0.79801 0.14019 1.626 0.25472 1.84 0.28809 0.53831 1.149 0.71908 1.7685 0.37136 0.87851-0.4931 0.97654-1.3557 1.0766-9.4735 0.0511-4.1434 0.20303-12.777 0.33773-19.185 0.1347-6.4084 0.25738-14.385 0.27261-17.726 0.0256-5.62-6.1e-4 -6.127-0.35051-6.7719-0.20802-0.3834-0.54413-0.81422-0.7469-0.95736-0.52607-0.37136-0.4565-0.7608 0.20578-1.152 0.44728-0.26422 0.60041-0.52867 0.69168-1.1945 0.29232-2.1327 1.4533-4.5237 2.913-5.9992 1.4885-1.1988 3.1791-2.035 4.7341-3.1181l0.84668-0.53032-0.10594 15.488c-0.0583 8.5186-0.138 15.802-0.17718 16.185-0.0668 0.65359-0.36139 12.696-0.39781 16.261-0.0136 1.331 0.0516 1.6975 0.36285 2.0415 0.47802 0.52823 0.58209 0.52438 1.1956-0.0442l0.50009-0.46347 0.0115-7.8267c6e-3 -4.3047 0.0453-7.8829 0.0866-7.9516 0.0714-0.11876 0.13986-3.1313 0.4394-19.345 0.0718-3.8889 0.15572-7.2947 0.18641-7.5686 0.0307-0.27386 0.0633-1.8648 0.0724-3.5353 0.01-1.7736 0.0953-3.0374 0.20578-3.0374 1.8188 0.90464 3.4947 2.0059 4.9906 3.3872 1.7426 1.7334 2.7823 3.7008 3.0781 5.8246 0.11984 0.86032 0.18033 0.94635 0.66731 0.94912 0.29454 2e-3 0.66062 0.0823 0.81351 0.17907 0.3337 0.2113 0.1495 0.81375-0.24881 0.81375-0.66905 0-0.90916 1.7363-1.0216 7.3878-0.0598 3.0024-0.1962 8.8199-0.30323 12.928-0.10702 4.1079-0.29142 12.04-0.40977 17.627-0.11834 5.5868-0.23269 10.875-0.2541 11.751l-0.0389 1.5934-1.0921 0.0996c-0.60065 0.0548-3.8184 0.0321-7.1506-0.0503-5.4627-0.13516-6.0939-0.11785-6.4186 0.176-0.89611 1.9951-2.301 4.2336-4.401 5.1433-0.5182 0.1979-1.044 0.48257-1.1686 0.6326-0.34894 0.42044-0.87383 0.32616-1.5308-0.27495zm-7.3995-12.03c1.0646-0.59836 1.3347-1.323 0.85607-2.2968-0.30263-0.61564-0.51197-0.77981-1.1622-0.91147-2.0583-0.41672-3.1182 1.8085-1.5187 3.1883 0.64395 0.55549 0.86757 0.55794 1.8248 0.0199zm44.106 10.839c-0.50479-0.12611-0.69021-0.41384-0.69405-1.077-4e-3 -0.70622 0.55046-1.2971 1.3531-1.4417 0.52865-0.0952 0.75521-0.0225 1.1454 0.36764 0.57444 0.57445 0.54266 1.1026-0.10802 1.7953-0.45446 0.48375-0.85117 0.56695-1.6964 0.35579zm17.577-0.19145c-2.4896-0.47161-4.5525-1.7378-6.4096-3.3838-1.2-1.0746-1.2192-1.0775-6.7828-1.0301l-5.1761 0.0441-0.14103-0.88308c-0.0776-0.4857-0.23362-2.0931-0.34677-3.5719s-0.31965-3.8988-0.45889-5.3777c-0.13923-1.4789-0.25315-5.0856-0.25315-8.0149v-5.3261l0.49839-0.44991c0.27412-0.24746 1.036-0.85236 1.693-1.3442 1.0149-0.75979 4.3708-3.4743 4.6801-3.7856 0.0548-0.0551 0.50291-0.42449 0.99587-0.8208 1.0137-0.81494 2.5892-2.3153 2.5892-2.4656 0-0.0547-8.6894 6.6604-8.8632 6.6883-0.10954 0.0175-0.45693 0.24876-0.77197 0.51385s-0.66078 0.45265-0.7683 0.41681c-0.16548-0.0552-0.19406-18.536-0.0386-24.948 0.0213-0.87636 0.0552-3.3694 0.0755-5.5402 0.0317-3.3993 0.0679-4.1636 0.0679-4.521 0-0.41079 0.57004 0.20817 1.0348 0.76056 0.27259 0.32396 0.83277 0.74708 1.2448 0.94028 0.41207 0.1932 1.2144 0.94372 1.9062 0.94151 0.66605-2e-3 2.0708-0.21619 3.1735-0.8113l1.7003-2.0045c0.31847-0.31943 0.73115-1.2178 0.8407-1.2178 0.1276 0 0.20237 1.9147 0.20808 5.3279 5e-3 2.9303 0.0449 6.269 0.0889 7.4192s0.13992 4.8474 0.21314 8.2159c0.11461 5.2723 0.17501 6.1246 0.43408 6.1246 0.25602 0 0.22318-6.5229 0.16834-7.0706-0.0548-0.54773-0.12594-7.3594-0.15799-15.137-0.0321-7.7777-0.0865-15.105-0.1209-16.282l-0.0626-2.1411h-0.50779c-0.27929 0-0.8337-0.18358-1.232-0.40796-0.83696-0.47145-2.1943-2.2122-2.3562-3.0218-0.15028-0.75141-0.36373-0.69723-0.95723 0.24294-0.55164 0.87384-0.89628 1.0225-0.89628 0.38659 0-0.22556 0.0798-0.36077 0.17739-0.30047 0.22132 0.13678 0.87515-0.82914 0.72533-1.0716-0.0603-0.0976 0.0112-0.29836 0.15889-0.44607 0.14772-0.14772 0.32879-0.40143 0.40238-0.56379 0.0763-0.16828 0.0981-0.10252 0.0507 0.15294-0.13212 0.71207 0.2427 0.51998 0.58297-0.29876 0.17073-0.4108 0.77386-1.2174 1.3403-1.7926s0.91207-1.0457 0.7681-1.0457c-0.15683 0-0.0343-0.27371 0.30556-0.68272 0.6634-0.79833 1.0922-0.96211 0.47942-0.18315-0.22858 0.29059-0.36149 0.58188-0.29536 0.64731 0.1469 0.14537 1.078-0.98399 1.0794-1.3092 5.4e-4 -0.12823 0.26987-0.2922 0.59851-0.36438 0.32863-0.0722 0.59751-0.25574 0.59751-0.40792 0-0.17344-0.13006-0.23485-0.34855-0.16456-0.28417 0.0914-0.29512 0.0743-0.0593-0.0927 0.15909-0.11265 0.36803-0.15612 0.46432-0.0966 0.0963 0.0595 0.41427-0.11377 0.70662-0.38508 0.66089-0.61332 4.383-2.9358 5.6698-3.5378 0.62102-0.29053 0.93483-0.55488 0.89628-0.75503-0.0326-0.16939-0.14894-0.29627-0.25848-0.28195-2.9815 0.38969-3.8009 0.63274-6.6723 1.979-3.7014 1.7354-3.774 1.8006-2.6888 2.4108 0.32864 0.1848 0.6274 0.40322 0.66391 0.48539 0.0365 0.0821 0.1969 0.14937 0.35641 0.14937 0.23807 0 0.24402 0.0499 0.0332 0.27842-0.27129 0.29409-0.26679 0.29541-1.8809-0.54776-0.34554-0.1805-0.72625-0.32818-0.84602-0.32818-0.19419 0-1.9466 1.1659-2.5395 1.6895-1.4313 1.2641-3.1121 3.0527-4.1032 4.3662-0.66918 0.88688-1.4439 1.7918-1.7215 2.0109s-0.83698 0.73445-1.243 1.1452c-2.2324 2.0744-4.9002 3.5726-7.8752 4.2636-0.0459-0.0458 3e-3 -3.8808 0.10871-8.5221 0.18557-8.1534 0.17451-11.046-0.0431-11.263-0.21214-0.21214-0.52835 0.17564-0.52835 0.64795 0 0.26889-0.0841 0.64451-0.1868 0.83473-0.3355 0.62118-1.2074 3.1344-1.2074 3.4803 0 0.65862-0.66389 1.7295-1.1784 1.9007-0.70495 0.23461-2.254 0.30171-3.3712 0.14604-2.2811-0.31787-2.3402-1.3609-0.35923-6.34l0.69879-1.7564-0.4167-0.33491c-0.22919-0.1842-0.73472-0.67102-1.1234-1.0818-0.73366-0.77541-0.98906-0.86806-1.5723-0.57036-0.19022 0.0971-25.203 13.677-25.499 13.991-0.70817 0.51662-1.2558 1.0563-1.7289 1.8158-1.1785 1.4427-2.0496 3.4962-3.6598 4.5058-1.0075 0.55789-2.0339-0.45101-1.7456-1.7158 1.0627-4.3086 2.2663-8.5833 3.3182-12.898 1.1627-4.921 1.2465-5.1523 2.0031-5.5264 6.6383-1.8595 13.319-3.6754 19.995-5.4415 4.5865-1.2098 4.3062-1.0871 4.7432-2.0779 0.87931-1.9935 1.4421-2.3641 4.8171-3.1726 0.54772-0.1312 1.3096-0.32066 1.693-0.42102 2.5926-0.67865 2.5667-0.68281 2.7178 0.43809 0.0582 0.43221-0.0687 1.0232-0.35733 1.6639-0.24621 0.5465-0.47882 1.2032-0.51692 1.4592-0.0682 0.45852 0.85335 3.4806 1.2094 3.966 0.23407 0.31911 2.8422 0.34043 3.0373 0.0248 0.0961-0.15545-0.0824-0.19834-0.58262-0.13994-0.39663 0.0463-0.74546 0.0112-0.77518-0.0779-0.0297-0.0892-0.35446-0.20014-0.72165-0.24661-0.36718-0.0465-0.68681-0.11221-0.71028-0.14608-0.20202-0.29163-0.85662-3.0621-0.74266-3.1432 0.0813-0.0578 0.2634-0.50849 0.40478-1.0014 0.14137-0.49296 0.35451-1.2351 0.47364-1.6492 0.16119-0.56029 0.15698-0.81249-0.0164-0.98591-0.6787-0.6787 0.12434-1.7788 1.3786-1.8886 0.48294-0.0423 1.1867-0.15964 1.564-0.26086 0.37724-0.10121 0.72188-0.14806 0.76585-0.10409 0.18614 0.18615-0.21173 1.3252-0.4332 1.2402-0.14158-0.0543-0.25552 0.11728-0.28082 0.42293-0.0234 0.2829-0.12096 0.56419-0.21676 0.6251-0.0958 0.0609-0.16802 0.37963-0.16047 0.70826 8e-3 0.32864-0.10009 0.93441-0.2392 1.3462-0.33411 0.98889-0.14821 1.4392 0.2254 0.54599 0.49892-1.1928 0.60741-1.4839 0.6717-1.8022 0.0343-0.16963 0.36366-1.2004 0.732-2.2905 0.58097-1.7195 0.73368-1.9909 1.1526-2.0487 0.2656-0.0367 0.56806-0.1487 0.67213-0.24897 0.10406-0.10026 0.49457-0.1823 0.86779-0.1823 0.53695 0 0.65335 0.0657 0.55768 0.31505-0.0665 0.17327-0.12089 0.40263-0.12089 0.50968-0.5661 0.30279-0.39039 1.0956-0.69711 1.6365-0.16431 0.16432-0.29876 0.51131-0.29876 0.77109s-0.0733 0.55747-0.16282 0.66154c-0.5459 0.63439-0.73163 3.4575-0.25859 3.9305 0.14942 0.14942 0.17861-0.0767 0.0993-0.76896-0.0952-0.831 0.0459-1.4516 0.92514-4.0678 0.57065-1.698 1.1147-3.2346 1.209-3.4149 0.19-0.36317 2.0066-0.87367 2.4726-0.69485 0.38383 0.14729 0.38237 0.64819-2e-3 0.79581-0.56739 0.80251-0.22611 1.8862-1.4981 2.1189-0.75807 0-1.0407 0.5128-0.78016 1.4156 0.21372 0.74059 0.71922 1.5045 0.88554 1.3382 0.0579-0.0579-0.0303-0.36502-0.19589-0.68257-0.53228-1.0206-0.40652-1.2162 0.97573-1.5176 0.44662-0.0974 1.2154-0.2654 1.7083-0.37342 0.49295-0.10801 1.3575-0.27337 1.9212-0.36746 0.56373-0.0941 1.2049-0.22818 1.4248-0.29797 0.44715-0.14192 0.43844-0.18007 1.2245 5.365 0.73652 5.1958 0.74688 4.8479-0.17508 5.8756-0.97756 1.4776-2.254 2.6475-3.5128 3.8837-0.43069 0.38332-0.91752 0.69702-1.0818 0.6971-0.16976 9e-5 -0.30929 0.19366-0.32316 0.4483-0.20389 3.7447-0.37609 11.347-0.295 13.025 0.0428 0.885 0.58218 0.66814 1.6187-0.65079 1.9922-2.535 5.2778-5.4985 6.8026-6.1356 0.36841-0.15394 0.82679-0.4533 1.0186-0.66525 0.19182-0.21196 1.0639-0.72096 1.9379-1.1311 0.87402-0.41016 1.5891-0.83543 1.5891-0.94506 0-0.15489-2.2233-2.6474-2.8069-3.1468-0.35021-0.29966-1.6387-2.3303-2.2316-3.517-0.96249-1.9263-1.4672-3.5335-1.6166-5.1485-0.2829-3.0567-1.1694-7.7205-1.5617-8.2159-0.10844-0.13694-0.41196-0.24897-0.6745-0.24897-0.4197 0-0.46153-0.0661-0.3464-0.54773 0.3219-1.3465 0.52817-1.5171 1.894-1.5666 10.942-2.2367 21.834-4.9249 32.738-7.4667 8.8197-1.9829 8.168-1.7851 8.1548-2.4758-6e-3 -0.32482-0.0802-0.96475-0.16435-1.422-0.18878-1.0253 0.0899-1.2278 1.7975-1.3061l1.1635-0.0534 0.23014 1.1581c0.12658 0.63697 0.28699 1.215 0.35647 1.2844 0.0695 0.0695 0.52805 0.0189 1.019-0.11246 1.5881-0.42474 1.8128-0.35452 1.9449 0.60772 0.0639 0.46557 0.17716 1.2274 0.2517 1.693 0.13056 0.8155 0.11635 0.84649-0.38787 0.84649-2.6498 0.77799-5.5026 1.3597-8.2693 1.9057-0.25756-0.15919-1.4158 0.66102-1.5976 1.1313-0.72105 1.866-0.89869 2.1546-1.3943 2.2654-0.28355 0.0634-0.87406 0.21094-1.3122 0.32787-4.2846 1.1189-8.6341 1.9635-12.946 2.9727-0.9859 0.23011-1.9131 0.45048-2.0604 0.48971-0.14733 0.0392-0.31463 0.25012-0.37178 0.46866-0.0572 0.21854-0.18308 0.39734-0.27985 0.39734-0.0968 0-0.17595 0.24894-0.17595 0.5532 0 0.83386-0.48722 1.381-1.3408 1.5056-2.6674 0.4961-5.2597 1.3394-7.9207 1.8584-0.87597 0.15594-0.95096 0.24885-0.84405 1.0459 0.32476 2.4213 2.7534 6.6908 5.218 9.1732 0.8192 0.8251 0.86146 0.9171 0.56947 1.2398-0.17347 0.19167-0.48157 0.40124-0.68469 0.46571-0.20311 0.0645-0.62944 0.35804-0.94739 0.6524-0.31795 0.29435-0.72253 0.65075-0.89906 0.792-0.33295 0.2664-0.45699 0.74704-0.14266 0.55277 0.0981-0.0606 0.22655 0.0155 0.28552 0.16923 0.0847 0.22079 0.28124 0.24031 0.93661 0.0931 0.45616-0.10249 1.1119-0.13366 1.4572-0.0693 0.38165 0.0712 0.90121-6e-3 1.325-0.19643l0.6971-0.31352-0.99586 0.1255c-0.67849 0.0855-0.93239 0.0605-0.79669-0.0786 0.28871-0.29584 2.3136-0.40812 2.0697-0.11477-0.13117 0.15776-4e-3 0.25261 0.42371 0.31534 0.6214 0.0912 1.0015-0.12464 0.54522-0.30962-0.19115-0.0775-0.18194-0.14892 0.039-0.30263 0.15909-0.11065 0.34347-0.16768 0.40973-0.12673 0.24839 0.15352 2.1449 0.34282 3.702 0.36953 0.95168 0.0163 1.7347 0.12899 1.9105 0.27489 0.16383 0.13599 0.34441 0.2007 0.4013 0.14381 0.0569-0.0569 0.3549-8e-3 0.66226 0.10904 0.42526 0.16168 0.6021 0.15111 0.73989-0.0442 0.1433-0.20314 0.20214-0.20475 0.28209-8e-3 0.0591 0.14563 0.46126 0.24896 0.96895 0.24896 0.47735 0 0.92331 0.0896 0.99102 0.19918 0.0677 0.10954 0.25657 0.19917 0.41972 0.19917 0.16314 0 0.66764 0.17925 1.1211 0.39835 0.45346 0.21909 0.9869 0.39834 1.1854 0.39834 0.19852 0 0.36094 0.0896 0.36094 0.19918 0 0.10954 0.14465 0.19917 0.32143 0.19917 0.35519 0 1.9304 0.8092 2.0354 1.0457 0.0365 0.0821 0.20194 0.14938 0.3676 0.14938 0.31277 0 1.5078 0.76409 1.6241 1.0385 0.0365 0.0861 0.18532 0.15658 0.33067 0.15658 0.23944 0 1.3994 0.84686 2.9889 2.1822 0.85738 0.72028 3.2732 3.1754 4.0346 4.1004 4.0311 4.8966 6.457 11.922 6.4344 18.635-0.0137 4.0803-0.20012 5.2497-1.5363 9.6385-0.75051 2.4652-3.3906 7.2172-5.0964 9.1734-2.8146 3.2277-5.4989 5.5424-8.1642 7.04-0.62757 0.35263-1.1836 0.71007-1.2357 0.79433-0.0884 0.14307 0.48251 2.5743 1.4784 6.2955 0.46582 1.7406 1.5678 4.9448 2.2948 6.6723 0.25354 0.6025 0.77935 1.8596 1.1685 2.7936 1.4694 3.5271 1.8026 3.9783 2.9378 3.9783 0.58515 0 0.83233-0.1149 1.1105-0.51623 0.5099-0.52094 0.82587-1.1726 1.2753-1.7332 0.1212 0.1212 0.42529 1.4611 0.67577 2.9776 0.64055 3.8782 1.1386 5.7751 2.9054 11.066 0.53827 1.6118 0.97867 3.0138 0.97867 3.1157 0 0.30866-0.57939 0.42952-0.8204 0.17112-0.16694-0.17899-1.3284-0.22723-4.4532-0.18497l-4.2273 0.0572-0.27696 0.54034c-0.15232 0.29719-0.5015 0.78682-0.77595 1.0881-0.57099 0.62674-1.2854 0.75372-1.1207 0.19917 0.36003-1.2118 0.35434-1.4125-0.0461-1.6268-0.25563-0.13681-2.0879-0.21554-5.0162-0.21554h-4.6134l-0.85504 0.94607c-2.9128 2.8318-6.9259 4.2139-10.908 3.4969zm2.5399-2.4881c2.0364-0.69282 4.3083-2.5705 4.9959-4.1292 0.19734-0.44728 0.65315-1.5835 0.79923-2.2643 0.77922-3.6314-0.155-7.9341-2.3261-10.714-0.897-1.1484-0.96217-1.2132-1.7761-1.7668-0.38341-0.26079-0.89944-0.65501-1.1467-0.87603l-0.44962-0.40187c0.93154-0.81063 1.889-1.5232 2.5776-2.5668 1.1691-1.9971 1.0542-1.9602 2.2732-0.73069 1.1361 1.1458 2.7561 3.3607 3.235 4.4231 0.15858 0.35177 0.3714 0.77402 0.47292 0.93833 0.10153 0.16432 0.34151 0.67968 0.53329 1.1452 0.34197 0.83013 0.36721 0.84649 1.3062 0.84649 0.61462 0 0.95754-0.086 0.95754-0.24021 0-0.13212-0.30724-1.1852-0.68275-2.3403-0.93693-2.8819-1.5082-5.2037-1.5082-6.1299 0-1.333 0.4104-3.076 0.99867-4.2414 0.51408-1.0184 2.0661-2.7393 3.1639-3.5083 0.65476-0.45861 1.4142-1.7783 1.4142-2.4574 0-0.74336-0.24928-0.75995-1.5562-0.10354-0.54525 0.27386-1.1352 0.49793-1.311 0.49793s-0.31963 0.0896-0.31963 0.19917c0 0.10955-0.21878 0.19918-0.48618 0.19918s-0.54157 0.0896-0.60927 0.19917c-0.0677 0.10955-0.42622 0.19918-0.79669 0.19918-0.37048 0-0.72354 0.0808-0.78459 0.17957-0.061 0.0988-0.67131 0.24365-1.3562 0.32196-0.68485 0.0783-1.4244 0.17776-1.6435 0.22099-0.82506 0.16279-4.827 0.41425-5.9776 0.37561-1.5588-0.0523-3.67-0.41996-5.2134-0.90779-0.6778-0.21424-1.3736-0.38952-1.5463-0.38952s-0.46956-0.0792-0.65978-0.17594c-0.5009-0.18236-2.2126-1.2158-2.362-0.51285-2.2951 1.7468-4.2354 5.0954-5.7671 7.7092-1.3416 2.0543-1.7981 4.5291-2.2707 6.9217-0.24176 1.5609-0.25968 3.7857-0.0334 4.1425 0.13223 0.20846 1.9157 0.238 9.1892 0.15223 4.9638-0.0585 9.4551-0.16347 9.9806-0.23318 1.0929-0.14498 1.2926-0.0146 1.9493 1.2725 1.0664 2.0903 1.3361 5.9125 0.60749 8.608-0.22209 0.82158-0.45508 1.6955-0.51775 1.9419-0.0627 0.24648-1.2006 1.6785-1.3286 1.8427-0.18237 0.23391-0.74952 0.30187-2.6228 0.31431-7.1139 0.0472-7.6732 0.10708-7.028 0.75229 1.4137 1.4137 5.3162 2.072 7.6256 1.2863zm0.41602-29.023c-0.22965-0.25375-0.32202-0.6286-0.27983-1.1355 0.12214-1.4675 1.9328-1.8579 2.5307-0.54567 0.33729 0.74028 0.26662 1.2611-0.227 1.6729-0.58589 0.48876-1.5853 0.49286-2.0238 8e-3zm18.588 12.649c0.17896-0.21563 0.1136-0.53843-0.29236-1.444-1.3599-3.0336-1.7296-3.8834-2.4314-5.5888-0.7382-1.7939-0.76465-1.8281-1.2326-1.5934-0.26303 0.13191-0.72835 0.68799-1.034 1.2357-0.74405 1.3331-0.76859 3.1506-0.071 5.2554 0.80366 2.4246 0.78901 2.4128 2.9678 2.4128 1.3504 0 1.9266-0.0764 2.0936-0.27773zm-39.17-12.166c-0.0563-0.2947 0.0931-1.3262 0.21516-6.3234 0.14879-6.0892 0.17115-23.686 0.0303-23.827-0.0528-0.0528-0.13432-0.0575-0.18125-0.0106-0.16224 0.16224-0.29815 5.3064-0.45465 17.21-0.1659 12.617-0.1655 12.876 0.0206 13.36 0.18373 0.47878 0.47753 0.15358 0.3699-0.40944zm1.3844-3.9766c-3e-3 -1.9222-0.0705-4.6691 0.0288-7.2003 0.0726-1.8521 0.13562-6.765 0.13997-10.917 7e-3 -7.0982-0.0732-8.2869-0.53117-7.829-0.0715 0.0715-0.17301 6.6315-0.22554 14.578-0.0755 11.429-0.0431 14.511 0.1551 14.75 0.13783 0.16608 0.29288 0.25968 0.34455 0.20801 0.0517-0.0517 0.0914-1.6666 0.0883-3.5888zm1.2621 0.38274c0.13416-3.5334 0.10933-24.17-0.0303-25.223-0.0703-0.53029-0.1925-0.96416-0.27147-0.96416-0.079 0-0.19629 0.87387-0.26074 1.9419-0.16213 2.6873-0.18246 25.804-0.0231 26.219 0.29927 0.7799 0.50772 0.0772 0.5856-1.974zm0.7608 1.3244c0.35366-0.13909 0.36855-0.56187 0.34133-9.6957-0.0229-7.6898-0.0804-12.541-0.20942-17.667-2e-3 -0.0822-0.0946-0.14938-0.20561-0.14938-0.13445 0-0.19913 4.5054-0.1937 13.492 5e-3 9.0656-0.059 13.515-0.19649 13.56-0.23316 0.0777 0.26051 0.5391 0.46389 0.45911zm2.5182-2.3397c0-0.16432 7e-3 -6.5036-0.032-13.357-0.0384-6.8099-0.13656-12.448-0.21811-12.53-0.45298-0.45298-0.4738 0.24212-0.40321 13.462 0.0132 2.4648 0.0232 4.6158 0.0224 4.7802-0.0154 2.9445 0.0844 7.6689 0.16649 7.8828 0.13196 0.34386 0.46443 0.17334 0.46443-0.2382zm0.98716-0.57401c-5e-3 -0.10954-0.18188-7.4043-0.16991-8.664 0.0644-6.7849 0.20137-17.277-0.24318-17.167-0.43851 0.1092-0.26361 24.885-0.0481 25.689 0.11766 0.43925 0.479 0.54991 0.46115 0.14123zm18.648-0.50698c3.4617-0.61165 4.5968-0.90496 6.4565-1.6683 0.71205-0.29227 1.4739-0.60502 1.693-0.69501 0.21909-0.09 0.63878-0.27713 0.93264-0.41589s0.68646-0.1939 0.87245-0.12253c1.0429 0.40021 6.7694-4.1108 9.4652-7.4563 1.7988-2.2323 4.2846-6.5629 4.0772-7.1033-0.053-0.1382 0.0124-0.22995 0.14537-0.20388 0.1424 0.0279 0.23905-0.17164 0.23511-0.48544-4e-3 -0.29307 0.0571-0.49343 0.13504-0.44525 0.18729 0.11576 0.42813-0.65818 0.27961-0.89851-0.0636-0.10295-0.0185-0.24726 0.1003-0.32068 0.11881-0.0734 0.17217-0.24772 0.1186-0.38733-0.0536-0.13961 8e-3 -0.46665 0.13692-0.72675 0.12887-0.26011 0.2654-0.74181 0.30339-1.0704 0.038-0.32864 0.1644-0.65682 0.2809-0.72929 0.11651-0.0725 0.23629-0.56543 0.26617-1.0954 0.0299-0.53003 0.12705-1.7703 0.21592-2.7562 0.31069-3.4469-0.26247-8.33-1.3209-11.253-1.0186-2.8134-1.6071-4.1008-2.777-6.0748-1.591-2.6845-4.5097-6.0829-6.5184-7.5896-0.42273-0.3171-1.0176-0.79417-1.322-1.0602-0.5151-0.45018-0.96985-0.73602-3.0373-1.9091l-0.79669-0.45206-3.3859 1.668c-1.8623 0.91737-3.4756 1.6994-3.5851 1.7378-0.10953 0.0384 0.39381 0.95861 1.1185 2.0449 1.8476 2.7695 3.2754 5.8137 2.9019 6.1871-0.16682 0.16683-0.73412-0.30914-0.73412-0.61594 0-0.27099-1.5738-3.428-2.2459-4.5052-1.6573-2.6563-2.1225-3.0065-3.4506-2.5978-1.3097 0.40301-2.9142 0.60965-5.4572 0.70284-1.5328 0.0562-2.5604 0.0254-2.3901-0.0717 0.16432-0.0936 1.5087-0.21809 2.9876-0.2766 3.5816-0.14169 5.5768-0.57226 5.5768-1.2034 0-0.56072-4.8143-5.0984-5.7113-5.383-0.47741-0.15152-0.52493-0.1004-1.9251 2.0708-1.8913 2.9327-3.5787 6.9328-4.1129 9.7495-0.19568 1.0318-0.64036 1.7246-0.97444 1.5182-0.0984-0.0608-0.33476 0.13513-0.52524 0.43544s-0.56434 0.78078-0.8308 1.0677c-0.42217 0.45461-0.44243 0.53782-0.15756 0.64713 0.52243 0.20048 1.3321-0.0777 1.2033-0.41334-0.0677-0.17644-0.0136-0.25865 0.1375-0.209 0.37833 0.12428 0.41566 1.5116 0.0652 2.4254-0.60582 1.5798-2.3492 2.8529-3.5886 2.6204-0.56536-0.10606-0.67657-0.061-0.77455 0.31365-0.17896 0.68435 0.0822 12.595 0.28076 12.803 0.10873 0.11427 0.50532 0.0239 1.0267-0.23398 0.46723-0.2311 1.208-0.4769 1.6462-0.54622 1.5235-0.24103 1.6846-0.31044 1.9787-0.85253l0.29582-0.54519 8e-3 0.63994c4e-3 0.35197-0.17129 1.0947-0.39038 1.6506s-0.39834 1.1449-0.39834 1.309c0 0.23668 0.0824 0.25431 0.39834 0.0852 0.21909-0.11725 0.39835-0.35545 0.39835-0.52933 0-0.25843 0.0545-0.27087 0.29876-0.0682 0.44398 0.36848 0.36443 0.67014-0.24897 0.944-0.30125 0.13451-0.7211 0.50507-0.93301 0.82348-0.42732 0.64207-1.8502 1.4193-2.5983 1.4193-0.71564 0-1.4978 0.41541-1.4978 0.79547 0 0.52772 0.20827 0.60427 0.8048 0.2958 0.30531-0.15789 1.0338-0.34332 1.6188-0.41208 1.4233-0.16729 2.4393-0.66239 2.5198-1.228 0.035-0.24589 0.1514-0.44707 0.25866-0.44707 0.27302 0 0.0791 1.9581-0.27877 2.8146-0.32024 0.76643-1.4645 2.1648-1.7714 2.1648-0.29848 0-0.70294 0.47544-0.6189 0.72753 0.12783 0.3835 0.90429 0.0446 1.9699-0.85989 0.55954-0.47492 1.1421-0.86109 1.2946-0.85815 0.58197 0.0113-2.4899 2.3842-3.0888 2.386-0.23004 6.7e-4 -0.67498 0.13512-0.98875 0.29876s-0.69153 0.29753-0.83948 0.29753c-0.14794 0-0.37006 0.18888-0.49361 0.41973-0.33197 0.62028 0.0309 0.87702 0.73545 0.52036 0.31384-0.15887 1.198-0.40237 1.9648-0.54112 1.6232-0.29371 1.891-0.45912 1.8952-1.1702 2e-3 -0.37537 0.0522-0.44578 0.17682-0.249 0.20401 0.32209 0.0805 1.6624-0.2316 2.5141-0.78813 2.1505-2.3706 3.4243-4.0227 3.2381l-0.90491-0.102v6.928l0.59812 0.36374c0.32896 0.20005 0.97877 0.47819 1.444 0.61807 0.46523 0.13989 0.98033 0.30527 1.1446 0.36751 0.61805 0.2341 4.5511 0.86762 6.3284 1.0194 1.0159 0.0867 1.9047 0.21533 1.9751 0.28579 0.20107 0.20107 2.8596 0.14989 4.1614-0.0801zm-17.601-9.0423c-0.071-11.192-0.26869-17.574-0.54008-17.439-0.12602 0.063-0.19197 2.0382-0.17957 5.3777 0.0243 6.5448 0.28494 20.527 0.38893 20.863 0.31021 1.0043 0.381-0.87968 0.33072-8.8024zm4.6812-1.1c0.62284-0.37977 1.5806-1.6612 1.6587-2.2192 0.11589-0.82821-0.0264-1.289-0.40679-1.3176-0.21909-0.0165-0.39835 0.0541-0.39835 0.15679 0 0.10274-0.19126 0.1868-0.42503 0.1868-0.63814 0-2.0181 0.45008-2.4132 0.78709-0.42212 0.36005-0.44971 0.87273-0.0642 1.1927 0.22884 0.18992 0.44385 0.092 1.1007-0.50148 0.44898-0.40562 0.8806-0.67322 0.95916-0.59465 0.16568 0.16568-1.0376 1.2363-1.697 1.5098-0.55527 0.23036-0.58009 0.59691-0.0498 0.73558 0.21909 0.0573 0.39835 0.18335 0.39835 0.28011 0 0.30037 0.6673 0.19263 1.3374-0.21592zm-7.8163-7.4051c0-4.4482 0.14076-6.9418-0.29296-6.9418-0.33993 0-0.29295 2.4233-0.29295 6.8715s-0.25339 19.804 0.29295 19.813c0.54635 9e-3 0.29296-15.295 0.29296-19.743zm6.1639 2.896c0.4717-0.18101 0.38022-0.58216-0.19226-0.843-0.27902-0.12713-0.59271-0.23114-0.6971-0.23114-0.26991 0-0.23535 0.67147 0.0492 0.95603 0.2713 0.2713 0.39547 0.28875 0.84016 0.11811zm0.91257-1.0576c0-0.10041-0.11204-0.22778-0.24897-0.28303-0.13693-0.0553 0.0199-0.11052 0.34855-0.12281 0.67285-0.0252 1.167-0.3861 1.9211-1.4033 0.59708-0.80537 0.72057-2.063 0.18685-1.9028-0.40328 0.12104-1.274 0.30301-2.3938 0.50025-1.1036 0.19439-1.7644 0.87455-1.3005 1.3385 0.26554 0.26554 0.38137 0.25487 1.0422-0.0961 0.40887-0.21715 0.721-0.494 0.69361-0.61523-0.0274-0.12124 0.0846-0.22042 0.24897-0.22042 0.16432 0 0.29844 0.15685 0.29805 0.34855-4.7e-4 0.22891-0.37623 0.51946-1.0947 0.84648-1.1823 0.5381-1.2487 0.62074-0.79889 0.99405 0.16311 0.13537 0.25218 0.31795 0.19793 0.40572-0.0542 0.0878 0.014 0.20499 0.15158 0.26047 0.41276 0.16641 0.74814 0.14388 0.74814-0.0503zm-1.195-4.872c0-0.1509-0.14127-0.39161-0.31394-0.53491-0.2598-0.21562-0.34371-0.21239-0.48654 0.0187-0.19951 0.32281 0.11177 0.79057 0.5261 0.79057 0.15091 0 0.27438-0.12347 0.27438-0.27438zm0.79669-0.4085c0-0.047-0.14084-0.22621-0.31299-0.39835-0.28453-0.28453-0.25284-0.31356 0.34856-0.31932 0.7586-7e-3 1.1288-0.24724 1.9228-1.2463 0.42444-0.53409 0.54344-0.86474 0.47617-1.3231-0.1018-0.69363-0.12169-0.69735-1.7068-0.31869-1.0778 0.25746-1.9228 0.74934-1.9228 1.1193 0 0.34705 0.83818 0.39953 1.3217 0.0827 0.5098-0.33404 0.81462-0.29603 0.58647 0.0731-0.15789 0.25547-1.2885 0.82256-1.64 0.82256-0.14749 0-0.26816 0.13444-0.26816 0.29876 0 0.16431 0.0971 0.29875 0.21577 0.29875 0.11868 0 0.17803 0.11204 0.1319 0.24897-0.0461 0.13693 0.0584 0.35815 0.23237 0.4916 0.31957 0.24518 0.615 0.32682 0.615 0.16994zm1.5791-0.20603c0.56353-0.29142 0.81094-0.66951 0.81094-1.2393 0-0.21734-0.1845-0.14228-0.65203 0.26525-0.35861 0.3126-0.87397 0.72051-1.1452 0.90647l-0.49322 0.33811 0.45803 0.0104c0.25191 6e-3 0.7116-0.12068 1.0215-0.28094zm-14.38 27.52c0.50773 1.7133 0.80445-31.126 0.26943-31.611-0.24064-0.21825-0.28938 1.03-0.25108 2.1793 0.0625 1.8765-0.63576 31.235-0.0183 29.432zm13.907-44.806c0.73918-0.68112 1.2977-1.9436 1.1351-2.5656-0.0733-0.28031-0.21411-0.3388-0.58906-0.2447-0.271 0.068-0.83585 0.13267-1.2552 0.14366-0.41937 0.011-0.72388 0.0825-0.67668 0.15885 0.0472 0.0764-0.0829 0.1924-0.28916 0.25786-0.20623 0.0655-0.54008 0.30145-0.74187 0.52443-0.31435 0.34735-0.32524 0.43177-0.0761 0.58938 0.4689 0.29659 0.77463 0.22231 1.3169-0.31994 0.2805-0.2805 0.56455-0.45546 0.63121-0.38879 0.22594 0.22594-0.27631 0.75524-1.1163 1.1765-0.92417 0.46341-1.0211 0.92073-0.24113 1.1378 0.90971 0.25313 1.1945 0.18286 1.9023-0.46934zm-2.2021-2.6556c0-0.24425-0.16142-0.40467-0.44814-0.4454-0.24648-0.035-0.44814 0.0322-0.44814 0.14939 0 0.11716 0.0896 0.21302 0.19917 0.21302 0.10955 0 0.18856 0.0672 0.17559 0.14938-0.054 0.34181 0.0382 0.47647 0.27255 0.39835 0.13693-0.0457 0.24897-0.25478 0.24897-0.46474zm1.2946-0.68051c0-0.10955-0.20166-0.2019-0.44814-0.20523-0.40988-6e-3 -0.41735-0.024-0.0875-0.21584 0.19836-0.11538 0.48089-0.16364 0.62784-0.10725 0.14696 0.0564 0.58965-0.21993 0.98377-0.61405 0.57341-0.57341 0.71658-0.86912 0.71658-1.4801 0-0.72778-0.23342-0.99233-0.49793-0.56433-0.0677 0.10955-0.42056 0.19917-0.78413 0.19917-0.71272 0-1.9978 0.46398-2.2026 0.79521-0.13413 0.21703 0.34284 0.79818 0.6551 0.79818 0.1026 0 0.41069-0.17632 0.68466-0.39182 0.27397-0.21551 0.55067-0.33928 0.6149-0.27505 0.2243 0.22431-1.0029 1.0652-1.5545 1.0652-0.1658 0-0.30146 0.0896-0.30146 0.19917 0 0.10954 0.14541 0.19917 0.32314 0.19917 0.25471 0 0.27404 0.0592 0.0913 0.27939-0.17806 0.21455-0.17216 0.30335 0.0254 0.38262 0.45111 0.181 1.1536 0.14173 1.1536-0.0645zm-3.1341-0.71658c0.17314-0.17314-0.0581-0.67763-0.31062-0.67763-0.31176 0-1.5107-0.8506-1.6288-1.1556-0.0552-0.14262-0.0118-0.20455 0.0965-0.13762 0.10829 0.0669 0.19689 0.0268 0.19689-0.0892 0-0.36152 0.28492-0.23506 1.0017 0.44459 0.6656 0.63115 1.243 0.85407 1.1394 0.43994-0.0274-0.10955-0.10805-0.17976-0.17925-0.15603-0.0712 0.0237-0.18082-0.16148-0.24359-0.4116-0.0628-0.25012-0.31822-0.54885-0.56765-0.66385-0.60233-0.27769-2.3763-0.69642-2.4859-0.58679-0.22991 0.22991 0.83928 1.7779 1.6617 2.4059 0.9466 0.72278 1.1114 0.7962 1.3196 0.58793zm4.0667-2.7212c0.73558-0.19673 0.8937-0.1786 1.2494 0.14332 0.36327 0.32875 0.40725 0.33295 0.40725 0.0389 0-0.18129 0.0963-0.32962 0.21394-0.32962 0.13235 0 0.19277-0.39878 0.15844-1.0457-0.0429-0.8076 0.0105-1.0457 0.2342-1.0457 0.31403 0 0.81991-1.2313 0.67935-1.6535-0.0475-0.14261-5e-3 -0.20901 0.0945-0.14754 0.0995 0.0615 0.29116-0.22517 0.426-0.63697 0.28561-0.8723 1.6872-3.7092 2.1903-4.4334 1.5173-2.184 2.0054-3.2105 1.6853-3.544-0.10717-0.11164-1.6986 0.45506-1.6986 0.60486 0 0.0829-0.17178 0.15068-0.38175 0.15068-0.20996 0-0.41162 0.0672-0.44814 0.14937-0.0365 0.0822-0.55934 0.39782-1.1618 0.70147-1.3498 0.68027-2.7166 1.4648-3.4167 1.9611-0.29077 0.20615-0.60447 0.37513-0.6971 0.37552-0.0926 3.9e-4 -0.55518 0.33022-1.0279 0.73296l-0.85944 0.73225 0.4611 0.25585c0.2536 0.14072 0.61047 0.25903 0.79305 0.26291 0.18257 4e-3 0.36307 0.10042 0.40111 0.21453 0.038 0.11411 0.42642 0.24396 0.86308 0.28856 1.2802 0.13076 2.0886 0.33296 2.0886 0.52244 0 0.22977-1.0471 0.22746-1.6338-4e-3 -0.67488-0.26578-2.736-0.69487-2.8397-0.59117-0.0492 0.0492 0.037 0.44458 0.19155 0.87856 0.33795 0.94884 0.38451 3.1443 0.0788 3.7155-0.29727 0.55546 0.0473 0.74905 1.1494 0.64575 1.1105-0.1041 1.6349-0.44205 1.8266-1.177 0.10213-0.39169 0.19238-0.49292 0.26635-0.29876 0.3172 0.83262-0.72188 1.7273-2.115 1.8212-0.40499 0.0273-0.78015 0.12047-0.83369 0.20711-0.0536 0.0866-0.26817 0.15752-0.47694 0.15752s-0.48242 0.19214-0.60809 0.42697c-0.22405 0.41864-0.20778 0.42422 0.8349 0.2859 0.58487-0.0776 1.4424-0.24243 1.9056-0.36631zm-3.5218-0.14738c0-0.10955-0.0896-0.19918-0.19917-0.19918-0.10955 0-0.19917-0.15769-0.19917-0.35043s-0.18255-0.46444-0.40566-0.60377c-0.52946-0.33066-0.79245-1.0547-0.81952-2.2564-0.0121-0.53464-0.0461-0.97206-0.0758-0.97206-0.0296 0-0.52039 0.53852-1.0906 1.1967-0.8076 0.93222-1.0111 1.2989-0.92076 1.6588 0.13142 0.52363 0.87181 0.92874 1.6974 0.92874 0.3065 0 0.7195 0.17925 0.91777 0.39834 0.37523 0.41463 1.0954 0.54558 1.0954 0.19918zm0.24407-1.5242c-0.10003-0.20237-0.2675-0.54721-0.37215-0.76629-0.10465-0.2191-0.12925-0.66723-0.0547-0.99587 0.0746-0.32864 0.14907-0.50789 0.16551-0.39835 0.0164 0.10955 0.15289 0.037 0.30321-0.16129 0.4028-0.53128 0.50609-0.1596 0.25753 0.92664-0.18039 0.78828-0.16856 0.98996 0.0668 1.1387 0.1573 0.0994 0.37562 0.15094 0.48516 0.11448 0.3119-0.10382 0.10087-2.2987-0.33234-3.4567-0.346-0.9249-0.42934-1.0146-0.75422-0.81168-0.74727 0.46667-1.2569 3.4498-0.7339 4.296 0.0831 0.13438 0.32497 0.24432 0.53759 0.24432 0.21263 0 0.3866 0.10457 0.3866 0.23237 0 0.12781 0.051 0.18135 0.11338 0.11898 0.0624-0.0624 0.0315-0.27896-0.0685-0.48133zm22.284-6.3744c3.4171-1.6373 3.5248-1.8654 1.3231-2.8007-1.9689-0.83644-1.9344-0.82465-4.2324-1.443-1.3869-0.37319-4.4991-0.80394-5.8085-0.80394-1.6043 0-1.6372 0.19705-0.21071 1.2605 1.0371 0.77316 1.5471 1.3517 1.4005 1.5888-0.0716 0.11589-0.0229 0.1376 0.11612 0.0517 0.15177-0.0938 0.87484 0.51008 1.9727 1.6475 1.1812 1.2238 1.8826 1.8003 2.2026 1.8103 0.25821 8e-3 1.7147-0.58197 3.2366-1.3112zm-37.075-4.8354c0.1134-0.21188 0.20618-0.65043 0.20618-0.97455 0-0.63715 0.38402-0.92097 1.1452-0.84646 0.29324 0.0287 0.44814-0.0643 0.44814-0.26914 0-0.17638-0.16769-0.31302-0.38417-0.31302-0.21129 0-0.71276-0.3099-1.1144-0.68868-0.68645-0.64741-0.72184-0.73992-0.59044-1.5436 0.26148-1.5993 0.84201-2.6015 2.2288-3.8476 2.1162-1.9016 2.2791-2.0776 2.1369-2.3077-0.0742-0.12003-0.17778-0.67525-0.23022-1.2338-0.14922-1.5896-0.31747-1.8703-1.1861-1.9784-0.4184-0.0521-0.8054-0.0553-0.86-7e-3 -0.18345 0.1619 0.66861 0.65256 1.1332 0.65256 0.43515 0 0.45986 0.0726 0.45986 1.3502 0 1.1514-0.0622 1.3934-0.42275 1.6432-0.23251 0.16111-0.53554 0.4007-0.67339 0.53242-0.62816 0.24071-0.97941 0.8696-1.4078 1.4393-0.37555 0.36719-0.68282 0.73508-0.68282 0.81752 0 0.27286-0.62028 0.39351-0.99422 0.19339-0.25561-0.1368-0.39101-0.1274-0.44375 0.0308-0.10921 0.32764-2.2765 0.47333-2.6336 0.17704-0.26399-0.21909-0.63964-1.2448-1.3164-3.5947-0.14198-0.49295-0.33219-0.98143-0.42269-1.0855-0.28532-0.32811-0.1785 0.53188 0.23381 1.8822 0.21742 0.71204 0.39599 1.5369 0.39682 1.833 8.4e-4 0.29609 0.10211 0.75911 0.22504 1.0289 0.22283 0.48904 0.63323 0.59831 3.1624 0.84203 0.27386 0.0264 0.55481 0.0553 0.62433 0.0642 0.0695 9e-3 0.1265 0.44191 0.12663 0.96225s0.11212 1.639 0.24888 2.4859c0.13675 0.84693 0.20033 1.9001 0.14129 2.3403-0.11409 0.85054 0.1036 1.0535 0.44524 0.41516zm-4.813-2.0446c0.36519-0.36518 0.28504-0.61618-0.15961-0.49991-0.21924 0.0573-0.35704 0.037-0.30623-0.0453 0.12767-0.20658-0.27445-1.6059-0.46148-1.6059-0.0835 0-0.32328 0.12543-0.53294 0.27873-0.34231 0.25031-0.35292 0.33159-0.104 0.7967 0.15246 0.28487 0.40179 0.51795 0.55406 0.51795s0.22146 0.0896 0.15376 0.19917c-0.30625 0.49553 0.41677 0.79819 0.85644 0.35852zm3.6219-6.6823c-4e-3 -0.4289-0.33145-0.97673-0.48963-0.81855-0.12688 0.12688 0.21909 1.1671 0.38816 1.1671 0.0575 0 0.10314-0.15684 0.10147-0.34855zm-6.1288 99.161c-0.0922-0.24056 0.0568-10.034 0.2595-17.052 0.038-1.3146 0.1673-8.9329 0.2874-16.93s0.30624-18.035 0.41365-22.307c0.1074-4.2723 0.19453-9.0834 0.19362-10.691-2e-3 -3.336-0.0122-3.3118 1.6286-3.8288 1.0395-0.32758 1.9573-0.71778 2.154-0.91574 0.0548-0.0551 0.36847-0.23438 0.69711-0.39835 0.56242-0.24451 1.0099-0.65692 1.4938-1.0222 0.38341-0.28711 1.0396-0.84677 1.4582-1.2437 0.54497-0.24244 1.3015-1.4792 1.5129-1.0204 0.0866 0.21909 0.0873 2.415 2e-3 4.8797-0.0857 2.4648-0.16224 6.848-0.17007 9.7405-8e-3 2.8925-0.10111 8.315-0.20728 12.05-0.22625 7.9586-0.59636 26.017-0.6474 31.588-0.0196 2.1361 0.0692 5.0042 0.19732 6.3735 0.1281 1.3693 0.36523 3.9237 0.52695 5.6764s0.35323 3.6797 0.42557 4.2822l0.13152 1.0954h-5.1256c-4.1832 0-5.1451-0.0507-5.2314-0.27584zm9.9161-108.34c0-0.38743 0.81574-2.4129 1.0235-2.5413 0.11056-0.0683 0.44086-0.15787 0.73401-0.19897 0.29314-0.0411 0.87004-0.13126 1.282-0.20035 0.67864-0.11381 0.74306-0.0866 0.68564 0.28964-0.0349 0.22839-0.12543 0.47731-0.20128 0.55317-0.0759 0.0758-0.13792 0.32712-0.13792 0.55838-0.35212 1.3354-2.2006 1.6707-3.3859 1.5394z"/></g></svg>
