<?xml version="1.0" encoding="UTF-8" standalone="no"?>
<svg
   xmlns:dc="http://purl.org/dc/elements/1.1/"
   xmlns:cc="http://creativecommons.org/ns#"
   xmlns:rdf="http://www.w3.org/1999/02/22-rdf-syntax-ns#"
   xmlns:svg="http://www.w3.org/2000/svg"
   xmlns="http://www.w3.org/2000/svg"
   xmlns:sodipodi="http://sodipodi.sourceforge.net/DTD/sodipodi-0.dtd"
   xmlns:inkscape="http://www.inkscape.org/namespaces/inkscape"
   width="1000pt"
   height="550pt"
   viewBox="0 0 1000 550"
   version="1.1"
   id="svg2"
   inkscape:version="0.48.4 r9939"
   sodipodi:docname="Flag_of_Jabhat_Fatah_al-Sham.svg">
  <metadata
     id="metadata102">
    <rdf:RDF>
      <cc:Work
         rdf:about="">
        <dc:format>image/svg+xml</dc:format>
        <dc:type
           rdf:resource="http://purl.org/dc/dcmitype/StillImage" />
      </cc:Work>
    </rdf:RDF>
  </metadata>
  <defs
     id="defs100" />
  <sodipodi:namedview
     pagecolor="#ffffff"
     bordercolor="#666666"
     borderopacity="1"
     objecttolerance="10"
     gridtolerance="10"
     guidetolerance="10"
     inkscape:pageopacity="0"
     inkscape:pageshadow="2"
     inkscape:window-width="1680"
     inkscape:window-height="988"
     id="namedview98"
     showgrid="false"
     inkscape:zoom="0.5056"
     inkscape:cx="753.25731"
     inkscape:cy="198.09105"
     inkscape:window-x="-8"
     inkscape:window-y="-8"
     inkscape:window-maximized="1"
     inkscape:current-layer="#ffffffff" />
  <g
     id="#ffffffff"
     style="fill:#ff5555">
    <path
       d="m 0,0 1000,0 0,550 L 0,550 0,0"
       id="path5"
       style="fill:#ffffff"
       inkscape:connector-curvature="0"
       sodipodi:nodetypes="ccccc" />
  </g>
  <g
     id="#000000ff">
    <path
       fill="#000000"
       opacity="1.00"
       d=" M 452.39 67.40 C 452.88 65.78 455.14 65.68 455.59 67.39 C 462.28 79.42 463.10 93.60 464.21 107.04 C 464.35 118.96 466.77 131.01 472.44 141.58 C 474.68 145.54 477.59 149.64 482.06 151.22 C 485.84 152.60 490.26 150.49 491.83 146.85 C 494.25 141.47 493.82 135.35 493.24 129.63 C 491.68 117.45 488.00 105.64 483.77 94.15 C 482.86 91.46 481.33 88.94 481.00 86.08 C 481.00 83.95 482.87 82.58 484.10 81.07 C 486.84 78.21 487.47 73.93 490.36 71.18 C 491.59 70.27 493.09 71.08 494.17 71.81 C 501.76 77.19 506.89 85.45 509.68 94.21 C 510.44 96.38 510.40 98.69 509.79 100.89 C 505.26 101.79 502.72 97.16 498.87 95.83 C 499.40 100.75 501.99 105.13 502.85 110.00 C 505.21 121.15 507.92 132.80 505.21 144.14 C 503.61 151.42 500.69 158.94 494.75 163.77 C 490.37 167.40 484.08 168.12 478.85 166.07 C 470.89 163.08 465.08 156.51 459.89 150.07 C 453.84 160.78 443.97 169.68 432.06 173.22 C 425.01 175.42 416.66 174.03 411.49 168.50 C 403.77 160.50 402.61 148.60 402.69 138.01 C 402.48 131.61 404.29 125.21 403.00 118.86 C 400.08 118.94 399.24 122.08 398.25 124.27 C 393.96 135.70 390.66 147.51 385.73 158.71 C 384.10 162.10 381.63 165.70 377.72 166.57 C 373.87 167.26 370.38 164.80 367.77 162.25 C 359.82 154.11 354.19 143.58 352.48 132.28 C 350.61 120.34 352.76 108.12 356.72 96.81 C 357.58 94.50 358.37 91.99 360.42 90.43 C 360.96 95.14 359.04 99.63 358.67 104.27 C 357.71 114.00 358.04 123.95 360.35 133.48 C 361.92 139.41 364.86 145.65 370.32 148.88 C 373.89 150.78 377.03 147.15 377.99 144.03 C 383.52 127.83 390.48 112.04 399.38 97.40 C 401.75 93.83 403.89 90.02 407.02 87.03 C 408.18 85.87 410.20 84.86 411.73 85.97 C 414.74 88.24 416.93 92.19 415.95 96.04 C 412.80 111.48 412.64 127.34 413.42 143.03 C 413.65 147.71 415.71 152.67 419.94 155.07 C 424.26 157.54 429.59 156.67 433.97 154.83 C 440.05 152.18 445.96 148.24 449.23 142.30 C 453.17 135.24 453.39 126.86 452.97 118.98 C 452.06 106.14 449.30 93.48 446.09 81.07 C 447.66 76.34 449.92 71.74 452.39 67.40 Z"
       id="path22" />
    <path
       fill="#000000"
       opacity="1.00"
       d=" M 127.74 70.72 C 129.75 68.85 133.29 67.04 135.62 69.42 C 138.76 73.06 138.65 78.37 137.64 82.81 C 136.18 88.94 133.43 94.73 130.06 100.03 C 131.73 93.22 134.50 86.17 133.04 79.10 C 130.90 74.27 125.67 83.36 123.02 78.77 C 122.68 75.38 125.56 72.89 127.74 70.72 Z"
       id="path24" />
    <path
       fill="#000000"
       opacity="1.00"
       d=" M 514.55 72.96 C 514.48 71.07 515.90 68.81 518.03 69.14 C 520.72 69.54 522.70 71.61 524.70 73.29 C 533.07 80.90 541.84 88.15 549.32 96.68 C 551.17 98.86 553.62 101.71 551.79 104.65 C 548.71 105.05 545.66 104.44 542.77 103.45 C 548.73 112.47 554.65 121.53 561.00 130.28 C 560.44 121.13 558.45 112.13 558.10 102.96 C 558.71 98.23 553.72 94.88 554.86 90.05 C 555.89 85.48 557.16 80.72 559.78 76.80 C 561.97 73.87 566.17 75.71 567.26 78.68 C 572.35 90.23 577.57 101.82 581.03 114.00 C 581.59 116.53 582.49 119.72 580.59 121.91 C 578.62 123.44 576.70 121.01 575.04 120.13 C 575.55 132.09 575.28 144.24 577.07 156.06 C 593.71 182.42 610.75 208.70 624.11 236.94 C 629.02 247.77 633.74 258.97 634.93 270.91 C 635.09 273.26 635.53 275.83 634.10 277.90 C 629.40 272.93 627.94 266.00 624.95 260.03 C 611.80 232.04 594.88 206.05 578.28 180.04 C 579.73 194.34 580.26 208.72 581.94 223.01 C 585.39 250.11 588.08 279.02 576.78 304.74 C 575.80 306.62 574.80 309.13 572.28 309.12 C 571.63 305.12 572.37 301.10 573.41 297.24 C 575.82 288.05 575.67 278.45 575.40 269.03 C 574.33 245.58 570.94 222.32 568.08 199.04 C 566.46 185.50 564.07 172.06 562.64 158.49 C 562.41 156.87 562.37 155.11 561.32 153.76 C 549.60 136.27 537.09 119.33 524.39 102.56 C 522.49 99.65 518.50 99.32 516.52 96.50 C 514.57 94.08 515.25 90.82 515.29 87.98 C 515.61 82.96 514.58 77.98 514.55 72.96 Z"
       id="path26" />
    <path
       fill="#000000"
       opacity="1.00"
       d=" M 799.14 75.16 C 800.61 72.88 802.20 70.22 805.01 69.45 C 807.48 70.18 808.22 72.94 809.10 75.04 C 812.64 85.18 814.89 95.70 817.87 106.01 C 818.54 108.78 819.57 112.20 817.55 114.67 C 816.15 115.97 814.41 114.50 812.97 114.11 C 813.60 139.66 816.70 165.07 818.70 190.53 C 819.00 192.67 818.72 195.09 820.13 196.90 C 828.40 208.95 836.66 221.00 844.89 233.08 C 850.43 241.49 855.76 250.49 857.21 260.62 C 857.81 265.41 857.83 270.27 857.44 275.08 C 855.94 274.98 854.83 274.17 854.25 272.81 C 844.74 255.59 832.84 239.84 821.24 224.01 C 822.15 236.96 823.04 250.00 821.89 262.96 C 820.96 268.15 820.02 273.61 816.93 278.02 C 814.64 274.45 815.54 270.02 815.49 266.03 C 816.62 247.86 814.11 229.72 811.08 211.85 C 810.92 210.58 810.22 209.52 809.52 208.51 C 801.04 196.63 792.65 184.68 784.08 172.86 C 785.62 200.91 787.51 228.94 788.66 257.01 C 788.91 267.34 787.66 278.21 782.15 287.19 C 778.12 293.85 771.03 299.10 763.04 299.27 C 754.13 298.97 745.09 295.69 738.88 289.13 C 735.37 285.91 733.03 281.72 730.04 278.07 C 724.66 280.64 721.96 286.30 719.28 291.29 C 712.90 304.51 707.08 318.24 697.73 329.71 C 695.92 331.95 693.06 333.80 690.07 333.02 C 685.97 331.98 682.74 329.06 679.51 326.49 C 675.61 323.07 671.20 319.97 668.58 315.38 C 665.69 310.47 665.00 304.62 665.04 299.03 C 665.27 289.40 667.20 279.91 669.38 270.56 C 670.28 266.86 671.01 263.01 673.13 259.77 C 675.16 263.15 674.79 267.23 674.93 271.01 C 674.42 283.62 676.17 296.65 682.06 307.96 C 683.64 310.80 686.29 314.14 689.96 313.50 C 694.44 312.22 696.81 307.75 698.87 303.94 C 705.82 289.30 713.29 274.85 722.32 261.37 C 724.53 258.25 727.94 253.93 732.29 255.67 C 737.99 258.47 740.89 264.54 744.73 269.29 C 747.85 273.34 751.77 277.39 757.00 278.39 C 762.09 279.08 767.22 276.07 769.74 271.70 C 773.60 265.20 773.66 257.36 773.82 250.03 C 774.06 227.29 772.00 204.63 770.46 181.97 C 769.49 171.43 769.08 160.82 767.80 150.32 C 756.35 135.13 744.59 120.17 732.62 105.38 C 729.89 101.93 727.47 97.62 728.40 93.06 C 729.26 87.73 728.70 82.33 728.74 76.97 C 728.71 75.43 729.14 73.05 731.15 73.10 C 733.87 73.27 735.79 75.57 737.50 77.46 C 743.01 84.28 750.04 89.60 756.24 95.74 C 757.58 97.10 759.03 98.91 758.43 100.96 C 757.51 103.13 754.93 102.23 753.15 102.29 C 757.35 108.09 761.08 114.23 765.53 119.85 C 764.63 113.28 764.21 106.65 763.53 100.05 C 763.19 96.86 761.13 94.16 760.79 90.97 C 760.01 85.90 762.19 81.01 764.72 76.75 C 766.22 74.38 767.73 71.46 770.78 70.92 C 772.02 72.88 773.15 74.91 773.95 77.10 C 777.57 86.81 781.31 96.48 784.36 106.40 C 784.88 108.02 784.99 109.73 785.16 111.42 C 783.29 111.42 781.59 110.69 779.92 109.95 C 780.51 120.63 781.18 131.31 781.84 141.99 C 781.78 144.17 783.49 145.72 784.61 147.41 C 791.48 156.61 797.94 166.13 804.99 175.21 C 800.64 148.28 796.53 121.22 795.56 93.92 C 795.77 90.47 793.56 87.12 794.79 83.72 C 795.85 80.69 797.53 77.93 799.14 75.16 Z"
       id="path28" />
    <path
       fill="#000000"
       opacity="1.00"
       d=" M 848.62 81.76 C 850.64 76.85 854.08 72.52 858.04 69.02 C 861.67 71.76 862.89 76.34 864.77 80.27 C 868.06 88.16 872.00 95.76 875.18 103.69 C 875.63 105.66 877.04 108.64 874.79 109.97 C 872.67 109.57 870.93 108.25 869.19 107.10 C 868.36 122.28 870.54 137.39 872.24 152.44 C 875.22 177.13 877.52 201.92 878.51 226.77 C 879.34 246.02 878.77 265.69 873.14 284.26 C 869.18 297.27 861.97 309.71 850.84 317.83 C 842.98 323.64 833.70 327.25 824.22 329.41 C 819.38 330.45 814.47 331.86 809.47 331.20 C 809.83 328.44 812.30 326.90 814.28 325.29 C 820.76 320.38 827.73 316.16 834.10 311.10 C 845.86 301.99 856.42 290.40 861.07 276.00 C 867.07 257.92 864.59 238.60 863.41 219.98 C 859.79 177.46 854.45 135.11 849.57 92.72 C 849.28 89.06 847.08 85.42 848.62 81.76 Z"
       id="path30" />
    <path
       fill="#000000"
       opacity="1.00"
       d=" M 196.68 72.64 C 197.15 71.45 198.43 69.23 199.47 71.38 C 200.74 74.67 199.75 78.45 201.33 81.64 C 202.21 83.40 204.85 83.49 206.11 82.10 C 209.36 79.44 209.55 74.78 212.37 71.82 C 212.94 75.33 212.42 79.36 214.80 82.30 C 215.76 83.89 218.41 84.25 219.39 82.47 C 220.52 80.28 220.87 77.79 221.86 75.54 C 225.28 79.91 223.71 88.18 217.95 89.54 C 214.51 90.35 213.20 86.45 211.14 84.57 C 208.76 87.68 204.60 90.47 200.67 88.31 C 195.66 85.12 194.15 77.86 196.68 72.64 Z"
       id="path32" />
    <path
       fill="#000000"
       opacity="1.00"
       d=" M 162.97 81.00 C 164.50 77.80 166.01 74.06 169.13 72.15 C 169.50 72.17 170.24 72.22 170.62 72.24 C 173.83 74.61 175.24 78.57 177.16 81.92 C 179.91 87.55 183.10 93.48 182.83 99.92 C 182.78 102.87 180.41 104.80 178.12 106.22 C 179.41 123.65 181.39 141.03 183.31 158.41 C 189.00 154.12 193.39 147.26 193.67 140.03 C 192.07 130.96 190.27 121.91 188.33 112.90 C 186.21 104.76 186.79 95.56 190.92 88.16 C 195.01 90.67 197.77 94.84 199.83 99.07 C 202.52 104.68 201.75 111.03 201.39 117.03 C 200.79 125.53 203.28 133.80 205.23 141.99 C 206.32 146.73 208.27 151.71 212.46 154.55 C 216.54 157.18 221.93 157.85 226.53 156.37 C 229.67 155.09 229.92 151.21 229.49 148.32 C 227.68 134.10 223.03 120.42 217.64 107.20 C 216.67 104.49 215.33 101.04 217.53 98.55 C 220.04 95.56 222.23 92.24 225.11 89.59 C 227.95 88.95 229.72 91.79 231.43 93.54 C 235.27 98.05 239.81 102.82 240.38 109.00 C 240.64 112.36 237.14 113.29 234.52 113.64 C 237.81 125.54 241.42 137.57 241.83 149.99 C 242.14 157.81 239.66 166.30 233.08 171.08 C 226.33 176.47 216.13 180.02 208.30 174.77 C 202.37 171.14 200.75 164.06 198.68 157.95 C 196.02 158.76 195.02 161.53 193.71 163.70 C 191.79 167.28 189.37 170.61 186.41 173.40 C 185.47 174.38 183.98 175.33 184.45 176.93 C 185.95 194.95 186.97 213.00 188.20 231.03 C 188.86 239.81 187.89 249.40 182.01 256.39 C 180.12 250.89 180.90 244.97 180.21 239.28 C 178.38 220.33 175.88 201.45 173.88 182.52 C 165.70 182.85 157.12 179.51 152.48 172.54 C 145.55 162.16 145.07 149.00 146.01 136.95 C 146.32 130.87 148.63 124.74 147.17 118.67 C 146.63 116.72 144.89 118.60 144.64 119.66 C 140.40 129.56 138.56 140.28 137.08 150.89 C 135.83 159.46 133.81 168.35 128.25 175.25 C 126.20 177.86 122.73 180.12 119.33 178.73 C 114.96 176.69 113.08 171.85 111.25 167.72 C 105.49 153.26 102.79 137.50 103.97 121.95 C 104.56 115.62 105.61 109.24 108.14 103.37 C 110.00 104.16 109.78 106.26 109.84 107.93 C 109.67 121.30 110.60 134.82 114.15 147.75 C 115.53 152.20 117.23 156.97 120.95 160.01 C 123.08 161.78 125.91 160.08 126.84 157.86 C 130.09 151.46 130.68 144.12 131.55 137.09 C 132.20 124.63 136.35 112.49 142.90 101.92 C 145.28 98.06 148.37 93.91 153.07 92.93 C 156.33 92.25 159.48 94.89 159.73 98.13 C 161.02 106.83 156.91 114.97 155.30 123.32 C 153.49 133.55 155.34 144.43 160.55 153.43 C 163.01 157.61 167.54 160.21 172.38 160.36 C 171.60 148.53 170.44 136.73 169.62 124.90 C 169.16 119.67 169.08 114.39 167.96 109.25 C 166.88 103.54 164.52 97.94 165.38 92.03 C 163.90 88.58 161.21 84.87 162.97 81.00 Z"
       id="path34" />
    <path
       fill="#000000"
       opacity="1.00"
       d=" M 326.80 76.85 C 329.85 73.25 334.96 70.90 339.63 72.51 C 343.51 73.84 345.52 78.09 345.53 81.98 C 345.60 88.29 343.34 94.31 340.85 100.01 C 340.79 102.23 342.68 104.35 341.68 106.57 C 340.76 109.15 337.66 108.94 335.46 109.33 C 327.35 122.25 314.42 131.29 301.07 138.17 C 295.94 140.56 290.87 143.77 285.04 143.82 C 284.77 141.36 286.94 139.93 288.69 138.70 C 303.19 129.13 317.11 118.10 327.42 103.96 C 319.72 97.04 320.43 84.37 326.80 76.85 M 334.09 83.18 C 331.24 85.87 329.41 91.26 333.09 94.08 C 334.21 91.74 335.34 89.36 335.87 86.80 C 336.22 85.37 335.88 83.29 334.09 83.18 Z"
       id="path36" />
    <path
       fill="#000000"
       opacity="1.00"
       d=" M 671.61 72.52 C 673.93 70.29 675.39 74.11 676.15 75.85 C 680.20 86.96 683.07 98.63 689.04 108.95 C 690.64 111.81 692.95 114.52 692.97 117.97 C 688.39 118.95 684.22 116.27 680.21 114.52 C 682.86 150.50 687.99 186.24 691.96 222.08 C 693.18 235.46 697.36 248.48 697.16 262.00 C 697.17 273.12 694.36 284.22 689.02 293.97 C 688.16 295.53 686.93 296.84 685.75 298.14 C 685.50 297.62 685.01 296.58 684.77 296.06 C 685.22 291.69 686.52 287.46 686.92 283.08 C 688.55 269.99 685.88 256.95 684.32 244.00 C 678.83 202.60 673.54 161.18 668.07 119.78 C 666.73 109.18 661.87 98.88 663.41 88.04 C 664.37 82.16 667.65 76.85 671.61 72.52 Z"
       id="path38" />
    <path
       fill="#000000"
       opacity="1.00"
       d=" M 595.10 76.25 C 596.13 74.50 597.61 72.08 599.98 72.45 C 603.08 73.81 604.49 77.21 605.97 80.03 C 610.36 89.42 612.36 100.94 607.69 110.61 C 606.66 112.41 605.80 115.08 603.31 115.06 C 602.11 109.39 605.35 103.79 603.62 98.18 C 602.42 92.90 598.82 88.64 594.83 85.18 C 591.99 82.82 593.65 78.90 595.10 76.25 Z"
       id="path40" />
    <path
       fill="#000000"
       opacity="1.00"
       d=" M 244.74 85.69 C 247.46 80.92 251.48 76.87 256.06 73.87 C 257.03 74.95 258.08 76.02 258.54 77.44 C 262.54 88.15 265.76 99.15 270.23 109.69 C 271.79 113.37 272.44 118.38 269.35 121.46 C 267.05 123.50 264.43 121.20 262.33 120.06 C 264.74 146.39 266.18 172.79 268.13 199.14 C 271.57 196.61 274.38 193.34 277.76 190.76 C 279.15 189.57 281.83 189.55 282.25 191.73 C 283.02 196.71 281.84 201.89 283.33 206.80 C 284.15 210.52 286.81 214.50 291.00 214.61 C 296.56 214.42 300.83 210.03 303.75 205.69 C 307.39 200.52 308.70 194.25 311.09 188.50 C 313.34 189.81 312.96 192.70 313.41 194.90 C 313.99 200.88 315.45 207.67 320.67 211.34 C 323.25 213.31 327.29 212.60 328.86 209.70 C 332.02 204.25 330.83 197.54 328.56 192.00 C 330.09 188.95 333.27 186.50 336.72 186.11 C 339.66 193.85 339.52 202.51 338.36 210.60 C 337.44 214.89 336.69 220.03 332.58 222.51 C 327.47 225.56 320.84 224.92 315.70 222.30 C 312.44 220.76 310.92 217.26 308.13 215.14 C 305.21 218.22 302.56 221.76 298.66 223.65 C 292.47 226.80 284.66 227.98 278.26 224.76 C 274.90 223.16 273.08 219.79 271.27 216.72 C 268.43 220.12 270.37 224.72 270.18 228.71 C 270.72 247.65 272.76 267.28 266.38 285.54 C 261.90 298.85 252.05 310.08 239.62 316.55 C 226.03 323.57 211.34 328.59 196.24 331.06 C 183.49 332.88 169.23 333.33 158.02 325.99 C 149.82 320.65 146.74 310.74 144.37 301.77 C 140.15 282.82 141.78 262.60 148.48 244.41 C 149.29 243.21 149.42 239.96 151.46 241.33 C 153.03 247.95 152.00 254.73 150.47 261.24 C 149.82 272.60 150.46 284.44 154.87 295.07 C 157.76 302.04 163.34 308.00 170.55 310.51 C 178.23 313.33 186.65 313.04 194.62 311.76 C 214.17 308.10 233.00 299.27 247.29 285.27 C 252.46 280.09 255.61 273.17 256.82 266.00 C 258.47 257.42 257.35 248.67 257.66 240.02 C 257.80 234.67 257.91 229.32 257.72 223.98 C 254.93 225.50 251.83 226.71 249.55 228.98 C 249.67 237.06 250.94 245.38 248.35 253.23 C 243.88 267.82 231.79 278.51 219.07 286.11 C 208.97 291.88 197.87 297.48 185.90 296.84 C 177.04 296.44 169.13 290.96 164.26 283.76 C 156.90 273.71 157.56 260.40 158.76 248.62 C 159.96 241.73 160.58 234.30 164.38 228.26 C 164.83 228.03 165.72 227.57 166.17 227.34 C 166.48 232.92 165.04 238.41 165.13 243.99 C 165.00 254.36 167.57 265.40 174.91 273.09 C 179.41 277.77 186.48 278.57 192.56 277.30 C 202.36 275.28 211.07 269.89 218.88 263.85 C 224.80 259.16 230.29 253.91 235.14 248.12 C 238.67 243.91 238.94 238.03 238.15 232.83 C 232.60 234.80 226.99 236.62 221.32 238.26 C 216.19 239.83 210.62 238.45 206.02 235.96 C 203.19 234.43 203.03 230.89 203.02 228.07 C 203.08 223.37 202.75 218.68 202.72 213.98 C 202.66 208.32 205.70 203.30 208.69 198.72 C 211.23 194.91 214.40 190.96 219.04 189.77 C 223.23 188.75 227.38 190.85 230.55 193.44 C 236.79 198.75 242.21 205.13 245.91 212.48 C 249.55 210.43 253.21 208.42 256.76 206.21 C 255.01 178.42 251.29 150.81 247.85 123.19 C 246.88 114.48 245.55 105.74 246.21 96.95 C 245.47 93.27 242.54 89.45 244.74 85.69 M 217.34 207.18 C 215.78 210.97 214.55 216.17 217.42 219.61 C 222.04 222.21 227.33 219.19 231.87 217.75 C 228.55 212.65 224.15 206.82 217.34 207.18 Z"
       id="path42" />
    <path
       fill="#000000"
       opacity="1.00"
       d=" M 637.30 76.34 C 638.41 75.20 639.77 72.88 641.56 74.37 C 643.24 76.70 643.97 79.54 644.84 82.25 C 647.31 91.04 649.49 99.92 652.22 108.65 C 652.88 110.59 652.86 112.65 652.58 114.67 C 650.17 115.27 647.99 114.15 645.99 112.97 C 644.97 135.07 648.48 157.02 650.64 178.95 C 653.43 205.21 654.94 231.61 654.81 258.02 C 654.46 272.51 653.40 287.56 646.85 300.75 C 643.63 307.51 638.32 312.89 633.51 318.52 C 627.09 325.61 620.22 333.39 610.48 335.60 C 602.44 337.36 594.15 337.79 585.95 337.95 C 583.96 337.61 580.89 338.30 579.98 335.99 C 582.51 333.11 586.42 332.19 589.93 331.07 C 604.54 327.36 616.06 316.84 626.37 306.38 C 633.85 298.97 640.70 290.21 642.77 279.64 C 644.99 268.43 643.24 256.98 642.70 245.70 C 641.38 222.82 640.57 199.91 638.37 177.10 C 636.06 151.34 632.82 125.68 629.09 100.09 C 627.85 95.81 625.41 91.12 627.83 86.74 C 630.47 82.84 634.44 80.08 637.30 76.34 Z"
       id="path44" />
    <path
       fill="#000000"
       opacity="1.00"
       d=" M 424.52 80.03 C 424.96 77.62 427.15 75.86 429.00 74.40 C 431.56 74.61 432.72 77.26 433.74 79.26 C 437.16 86.99 437.57 95.67 437.21 104.01 C 436.90 108.80 436.30 113.73 433.93 118.00 C 432.39 116.36 433.04 113.99 433.00 111.98 C 433.80 103.61 432.61 94.88 428.56 87.43 C 427.26 84.95 425.14 82.82 424.52 80.03 Z"
       id="path46" />
    <path
       fill="#000000"
       opacity="1.00"
       d=" M 827.07 99.94 C 823.35 95.43 827.10 89.30 831.00 86.42 C 833.95 87.65 834.87 91.18 836.16 93.84 C 839.77 102.71 840.87 112.44 840.52 121.95 C 840.14 126.54 839.82 131.48 836.92 135.28 C 835.66 133.83 835.21 131.98 835.25 130.10 C 835.02 119.61 832.66 108.92 827.07 99.94 Z"
       id="path48" />
    <path
       fill="#000000"
       opacity="1.00"
       d=" M 613.00 139.78 C 617.87 136.89 615.66 129.79 619.96 126.41 C 621.51 130.72 621.84 135.39 621.56 139.94 C 621.32 142.72 620.19 146.21 616.96 146.59 C 613.40 147.33 611.58 142.75 608.17 142.89 C 605.99 144.12 604.30 146.18 601.90 147.01 C 599.57 147.74 598.29 145.17 597.77 143.35 C 596.75 139.67 596.01 135.41 598.10 131.95 C 599.81 134.93 600.68 138.40 603.09 140.97 C 606.58 138.32 604.90 132.51 607.98 130.03 C 610.54 132.27 609.34 137.72 613.00 139.78 Z"
       id="path50" />
    <path
       fill="#000000"
       opacity="1.00"
       d=" M 736.74 134.72 C 738.00 133.94 740.11 133.35 740.90 135.10 C 742.22 137.48 743.26 140.02 744.60 142.40 C 745.58 143.94 744.86 145.86 743.84 147.17 C 741.24 147.41 739.11 144.43 736.52 145.49 C 733.56 148.48 734.45 153.17 734.22 156.99 C 733.89 164.62 735.84 172.72 732.65 179.95 C 731.20 179.75 729.95 179.02 729.41 177.61 C 725.83 170.75 722.91 163.45 717.85 157.50 C 716.38 158.95 714.51 161.52 712.17 160.19 C 710.52 159.55 710.63 157.48 710.68 156.04 C 710.93 152.76 710.35 149.43 710.88 146.17 C 711.85 143.31 716.14 142.56 717.78 145.25 C 722.13 151.00 724.73 157.84 727.67 164.37 C 728.16 165.54 729.12 166.40 729.98 167.31 C 732.12 159.36 728.36 151.16 730.00 143.15 C 731.06 139.63 733.56 136.57 736.74 134.72 Z"
       id="path52" />
    <path
       fill="#000000"
       opacity="1.00"
       d=" M 322.10 137.15 C 323.29 136.04 324.56 134.15 326.45 134.64 C 326.73 138.32 323.96 141.26 322.34 144.32 C 320.09 148.11 318.07 153.20 320.57 157.34 C 322.82 160.55 327.42 159.11 329.80 156.82 C 332.48 154.83 334.21 151.05 337.91 150.88 C 337.04 155.82 334.90 160.72 330.88 163.88 C 327.70 166.41 323.27 168.54 319.21 166.91 C 315.31 164.82 312.62 160.47 312.89 155.99 C 313.18 148.74 317.64 142.54 322.10 137.15 Z"
       id="path54" />
    <path
       fill="#000000"
       opacity="1.00"
       d=" M 394.26 171.16 C 396.33 170.18 397.07 172.79 397.90 174.16 C 404.35 188.75 410.99 203.34 415.33 218.74 C 419.64 233.22 421.62 248.23 423.98 263.11 C 425.71 273.15 427.61 283.75 434.03 292.00 C 440.31 299.70 449.65 304.33 459.15 306.72 C 457.52 300.84 457.12 294.37 459.77 288.72 C 464.10 279.16 473.54 273.10 483.07 269.57 C 475.41 262.09 464.06 261.32 453.96 260.80 C 446.20 260.23 438.32 260.74 430.66 259.29 C 428.19 258.96 427.37 256.28 428.14 254.18 C 429.62 248.65 431.00 242.95 433.96 237.98 C 436.94 233.00 442.63 230.91 447.71 228.76 C 461.24 223.52 474.81 218.38 488.68 214.11 C 486.32 210.14 484.19 205.74 484.35 201.00 C 484.42 193.97 488.48 187.87 492.28 182.26 C 495.06 177.95 499.74 174.74 504.98 174.63 C 513.09 174.47 520.48 178.59 527.08 182.89 C 532.00 185.93 536.75 190.15 538.16 195.99 C 539.95 202.88 536.66 210.02 531.96 214.98 C 526.24 221.18 518.24 224.50 510.46 227.28 C 510.36 228.57 510.24 229.86 510.12 231.15 C 507.62 230.87 505.23 228.61 502.71 229.86 C 488.87 235.01 474.77 239.92 461.91 247.26 C 487.96 248.13 514.05 247.37 540.09 246.44 C 546.72 246.41 553.42 244.64 560.00 246.10 C 560.82 250.37 558.50 254.34 557.28 258.30 C 555.93 262.45 553.02 266.53 548.38 267.15 C 528.52 269.84 509.26 275.76 490.43 282.48 C 484.90 284.73 478.85 286.28 474.20 290.20 C 470.92 292.77 469.54 297.61 471.74 301.33 C 475.19 307.35 481.76 310.77 488.08 313.05 C 491.80 314.44 496.47 314.79 499.02 318.18 C 499.64 322.61 497.32 326.92 496.12 331.11 C 494.69 335.28 489.51 334.82 485.99 334.61 C 467.48 332.82 448.60 327.10 434.39 314.65 C 425.43 306.96 419.13 296.66 414.87 285.74 C 402.55 302.48 389.40 319.47 371.38 330.43 C 360.57 337.06 346.46 340.07 334.62 334.40 C 325.66 329.82 322.13 319.28 321.41 309.87 C 318.44 310.41 315.80 311.94 313.04 313.08 C 297.14 319.89 280.63 325.14 264.09 330.15 C 260.75 331.16 257.11 332.72 253.73 330.97 C 255.40 327.74 259.08 326.71 262.02 325.03 C 282.55 314.40 302.89 303.15 321.68 289.64 C 324.88 278.21 328.64 266.82 334.23 256.30 C 334.35 254.80 337.11 254.31 337.01 256.08 C 337.77 263.53 336.14 271.03 336.88 278.50 C 342.58 274.77 347.86 270.46 352.96 265.95 C 358.78 260.84 365.39 256.14 369.19 249.21 C 372.20 243.82 371.82 237.16 369.42 231.62 C 366.21 224.28 362.15 217.35 358.94 210.01 C 357.81 206.55 352.87 206.49 351.96 202.83 C 351.07 198.13 353.96 193.85 355.71 189.69 C 357.14 187.18 358.08 183.72 361.09 182.70 C 365.11 183.34 367.38 187.27 370.00 190.00 C 373.66 194.68 378.01 199.26 379.65 205.11 C 380.52 208.09 377.01 208.66 374.88 208.61 C 378.49 219.76 382.70 231.08 382.25 243.00 C 382.13 253.59 377.37 263.63 370.54 271.54 C 359.98 283.57 347.90 294.54 333.69 302.11 C 333.43 306.06 333.64 310.46 336.41 313.57 C 339.74 317.36 345.23 317.91 349.97 317.51 C 360.39 316.72 369.67 311.09 377.56 304.59 C 389.80 294.29 399.79 281.42 407.41 267.40 C 408.12 265.81 409.48 264.19 408.76 262.36 C 402.80 240.20 395.80 218.32 388.07 196.72 C 386.64 192.92 386.17 188.62 387.75 184.79 C 389.66 180.14 391.32 175.27 394.26 171.16 M 501.05 195.91 C 500.30 200.61 501.49 205.29 502.15 209.92 C 508.08 208.37 514.43 207.96 519.89 204.99 C 517.39 202.35 514.00 200.91 510.95 199.05 C 507.92 197.36 504.70 195.20 501.05 195.91 Z"
       id="path56" />
    <path
       fill="#000000"
       opacity="1.00"
       d=" M 464.04 196.89 C 468.52 191.96 464.88 184.57 467.87 179.12 C 470.72 184.05 472.28 189.92 471.46 195.62 C 470.95 199.07 468.47 202.46 464.84 202.95 C 461.52 203.61 459.43 200.44 456.93 198.93 C 455.03 201.55 454.49 205.95 450.75 206.61 C 446.13 207.28 443.72 202.28 442.66 198.58 C 441.71 193.94 441.36 188.57 443.78 184.31 C 445.37 188.70 445.58 193.77 448.62 197.52 C 449.53 198.93 451.50 198.67 452.13 197.14 C 454.27 192.88 452.88 187.77 455.05 183.49 C 459.37 186.96 458.89 194.00 464.04 196.89 Z"
       id="path58" />
    <path
       fill="#000000"
       opacity="1.00"
       d=" M 747.31 192.31 C 750.03 189.92 752.25 186.65 755.91 185.64 C 757.81 189.83 759.09 196.56 753.98 199.01 C 743.98 204.40 734.09 210.12 725.11 217.10 C 722.26 219.20 719.45 221.69 715.82 222.22 C 715.52 219.63 716.30 217.03 718.42 215.40 C 727.59 207.14 738.17 200.61 747.31 192.31 Z"
       id="path60" />
    <path
       fill="#000000"
       opacity="1.00"
       d=" M 111.79 229.78 C 124.78 214.16 142.56 202.68 162.04 196.98 C 162.71 196.99 164.05 197.01 164.72 197.02 C 164.91 200.06 166.16 203.64 164.46 206.39 C 161.24 208.59 157.18 209.01 153.62 210.51 C 141.73 215.08 130.24 220.72 119.35 227.32 C 115.95 229.33 113.02 232.14 109.32 233.63 C 109.98 232.24 110.80 230.95 111.79 229.78 Z"
       id="path62" />
    <path
       fill="#000000"
       opacity="1.00"
       d=" M 746.39 214.36 C 748.91 213.55 750.95 215.85 752.41 217.58 C 756.88 223.40 759.82 231.21 757.68 238.51 C 756.58 241.43 755.06 244.70 752.08 246.08 C 750.06 244.18 751.54 241.21 751.84 238.91 C 753.34 233.58 749.64 228.45 745.45 225.55 C 743.93 224.22 741.25 223.40 741.28 221.01 C 741.93 218.26 743.74 215.53 746.39 214.36 Z"
       id="path64" />
    <path
       fill="#000000"
       opacity="1.00"
       d=" M 299.70 242.68 C 302.12 238.35 308.58 241.00 310.52 244.45 C 313.25 253.62 312.07 263.85 306.97 271.99 C 306.37 273.21 305.07 273.70 303.88 274.15 C 305.18 267.61 307.16 261.06 306.06 254.29 C 303.62 254.55 300.39 255.65 298.57 253.35 C 296.22 250.07 297.90 245.81 299.70 242.68 Z"
       id="path66" />
    <path
       fill="#000000"
       opacity="1.00"
       d=" M 121.29 261.47 C 121.60 261.41 122.23 261.28 122.54 261.22 C 123.29 267.32 124.12 273.79 121.82 279.68 C 119.08 288.30 116.73 297.72 119.23 306.69 C 120.06 309.26 121.70 312.68 124.85 312.62 C 129.60 311.71 129.59 304.29 134.70 304.00 C 135.84 309.76 135.07 316.04 132.18 321.20 C 129.89 325.34 124.94 328.48 120.13 327.04 C 115.37 325.65 112.72 320.70 112.17 316.05 C 110.71 303.27 110.72 289.83 115.80 277.78 C 118.13 272.51 118.49 266.54 121.29 261.47 Z"
       id="path68" />
    <path
       fill="#000000"
       opacity="1.00"
       d=" M 514.07 312.28 C 519.78 308.18 525.52 302.82 532.82 302.14 C 535.02 308.38 529.11 314.40 531.18 320.71 C 531.58 322.23 533.59 322.25 534.85 321.99 C 541.92 320.44 547.88 315.97 554.70 313.73 C 556.08 313.18 557.55 313.45 558.97 313.73 C 556.66 317.48 552.83 319.82 549.46 322.50 C 544.01 326.50 538.12 330.97 531.01 330.82 C 527.66 331.08 523.65 329.53 522.81 325.95 C 521.63 320.89 524.90 316.19 524.75 311.14 C 521.04 310.63 517.38 314.76 514.07 312.28 Z"
       id="path70" />
    <path
       fill="#000000"
       opacity="1.00"
       d=" M 768.68 312.35 C 765.17 310.85 766.29 304.46 770.19 304.41 C 773.29 304.00 776.54 303.70 779.61 304.55 C 781.17 305.08 783.27 305.99 783.09 308.00 C 782.37 312.06 778.52 315.19 779.22 319.56 C 781.79 319.62 784.37 319.66 786.91 320.16 C 787.01 322.05 787.35 324.39 785.57 325.66 C 780.97 329.02 775.63 331.61 769.99 332.54 C 767.61 332.91 763.67 332.13 764.18 328.96 C 765.29 323.75 772.81 322.62 773.26 317.06 C 773.09 314.49 770.54 313.52 768.68 312.35 Z"
       id="path72" />
    <path
       fill="#000000"
       opacity="1.00"
       d=" M 585.19 374.05 C 587.81 375.53 590.40 377.08 593.11 378.41 C 591.83 381.75 589.99 384.83 588.21 387.93 C 586.05 386.61 583.89 385.30 581.79 383.90 C 580.64 386.61 579.35 389.27 578.06 391.93 C 575.32 390.28 572.60 388.58 569.92 386.84 C 571.32 383.86 572.98 381.01 574.40 378.04 C 576.68 379.17 578.92 380.39 581.19 381.56 C 582.75 379.18 584.08 376.66 585.19 374.05 Z"
       id="path74" />
    <path
       fill="#000000"
       opacity="1.00"
       d=" M 522.21 378.09 C 525.83 379.85 529.39 381.72 532.93 383.62 C 530.80 386.97 529.15 390.58 527.28 394.07 C 523.88 392.09 520.36 390.30 516.78 388.68 C 518.45 385.07 520.38 381.60 522.21 378.09 Z"
       id="path76" />
    <path
       fill="#000000"
       opacity="1.00"
       d=" M 343.07 385.04 C 345.85 386.47 348.60 387.97 351.48 389.23 C 350.13 392.53 348.55 395.72 347.00 398.93 C 344.28 397.46 341.55 395.99 338.75 394.69 C 339.87 391.34 341.47 388.18 343.07 385.04 Z"
       id="path78" />
    <path
       fill="#000000"
       opacity="1.00"
       d=" M 374.11 398.48 C 374.43 393.52 376.28 388.84 378.94 384.69 C 380.25 386.04 380.62 387.86 381.22 389.58 C 382.99 391.51 385.49 392.51 387.81 393.61 C 386.60 397.41 386.58 402.13 383.27 404.85 C 384.82 413.01 385.94 421.24 387.54 429.39 C 388.24 434.22 387.69 439.12 387.90 443.98 C 378.94 444.00 369.98 444.04 361.02 443.98 C 357.56 443.49 354.13 442.50 350.93 441.08 C 345.38 445.19 338.37 443.83 331.95 444.01 C 328.09 444.31 325.97 440.53 324.17 437.75 C 321.32 441.48 316.96 444.55 312.05 444.02 C 307.19 443.48 301.72 445.33 297.38 442.50 C 294.02 440.18 293.26 435.86 292.65 432.11 C 291.75 424.12 292.68 416.04 292.09 408.03 C 291.89 405.10 290.40 402.49 288.24 400.57 C 289.84 396.79 291.40 393.00 293.14 389.28 C 294.96 391.62 296.47 394.26 297.09 397.19 C 298.79 405.35 297.96 413.74 298.24 422.01 C 298.48 425.47 298.70 429.24 301.10 431.99 C 307.09 431.42 313.77 433.55 319.16 430.14 C 323.13 427.55 324.53 422.64 324.58 418.14 C 325.29 418.08 326.70 417.96 327.41 417.90 C 327.62 422.58 325.35 429.75 331.14 431.90 C 336.15 431.81 341.72 433.09 346.21 430.27 C 349.18 428.29 348.46 424.38 349.43 421.40 C 350.26 420.00 351.73 419.22 353.12 418.50 C 353.40 422.31 352.86 426.10 352.52 429.90 C 355.31 430.68 358.06 431.70 360.95 432.09 C 360.43 429.00 358.60 426.18 358.54 423.04 C 359.74 420.24 361.89 417.96 363.46 415.36 C 366.65 420.26 365.71 426.40 365.88 431.93 C 371.45 432.05 377.03 431.99 382.61 431.99 C 380.62 422.01 379.22 411.93 377.43 401.91 C 377.39 400.01 375.39 399.41 374.11 398.48 Z"
       id="path80" />
    <path
       fill="#000000"
       opacity="1.00"
       d=" M 394.20 403.01 C 394.22 398.21 396.60 393.50 399.50 389.77 C 401.26 400.80 403.51 411.78 404.38 422.93 C 404.63 428.25 405.16 433.77 403.46 438.92 C 402.52 441.76 401.14 444.44 399.98 447.21 C 395.77 446.29 398.39 441.86 398.31 438.99 C 398.59 426.87 396.30 414.88 394.20 403.01 Z"
       id="path82" />
    <path
       fill="#000000"
       opacity="1.00"
       d=" M 502.05 390.02 C 504.87 391.60 507.70 393.19 510.46 394.89 C 508.94 397.92 507.27 400.87 505.79 403.91 C 503.58 402.92 501.52 401.45 499.13 400.96 C 497.45 403.09 496.39 405.59 495.16 407.99 C 492.57 406.37 489.90 404.88 487.13 403.59 C 488.41 400.36 490.36 397.45 491.64 394.22 C 494.04 394.97 496.15 396.36 498.30 397.63 C 499.70 395.18 500.87 392.59 502.05 390.02 Z"
       id="path84" />
    <path
       fill="#000000"
       opacity="1.00"
       d=" M 586.97 393.98 C 587.26 394.08 587.85 394.28 588.15 394.39 C 589.56 403.50 590.82 412.65 592.23 421.77 C 592.88 425.36 593.58 429.17 596.12 431.97 C 602.09 432.03 608.10 432.39 613.91 430.76 C 616.98 422.90 619.69 414.67 624.77 407.83 C 626.13 406.05 629.03 403.52 630.99 405.97 C 636.95 414.23 635.58 428.21 625.81 433.06 C 627.82 432.59 629.81 431.85 631.92 431.98 C 643.45 432.00 654.99 432.03 666.52 431.98 C 666.20 427.96 663.77 424.74 661.53 421.58 C 662.09 418.07 663.89 414.89 664.99 411.53 C 670.83 416.52 670.81 424.88 670.93 431.94 C 680.70 432.05 690.49 432.01 700.27 431.97 C 694.33 425.89 686.09 419.95 677.12 422.53 C 679.31 417.89 682.61 412.91 688.06 412.00 C 693.94 411.28 698.88 415.36 702.92 419.11 C 708.38 423.74 712.39 430.73 719.91 432.29 C 719.83 436.18 719.85 440.08 719.89 443.98 C 690.44 444.04 660.99 443.97 631.54 444.01 C 633.11 445.46 636.17 446.29 635.94 448.90 C 635.89 454.00 633.67 458.85 631.28 463.25 C 629.30 466.97 624.39 466.57 621.27 464.61 C 614.22 460.48 611.22 451.85 611.17 444.03 C 606.16 443.89 601.14 444.19 596.15 443.89 C 589.18 440.95 588.36 432.40 587.29 425.88 C 584.35 428.10 582.43 431.63 578.89 433.02 C 574.27 432.84 569.79 431.33 565.26 430.49 C 565.67 425.99 568.42 422.15 570.24 418.12 C 572.76 412.01 579.15 409.24 584.45 406.04 C 584.05 401.86 585.07 397.69 586.97 393.98 M 575.70 419.82 C 578.95 421.95 583.20 421.23 585.99 418.69 C 586.63 416.83 585.62 414.83 585.55 412.94 C 581.83 414.47 577.98 416.36 575.70 419.82 M 624.13 418.96 C 621.25 422.06 619.83 426.18 618.28 430.04 C 621.54 428.52 626.30 427.85 627.56 423.94 C 627.40 421.99 626.64 418.71 624.13 418.96 M 616.29 444.85 C 617.64 450.63 623.67 454.61 629.50 454.09 C 629.15 447.53 621.29 446.34 616.29 444.85 Z"
       id="path86" />
    <path
       fill="#000000"
       opacity="1.00"
       d=" M 352.02 395.83 C 354.83 397.18 357.53 398.76 360.26 400.28 C 358.76 403.46 357.12 406.58 355.24 409.55 C 353.11 408.38 351.01 407.18 348.92 405.94 C 347.74 408.49 346.51 411.03 345.16 413.50 C 342.36 412.02 339.61 410.46 336.92 408.81 C 338.53 405.78 340.03 402.69 341.79 399.75 C 343.93 400.90 346.10 402.00 348.24 403.18 C 349.64 400.80 350.88 398.33 352.02 395.83 Z"
       id="path88" />
    <path
       fill="#000000"
       opacity="1.00"
       d=" M 520.57 402.64 C 521.98 400.21 524.41 396.89 527.65 398.23 C 534.11 401.58 536.43 409.29 538.20 415.85 C 539.58 425.15 538.52 434.61 538.90 443.98 C 517.60 444.01 496.30 444.01 475.01 443.98 C 471.65 443.44 467.36 442.54 466.18 438.82 C 464.43 433.68 465.61 428.10 466.43 422.88 C 458.78 425.04 450.85 428.37 446.22 435.19 C 443.02 439.28 442.58 444.83 443.53 449.78 C 445.08 455.50 450.13 459.58 455.57 461.43 C 463.61 464.16 472.27 464.57 480.65 463.68 C 482.52 463.20 486.31 461.84 486.35 464.94 C 481.62 468.04 476.92 471.32 471.90 473.93 C 465.31 474.05 458.71 474.08 452.13 473.92 C 445.31 471.66 439.99 465.66 438.29 458.71 C 434.72 444.67 439.75 428.08 452.20 420.01 C 446.48 419.25 441.25 421.91 436.06 423.88 C 437.14 419.30 438.50 414.44 442.27 411.29 C 447.29 407.37 454.24 407.26 460.16 408.85 C 463.19 409.16 466.31 408.71 469.25 409.73 C 473.15 410.32 477.13 409.87 481.07 410.00 C 480.35 413.71 479.39 417.36 478.37 420.99 C 475.14 420.63 472.11 421.85 468.97 422.30 C 468.86 424.86 468.18 427.85 470.00 430.01 C 471.74 431.20 473.83 432.06 475.97 432.01 C 486.15 431.99 496.34 432.03 506.53 431.97 C 506.19 427.96 503.77 424.74 501.53 421.58 C 502.09 418.07 503.89 414.89 504.99 411.53 C 510.84 416.52 510.81 424.88 510.93 431.94 C 518.88 432.03 526.84 432.04 534.80 431.94 C 534.79 428.84 534.60 425.74 533.70 422.76 C 530.91 424.68 528.61 427.89 524.95 428.04 C 519.92 428.74 515.06 424.09 515.51 419.03 C 515.74 413.26 517.88 407.68 520.57 402.64 M 524.27 410.03 C 522.20 411.00 520.88 413.56 521.88 415.74 C 523.79 418.42 528.22 416.58 529.09 414.00 C 528.07 412.17 526.89 409.29 524.27 410.03 Z"
       id="path90" />
    <path
       fill="#000000"
       opacity="1.00"
       d=" M 269.34 418.24 C 271.98 417.26 274.71 418.62 276.78 420.23 C 280.65 423.37 283.78 427.32 286.55 431.44 C 287.32 435.54 286.64 439.81 286.89 443.98 C 277.60 443.95 267.72 443.52 259.25 447.94 C 261.93 456.25 265.97 464.92 263.57 473.81 C 262.96 473.85 261.74 473.93 261.13 473.97 C 260.09 465.35 256.28 457.44 254.62 448.99 C 255.12 443.85 257.32 437.59 262.70 435.75 C 266.47 434.36 270.46 433.78 274.47 433.86 C 272.72 431.37 270.71 427.75 267.19 428.00 C 264.90 428.81 263.63 431.20 262.04 432.92 C 261.49 432.62 260.41 432.00 259.86 431.69 C 261.56 426.46 263.91 420.54 269.34 418.24 Z"
       id="path92" />
    <path
       fill="#000000"
       opacity="1.00"
       d=" M 656.10 446.99 C 659.66 448.88 663.30 450.65 666.81 452.64 C 664.79 456.00 663.07 459.53 661.15 462.94 C 657.70 461.23 654.37 459.27 650.81 457.77 C 652.22 454.01 654.39 450.61 656.10 446.99 Z"
       id="path94" />
    <path
       fill="#000000"
       opacity="1.00"
       d=" M 692.22 448.01 C 695.73 449.75 699.13 451.74 702.77 453.22 C 701.29 456.88 699.17 460.24 697.60 463.87 C 693.91 462.34 690.48 460.29 686.86 458.63 C 688.46 454.99 690.57 451.62 692.22 448.01 Z"
       id="path96" />
  </g>
</svg>
