<?xml version="1.0" encoding="UTF-8"?>
<svg width="555" height="175" version="1.1" viewBox="0 0 555 175" xmlns="http://www.w3.org/2000/svg"><text x="589.50531" y="505.3327" fill="#d40000" font-family="'Segoe UI Emoji'" font-size="40px" letter-spacing="0px" word-spacing="0px" style="line-height:1.25" xml:space="preserve"><tspan x="589.50531" y="541.36285" fill="#d40000"/></text><text x="305.08475" y="-146.50424" fill="#d40000" font-family="'Segoe UI Emoji'" font-size="40px" letter-spacing="0px" word-spacing="0px" style="line-height:1.25" xml:space="preserve"><tspan x="305.08475" y="-110.47406" fill="#d40000"/></text><path d="m202.58 0c-1.768 2.4457-2.0524 5.1059 0.41992 5.3535v2.6621c-2.2968 1.2283-3.6035 7.041-3.6035 7.041-38.187 11.773-31.26 34.574-31.26 34.574s5.991 2.3358 6.459-7.1016c0.46798-9.4374 13.009-22.24 25.551-23.174 3.5569-0.26499 7.679 0.3521 11.77 1.8223 23.035 8.3986 20.801 27.145 20.801 27.145s5.6157 1.2141 5.8965-1.9629c0.28078-3.177-1.779-27.471-30.887-30.648 0.14261-4.5437-1.1637-7.2978-2.9004-7.873l-0.02344-2.6484c0.82385-0.18496 1.7861-0.50714 2.9395-1.0293-5.7729 0.9165-5.3263-4.0033-5.1621-4.1602zm127.44 10.336c-10.636-0.14179-22.966 4.0883-31.697 20.514l-17.453 59.232h-12.736l1.873-7.1855s-15.621 6.3275-21.744 6.918l-3.4356 12.822c1.3768 0.0566 53.383-0.06445 53.383-0.06445l19.723-66.404s2.383-22.463 29.65-12.684c0 0 4.841 1.1053 4.373-7.2109 0 0-9.881-5.7768-21.936-5.9375zm-175.83 8.4707c-7.3067 0.03211-15.673 0.23128-15.748 0.97461l-25.234 71.637c-5.4171 1.0341-20.376 2.9463-9.5664-10.484l-16.902 5.5-4.5762 1.4883-1.1973 3.4414-0.001953 0.001953-2.873 8.2559h23.68s6.3825-2.3903 10.514-5.5801l-1.7715 5.0273 19.59 0.52734 1.4609-4.1758c16.686 8.3938 32.027 2.292 37.621-1.1992 19.305 8.823 28.257 3.9092 31.762 0.46875 25.893 11.373 32.604-2.4512 32.604-2.4512l13.852-38.498-20.027-0.74609-15.162 37.561-8.875 0.36719 13.379-37.182-20.029-0.74609-15.162 37.561-10.025 0.41406c1.4278-6.5235 13.572-37.6 13.572-37.6h-26.582c1.0013 3.964 2.9075 5.5485 3.6465 8.832-8.44 15.865-4.7028 25.486-29.967 31.488l23.084-65.979s3.441-0.13203 9.6621-8.8535c0 0-1.6458-0.024516-4.1172-0.041016-1.8536-0.012375-4.1719-0.020469-6.6074-0.009765zm48.287 4.0059s-20.215 6.8227-20.215 25.697c0 0 4.3045 1.0266 6.5508-2.1504 0 0-2.4347-9.9985 13.664-23.547zm137.39 2.9121c-0.35445-0.004691-0.70567 0.001563-1.0527 0.015625-3.3318 0.13472-6.1973 1.0469-6.1973 1.0469l-23.695 82.324c-19.59 46.382 25.282 51.272 32.43 51.008 7.1476-0.26428 4.1035-7.7969 4.1035-7.7969-35.076 0.79286-19.061-33.695-19.061-33.695s17.075-60.259 21.84-79.287c2.7921-11.15-3.0505-13.545-8.3672-13.615zm-243.32 5.1367c-0.83968-0.0452-3.8069 0.30151 2.4473 8.7422l-15.486 42.814c22.369-5.8143 22.5-8.1914 22.5-8.1914l15.223-43.346h-24.488s-0.07535-0.013031-0.19531-0.019531zm185.41 3.9668-24.383 0.12695s-0.07728-0.013651-0.19727-0.019531c-0.84028-0.04103-3.7628 0.32331 3.2422 8.7637l-11.477 43.057c21.738-5.9519 21.648-8.3398 21.648-8.3398l11.166-43.588zm80.584 5.1719c-4.8985-5.47e-4 -8.8694 3.2531-8.8691 7.2676-2.5e-4 4.0145 3.9706 7.27 8.8691 7.2695 4.8978-3.27e-4 8.8675-3.2556 8.8672-7.2695 2.4e-4 -4.0139-3.9695-7.2672-8.8672-7.2676zm30.709 0.52734c-4.8985-5.56e-4 -8.8693 3.255-8.8691 7.2695-2.4e-4 4.0145 3.9706 7.2681 8.8691 7.2676 4.8978-3.31e-4 8.8675-3.2537 8.8672-7.2676 2.4e-4 -4.0139-3.9695-7.2691-8.8672-7.2695zm30.688 0c-4.8978 3.31e-4 -8.8675 3.2556-8.8672 7.2695-2.4e-4 4.0139 3.9695 7.2672 8.8672 7.2676 4.8978-3.27e-4 8.8675-3.2537 8.8672-7.2676 2.4e-4 -4.0139-3.9695-7.2691-8.8672-7.2695zm-372.98 15.066c-3.8385 2.1143-18.137 0.52734-18.137 0.52734-16.779 49.431-18.622 41.328-32.824 37.529 0 0 5.8919 16.728 25.594 9.334 18.216-6.8366 18.301-31.902 21.527-34.105 0 0 4.4932-1.2149 6.2715 1.1211s-7.207 22.238-7.207 22.238-3.9068 7.9545-1.5801 8.416c25.414 1.1893 29.387-16.256 32.299-21.145 2.912-4.8893-2.0607-23.913-15.885-20.215-13.277 3.5517-10.059-3.7012-10.059-3.7012zm405.49 2.0664-15.281 33.686c-4.1652 0.58637-10.004 1.1102-15.416 0.57227l11.582-32.189-20.027-0.74609-15.162 37.562-8.875 0.36523 13.379-37.18-20.029-0.74805-15.162 37.562-10.963 0.45312c6.7016-11.431 12.381-24.514 14.357-38.1l-23.428-0.13281s-1.0604 2.1153 1.8516 7.1367c-5.4269 28.807-19.324 45.193-19.324 45.193l-4.6328 25.238s16.145-14.896 29.365-36.328c19.604 9.0959 28.667 4.1399 32.197 0.67383 25.893 11.373 32.604-2.4531 32.604-2.4531l0.56446-1.5664c11.804 9.3508 22.821 7.5827 29.693 4.7051v2.3301h89.875c14.294 1.1686 11.068-14.535 11.068-14.535-4.6511-0.73438-6.3047-0.92578-6.3047-0.92578 10.192-22.464-6.8828-29.471-6.8828-29.471l-54.533-0.66016c0.66181 3.5679-4.1035 19.295-4.1035 19.295h50.43c8.6036 8.8536 2.6484 11.76 2.6484 11.76h-71.719l12.213-29.908-19.984-1.5898zm-363.53 46.959s56.652 116.55 216.02 49.686c0 0-6.882-8.1936-9.5293-15.594-132.1 42.022-166.78-34.092-166.78-34.092h-39.709zm162.15 3.6426c-6.5522 0.1502-16.501 2.0315-19.09 11.674-0.078 0.0487-0.15302 0.09957-0.23437 0.14257-4.5004 2.3786-9.002 10.439-9.002 10.439s28.063-0.39649 29.121-0.39649 4.2344-9.6465 4.2344-9.6465l-16.148 0.39648s-3.0442-3.3039 10.457-2.3789c5.2946-3.1715 6.6191-9.9102 6.6191-9.9102s-2.5089-0.39935-5.957-0.32031zm208.87 1.7734c-4.8978 3.3e-4 -8.8675 3.2537-8.8672 7.2676-2.4e-4 4.0139 3.9695 7.2691 8.8672 7.2695 4.8978-3.3e-4 8.8675-3.2556 8.8672-7.2695 2.4e-4 -4.0139-3.9695-7.2672-8.8672-7.2676zm-20.914 0.13281c-4.8978 3.3e-4 -8.8675 3.2537-8.8672 7.2676-2.4e-4 4.0139 3.9695 7.2691 8.8672 7.2695 4.8985 5.6e-4 8.8693-3.255 8.8691-7.2695 2.4e-4 -4.0145-3.9706-7.2681-8.8691-7.2676zm75.844 1.9824c-4.8985-5.5e-4 -8.8693 3.2531-8.8691 7.2676-2.4e-4 4.0145 3.9706 7.27 8.8691 7.2695 4.8978-3.3e-4 8.8694-3.2556 8.8691-7.2695 2.4e-4 -4.0139-3.9714-7.2672-8.8691-7.2676z"/></svg>
