<?xml version="1.0" encoding="UTF-8" standalone="no"?>
<svg
   xmlns:dc="http://purl.org/dc/elements/1.1/"
   xmlns:cc="http://creativecommons.org/ns#"
   xmlns:rdf="http://www.w3.org/1999/02/22-rdf-syntax-ns#"
   xmlns:svg="http://www.w3.org/2000/svg"
   xmlns="http://www.w3.org/2000/svg"
   xmlns:sodipodi="http://sodipodi.sourceforge.net/DTD/sodipodi-0.dtd"
   xmlns:inkscape="http://www.inkscape.org/namespaces/inkscape"
   width="1317.907"
   height="1317.907"
   viewBox="0 0 1054.3256 1054.3256"
   version="1.1"
   id="svg2"
   inkscape:version="0.48.4 r9939"
   sodipodi:docname="10523704_679955082085352_7671252822029053631_o.svg">
  <metadata
     id="metadata43">
    <rdf:RDF>
      <cc:Work
         rdf:about="">
        <dc:format>image/svg+xml</dc:format>
        <dc:type
           rdf:resource="http://purl.org/dc/dcmitype/StillImage" />
      </cc:Work>
    </rdf:RDF>
  </metadata>
  <defs
     id="defs41" />
  <sodipodi:namedview
     pagecolor="#ffffff"
     bordercolor="#666666"
     borderopacity="1"
     objecttolerance="10"
     gridtolerance="10"
     guidetolerance="10"
     inkscape:pageopacity="0"
     inkscape:pageshadow="2"
     inkscape:window-width="1680"
     inkscape:window-height="988"
     id="namedview39"
     showgrid="false"
     fit-margin-top="0"
     fit-margin-left="0"
     fit-margin-right="0"
     fit-margin-bottom="0"
     inkscape:zoom="0.35893536"
     inkscape:cx="705.88444"
     inkscape:cy="879.24189"
     inkscape:window-x="-8"
     inkscape:window-y="-8"
     inkscape:window-maximized="1"
     inkscape:current-layer="#000000ff" />
  <path
     sodipodi:type="arc"
     style="fill:#ffffff;fill-rule:evenodd;stroke:none"
     id="path3020"
     sodipodi:cx="2766.5149"
     sodipodi:cy="621.2818"
     sodipodi:rx="576.70551"
     sodipodi:ry="576.70551"
     d="m 3343.2204,621.2818 a 576.70551,576.70551 0 1 1 -1153.411,0 576.70551,576.70551 0 1 1 1153.411,0 z"
     transform="matrix(0.91409356,0,0,0.91409356,-2001.6907,-40.746903)" />
  <g
     id="#ffffffff"
     transform="translate(-27.399416,0.36316856)" />
  <g
     id="#fe0002ff"
     transform="translate(-27.399416,0.36316856)">
    <path
       d="m 366.09,34.09 c 52.6,-20.2 108.67,-30.87 164.92,-33.07 12.31,-0.83 24.65,0.22 36.98,-0.3 78.09,1.18 156.21,19.58 225.54,55.83 32.75,16.88 63.45,37.65 91.86,61.08 50.29,41.96 94.46,91.74 127.52,148.42 12.93,21.98 23.87,45.09 33.34,68.76 8.93,23.68 16.8,47.86 21.84,72.69 -73.36,0.29 -146.73,0.05 -220.09,0.13 -222,0 -444,0 -666,0 -46.39,-0.08 -92.78,0.16 -139.16,-0.12 16.34,-77.26 52.66,-149.93 102.99,-210.65 8.89,-10.67 17.78,-21.39 27.64,-31.2 9.55,-10.84 20.51,-20.27 30.75,-30.43 8.79,-7.55 17.43,-15.3 26.5,-22.52 40.6,-33.12 86.47,-59.79 135.37,-78.62"
       id="path8"
       inkscape:connector-curvature="0"
       style="fill:#fe0002"
       sodipodi:nodetypes="cccccccccccccccc" />
  </g>
  <g
     id="#339a02ff"
     transform="translate(-27.399416,0.36316856)">
    <path
       d="m 787.21,510.56 c 8.38,-24.46 16.41,-49.04 25,-73.42 8.4,24.5 16.87,48.97 25.33,73.44 22.36,0.06 44.74,-0.27 67.1,0.17 -8.75,7.39 -18.52,13.46 -27.78,20.17 -8.54,6.09 -17.01,12.29 -25.69,18.17 7.09,21.95 14.08,43.95 20.79,66.02 -20.1,-12.3 -39.84,-25.2 -59.75,-37.82 -12.26,7.68 -24.39,15.57 -36.61,23.32 -7.7,4.7 -15.01,10.02 -22.92,14.38 5.64,-19.16 12.06,-38.09 18.05,-57.15 0.78,-3.02 2.64,-6.08 1.83,-9.28 -17.49,-12.77 -35.53,-24.79 -52.9,-37.74 22.5,-0.6 45.04,-0.12 67.55,-0.26 z"
       id="path30"
       inkscape:connector-curvature="0"
       style="fill:#339a02" />
    <path
       d="m 298.69,437.58 25.37,72.68 c 0,0 67.53951,0.37942 67.86,0.24 -16.29,11.92 -32.88,23.42 -49.32,35.13 -1.56,1.17 -3.04,2.42 -4.52,3.69 6.01,22.04 14.07,43.51 20.08,65.56 -19.9,-11.89 -39.12,-24.88 -58.86,-37.04 -0.88,-0.72 -1.85,0.4 -2.68,0.69 -19.19,12.15 -38.14,24.69 -57.56,36.48 6.53,-22.03 20.75,-65.73 20.75,-65.73 l -53.89,-38.62 c 22.5,-0.18 45,-0.16 67.5,-0.05 z"
       id="path32"
       inkscape:connector-curvature="0"
       style="fill:#339a02"
       sodipodi:nodetypes="ccccccccccccc" />
  </g>
  <g
     id="#000000ff"
     transform="translate(-27.399416,0.36316856)">
    <path
       d="m 42.85,644.37 c 341.74,-0.04 683.49,-0.06 1025.23,0.01 -17.19,79.71 -55.47,154.4 -108.39,216.26 -24.91,29.65 -52.97,56.6 -83.19,80.79 -29.44,23.3 -61.26,43.68 -95.12,59.96 -61.98,30.33 -130.51,46.47 -199.33,49.37 -8.7,-0.23 -17.36,0.87 -26.05,0.58 -9.37,0.29 -18.69,-0.81 -28.05,-0.59 C 477.16,1048.5 426.57,1039.3 378.6,1022.36 327.01,1004.21 278.63,977.14 235.75,943.25 189.83,906.74 148.94,863.71 116,815.11 81.13,763.51 55.86,705.32 42.85,644.37"
       id="path35"
       inkscape:connector-curvature="0"
       style="fill:#000000"
       sodipodi:nodetypes="cccccccccccc" />
  </g>
  <g
     id="#ffffffff-1"
     transform="translate(1270.4873,-88.280412)">
    <path
       style="fill:#ffffff"
       inkscape:connector-curvature="0"
       d="m 0,0 1111,0 0,1052 L 0,1052 0,0 m 366.09,34.09 c -48.9,18.83 -94.77,45.5 -135.37,78.62 -9.07,7.22 -17.71,14.97 -26.5,22.52 -10.24,10.16 -21.2,19.59 -30.75,30.43 -9.86,9.81 -18.75,20.53 -27.64,31.2 -50.33,60.72 -86.65,133.39 -102.99,210.65 46.38,0.28 92.77,0.04 139.16,0.12 222,0 444,0 666,0 73.36,-0.08 146.73,0.16 220.09,-0.13 -5.04,-24.83 -12.91,-49.01 -21.84,-72.69 -9.47,-23.67 -20.41,-46.78 -33.34,-68.76 C 979.85,209.37 935.68,159.59 885.39,117.63 856.98,94.2 826.28,73.43 793.53,56.55 724.2,20.3 646.08,1.9 567.99,0.72 555.66,1.24 543.32,0.19 531.01,1.02 474.76,3.22 418.69,13.89 366.09,34.09 m 421.12,476.47 c -22.51,0.14 -45.05,-0.34 -67.55,0.26 17.37,12.95 35.41,24.97 52.9,37.74 0.81,3.2 -1.05,6.26 -1.83,9.28 -5.99,19.06 -12.41,37.99 -18.05,57.15 7.91,-4.36 15.22,-9.68 22.92,-14.38 12.22,-7.75 24.35,-15.64 36.61,-23.32 19.91,12.62 39.65,25.52 59.75,37.82 -6.71,-22.07 -13.7,-44.07 -20.79,-66.02 8.68,-5.88 17.15,-12.08 25.69,-18.17 9.26,-6.71 19.03,-12.78 27.78,-20.17 -22.36,-0.44 -44.74,-0.11 -67.1,-0.17 -8.46,-24.47 -16.93,-48.94 -25.33,-73.44 -8.59,24.38 -16.62,48.96 -25,73.42 m -494.34,-56.7 c -6.68,18.85 -12.5,38 -19.45,56.75 -22.5,-0.11 -45,-0.13 -67.5,0.05 11.74,9.24 24.5,17.1 36.38,26.15 0.27,-0.31 0.81,-0.93 1.08,-1.24 0.02,0.54 0.06,1.61 0.08,2.14 5.53,3.73 11.03,7.53 16.35,11.57 -6.66,21.99 -14.22,43.7 -20.75,65.73 19.42,-11.79 38.37,-24.33 57.56,-36.48 0.83,-0.29 1.8,-1.41 2.68,-0.69 19.74,12.16 38.96,25.15 58.86,37.04 -6.01,-22.05 -14.07,-43.52 -20.08,-65.56 1.48,-1.27 2.96,-2.52 4.52,-3.69 16.44,-11.71 33.03,-23.21 49.32,-35.13 -19.97,0.15 -39.94,-0.02 -59.91,0.06 -2.65,-0.07 -5.36,0.3 -7.95,-0.3 -1.9,-4.08 -3.05,-8.45 -4.55,-12.68 -6.91,-20.01 -13.73,-40.05 -20.82,-60 -2.54,5.2 -3.85,10.86 -5.82,16.28 M 42.85,644.37 c 13.01,60.95 38.28,119.14 73.15,170.74 32.94,48.6 73.83,91.63 119.75,128.14 42.88,33.89 91.26,60.96 142.85,79.11 47.97,16.94 98.56,26.14 149.35,28.39 9.36,-0.22 18.68,0.88 28.05,0.59 8.69,0.29 17.35,-0.81 26.05,-0.58 68.82,-2.9 137.35,-19.04 199.33,-49.37 33.86,-16.28 65.68,-36.66 95.12,-59.96 30.22,-24.19 58.28,-51.14 83.19,-80.79 52.92,-61.86 91.2,-136.55 108.39,-216.26 -341.74,-0.07 -683.49,-0.05 -1025.23,-0.01 z"
       id="path5-7" />
  </g>
  <g
     id="#fecc02ff"
     transform="translate(-27.399416,0.36316856)">
    <path
       d="m 527.45,145.47 c 1.28,-1.41 3.33,-0.97 5.02,-1.22 0.43,46.49 0.12,93 0.16,139.49 -8.11,0.13 -16.23,0.04 -24.34,0.01 0.04,-35.92 -0.03,-71.84 0.04,-107.76 0.11,-2.97 -0.72,-5.83 -1.58,-8.64 -0.35,-1.38 -0.98,-3.13 0.43,-4.16 3.32,-3.39 7.47,-5.83 11.02,-8.97 3.33,-2.65 6.09,-5.92 9.25,-8.75 z"
       id="path13"
       inkscape:connector-curvature="0"
       style="fill:#fecc02" />
    <path
       d="m 711.75,152.76 c 3.87,-3.04 6.53,-8.36 11.92,-8.8 0.72,3.63 0.88,7.34 0.82,11.04 -0.22,42.93 0.25,85.86 -0.24,128.77 -29.42,0.02 -58.84,0.01 -88.25,0 -4.81,-0.11 -9.62,0.03 -14.38,0.67 -1.38,6.2 -3.66,12.4 -8.1,17.09 -9.77,10.37 -24.62,14.51 -38.54,13.56 -4.87,-0.49 -10.2,-0.73 -14.2,-3.89 -2.19,-1.71 -2.08,-6.86 1.4,-6.74 7.24,-0.16 14.82,-0.35 21.26,-4.12 6.09,-3.36 10.56,-9.31 12.56,-15.93 -14.27,-1.36 -28.64,-0.24 -42.95,-0.68 -0.73,-8.23 -0.21,-16.49 -0.37,-24.73 0.3,-10.16 0.65,-21.07 6.52,-29.81 5.74,-9.14 16.42,-14.32 27.04,-14.7 12.16,-0.53 25.42,1.52 36.29,-5.31 0.27,16.54 -0.48,33.11 0.41,49.63 7.99,0.87 16.04,0.28 24.06,0.47 17.57,-0.14 35.15,0.27 52.72,-0.2 0.14,-28.38 0,-56.77 0.08,-85.15 0.24,-3.36 -2.37,-6.1 -2.29,-9.39 4.1,-4.65 9.89,-7.38 14.24,-11.78 m -130.18,88.82 c -4.84,4.29 -4.18,11.24 -4.31,17.08 6.83,0.79 13.74,0.91 20.58,0.16 0.61,-6.81 0.78,-13.71 -0.2,-20.49 -5.43,0.07 -11.55,-0.28 -16.07,3.25 z"
       id="path15"
       inkscape:connector-curvature="0"
       style="fill:#fecc02" />
    <path
       d="m 465.24,193.26 c 4.6,-2.98 6.3,-8.49 9.65,-12.59 2.45,6.15 3.05,12.97 1.15,19.36 -1.34,5.79 -4.91,10.64 -7.88,15.66 2.14,1.83 4.72,3.41 6.03,5.99 0.44,1.71 0.48,3.49 0.67,5.24 -4.38,-1.8 -8.85,-4.05 -13.73,-3.54 -9.87,-0.07 -17.85,10.11 -16.59,19.65 1.26,9.72 10.81,16.99 20.45,16.54 4.93,0.39 9.24,-2.3 13.42,-4.51 0.77,6.51 1.01,13.41 4.33,19.25 1.74,3.13 3.7,6.14 5.43,9.28 -1.72,0.13 -3.44,0.27 -5.15,0.38 -30.65,-0.46 -61.32,0.03 -91.98,-0.28 -0.4,-9.58 6.67,-17.72 14.82,-21.78 5.63,-2.89 12.11,-2.38 18.2,-3.24 -2.12,-6.06 -4.88,-12.1 -4.63,-18.67 -0.65,-12.65 5.68,-25.36 16.34,-32.24 8.99,-6.47 20.41,-8.15 29.47,-14.5 z"
       id="path17"
       inkscape:connector-curvature="0"
       style="fill:#fecc02" />
    <path
       d="m 645.4,737.48 c 7.03,-2.11 15.39,3.94 14.52,11.5 0.19,6.28 -5.61,11.95 -11.93,11.35 -7.29,0.06 -13.04,-8.14 -10.55,-14.95 1.2,-3.7 4.17,-6.83 7.96,-7.9 z"
       id="path19"
       inkscape:connector-curvature="0"
       style="fill:#fecc02" />
    <path
       d="m 672.39,737.53 c 5.31,-1.57 11.62,1.15 13.78,6.33 3,6.04 -0.72,14.42 -7.31,16.11 -5.51,1.62 -11.98,-1.43 -13.92,-6.91 -2.72,-6.14 1.13,-13.67 7.45,-15.53 z"
       id="path21"
       inkscape:connector-curvature="0"
       style="fill:#fecc02" />
    <path
       d="m 746.88,752.88 c 1.21,-1.52 3.18,-1.61 4.97,-1.82 1.01,4.24 0.6,8.62 0.66,12.94 -0.01,42.26 0,84.52 0,126.78 -12.83,0.72 -25.67,-0.16 -38.51,0.13 -34,0 -68,-0.01 -102,0 -13.33,0.56 -26.67,-0.38 -40,0.19 -26.42,-0.35 -52.84,-0.1 -79.26,-0.24 -0.07,-8.22 -0.11,-16.44 -0.01,-24.66 19.42,-0.14 38.85,-0.04 58.27,-0.06 6.25,-0.06 12.51,0.24 18.74,-0.36 -0.34,-5.38 1.18,-11.56 -2.34,-16.18 -3.05,-3.52 -8.1,-3.77 -12.41,-3.93 -20.65,-0.02 -41.3,-0.02 -61.94,0.02 7.94,-9.89 15.11,-20.59 19.32,-32.65 2.21,2.83 4.27,6.43 8,7.39 5.8,1.12 11.75,0.51 17.63,0.66 10.19,0.14 20.42,-0.39 30.6,0.49 9.44,0.88 18.58,6.53 22.41,15.4 4.32,9 3.29,19.18 3.61,28.85 11.77,0.69 23.59,0.14 35.38,0.3 13.9,-0.11 27.8,0.22 41.7,-0.15 -0.03,-6.6 -0.06,-13.19 0.01,-19.79 -15.14,-0.2 -30.3,0.32 -45.43,-0.28 0.07,-10.32 -0.07,-20.63 0.07,-30.94 0.08,-9.07 2.32,-18.42 7.92,-25.71 5.35,-7.04 13.81,-11.24 22.5,-12.27 8.38,-0.97 16.84,-0.06 25.24,-0.59 5.09,-0.47 9.79,-2.64 14.13,-5.22 0.27,31.6 0.04,63.21 0.11,94.82 10.54,0.29 21.09,0.15 31.63,0.06 0.56,-28.03 0.07,-56.08 0.26,-84.11 0.5,-3.63 -1.97,-6.55 -2.57,-9.93 1.03,-2.59 3.77,-3.93 5.86,-5.58 5.73,-3.82 10.62,-8.69 15.45,-13.56 m -93.04,51.97 c -3.45,4.66 -2.89,10.91 -3.09,16.41 6.98,0.08 13.96,0.12 20.95,-0.03 -0.02,-6.96 0.01,-13.92 -0.04,-20.88 -6.08,0.1 -13.17,-0.13 -17.82,4.5 z"
       id="path23"
       inkscape:connector-curvature="0"
       style="fill:#fecc02" />
    <path
       d="m 789.16,758.18 c 3.23,-2.67 5.65,-7.33 10.42,-7.11 0.58,2.59 0.83,5.25 0.78,7.92 -0.11,43.97 0.08,87.94 -0.09,131.9 -8.18,-0.2 -16.36,0.47 -24.52,0.11 -0.22,-37.32 0.01,-74.64 -0.12,-111.95 0.11,-2.98 -3.9,-6 -1.33,-8.72 4.69,-4.35 10.34,-7.57 14.86,-12.15 z"
       id="path25"
       inkscape:connector-curvature="0"
       style="fill:#fecc02" />
    <path
       d="m 424.6,816.54 c 1.09,-1.59 3.13,-1.19 4.78,-1.26 0.88,16.79 0.09,33.63 0.41,50.45 6.62,0.6 13.3,0.54 19.93,0.13 0,-7.3 0.07,-14.6 0.06,-21.9 0.22,-3.04 -2.83,-5.37 -2.24,-8.42 0.96,-1.68 2.71,-2.67 4.18,-3.84 6.16,-4.42 11.7,-9.61 17.09,-14.92 1.18,-1.47 3.1,-1.52 4.81,-1.74 0.46,2.28 0.77,4.6 0.74,6.95 -0.06,22.98 0.01,45.96 -0.04,68.94 -29.39,0.38 -58.8,-0.44 -88.19,0.27 -2.24,8.82 -7.31,16.85 -14.54,22.4 -6.93,5.41 -15.95,7.57 -24.63,7.16 -10.08,-0.03 -20.16,-4.29 -26.95,-11.78 -8.39,-8.82 -12.41,-21.87 -10.13,-33.83 1.12,0.17 2.24,0.35 3.38,0.52 0.57,7.39 1.16,15.26 5.53,21.55 4.86,7 13.7,11.31 22.23,9.66 9.83,-1 17.69,-9.15 20.63,-18.24 2.25,-8.35 2.25,-17.66 -1.75,-25.49 -2.86,-5.91 -7.19,-10.89 -10.59,-16.46 -1.43,-2.22 -1.86,-5.4 -0.21,-7.61 2.71,-4.01 5.86,-7.79 7.69,-12.33 1.43,-2.92 2.01,-6.29 4.05,-8.87 3.31,-2.14 6.96,0.76 8.94,3.36 9.74,12.89 14.94,28.69 17.08,44.57 6.14,0.58 12.33,0.42 18.49,0 -0.03,-7.61 0.23,-15.23 -0.12,-22.83 -0.42,-2.83 -3.87,-6.37 -1.05,-8.82 7.1,-5.51 14.28,-11.01 20.42,-17.62 z"
       id="path27"
       inkscape:connector-curvature="0"
       style="fill:#fecc02" />
  </g>
</svg>
