<?xml version="1.0" encoding="UTF-8" standalone="no"?>
<svg
   xmlns:dc="http://purl.org/dc/elements/1.1/"
   xmlns:cc="http://creativecommons.org/ns#"
   xmlns:rdf="http://www.w3.org/1999/02/22-rdf-syntax-ns#"
   xmlns:svg="http://www.w3.org/2000/svg"
   xmlns="http://www.w3.org/2000/svg"
   xmlns:sodipodi="http://sodipodi.sourceforge.net/DTD/sodipodi-0.dtd"
   xmlns:inkscape="http://www.inkscape.org/namespaces/inkscape"
   width="1254.6444"
   height="1381.057"
   viewBox="0 0 1003.7155 1104.8456"
   version="1.1"
   id="svg2"
   inkscape:version="0.48.4 r9939"
   sodipodi:docname="Logo_of_Ahrar al-Sham.svg">
  <metadata
     id="metadata114">
    <rdf:RDF>
      <cc:Work
         rdf:about="">
        <dc:format>image/svg+xml</dc:format>
        <dc:type
           rdf:resource="http://purl.org/dc/dcmitype/StillImage" />
        <dc:title></dc:title>
      </cc:Work>
    </rdf:RDF>
  </metadata>
  <defs
     id="defs112" />
  <sodipodi:namedview
     pagecolor="#ffffff"
     bordercolor="#666666"
     borderopacity="1"
     objecttolerance="10"
     gridtolerance="10"
     guidetolerance="10"
     inkscape:pageopacity="0"
     inkscape:pageshadow="2"
     inkscape:window-width="1680"
     inkscape:window-height="988"
     id="namedview110"
     showgrid="false"
     fit-margin-top="0"
     fit-margin-left="0"
     fit-margin-right="0"
     fit-margin-bottom="0"
     inkscape:zoom="0.38159073"
     inkscape:cx="826.453"
     inkscape:cy="845.39059"
     inkscape:window-x="-8"
     inkscape:window-y="-8"
     inkscape:window-maximized="1"
     inkscape:current-layer="#020202ff" />
  <g
     id="#056839ff"
     transform="translate(-87.914513,-108.98821)">
    <path
       d="m 433.28,109.06 c 44.06,-0.12 88.13,-0.06 132.19,-0.03 5.06,19.71 11.11,39.15 16.72,58.71 20.18,69.18 40.38,138.35 60.63,207.5 0.72,2.56 1.72,5.08 2.01,7.74 0.28,2.46 -2.17,3.75 -3.8,5.05 -8.22,5.73 -16.09,11.95 -24.23,17.78 -0.61,0.39 -2.13,1.57 -2.12,-0.05 -24.9,-86.95 -49.83,-173.89 -74.72,-260.84 -29.31,-0.02 -58.62,0.02 -87.93,-0.02 -2.83,0.01 -5.87,0.12 -8.25,1.86 -24.73,16.93 -49.34,34.06 -74.06,51.03 -1.64,0.95 -3,2.74 -2.12,4.69 9.1,29.81 18.51,59.54 27.4,89.42 -13.61,-10.33 -27.1,-20.81 -40.61,-31.27 -1.7,-1.29 -3.38,-2.8 -3.87,-4.97 -7.29,-24 -14.65,-47.99 -21.79,-72.04 0.18,-0.26 0.54,-0.78 0.73,-1.04 27.53,-19.52 55.16,-38.93 82.74,-58.39 7.01,-5.07 14.28,-9.79 21.08,-15.13 z"
       id="path5"
       inkscape:connector-curvature="0"
       style="fill:#056839" />
    <path
       d="m 604.96,109.01 c 44.41,-0.02 88.81,-0.02 133.22,0 9.66,8.35 20.09,15.77 30.07,23.74 24.02,18.67 48.1,37.3 72.14,55.95 1.34,0.96 2.39,2.61 1.61,4.29 -5.65,17.69 -11.38,35.36 -17.06,53.04 -0.63,2.37 -2.24,4.29 -4.25,5.64 -14.66,10.91 -29.16,22.05 -43.98,32.74 7.39,-26.12 15.86,-51.94 23.71,-77.92 0.91,-2.27 -0.42,-4.48 -2.3,-5.7 -22.66,-17.62 -45.18,-35.42 -67.69,-53.22 -3.98,-3.48 -9.56,-2.6 -14.41,-2.53 -27.37,0.11 -54.74,0.22 -82.1,0.14 -2.12,-0.23 -4.2,0.9 -4.64,3.08 -8.25,25.73 -16.11,51.59 -24.59,77.25 -5.5,-17.41 -10.8,-34.89 -16.07,-52.37 -0.78,-2.6 -1.55,-5.38 -0.82,-8.09 5.4,-18.77 11.86,-37.24 17.16,-56.04 z"
       id="path7"
       inkscape:connector-curvature="0"
       style="fill:#056839" />
    <path
       d="m 876.47,214.08 c 33.87,25.94 67.73,51.91 101.49,78 1.98,1.47 3.78,3.32 4.43,5.79 12.73,40.83 25.26,81.73 38.01,122.56 0.82,2.21 0.71,4.99 -1.44,6.4 -15.66,12.04 -31.27,24.16 -46.9,36.23 -3.04,2.73 -7.33,1.96 -11.05,2.1 -16.07,-0.15 -32.15,0.29 -48.2,-0.23 21.99,-16.82 44.52,-32.95 66.76,-49.44 2,-1.22 1.35,-3.74 0.8,-5.58 -9.2,-29.93 -18.17,-59.94 -27.33,-89.88 -0.56,-2.19 -1.98,-4.02 -3.81,-5.3 -23.74,-17.91 -47.52,-35.76 -71.21,-53.74 -3.48,-3.56 -6.9,1.41 -9.81,3.24 -66.58,51.06 -133.18,102.1 -199.78,153.13 -29.05,22.14 -57.88,44.58 -87.07,66.53 -12.52,-9.59 -25.23,-18.94 -37.85,-28.42 -1.63,-1.28 -4.01,-3.07 -2.74,-5.41 3.4,-11.66 7.01,-23.26 10.61,-34.86 10,7.69 20.11,15.23 30.09,22.95 98.42,-74.56 196.67,-149.37 295,-224.07 z"
       id="path9"
       inkscape:connector-curvature="0"
       style="fill:#056839" />
    <path
       d="m 284.61,216.61 c 1.63,-1.72 4.07,-1.47 5.66,0.15 73.33,56.37 146.73,112.67 220.17,168.89 1.83,1.13 2.78,3.27 1.79,5.31 -3.94,11.48 -7.53,23.08 -11.47,34.56 C 431.39,372.5 362.18,319.27 292.93,266.09 c -2.26,-1.53 -4.21,-3.87 -6.96,-4.46 -2.32,0.85 -4.04,2.72 -5.96,4.2 -21.01,17.07 -42.12,34.02 -63.14,51.08 -2.09,1.62 -3.79,3.74 -4.6,6.28 -10.68,30.38 -21.17,60.83 -31.81,91.22 22.43,16.94 45.06,33.61 67.46,50.59 -15.99,0.36 -31.99,0.04 -47.99,0.17 -3.69,-0.09 -7.86,0.4 -10.91,-2.13 -15.44,-11.89 -30.76,-23.95 -46.18,-35.87 -1.64,-1.03 -2.5,-3.05 -1.55,-4.86 13.63,-40.39 27.24,-80.78 40.92,-121.14 0.76,-2.66 2.69,-4.7 4.83,-6.34 32.52,-26.07 65.05,-52.15 97.57,-78.22 z"
       id="path11"
       inkscape:connector-curvature="0"
       style="fill:#056839" />
    <path
       d="m 551.13,284.04 c 4.23,-12.59 7.72,-25.45 12.42,-37.86 5.15,17.42 10.06,34.91 15.04,52.39 0.8,2.65 1.14,5.51 0.24,8.19 -19.86,65.4 -39.82,130.78 -59.67,196.19 -0.42,1.97 -1.8,4.13 -4.12,3.82 -16,0.01 -32.01,0.11 -48,-0.05 -2.64,0 -3.14,-3.02 -3.78,-4.97 -3.09,-11.06 -6.95,-21.9 -9.84,-33.01 12.9,-0.01 25.79,-0.01 38.69,0 19.72,-61.55 39.34,-123.14 59.02,-184.7 z"
       id="path13"
       inkscape:connector-curvature="0"
       style="fill:#056839" />
    <path
       d="m 755.34,355.34 c 14.56,-11.07 28.88,-22.47 43.65,-33.25 -22.58,72.92 -45.72,145.67 -68.6,218.5 -0.87,3.14 -2.33,6.15 -2.61,9.42 0.5,1.44 1.81,2.36 2.94,3.31 9.56,7.56 19.08,15.18 28.58,22.81 -9.48,7.34 -19.05,14.57 -28.54,21.89 -14.15,-10.78 -28.11,-21.81 -42.29,-32.56 -2.16,-1.28 -1.99,-3.85 -1.16,-5.89 21.46,-66.13 42.73,-132.32 64.14,-198.47 0.62,-2.3 1.84,-4.44 3.89,-5.76 z"
       id="path15"
       inkscape:connector-curvature="0"
       style="fill:#056839" />
    <path
       d="m 372.04,333.17 c 13.82,10.48 27.69,20.9 41.43,31.49 2.27,1.66 4.16,3.92 4.88,6.69 19.02,62.45 37.97,124.91 56.99,187.36 0.9,2.17 0.2,4.6 -1.77,5.91 -13.9,11.55 -27.69,23.24 -41.53,34.86 -10.7,-8 -21.43,-15.96 -32.15,-23.93 10.62,-9.31 21.35,-18.49 32.13,-27.61 1.54,-1.11 2.26,-2.98 1.55,-4.8 -20.52,-69.99 -41.3,-139.9 -61.53,-209.97 z"
       id="path17"
       inkscape:connector-curvature="0"
       style="fill:#056839" />
    <path
       d="m 634.14,448.12 c 8.07,-6.42 16.31,-12.61 24.45,-18.94 4.19,12.53 8.44,25.05 12.64,37.58 0.36,1.77 2.28,2.04 3.79,1.98 12.25,0 24.51,-0.01 36.77,-0.01 -3.97,11.74 -7.83,23.52 -12,35.18 -0.49,2.17 -3.05,2.05 -4.77,2.13 -15.04,0.02 -30.08,0.03 -45.12,-0.01 -1.92,0.37 -3.08,-1.21 -3.37,-2.89 -4.64,-16.75 -9.36,-33.49 -13.92,-50.26 -0.69,-1.74 -0.06,-3.77 1.53,-4.76 z"
       id="path19"
       inkscape:connector-curvature="0"
       style="fill:#056839" />
    <path
       d="m 127.79,471.67 c 0.62,-2.85 3.75,-3.26 6.19,-3.06 90.59,0.16 181.19,0.12 271.79,0.13 3.93,12.68 7.87,25.36 11.8,38.04 -81.85,0.02 -163.71,0.06 -245.56,-0.09 -5,0.14 -10.03,-0.32 -15.01,0.24 -2.79,0.44 -3.48,3.55 -4.19,5.81 -8.83,30.51 -18.49,60.77 -27.07,91.34 -12.56,0 -25.12,0 -37.69,0 -0.73,-5.21 1.66,-9.97 3.1,-14.81 12.53,-39.1 24.4,-78.41 36.64,-117.6 z"
       id="path21"
       inkscape:connector-curvature="0"
       style="fill:#056839" />
    <path
       d="m 756.58,472.81 c 0.55,-1.66 1.25,-3.92 3.36,-4.06 90.34,-0.05 180.7,0.06 271.04,-0.13 2.72,-0.23 6.18,0.35 6.9,3.49 12.81,42.61 25.27,85.34 38.41,127.84 0,1.33 -0.09,2.66 -0.26,4 -12.73,0.31 -25.48,0.04 -38.21,0.14 0.71,-2.74 1.35,-5.65 0.38,-8.41 -7.93,-27 -15.99,-53.96 -23.92,-80.95 -0.72,-2.27 -1.16,-4.65 -2.27,-6.75 -1.16,-1.55 -3.35,-1.19 -5.01,-1.31 -87.11,0.24 -174.23,0.08 -261.35,0.13 3.68,-11.32 7.42,-22.62 10.93,-33.99 z"
       id="path23"
       inkscape:connector-curvature="0"
       style="fill:#056839" />
    <path
       d="m 251.7,510.52 c 17.78,-0.51 35.57,-0.09 53.36,-0.1 2.58,-0.1 5.08,0.82 7.08,2.45 39.31,30.39 78.67,60.72 117.92,91.2 -20.05,0.02 -40.11,0.02 -60.16,0 -2.67,0.12 -4.37,-2.3 -6.36,-3.67 -36.5,-29.16 -73.01,-58.31 -109.55,-87.44 -0.86,-0.73 -1.57,-1.59 -2.29,-2.44 z"
       id="path25"
       inkscape:connector-curvature="0"
       style="fill:#056839" />
    <path
       d="m 851.54,512.55 c 1.79,-1.5 4.02,-2.39 6.39,-2.16 17.5,0.14 35.01,-0.2 52.5,0.18 -10.13,8.56 -20.95,16.32 -31.36,24.56 -29.75,22.87 -59.31,46.03 -89.2,68.7 -19.92,0.59 -39.92,0.09 -59.87,0.24 40.48,-30.54 81.04,-61 121.54,-91.52 z"
       id="path27"
       inkscape:connector-curvature="0"
       style="fill:#056839" />
    <path
       d="m 88.01,978.14 c 329.44,0.01 658.88,0 988.32,0 0,9.6 -0.01,19.21 0,28.82 -329.44,0 -658.88,0 -988.33,0 0,-9.61 -0.01,-19.22 0.01,-28.82 z"
       id="path29"
       inkscape:connector-curvature="0"
       style="fill:#056839" />
  </g>
  <g
     id="#000000ff"
     transform="translate(-87.914513,-108.98821)">
    <path
       d="m 833.75,633.82 c 1.56,-3.75 2.93,-8 6.44,-10.4 -1.5,6.98 -5.11,13.44 -5.58,20.69 -0.58,5.36 0.07,12.47 5.38,15.29 3.62,1.27 4.54,-3.54 7.57,-3.94 0.04,5.4 0.33,11.14 -2.09,16.14 -1.83,4.05 -7.97,5.3 -11.08,2.04 -2.93,-3.07 -4.11,-7.35 -4.71,-11.44 -1.13,-9.61 1.02,-19.31 4.07,-28.38 z"
       id="path32"
       inkscape:connector-curvature="0"
       style="fill:#000000" />
    <path
       d="m 463.61,634.56 c 1.29,-2.32 2.73,-4.99 5.38,-5.94 3.25,-0.4 3.89,3.63 4.69,5.93 1.4,3.99 -0.4,7.99 -1.81,11.69 -2.11,-1.51 -4.95,-4.3 -7.51,-1.97 -3.2,3.05 -4.17,7.63 -5.2,11.77 -1.3,7.31 -2.3,14.68 -3.25,22.05 -2.82,-6.75 -6.41,-13.13 -10.24,-19.35 -2.76,1.18 -5.58,3.42 -8.75,2.38 -2.48,-0.51 -4.09,-2.86 -4.39,-5.25 -0.42,-3.32 -0.24,-6.96 1.55,-9.87 1.72,-2.66 6.09,-3.93 8.45,-1.4 5.13,4.97 8.53,11.38 12.17,17.46 2.49,-9.3 4.6,-18.83 8.91,-27.5 z"
       id="path34"
       inkscape:connector-curvature="0"
       style="fill:#000000" />
    <path
       d="m 745.13,638.03 c 1.98,-3.09 4.82,-6.55 8.88,-6.35 2.87,1.3 3.72,4.68 4.65,7.41 1.38,3.98 -0.81,7.96 -2.11,11.66 -2.55,-1.83 -6.01,-4.38 -9.15,-2.29 -4.36,3.34 -5.64,9.14 -6.93,14.2 -1.18,7.48 -2.28,14.99 -3.33,22.49 -3.65,-7.04 -8.26,-13.51 -13.03,-19.82 -3.62,1.2 -7.27,3.25 -11.22,2.42 -6.73,-0.95 -6.72,-9.57 -4.72,-14.48 1.74,-4.22 7.84,-6.01 11.43,-3.04 6.08,4.62 10.34,11.12 14.8,17.22 2.75,-10.06 5.29,-20.41 10.73,-29.42 z"
       id="path36"
       inkscape:connector-curvature="0"
       style="fill:#000000" />
    <path
       d="m 690.96,749.29 c 33.89,-38.81 68.53,-77.02 100.22,-117.67 -1.7,6.82 -3.62,13.58 -5.36,20.39 -0.54,2.94 -2.87,4.95 -4.66,7.15 -29.37,34.61 -59.48,68.61 -88.24,103.73 4.41,32.43 8.87,64.86 14.23,97.14 0.32,10.7 -1.63,21.38 -4.49,31.66 -1.72,5.64 -3.44,11.46 -7.01,16.26 -0.84,-5.61 -0.14,-11.3 -0.47,-16.93 -1.49,-38.97 -6.59,-77.68 -11.66,-116.3 -10.11,12 -19.51,24.6 -28.86,37.2 5.84,6.32 11.44,14.01 11.25,23.04 -0.35,13.33 -4.68,26.68 -12.56,37.47 -5.4,7.57 -14.44,11.41 -23.34,12.98 -3.15,0.6 -6.35,0.03 -9.28,-1.15 2.6,7.99 2.21,16.68 1,24.9 -1.46,8.89 -6.29,17.93 -14.87,21.7 -6.81,3.41 -15.07,2.48 -21.67,-0.97 -5.11,-2.71 -8.43,-7.67 -11.09,-12.64 -6.92,9.3 -16.43,17.1 -27.7,20.33 -6.76,1.93 -14.9,1.38 -20.11,-3.8 -5.92,-5.87 -7.16,-14.65 -7.49,-22.6 -9.93,10.87 -21.37,20.93 -35.18,26.47 -9.31,3.74 -20.26,4.67 -29.51,0.27 -9.29,-4.33 -15.75,-13.04 -19.59,-22.31 -5.26,-12.57 -6.54,-26.37 -6.46,-39.88 -1.73,2.52 -3.6,5.07 -4.19,8.14 -3.9,15.51 -10.36,30.84 -21.43,42.63 -8.93,9.57 -20.74,15.97 -33.08,20.03 -13.77,4.52 -28.11,6.9 -42.35,9.36 23.59,-13.35 48.63,-24.79 69.39,-42.54 10.19,-8.99 19.6,-19.95 23.26,-33.29 -0.64,-67.92 -6.65,-135.67 -13.96,-203.15 -0.22,-1.65 0.29,-3.24 0.69,-4.8 1.97,-6.81 3.84,-13.65 5.75,-20.47 12.26,69.5 17.41,139.98 23.63,210.21 1.3,13.04 3.73,26.19 9.23,38.18 3.9,8.42 10.02,16.51 18.95,19.95 9,3.48 19.09,1.44 27.63,-2.41 13.12,-5.97 24.27,-15.42 34.51,-25.41 1.63,-1.56 3.9,-2.08 5.97,-2.82 -2.27,6.15 -4.58,13.13 -1.93,19.55 2.3,5.53 8.29,8.2 13.84,9.27 7.41,1.56 15.04,-0.97 21.24,-5 10.26,-6.66 17.97,-16.34 25.74,-25.61 -1.58,5.13 -4.8,9.93 -4.81,15.45 2.29,6.11 8.24,10.82 14.76,11.59 3.67,0.52 7.35,-0.2 10.92,-0.98 0.26,-5.29 -0.04,-10.65 -1.73,-15.7 2.88,-5.1 4.86,-10.78 8.66,-15.29 -4.75,-5.83 -3.59,-13.8 -2.84,-20.72 1.43,-8.69 3.07,-17.69 7.8,-25.28 4.04,-7.34 8.41,-14.54 13.69,-21.07 -19.82,-25.38 -44.82,-45.96 -69.23,-66.72 -23.87,-20.43 -48.25,-41.6 -63.76,-69.39 -6.69,-8.39 -14.76,-15.59 -22.27,-23.23 0.71,-6.97 1.18,-13.95 1.75,-20.93 13.24,12.27 29.17,21.41 41.54,34.63 -4.42,0.08 -8.76,-0.79 -13.05,-1.77 19.5,27.57 44.47,50.61 69.89,72.59 22.41,19.47 45.33,38.53 65.26,60.61 11.13,-13.84 22.37,-27.59 33.96,-41.03 -3.95,-27.8 -8.32,-55.53 -12.52,-83.29 -0.88,-4.64 -0.63,-9.65 -3.22,-13.79 -1.11,-2.66 -3.61,-5.12 -2.97,-8.19 1.38,-7.11 3.77,-13.98 6.14,-20.81 2.4,0.85 3.52,3.23 4.61,5.35 5.58,11.37 11.37,22.65 16.79,34.1 1.92,4.42 4.24,8.88 4.33,13.82 -5.46,-0.84 -8.92,-5.79 -13.05,-9.02 2.84,23.64 6.2,47.21 9.36,70.81 m -62.98,94.69 c -3.33,4.18 -5.97,9.51 -5.31,14.99 0.31,3.45 3.78,6.04 7.19,5.42 6.55,-1.21 13.16,-3.07 18.86,-6.64 4.01,-2.46 7.32,-6.78 6.98,-11.7 0.01,-8.72 -5.27,-16.15 -10.48,-22.68 -5.75,6.87 -11.49,13.74 -17.24,20.61 z"
       id="path38"
       inkscape:connector-curvature="0"
       style="fill:#000000" />
    <path
       d="m 213.85,638.72 c 1.58,-2.66 3.57,-6.21 7.15,-6.02 2.72,1.31 3.3,4.67 4.07,7.3 1.4,4.46 -0.63,8.89 -2.22,12.99 -2.29,-1.79 -5.47,-4.86 -8.4,-2.45 -3.71,3.3 -4.8,8.48 -6.05,13.07 -1.64,8.57 -2.59,17.26 -3.93,25.88 -3.11,-7.77 -7.35,-15 -11.61,-22.18 -3.16,1.25 -6.27,3.86 -9.87,2.79 -2.53,-0.46 -4.54,-2.61 -5.04,-5.09 -0.8,-3.7 -0.55,-7.7 0.9,-11.19 1.31,-3.11 4.96,-4.83 8.21,-4.16 2.42,1.2 4.13,3.39 5.81,5.44 3.88,5.08 7.15,10.6 10.35,16.13 2.82,-11.04 5.38,-22.32 10.63,-32.51 z"
       id="path40"
       inkscape:connector-curvature="0"
       style="fill:#000000" />
    <path
       d="m 552.95,654.95 c 1.73,-7.99 3.57,-16.58 9.27,-22.78 0.61,2.82 -1.24,5.34 -1.99,7.95 -2.33,7.03 -4.69,14.78 -2.39,22.13 0.98,2.67 2.78,6.28 6.17,5.97 2.71,0.06 3.17,-3.57 5.57,-4.08 1.16,4.99 0.45,10.45 -1.18,15.28 -1.48,5.05 -9.01,6.69 -12.16,2.31 -5.59,-7.66 -4.89,-17.92 -3.29,-26.78 z"
       id="path42"
       inkscape:connector-curvature="0"
       style="fill:#000000" />
    <path
       d="m 973.5,633.14 c 6.92,17.39 13.43,34.97 18.81,52.91 -3,-2.41 -5.97,-4.86 -8.95,-7.27 0.32,41.11 4.02,82.1 5.48,123.18 0.45,7.35 0.55,14.92 -1.77,22.01 -1.45,4.79 -4.08,9.09 -6.91,13.18 17.14,3.45 34.39,6.33 51.67,9.01 -2.08,-48.75 -4.66,-97.52 -9.18,-146.11 -0.95,-8.25 -1.62,-16.55 -3.29,-24.69 -1.33,-5.13 -3.88,-9.83 -5.81,-14.73 -0.72,-1.66 -0.06,-3.44 0.26,-5.09 1.48,-5.58 3.45,-11.02 5.36,-16.47 0.61,-1.21 0.65,-3.56 2.59,-2.92 1.68,1.84 2.6,4.21 3.56,6.48 5.04,12.35 10.38,24.59 15.19,37.03 1.41,4.25 3.47,8.53 3.16,13.12 -0.36,0.1 -1.08,0.29 -1.44,0.39 -4.21,-2.36 -7.28,-6.22 -10.64,-9.58 1.94,9.67 2.39,19.54 3.33,29.34 3.48,44.91 5.63,89.91 8.22,134.88 16.09,2.26 32.23,4.53 48.49,5.06 -1.04,5.8 -2.51,11.51 -3.68,17.29 -14.47,-1.23 -29.08,-1.17 -43.49,0.73 0.86,11.54 -1.35,23.02 -3.75,34.26 -1.77,7.25 -3.49,14.59 -6.47,21.46 -0.45,-17.87 -0.56,-35.76 -1.38,-53.62 -17.93,3.9 -35.13,11.21 -50.29,21.57 -5.13,3.65 -11.03,5.99 -16.9,8.13 -9.43,3.26 -19.57,5.09 -29.53,3.63 -6.49,-1.03 -12.92,-4.01 -16.98,-9.32 -4.5,-5.7 -5.83,-13.21 -5.64,-20.31 -12.03,5.88 -24.12,11.63 -36.13,17.56 5.81,5.2 13.68,7.51 19.04,13.24 5.56,6.24 4.82,15.28 3.71,22.97 -0.48,5.72 -4.39,10.44 -8.73,13.85 -6.71,5.11 -15.9,5.42 -23.69,2.94 -9.46,-3.01 -17.95,-9.12 -23.8,-17.14 -4.98,-6.68 -5.96,-15.46 -11.03,-22.08 -2.29,-2.99 -6.41,-3.76 -9.93,-3.03 -11.27,2.2 -23.52,2.97 -34.31,-1.63 -7.19,-3.04 -12.37,-9.31 -15.91,-16.06 -3.26,-6.14 -6.53,-12.59 -11.96,-17.11 -2.46,-2.21 -6.18,-2.09 -8.75,-0.16 -5.86,4.03 -10.18,9.81 -14.92,15.02 -12.2,14.14 -16.91,32.72 -26.61,48.39 -3.53,5.58 -8.56,11.06 -15.41,12.11 -9.2,1.39 -18.16,-4.21 -22.81,-11.91 -6.53,-10.63 -8.06,-23.42 -8.5,-35.65 -0.22,-11.25 0.72,-22.51 2.51,-33.61 1.06,15.01 2.29,30.08 5.42,44.84 0.9,3.85 1.2,8.06 3.68,11.33 3.4,5.01 8.17,10.18 14.63,10.54 6.5,-0.04 11.72,-4.73 15.63,-9.46 8.95,-10.76 12.63,-24.55 19.42,-36.58 5.42,-10.68 13.23,-19.86 21.65,-28.29 4.51,-5.22 12.04,-9.02 18.9,-6.37 3.87,1.5 5.08,5.76 6.91,9.08 5.54,10.54 13.7,20.55 25.17,24.81 12.51,4.66 26.19,2.29 38.85,-0.5 7.38,-27.05 16.03,-53.82 27.39,-79.48 3.95,11.87 7.11,24.11 8,36.63 1.79,15.32 -5.47,29.65 -13.3,42.27 22.14,-4.32 41.07,-17.27 61.47,-26.13 -0.48,8.76 0.81,18.85 8.02,24.78 8.1,6.49 19.33,5.88 28.97,4.17 19.17,-4.01 37.16,-12.78 53.15,-23.96 -21.75,-3.83 -42.99,-10.92 -65.19,-11.96 -6.74,-0.5 -13.5,0 -20.21,0.65 2.6,-6.44 5.2,-12.87 7.81,-19.29 15.77,-1.48 31.59,-3.89 46.41,-9.71 -1.52,-47.27 -3.54,-94.52 -5.27,-141.78 0.38,-8.42 -4.81,-15.58 -7.18,-23.36 -0.6,-1.45 -0.28,-3 -0.01,-4.46 1.32,-6.65 3.62,-13.09 6.89,-19.02 M 847.3,872.08 c 6.22,-2.68 12.02,-6.34 16.85,-11.11 -0.85,-7.75 -2.8,-15.33 -4.86,-22.83 -4.35,11.19 -7.6,22.77 -11.99,33.94 m 0.66,31.56 c 3.96,8.9 11.19,15.99 19.36,21.11 5.99,3.78 13.95,5.31 20.36,1.62 -3.5,-4.48 -7.06,-8.94 -10.94,-13.09 -7.07,-8.12 -18.77,-8.86 -28.78,-9.64 z"
       id="path44"
       inkscape:connector-curvature="0"
       style="fill:#000000" />
    <path
       d="m 592.19,639.22 c 2.76,-3.51 7.43,-4.85 11.75,-4.67 10.01,0.54 19.92,3.42 28.52,8.6 -2.23,6.86 -6.58,12.73 -10.86,18.43 -2.89,4.03 -7.64,5.93 -11.9,8.12 -5.99,2.76 -12.12,5.6 -18.73,6.43 -2.79,0.42 -5.43,-0.76 -7.99,-1.67 10.57,-4.5 21.93,-8.37 30.38,-16.48 -7.88,-3.25 -16.99,-5.59 -25.34,-2.77 0.01,-5.52 0.59,-11.53 4.17,-15.99 z"
       id="path46"
       inkscape:connector-curvature="0"
       style="fill:#000000" />
    <path
       d="m 339.76,642.82 c 6.22,-2.81 12.67,-5.3 19.47,-6.23 -1.97,4.1 -4.56,7.85 -7.43,11.37 -20.42,4.33 -37.99,16.51 -54.06,29.29 1.63,-4.55 3.17,-9.45 6.91,-12.76 10.16,-9.43 22.66,-15.83 35.11,-21.67 z"
       id="path48"
       inkscape:connector-curvature="0"
       style="fill:#000000" />
    <path
       d="m 764.02,721.99 c 60.87,-29.79 122.53,-57.94 184.44,-85.48 0.03,3.57 0,7.16 -0.11,10.74 -59.89,29.44 -122.26,53.65 -181.38,84.7 -3.14,1.72 -6.67,3.1 -8.95,5.99 -1.26,1.42 -1.26,3.67 0,5.12 2.73,3.24 5.97,6.02 8.9,9.09 -0.47,3.58 -0.92,7.16 -1.41,10.75 -6.01,-3.66 -11.58,-8.6 -14.35,-15.21 -2.58,-5.9 -2.12,-13.29 2.12,-18.31 2.68,-3.59 6.79,-5.55 10.74,-7.39 z"
       id="path50"
       inkscape:connector-curvature="0"
       style="fill:#000000" />
    <path
       d="m 251.59,641.32 c 14.72,11.43 29.44,22.93 43.04,35.69 -3.62,0.47 -7.26,0.83 -10.88,1.25 26.11,37.25 59.71,68.26 92.93,99.01 5.13,4.87 10.67,9.36 15.09,14.92 8.05,9.68 15.43,20.44 18.46,32.83 1.96,7.74 1.54,15.97 -0.86,23.56 -3.16,-16.92 -12.06,-32.58 -24.95,-43.98 -26.06,-22.12 -51.68,-44.93 -74.33,-70.59 -13.07,-14.78 -25.08,-30.47 -36.29,-46.7 -1.8,-2.54 -3.3,-5.37 -5.8,-7.32 -5.44,-4.39 -10.83,-8.84 -16.41,-13.05 0.74,-8.53 0.68,-17.1 0,-25.62 z"
       id="path52"
       inkscape:connector-curvature="0"
       style="fill:#000000" />
    <path
       d="m 363.46,654.43 c 11.01,-4.76 22.32,-9.36 34.33,-10.7 -2.79,5.31 -6.18,10.37 -10.33,14.7 -28.39,5.52 -53.64,20.79 -76.57,37.81 2.13,-5.84 4.23,-12.15 9.14,-16.29 12.71,-11.17 28.12,-18.63 43.43,-25.52 z"
       id="path54"
       inkscape:connector-curvature="0"
       style="fill:#000000" />
    <path
       d="m 106.96,653.86 c 2.84,-3.6 7.67,-4.93 12.1,-4.69 9.92,0.66 19.79,3.43 28.25,8.72 -2.27,6.33 -6.11,11.9 -10.1,17.25 -3.72,5.68 -10.43,7.97 -16.25,10.82 -7.19,2.96 -15.47,7.02 -23.14,3.19 10.47,-4.67 21.88,-8.39 30.29,-16.53 -7.88,-3.35 -17.03,-5.55 -25.41,-2.79 0.16,-5.51 0.67,-11.5 4.26,-15.97 z"
       id="path56"
       inkscape:connector-curvature="0"
       style="fill:#000000" />
    <path
       d="m 940.73,676.87 c 3.65,-1.67 5.67,-5.29 7.91,-8.42 0.12,5.71 -2.39,11.72 -7.69,14.38 -28.61,14.79 -57.29,29.45 -85.93,44.18 -6.57,3.61 -13.7,6.33 -19.57,11.09 0.54,-4.98 3.81,-9.24 8.29,-11.33 32.32,-16.65 64.65,-33.28 96.99,-49.9 z"
       id="path58"
       inkscape:connector-curvature="0"
       style="fill:#000000" />
    <path
       d="m 187.3,703.26 c -0.17,-6.84 1.51,-13.97 5.58,-19.54 3.82,1.51 5.72,5.36 7.62,8.73 1.45,2.83 3.05,5.62 4.05,8.67 -0.07,3.18 -0.75,6.31 -1.1,9.48 -4.94,1.47 -10.98,2.04 -13.72,7.1 -4.62,6.97 -0.75,15.09 0.54,22.42 3.25,16.94 6.34,34.47 3.24,51.67 -1.5,-21.16 -6.74,-41.78 -9.42,-62.77 -0.58,-8 -0.44,-18.11 6.82,-23.22 2.03,-1.67 3.93,-3.48 5.8,-5.31 -1.71,-1.24 -3.57,-2.24 -5.55,-2.95 -1.27,1.92 -2.56,3.82 -3.86,5.72 z"
       id="path60"
       inkscape:connector-curvature="0"
       style="fill:#000000" />
    <path
       d="m 356.68,686.84 c 9.31,4.25 17.52,11.85 20.5,21.87 4.36,14 0.26,28.96 -6.15,41.63 1.36,-10.23 3.03,-20.98 -0.26,-31.01 -2.68,-7.97 -8.73,-14.41 -15.82,-18.72 0.39,-4.61 1.14,-9.19 1.73,-13.77 z"
       id="path62"
       inkscape:connector-curvature="0"
       style="fill:#000000" />
    <path
       d="m 137.06,697.03 c 1.23,-2.74 2.61,-5.53 5.05,-7.4 0.06,3.45 -1.99,6.41 -2.86,9.66 -2.07,6.71 -4.04,14.14 -1.54,21.02 0.97,2.36 2.58,5.2 5.44,5.4 2.79,0.14 3.71,-3.03 5.83,-4.23 1.25,1.13 0.65,3.04 0.81,4.54 -0.22,4.16 -0.4,8.57 -2.49,12.29 -2.24,3.95 -8.64,4.64 -11.39,0.87 -3.93,-5.1 -4.63,-11.89 -4.39,-18.11 0.54,-8.23 2.35,-16.42 5.54,-24.04 z"
       id="path64"
       inkscape:connector-curvature="0"
       style="fill:#000000" />
    <path
       d="m 643.24,698.22 c 1.87,-3.23 4.15,-6.81 7.9,-8.02 3.81,-1.15 5.45,3.3 6.4,6.12 1.9,4.27 -0.25,8.72 -1.74,12.74 -2.67,-1.99 -6.48,-4.43 -9.64,-1.98 -3.68,3.19 -4.98,8.18 -6.21,12.71 -1.5,7.79 -2.29,15.71 -3.65,23.54 -3.72,-6.99 -8.22,-13.53 -13.09,-19.74 -4.37,1.83 -9.63,4.28 -14.1,1.32 -3.61,-2.8 -3.14,-8.13 -2.18,-12.09 1.15,-5.16 8.27,-7.63 12.24,-4.03 5.87,4.68 10.12,11.01 14.49,17.03 2.43,-9.43 4.97,-18.96 9.58,-27.6 z"
       id="path66"
       inkscape:connector-curvature="0"
       style="fill:#000000" />
    <path
       d="m 457.14,690.78 c 3.71,1.04 5.52,4.71 7.34,7.77 1.64,3.14 3.43,6.23 4.55,9.61 -0.06,3.17 -0.74,6.31 -1.12,9.46 -3.54,1.18 -7.5,1.48 -10.62,3.65 -4.64,3.59 -6.41,10.16 -4.85,15.72 2.64,10.84 4.74,21.82 5.97,32.92 0.99,9.47 1.56,19.17 -0.51,28.54 -1.37,-19.7 -5.97,-38.95 -8.87,-58.45 -1,-8 -1.52,-16.94 2.96,-24.04 2.84,-3.1 6.47,-5.38 9.19,-8.62 -1.75,-1.04 -3.53,-2.01 -5.35,-2.91 -1.39,1.93 -2.76,3.87 -4.12,5.83 -0.2,-6.83 1.68,-13.76 5.43,-19.48 z"
       id="path68"
       inkscape:connector-curvature="0"
       style="fill:#000000" />
    <path
       d="m 267.87,718.65 c 1,-1.88 2,-4 4.12,-4.81 -2.43,9.06 -7.23,18.1 -5.41,27.78 0.81,3.32 2.44,7.76 6.4,8.09 3,0.16 3.5,-3.91 6.34,-4.06 0.13,5.27 0.26,10.83 -1.88,15.75 -1.36,3.38 -5.57,5.12 -8.95,3.91 -2.73,-1.07 -4.31,-3.78 -5.36,-6.36 -2.54,-6.39 -2.31,-13.49 -1.32,-20.17 1.19,-6.92 2.84,-13.85 6.06,-20.13 z"
       id="path70"
       inkscape:connector-curvature="0"
       style="fill:#000000" />
    <path
       d="m 910.66,721.61 c 2.95,-3.59 7.84,-4.85 12.33,-4.51 9.8,0.66 19.54,3.48 27.94,8.65 -1.81,4.95 -4.52,9.5 -7.58,13.77 -2.48,3.41 -4.81,7.2 -8.66,9.22 -7.19,4.03 -14.78,7.59 -22.82,9.54 -3.57,1 -7.22,0.16 -10.52,-1.29 10.55,-4.54 21.95,-8.37 30.37,-16.51 -7.92,-3.27 -17.03,-5.55 -25.43,-2.82 0.22,-5.54 0.68,-11.6 4.37,-16.05 z"
       id="path72"
       inkscape:connector-curvature="0"
       style="fill:#000000" />
    <path
       d="m 816.1,734.08 c 1.75,-3.35 3.77,-7.61 7.91,-8.3 3.1,0.09 3.82,3.97 4.71,6.33 1.69,4.25 -0.2,8.65 -1.47,12.72 -2.19,-1.62 -5.09,-4.4 -7.91,-2.45 -3.75,3.09 -4.73,8.21 -5.87,12.69 -1.34,7.98 -2.05,16.06 -3.16,24.08 -3.04,-6.58 -6.77,-12.84 -10.83,-18.83 -1.09,-1.92 -3.15,0.28 -4.59,0.56 -3.35,1.74 -8.49,1.28 -10.17,-2.53 -1.38,-3.65 -1.12,-7.87 0.19,-11.5 1.38,-3.81 6.87,-5.67 9.93,-2.69 5.47,4.8 9.09,11.25 13.06,17.26 2.06,-9.29 4.21,-18.66 8.2,-27.34 z"
       id="path74"
       inkscape:connector-curvature="0"
       style="fill:#000000" />
    <path
       d="m 519.74,737.68 c 2.04,-3.32 4.93,-7.22 9.29,-6.98 2.85,1.28 3.68,4.66 4.63,7.36 1.42,4 -0.82,7.96 -2.07,11.68 -2.59,-1.76 -6.03,-4.44 -9.19,-2.28 -4.3,3.28 -5.58,8.99 -6.87,13.97 -1.32,7.56 -2.23,15.19 -3.43,22.78 -3.55,-7.11 -8.24,-13.56 -13.01,-19.88 -3.85,1.35 -7.88,3.53 -12.07,2.23 -5.84,-1.55 -5.63,-9.09 -4.1,-13.69 1.48,-4.61 7.9,-6.74 11.7,-3.62 6.08,4.63 10.34,11.12 14.79,17.23 2.65,-9.84 5.18,-19.91 10.33,-28.8 z"
       id="path76"
       inkscape:connector-curvature="0"
       style="fill:#000000" />
    <path
       d="m 856.71,780.59 c -2.21,-13.48 5.38,-25.74 10.31,-37.72 1.13,3.87 1.62,7.98 0.62,11.95 5.06,2.99 10.97,6.82 11.67,13.22 0.17,5.43 -0.22,11.33 -3.33,15.97 -4.6,7 -18.06,5.59 -19.27,-3.42 m 2.5,-9.44 c -0.35,2.21 1.01,4.53 3.11,5.34 4.69,1.74 10.26,0.58 13.84,-2.95 -3.63,-3.76 -8.29,-6.28 -13.28,-7.7 -1.32,1.69 -2.81,3.31 -3.67,5.31 z"
       id="path78"
       inkscape:connector-curvature="0"
       style="fill:#000000" />
    <path
       d="m 141.46,828.5 c 56.57,-27.61 116.75,-46.7 174.21,-72.26 -0.41,5.97 0.76,14.61 -6.21,17.26 -62.44,24.13 -124.28,49.85 -185.09,77.86 2.41,-6.51 5.79,-12.62 9.83,-18.26 1.63,-2.52 4.77,-3.22 7.26,-4.6 z"
       id="path80"
       inkscape:connector-curvature="0"
       style="fill:#000000" />
    <path
       d="m 107.38,758.56 c 7.33,4.61 14.63,9.27 21.96,13.88 -3.65,5.75 -7.32,11.49 -11.02,17.21 7.07,4.53 14.15,9.03 21.27,13.48 -3.81,6.14 -7.75,12.19 -11.65,18.28 -7.5,-4.65 -15.01,-9.29 -22.48,-13.99 3.67,-5.76 8.09,-11.27 11.24,-17.2 -7.04,-4.7 -14.4,-8.92 -21.51,-13.52 4.1,-6.03 8.15,-12.08 12.19,-18.14 z"
       id="path82"
       inkscape:connector-curvature="0"
       style="fill:#000000" />
    <path
       d="m 720.59,762.67 c 6.6,4.89 13.05,9.95 19.62,14.87 -2.5,5.36 -5.06,10.71 -7.57,16.07 5.98,4.5 11.89,9.1 17.9,13.57 -2.75,6.06 -5.69,12.03 -8.5,18.07 -6.33,-4.54 -12.62,-9.12 -18.96,-13.64 2.32,-5.74 4.72,-11.45 6.98,-17.21 -5.78,-4.16 -11.56,-8.32 -17.33,-12.48 2.66,-6.4 5.23,-12.84 7.86,-19.25 z"
       id="path84"
       inkscape:connector-curvature="0"
       style="fill:#000000" />
    <path
       d="m 919.4,771.47 c 0.35,-0.08 1.06,-0.25 1.41,-0.33 -2.88,8.68 -6.98,17.54 -5.64,26.92 0.62,3.25 1.94,7.1 5.24,8.5 3.15,1.04 5.01,-2.3 6.68,-4.32 2.19,4.73 0.68,10.51 -0.61,15.38 -1.39,5.29 -9.26,7.02 -12.42,2.38 -5.53,-7.84 -4.64,-18.16 -3.06,-27.12 1.67,-7.45 3.44,-15.4 8.4,-21.41 z"
       id="path86"
       inkscape:connector-curvature="0"
       style="fill:#000000" />
    <path
       d="m 506.08,783.98 c 1.83,0.2 0.24,2.17 0.17,3.15 -3.05,7.84 -6.04,16.31 -4.52,24.83 0.83,3.18 2.51,7.45 6.32,7.72 3.07,0.26 3.49,-4.07 6.39,-4.04 -0.02,5.51 0.35,11.4 -2.29,16.43 -2.23,4.35 -9.21,4.85 -11.86,0.63 -5.24,-7.71 -4.49,-17.69 -2.97,-26.44 1.67,-7.79 3.56,-16.02 8.76,-22.28 z"
       id="path88"
       inkscape:connector-curvature="0"
       style="fill:#000000" />
    <path
       d="m 305,808.01 c 1.6,-8.01 3.7,-16.36 9.07,-22.76 1.08,2.25 -0.73,4.44 -1.3,6.58 -2.48,7.01 -4.94,14.62 -3.32,22.1 0.83,2.98 2.27,6.54 5.55,7.44 3.01,0.5 4.46,-2.56 6.07,-4.45 1.97,2.61 0.83,6.1 0.81,9.1 -0.43,4.12 -1.38,9.5 -5.92,10.95 -3.29,1.3 -7,-0.39 -8.62,-3.41 -4.5,-7.69 -3.96,-17.11 -2.34,-25.55 z"
       id="path90"
       inkscape:connector-curvature="0"
       style="fill:#000000" />
    <path
       d="m 799.07,817.03 c 1.79,-7.24 3.49,-15.23 9.04,-20.61 0.16,3.22 -1.69,6 -2.58,8.99 -2.14,6.71 -4.15,14.05 -2.05,21.02 1,2.79 2.87,6.47 6.42,6.11 2.33,-0.58 3.5,-2.97 5.15,-4.51 1.51,5.13 0.68,10.91 -1.07,15.92 -1.68,5.12 -9.55,6.28 -12.41,1.6 -5.58,-8.36 -4.4,-19.17 -2.5,-28.52 z"
       id="path92"
       inkscape:connector-curvature="0"
       style="fill:#000000" />
    <path
       d="m 556.63,808.53 c 3.06,-3.48 7.98,-4.53 12.44,-4.16 9.66,0.74 19.22,3.53 27.51,8.62 -2.42,6.85 -6.69,12.8 -11.05,18.53 -2.79,3.77 -7.24,5.66 -11.28,7.73 -6.14,2.82 -12.4,5.82 -19.18,6.64 -2.81,0.41 -5.48,-0.7 -8.04,-1.66 7.28,-2.96 14.59,-5.91 21.43,-9.81 3.19,-1.88 6.42,-3.88 8.79,-6.79 -7.86,-3.1 -16.87,-5.49 -25.14,-2.65 -0.06,-5.71 0.62,-11.97 4.52,-16.45 z"
       id="path94"
       inkscape:connector-curvature="0"
       style="fill:#000000" />
    <path
       d="m 260.65,826.1 c 0.89,-3.21 2.33,-6.23 3.6,-9.3 3.17,11.8 7.49,24.29 3.94,36.52 -1.08,4.29 -5.17,8.09 -9.82,7.19 -3.84,-0.95 -5.67,-4.74 -7.53,-7.83 -1.64,4.64 -4.29,10.24 -9.85,10.83 -3.91,0.76 -7.44,-2.21 -8.36,-5.87 -2,-6.87 -0.98,-14.16 -1.55,-21.2 -1.61,2.48 -3.05,5.08 -4.4,7.72 0.05,-2.27 -0.35,-4.67 0.66,-6.79 2.39,-5.28 6.07,-9.81 9.64,-14.32 -0.55,7.28 -1.51,14.7 0.02,21.92 0.51,2.1 1.45,4.7 3.85,5.2 3.05,0.48 5.8,-1.83 6.44,-4.72 1.57,-6.74 -0.51,-13.57 -0.89,-20.32 0.55,-2.58 2.44,-4.67 3.69,-6.95 2.94,5.85 3.58,12.45 4.02,18.88 0.26,3.97 1.31,8.76 5.32,10.59 1.71,0.14 4.04,-0.77 4.22,-2.71 0.12,-6.42 -2.25,-12.54 -3,-18.84 z"
       id="path96"
       inkscape:connector-curvature="0"
       style="fill:#000000" />
    <path
       d="m 463.91,869 c -2.5,-13.63 5.15,-26.12 10.25,-38.19 0.96,3.91 1.57,7.99 0.55,11.97 4.81,2.86 10.26,6.35 11.55,12.21 0.49,5.77 0.01,12.05 -3.24,17.03 -4.54,6.78 -17.56,5.66 -19.11,-3.02 m 2.37,-9.88 c -0.33,2.27 1.09,4.65 3.29,5.39 4.66,1.7 9.91,0.33 13.66,-2.76 -3.41,-4.1 -8.31,-6.48 -13.32,-7.98 -1.28,1.73 -2.76,3.36 -3.63,5.35 z"
       id="path98"
       inkscape:connector-curvature="0"
       style="fill:#000000" />
    <path
       d="m 350.6,849.61 c 6.13,-6.55 12.78,-14.51 22.37,-15.28 6.75,-0.8 11.67,5.2 13.81,10.91 3.34,8.78 4.72,18.37 4.36,27.75 -1.38,6.38 -3.68,14.02 -9.97,17.15 -7.85,2.19 -15.68,-1.6 -22.8,-4.54 -7.28,-3.53 -15.22,-7.07 -19.99,-13.92 -3.7,1.19 -5.8,4.63 -8.23,7.4 -6.16,7.41 -11.79,15.68 -20.17,20.78 -6.06,3.79 -14.09,3.67 -20.33,0.41 -6.52,-3.77 -8.37,-11.78 -8.97,-18.73 -7.93,9.45 -16.62,18.73 -27.62,24.61 -9.31,4.99 -20.76,6.04 -30.76,2.58 -8.68,-3.2 -13.97,-11.54 -17.25,-19.76 -3.73,-8.42 -5.4,-18.2 -12.22,-24.87 -3.07,-0.05 -6.17,0.35 -8.95,1.73 -6.99,3.25 -13.33,7.85 -18.91,13.14 -6.68,6.14 -9.9,14.84 -14.52,22.45 -4.38,7.36 -7.89,15.3 -13.16,22.09 -3.9,4.87 -9.72,9.38 -16.35,8.24 -8.48,-1.14 -14.49,-8.25 -18.23,-15.41 -8.93,-17.19 -9.36,-37.59 -5.55,-56.23 1.47,-6.84 3.25,-13.62 5.42,-20.26 0.72,-1.69 1.28,-4.08 3.4,-4.43 1.43,1.07 1.22,3.02 1.13,4.59 -1,9.42 -3.7,18.58 -4.48,28.02 -0.91,10.43 0.27,21.02 3.36,31.01 1.52,4.61 3.67,9.29 7.55,12.38 3.94,3.19 9.74,3.49 14.23,1.29 4.83,-2.27 8.24,-6.65 10.65,-11.28 9.16,-15.78 17.02,-32.83 30.59,-45.45 7.51,-6.89 16.37,-13.8 26.98,-14.25 4.95,-0.62 8.46,3.78 10.56,7.66 4.94,9.67 6.58,21 13.59,29.59 6.02,7.69 16.29,11.07 25.81,10.31 8.22,-1.31 16.12,-4.6 22.86,-9.5 7.34,-5.2 13.42,-11.89 20,-17.97 1.32,-1.41 3.21,-0.67 4.78,-0.24 -1.31,6.12 -0.95,13.3 3.93,17.82 4.24,4.9 11.77,5.2 17.24,2.31 9.19,-4.73 15.33,-13.41 21.64,-21.28 3.78,-4.63 7.44,-10.76 14.2,-10.82 m 6.24,4.17 c 2.3,2.5 4.43,5.17 6.85,7.57 3.25,3.19 7.56,5.01 11.9,6.21 0.14,-5.5 -1.26,-11.82 -5.98,-15.17 -4.11,-1.78 -9.01,-0.85 -12.77,1.39 z"
       id="path100"
       inkscape:connector-curvature="0"
       style="fill:#000000" />
    <path
       d="m 643.8,901.74 c 1.46,-1.99 4.75,-1.02 5.24,1.31 0.69,3.26 0.22,6.67 -0.44,9.91 0.38,2.01 -2.82,1.91 -2.69,0.02 -0.19,-0.51 -0.56,-1.53 -0.75,-2.04 -3.19,0.58 -4.74,3.65 -6.5,6.02 1.04,2.61 1.69,5.86 4.42,7.28 2.98,1.29 6.04,-1.02 7.81,-3.29 1.53,-1.68 2.38,-4.6 5.16,-4.31 -0.94,4.86 -3.01,9.42 -5.94,13.4 -4.44,6.1 -8.89,12.32 -14.63,17.27 -1,-4.77 2.01,-8.64 4.14,-12.55 -5.27,-4.23 -5.95,-11.75 -3.81,-17.78 1.88,-5.41 4.09,-10.96 7.99,-15.24 z"
       id="path102"
       inkscape:connector-curvature="0"
       style="fill:#000000" />
    <path
       d="m 982.72,929.84 c 3.36,-5.97 6.71,-11.93 10.11,-17.87 7.53,3.63 15.11,7.18 22.66,10.8 -3.2,5.93 -6.39,11.86 -9.54,17.81 -7.78,-3.51 -15.47,-7.2 -23.23,-10.74 z"
       id="path104"
       inkscape:connector-curvature="0"
       style="fill:#000000" />
    <path
       d="m 909.77,932.1 c 3.35,-5.95 6.71,-11.9 10.09,-17.84 7.55,3.6 15.1,7.2 22.66,10.79 -3.18,5.95 -6.39,11.89 -9.56,17.85 -7.73,-3.6 -15.47,-7.18 -23.19,-10.8 z"
       id="path106"
       inkscape:connector-curvature="0"
       style="fill:#000000" />
    <path
       d="m 278.21,923.8 c 7.56,3.6 15.14,7.17 22.69,10.81 -3.23,5.92 -6.37,11.9 -9.61,17.83 -7.1,-3.35 -14.22,-6.63 -21.33,-9.95 -2.91,5.39 -5.78,10.81 -8.71,16.2 -7.73,-3.58 -15.43,-7.2 -23.16,-10.77 3.32,-5.97 6.71,-11.89 10.06,-17.84 6.97,3.28 13.93,6.59 20.89,9.92 3.08,-5.39 6.12,-10.8 9.17,-16.2 z"
       id="path108"
       inkscape:connector-curvature="0"
       style="fill:#000000" />
  </g>
  <g
     id="g3228"
     transform="matrix(2.3197322,0,0,2.3244471,2094.2253,-1305.5499)"
     style="fill:#ff0000">
    <g
       id="#020202ff"
       transform="translate(-924.78201,546.16585)"
       style="fill:#ff0000">
      <g
         id="g3324"
         style="fill:#000000">
        <path
           style="fill:#000000"
           inkscape:connector-curvature="0"
           d="m 437.97094,411.0836 c 0.32,-0.31 1.50918,-1.40832 1.82918,-1.71832 2.24,-0.11 5.39864,-0.46888 6.80988,0.86664 1.08666,1.17562 -0.60159,2.36034 -1.56252,2.06325 -1.99445,-0.61664 -4.56399,-1.24714 -4.60007,1.87079 -0.28921,2.38857 0.98534,2.3298 2.88475,2.36959 1.55033,0.0306 3.18196,0.0394 3.45784,0.62637 0.28891,0.84185 0.2554,1.97185 -0.18,2.25 -3.81891,1.09378 -7.11859,-1.3407 -10.43,0.28874 0.35495,-0.97324 -0.19804,-2.43443 0.80689,-3.21318 1.48218,-1.14857 0.56358,-3.77765 0.98405,-5.40388 z"
           id="path167"
           sodipodi:nodetypes="cccscccccsc" />
        <path
           style="fill:#000000"
           inkscape:connector-curvature="0"
           d="m 72.52,424.63 c 2.33,-0.02 4.65,-0.04 6.98,-0.15 1.78,2.98 -0.63,6.36 0.72,9.48 0.26,9.85 -0.2,19.7 0.17,29.55 27.34,0.08 54.68,0.07 82.02,0 0.09,-7.97 -0.06,-15.93 0.06,-23.89 2.39,0.03 4.77,0.03 7.16,0 0.19,7.94 0.05,15.88 0.07,23.82 3.27,0.15 6.54,0.14 9.81,0.08 0.13,-7.96 -0.01,-15.93 0.08,-23.9 2.64,0.12 5.45,-0.42 7.94,0.76 -0.17,7.72 -0.1,15.45 -0.11,23.18 3.1,0 6.19,-0.03 9.29,-0.03 -0.04,-7.7 0.24,-15.41 -0.17,-23.11 2.21,-1.2 4.82,-0.69 7.23,-0.92 1.62,7.84 0.32,16.02 0.68,24 4.64,0.08 9.28,0.1 13.92,-0.01 -0.05,-12.97 -0.07,-25.94 0,-38.91 2.43,0.02 4.85,0.01 7.28,-0.01 0.07,14.44 0.05,28.89 0.02,43.34 0.2,2.36 -2.69,3.61 -4.69,3.42 -10.75,0.06 -21.5,-0.05 -32.24,0.06 -0.56,-0.72 -1.11,-1.43 -1.66,-2.13 -0.96,0.71 -1.91,1.41 -2.87,2.12 -4.24,-0.06 -8.48,-0.14 -12.71,0.07 -0.38,-0.53 -1.13,-1.61 -1.51,-2.15 -0.98,0.69 -1.96,1.39 -2.94,2.09 -30.43,0.02 -60.86,0.01 -91.3,0 -0.47,-0.29 -1.42,-0.86 -1.89,-1.15 -0.35,-0.48 -1.04,-1.45 -1.39,-1.93 0.18,-14.56 0.09,-29.12 0.05,-43.68 z"
           id="path173" />
        <path
           style="fill:#000000"
           inkscape:connector-curvature="0"
           d="m 235.62,424.63 c 2.6,-0.03 5.21,-0.04 7.81,-0.02 0,14.47 -0.01,28.93 0.01,43.4 0.05,1.21 -0.16,2.37 -0.64,3.49 -2.43,-0.23 -5.02,0.19 -7.29,-0.92 0.3,-15.31 0.07,-30.64 0.11,-45.95 z"
           id="path177" />
        <path
           style="fill:#000000"
           inkscape:connector-curvature="0"
           d="m 296.71,455.01 c 0.99,-10.14 0.23,-20.34 0.58,-30.51 2.43,0.09 4.87,0.1 7.32,0.08 -0.02,15.61 0.04,31.22 -0.03,46.83 -2.43,-0.06 -4.87,-0.05 -7.3,0.04 -0.08,-5.49 0.03,-10.98 -0.57,-16.44 z"
           id="path179" />
        <path
           style="fill:#000000"
           inkscape:connector-curvature="0"
           d="m 437.67295,426.04215 c 0.0742,-0.57669 0.35212,-1.09164 1.01705,-1.47215 2.27,-0.15 4.55,-0.07 6.84,-0.06 -0.09,15.6 0.08,31.21 -0.09,46.81 -2.26,0.01 -4.52,0.03 -6.77,0.15 -0.25,-0.33 -0.74,-0.99 -0.99,-1.32 0,0 0.19457,-44.09235 -0.007,-44.10785 z"
           id="path181"
           sodipodi:nodetypes="ccccccc" />
        <path
           style="fill:#000000"
           inkscape:connector-curvature="0"
           d="m 35.6,448.36 c 2.37,-5.3 7.4,-9.97 13.46,-10.05 5,-0.03 10.02,-0.02 15,0.51 0.48,1.36 1.56,2.6 1.46,4.13 -0.03,8.37 -0.12,16.75 0.03,25.12 -0.31,0.6 -0.92,1.8 -1.22,2.4 -1.07,0.52 -2.13,1.23 -3.37,1.18 -7.31,0.05 -14.63,0 -21.94,-0.01 -2.45,0.08 -5.28,-0.58 -7.24,1.31 -0.41,0.3 -1.21,0.89 -1.62,1.19 0.17,5.32 0.12,10.64 -0.06,15.96 -2.17,0.04 -4.34,0.08 -6.51,0.13 -0.14,-7.06 -0.74,-14.28 1.26,-21.15 2.36,-2.88 5.73,-4.85 9.51,-4.92 0.55,-5.25 -0.86,-10.8 1.24,-15.8 m 6.89,2.73 c -0.39,4.16 -0.05,8.36 -0.2,12.54 5.13,-0.13 10.25,-0.03 15.37,0.01 0.06,-5.78 0.05,-11.56 0.02,-17.34 -2.89,0.01 -5.78,-0.07 -8.68,-0.06 -3,-0.29 -5.14,2.55 -6.51,4.85 z"
           id="path183" />
        <path
           style="fill:#000000"
           inkscape:connector-curvature="0"
           d="m 393.31,445.5 c 1.44,-2.01 0.99,-4.54 1.22,-6.84 14.14261,-0.1997 20.19031,0.96091 25.93333,7.54409 3.87644,4.95897 4.89017,11.43787 4.92667,17.17591 l 3.77,0.0256 0.0291,8.02445 c -27.16,-0.2 -54.95906,-0.03 -82.11906,-0.08 -5.11,0.07 -10.23,-0.2 -15.32,0.2 -1.48595,11.73548 -10.6153,19.23378 -21.01,18.55 -0.03,-1.92 -0.04,-5.66356 -0.05,-7.56356 7.65979,-1.70978 10.31027,-2.43228 12.62537,-9.95645 2.63266,-9.61316 1.63112,-19.78219 1.24463,-28.81663 1.87281,-0.3315 6.71068,-0.29028 8,-0.0234 0.29,6.55 0.08,13.1 0.16,19.66 28.36,0.33 56.72,0.13 85.08,0.1 0.05,-2.94 -0.83,-5.73 -1.82,-8.45 -1.61,-3.37 -4.53,-5.73 -7.83,-7.32 -3.03,-0.44 -5.98,-1.48 -9.06,-1.36 -1.96,-0.08 -4.05,0.28 -5.78,-0.87 z"
           id="path185"
           sodipodi:nodetypes="cccccccccccccccccccc" />
        <path
           style="fill:#000000"
           inkscape:connector-curvature="0"
           d="m 280.83,444.83 c 1.58,-2.32 5.09,-0.58 7.49,-1.07 0.59,10.13 1.11,20.42 -1.06,30.41 -3.99526,10.91516 -8.54853,15.5985 -20.81,16.64 -0.02,-2.43 -0.04,-4.85 -0.12,-7.27 8.35383,-1.90631 12.87817,-6.40342 14.1107,-14.33118 0.55709,-8.26982 0.35299,-16.70279 0.3893,-24.37882 z"
           id="path187"
           sodipodi:nodetypes="ccccccc" />
        <path
           sodipodi:type="arc"
           style="fill:#000000"
           id="path3348"
           sodipodi:cx="467.28729"
           sodipodi:cy="1168.4891"
           sodipodi:rx="11.956528"
           sodipodi:ry="11.956528"
           d="m 479.24382,1168.4891 c 0,6.6034 -5.35312,11.9566 -11.95653,11.9566 -6.60341,0 -11.95653,-5.3532 -11.95653,-11.9566 0,-6.6034 5.35312,-11.9565 11.95653,-11.9565 6.60341,0 11.95653,5.3531 11.95653,11.9565 z"
           transform="matrix(0.37321266,0,0,0.37245564,8.4101821,-17.559396)" />
        <path
           sodipodi:type="arc"
           style="fill:#000000"
           id="path3348-8"
           sodipodi:cx="467.28729"
           sodipodi:cy="1168.4891"
           sodipodi:rx="11.956528"
           sodipodi:ry="11.956528"
           d="m 479.24382,1168.4891 c 0,6.6034 -5.35312,11.9566 -11.95653,11.9566 -6.60341,0 -11.95653,-5.3532 -11.95653,-11.9566 0,-6.6034 5.35312,-11.9565 11.95653,-11.9565 6.60341,0 11.95653,5.3531 11.95653,11.9565 z"
           transform="matrix(0.37321267,0,0,0.37245564,2.2532964,-7.1308322)" />
        <path
           sodipodi:type="arc"
           style="fill:#000000"
           id="path3348-9"
           sodipodi:cx="467.28729"
           sodipodi:cy="1168.4891"
           sodipodi:rx="11.956528"
           sodipodi:ry="11.956528"
           d="m 479.24382,1168.4891 c 0,6.6034 -5.35312,11.9566 -11.95653,11.9566 -6.60341,0 -11.95653,-5.3532 -11.95653,-11.9566 0,-6.6034 5.35312,-11.9565 11.95653,-11.9565 6.60341,0 11.95653,5.3531 11.95653,11.9565 z"
           transform="matrix(0.37321267,0,0,0.37245564,14.905972,-7.4690557)" />
      </g>
    </g>
  </g>
</svg>
