<?xml version="1.0" encoding="UTF-8" standalone="no"?>
<svg
   xmlns:dc="http://purl.org/dc/elements/1.1/"
   xmlns:cc="http://creativecommons.org/ns#"
   xmlns:rdf="http://www.w3.org/1999/02/22-rdf-syntax-ns#"
   xmlns:svg="http://www.w3.org/2000/svg"
   xmlns="http://www.w3.org/2000/svg"
   xmlns:sodipodi="http://sodipodi.sourceforge.net/DTD/sodipodi-0.dtd"
   xmlns:inkscape="http://www.inkscape.org/namespaces/inkscape"
   width="900"
   height="600"
   viewBox="0 0 720 480"
   version="1.1"
   id="svg2"
   inkscape:version="0.48.4 r9939"
   sodipodi:docname="Flag of the Sham Legion.svg">
  <metadata
     id="metadata366">
    <rdf:RDF>
      <cc:Work
         rdf:about="">
        <dc:format>image/svg+xml</dc:format>
        <dc:type
           rdf:resource="http://purl.org/dc/dcmitype/StillImage" />
        <dc:title></dc:title>
      </cc:Work>
    </rdf:RDF>
  </metadata>
  <defs
     id="defs364" />
  <sodipodi:namedview
     pagecolor="#ffffff"
     bordercolor="#666666"
     borderopacity="1"
     objecttolerance="10"
     gridtolerance="10"
     guidetolerance="10"
     inkscape:pageopacity="0"
     inkscape:pageshadow="2"
     inkscape:window-width="1680"
     inkscape:window-height="988"
     id="namedview362"
     showgrid="false"
     inkscape:zoom="0.59334116"
     inkscape:cx="303.35348"
     inkscape:cy="434.92999"
     inkscape:window-x="-8"
     inkscape:window-y="-8"
     inkscape:window-maximized="1"
     inkscape:current-layer="svg2"
     fit-margin-top="0"
     fit-margin-left="0"
     fit-margin-right="0"
     fit-margin-bottom="0" />
  <g
     id="#f9f8f6ff"
     transform="translate(1008.3051,-11.694916)" />
  <g
     id="#f7f5f6ff"
     transform="translate(1008.3051,-11.694916)" />
  <g
     id="#f8f5f5ff"
     transform="translate(1008.3051,-11.694916)" />
  <g
     id="#f7f6f6ff"
     transform="translate(1008.3051,-11.694916)" />
  <g
     id="#f8f6f5ff"
     transform="translate(1008.3051,-11.694916)" />
  <g
     id="g3382"
     transform="scale(4,4)"
     style="fill:#ffffff">
    <rect
       id="rect3356"
       height="120"
       width="180"
       x="0"
       y="0"
       style="fill:#ffffff" />
  </g>
  <path
     style="fill:#000000;fill-opacity:1;stroke:none"
     d="m 199.57444,99.004674 -2.2957,3.010856 9.20989,78.89536 c 39.95138,-38.17331 75.6428,-57.31752 114.88787,-52.57581 58.96519,7.12442 117.23267,43.50379 175.5009,41.36553 30.27944,-1.11108 61.85342,-15.0343 90.77599,-43.74846 -42.85152,24.24188 -95.5053,22.97597 -128.70956,-9.75073 19.95412,9.49117 105.32036,12.06393 118.43765,-41.431667 C 512.13242,120.25049 454.53867,88.264461 396.92842,64.180834 361.61128,49.416589 324.09707,40.439063 291.25563,45.810732 c -35.07911,5.737923 -66.5177,21.137979 -91.68119,53.193942 z"
     id="path4309-4-5-4"
     inkscape:connector-curvature="0"
     sodipodi:nodetypes="cccsscccssc" />
  <path
     style="fill:#e7e7e9;fill-opacity:1;stroke:none"
     d="m 200.50867,97.098634 -3.46929,4.706726 10.38348,77.19946 c 39.95124,-38.17331 75.64281,-57.31752 114.88772,-52.57579 58.96533,7.12442 117.23282,43.50377 175.50105,41.36552 30.27944,-1.11108 61.85327,-15.03431 90.77599,-43.74847 -42.85152,24.24188 -95.50529,22.97597 -128.70956,-9.75073 19.95413,9.49117 105.32021,12.06393 118.4375,-41.431686 C 513.0665,118.34443 455.47275,86.358457 397.86265,62.274739 362.54551,47.510464 325.03115,38.532938 292.18987,43.904696 257.11075,49.64253 225.67202,65.042675 200.50867,97.098634 z"
     id="path4309-3-4"
     inkscape:connector-curvature="0"
     sodipodi:nodetypes="cccsscccssc" />
  <g
     id="g8480-6-3-4"
     transform="matrix(1.2317303,0,0,1.2317303,39.56824,-78.905321)"
     style="fill:#000000;fill-opacity:1;stroke:none">
    <g
       id="#272c2aff-1-5-4"
       style="fill:#000000;fill-opacity:1;stroke:none">
      <path
         id="path5640-8-5-4"
         d="m 224.21,105.17 c 1.68,-0.18 4.85,-1.04 3.75,1.79 -0.3,3.36 -4.06,1.07 -6.01,0.81 0.66,-0.95 1.44,-1.79 2.26,-2.6 z"
         inkscape:connector-curvature="0"
         style="fill:#000000;fill-opacity:1;stroke:none" />
    </g>
    <g
       id="#222222ff-2-3-2"
       style="fill:#000000;fill-opacity:1;stroke:none">
      <path
         id="path5643-1-2-9"
         d="m 230.07,108.05 c 0.58,-0.76 0.36,-3.32 1.69,-2.77 0.78,1.6 1.59,3.19 2.39,4.79 0.62,1.2 0.77,2.61 -0.58,3.38 -0.23,4.55 1.39,9.11 2.45,13.51 3.91,5.34 9.65,9.37 12.67,15.4 2.18,8.74 0.07,4.53 -1.22,2.7 -1.92,-4.63 -5.64,-8.08 -9.42,-11.23 -0.34,5.18 1.53,10.27 0.75,15.44 -0.53,-1.38 -0.92,-2.8 -1.37,-4.2 -0.09,-0.51 -0.28,-1.52 -0.37,-2.03 -1.26,-5.6 -1.08,-12.24 -5.81,-16.29 -3.21,-3.04 -5.87,-6.57 -8.88,-9.78 -2.08,-1.17 -0.9,-3.29 -0.2,-4.9 2.32,1.59 4.73,3.06 6.97,4.77 -0.82,0.08 -2.45,0.25 -3.27,0.33 2.18,2.01 3.77,5.47 6.94,5.96 -0.81,-5.04 -1.67,-10.09 -2.74,-15.08 z"
         inkscape:connector-curvature="0"
         style="fill:#000000;fill-opacity:1;stroke:none" />
      <path
         id="path5645-1-8-3"
         d="m 245.03,105.93 c 1.67,1.23 1.59,4.34 2.96,6.18 0.23,1.18 0.72,2.35 0.59,3.58 -1.77,9.31 3.48,18.04 3.42,27.31 1.1,4.93 -2.5,8.49 -4.9,12.17 -0.81,2.22 1.38,5.12 3.7,4.71 3.46,-4.33 5.36,-9.82 9.71,-13.47 1.23,-3.75 -0.27,-7.42 -0.84,-11.05 -1.35,-7.13 -1.94,-14.38 -3.42,-21.49 -0.37,-1.7 0.4,-3.35 0.69,-4.99 2.05,2.46 2.93,6.72 4.17,10.03 -0.53,-0.21 -1.58,-0.62 -2.11,-0.82 1.51,9.07 2.67,18.33 4.62,27.25 4.22,3.22 3.6,10.08 8.35,12.72 2.46,2.2 6.4,-0.76 5.71,-3.76 -0.74,-5.88 -1.12,-11.82 -2.14,-17.66 -0.42,-10.22 -13.06,-15.36 -12.54,-25.7 2.16,2.62 8.35,4.9 6.19,9.08 1.23,2.09 2.84,4.65 4.84,6.07 -0.12,-4.08 -1.31,-8.09 -1.02,-12.19 4.24,2.7 3.76,9.09 3.58,13.41 0.7,3.89 3.02,7.67 6.35,9.86 -0.33,-6.14 -1.36,-12.22 -2.71,-18.2 0.42,-0.87 0.25,-3.28 1.67,-2.81 1.27,2.1 2,4.52 2.83,6.82 -1.12,8.12 -0.84,17.64 5.55,23.75 1.69,1.86 2.78,4.15 3.84,6.41 0.42201,1.65201 0.53909,3.16763 0.28909,4.17763 -1.4,-3.17 -4.68909,-7.32763 -7.26909,-9.46763 -1.13,3.72 1.42,9.49 -2.04,12.31 -0.77,-7.88 1.16,-18.59 -7.11,-23.26 0.29,8.17 4.55,17.66 -1.34,24.77 -3.81,2.23 -8.87,-0.27 -9.58,-4.68 -0.33,-2.48 -4.38,-9.25 -2.07,1 0.12,2.57 0.98,6.02 -1.91,7.18 -0.01,-1.79 -0.05,-5.36 -0.07,-7.15 -0.05,-2.7 -0.75,-5.33 -1.22,-7.98 -3.91,1.2 -5.38,5.38 -6.73,8.83 -1.21,2.13 -2.65,4.15 -4.24,6.03 -3.62,-1.23 -5.32,-5.33 -6.11,-8.79 -2.47,-1.48 -11.53,4.08 -10.67,-0.93 3.83,-0.2 7.35,-1.79 10.74,-3.43 0.24,-1.64 0.26,-3.3 0.4,-4.95 0.82,1.25 0.72,2.84 1.1,4.24 1.3,-1.26 3.22,-2.29 3.68,-4.12 0.33,-13.83 -7.42,-27.19 -4.94,-40.99 z"
         inkscape:connector-curvature="0"
         style="fill:#000000;fill-opacity:1;stroke:none"
         sodipodi:nodetypes="cccccccccccccccccccccccccccccccccccccccccccccc" />
      <path
         id="path5647-9-2-0"
         d="m 198.94,110.98 c 4.87,0.77 4.89,7.48 2.12,10.12 2.8,-4.65 -2.75,-6.2 -2.12,-10.12 z"
         inkscape:connector-curvature="0"
         style="fill:#000000;fill-opacity:1;stroke:none" />
      <path
         id="path5649-7-5-7"
         d="m 191.19,112.07 c 2.14,-0.62 3.5,1.84 2.59,3.63 -3.51,2.2 -6.56,5.69 -10.82,6.36 0.92,-2.79 5.33,-2.64 6.7,-5.33 0.5,-1.56 0.96,-3.13 1.53,-4.66 z"
         inkscape:connector-curvature="0"
         style="fill:#000000;fill-opacity:1;stroke:none" />
      <path
         inkscape:connector-curvature="0"
         style="fill:#000000;fill-opacity:1;stroke:none"
         d="m -1775.8125,-1133.8125 c -2.2459,1.035 -2.647,2.945 -1.2187,5.7187 0.9728,5.3405 1.7956,10.7927 4.0312,15.7813 0.8797,2.1528 1.7972,4.2847 2.6562,6.4375 -2.9393,0.7038 -3.5762,-1.8584 -4.0937,-4.125 -2.5874,0.8901 -4.288,3.3896 -6.9375,4.0312 -0.4657,-1.6766 -1.0018,-3.3444 -1.2812,-5.0624 2.6081,-2.4219 5.6569,-5.1631 4.1562,-9.4376 0.031,-2.4322 -2.4892,-4.099 -2.4375,-6.5312 0.2587,-1.7077 -1.145,-3.2019 -2.625,-3.8125 -3.1774,4.3159 2.4459,9.1724 3.75,13.2813 -1.1488,1.2316 -2.3944,2.4124 -3.7813,3.375 -1.2523,-2.4633 -2.6193,-5.2162 -1.75,-8.0313 1.0247,-2.7737 -1.2843,-5.1866 -3.375,-6.6563 -1.8215,5.3405 1.8548,10.4305 1.9376,15.7813 -5.6407,-2.1114 -1.6844,-9.8929 -6.0313,-12.6563 -2.3701,3.6846 0.3153,7.5976 0.75,11.4063 -1.48,3.757 -3.9803,9.5955 -9,8.25 -3.5189,-2.6599 1.1359,-8.2506 -0.4063,-11.5625 -2.5667,1.9872 -4.2528,5.0728 -4.6874,8.2812 0.1862,0.3209 0.5846,0.9605 0.7812,1.2813 1.6353,3.0118 3.7462,7.6253 8,6.0625 2.7841,-2.4736 5.2596,-5.3139 6.75,-8.75 3.6121,-0.083 6.7622,1.8583 7.0312,5.7188 -2.3183,-0.1863 -5.4071,-2.1096 -7.1562,0.2812 -2.8048,2.1114 -1.2004,6.3923 0.031,9.0625 3.519,0.6003 11.1028,-6.5338 7.6563,2.75 -3.4465,4.6574 -6.225,11.0534 -12.0313,12.875 -6.0132,0.8694 -4.9264,-6.2649 -6.4374,-10.1875 0.8072,-2.4426 -0.091,-7.3644 3.5624,-5.7188 -0.3725,-2.3183 -5.8924,-7.5527 -5.375,-2.8124 -0.3208,1.7905 2.3519,2.3967 2,4.1562 -0.7762,2.5461 -3.1799,4.4231 -3.625,7.0312 0.8384,6.448 -1.2305,15.2789 5,19.75 6.7481,1.2213 11.6684,-4.2816 15.1563,-9.1874 3.0532,-4.1089 5.5658,-8.603 7.6875,-13.25 -0.083,-1.8734 -0.2297,-5.6267 -0.3125,-7.5 -0.6934,-2.1735 -2.0239,-5.0919 0.7187,-6.4063 1.9665,-2.3908 3.3262,2.2169 5.4376,1.9375 4.409,-1.6663 2.3537,5.9183 3.9062,7.7812 -0.7659,10.5982 1.2956,4.0879 1.9062,1.5626 2.1425,-4.7817 -3.2008,-9.4352 -0.4374,-13.9063 2.8151,0.5382 6.5685,0.4988 7.5,-2.9063 1.2626,-2.1631 0.5838,-6.9874 -2.5626,-6.6562 -0.3518,1.9561 2.0737,5.8774 -1.0312,6.25 -2.1631,0.7141 -2.6519,-1.7274 -3.5938,-3.0625 -1.4075,1.5628 -1.7289,3.8217 -3.3124,5.25 -2.2149,-5.4854 -3.8516,-11.1936 -5.0626,-16.9687 -0.4864,-1.2317 0.9929,-1.9643 1.5,-2.875 -1.097,-2.0286 -2.3087,-3.9717 -3.3437,-6.0313 z m -13.2187,31.9063 c 0.5916,-0.054 1.3256,0.3183 2.0624,1.3124 l -3.0624,1.25 c -0.5712,-1.2492 0.014,-2.472 1,-2.5624 z m 8.5,4.1562 c 1.6766,0.8073 1.4204,3.5315 2,5.1875 -3.1774,7.0172 -7.8093,13.386 -13.75,18.3125 -2.5978,1.8112 -8.0787,3.1314 -8.9688,-0.7188 -0.5692,-2.4322 -2.8267,-7.9184 -0.1875,-8.1874 -1.656,3.8501 1.399,5.8888 3.5,8.0312 3.9329,0.8694 6.7703,-3.5208 9.9063,-5.125 3.788,-5.1542 7.8518,-10.7416 7.5,-17.5 z"
         transform="matrix(0.96620249,0,0,0.96620249,1894.4103,1211.59)"
         id="path5651-6-3-7" />
      <path
         id="path5653-2-6-8"
         d="m 242.05,116.01 0.99,-0.02 -0.04,5.01 -5.07,-0.09 -0.09,-1.02 c 1.03,-0.42 2.32,-3.26 3.21,-2.05 1.3,2.66 0.87,-0.61 1,-1.83 z"
         inkscape:connector-curvature="0"
         style="fill:#000000;fill-opacity:1;stroke:none" />
      <path
         id="path5655-9-1-7"
         d="m 286.19,116.12 c 1.63,0.11 3.18,0.75 4.77,1.1 0.16,3.1 -3.39,4.33 -6,3.85 -0.34,-1.32 3.78,-1.33 1.03,-2.11 -1.87,0.13 -0.76,-2.38 0.2,-2.84 z"
         inkscape:connector-curvature="0"
         style="fill:#000000;fill-opacity:1;stroke:none" />
      <path
         id="path5657-5-8-3"
         d="m 292.12,119.22 c 1.28,-1.65 2.03,-0.89 2.41,0.85 0.54,2.39 3.5,4.71 0.93,6.8 0.76,8.39 2.65,16.68 2.6,25.15 0.87,8.25 -5.63,16.55 -14.04,17.18 -1.27,-0.48 -3.68,0.54 -4.13,-1.12 2.54,-0.65 5.06,-1.44 7.36,-2.72 3.28,-1.92 6.97,-3.94 8.73,-7.44 0.11,-13 -3.09,-25.75 -3.86,-38.7 z"
         inkscape:connector-curvature="0"
         style="fill:#000000;fill-opacity:1;stroke:none" />
      <path
         id="path5659-2-6-0"
         d="m 222.06,120.94 c 2.69,0.19 2.67,3.76 3.99,5.61 -1.36,-0.27 -2.5,0.21 -3.33,1.31 -1.09,0.99 -2.24,2.51 -3.88,1.63 1.31,-1.72 4.99,-2.96 3.24,-5.52 0,-0.76 -0.01,-2.27 -0.02,-3.03 z"
         inkscape:connector-curvature="0"
         style="fill:#000000;fill-opacity:1;stroke:none" />
      <path
         id="path5661-0-2-3"
         d="m 184.88,128.94 c -1.73,-0.22 -1.51,-5.67 1.13,-6.05 0.1,1.34 -0.05,2.65 -0.43,3.93 -0.17,0.53 -0.52,1.59 -0.7,2.12 z"
         inkscape:connector-curvature="0"
         style="fill:#000000;fill-opacity:1;stroke:none" />
      <path
         id="path5663-0-1-8"
         d="m 155.98,126.96 c 4.72,-0.16 5.24,6.77 2.15,9.18 2.19,-4.1 -3.03,-5.59 -2.15,-9.18 z"
         inkscape:connector-curvature="0"
         style="fill:#000000;fill-opacity:1;stroke:none" />
      <path
         id="path5665-3-4-2"
         d="m 267.26,127.24 c 3.29,-1.18 0.51,1.46 -0.51,2.52 -1.39,1.27 -1.01,3.91 1.3,3.49 -0.67,1.77 -2.36,1.96 -4.04,1.77 -2.03,-3.87 1.2,-5.7 3.25,-7.78 z"
         inkscape:connector-curvature="0"
         style="fill:#000000;fill-opacity:1;stroke:none" />
      <path
         inkscape:connector-curvature="0"
         style="fill:#000000;fill-opacity:1;stroke:none"
         d="m -1728.7812,-1119.8125 c -2.2874,0.445 -3.5295,2.2023 -3.25,4.5 -0.062,0.4347 -0.188,1.2944 -0.25,1.7187 -3.964,1.7285 -5.6865,6.0484 -8.75,8.6876 -0.8487,-4.9162 -2.8737,-10.0579 -7.5,-12.5626 0.093,0.7556 0.3027,2.2549 0.4062,3 1.9561,3.8605 4.0735,7.6507 5.7812,11.625 -2.3494,3.933 -6.4263,6.678 -9.5312,10.0313 -1.7284,1.273 -4.1163,3.5576 -6,1.1875 3.6535,-4.2538 8.2121,-8.0863 10.4062,-13.375 0.1863,-2.5771 -4.6759,-5.1482 -1.2812,-7.125 -2.1321,-0.8073 -3.9404,-2.2562 -6,-3.2188 -0.652,4.2228 3.0244,7.6748 5.1875,10.5313 -0.093,3.6121 -5.3761,4.2171 -7.1563,7.1875 -5.299,7.5243 -14.0269,11.7424 -19.8124,18.625 6.5307,-2.2459 12.5523,-6.5832 17.4374,-11.4062 0.9315,1.5317 0.6732,4.8389 3.2813,4.0937 5.9408,-3.4672 10.9488,-8.5803 14.3125,-14.5625 -0.062,6.1685 6.626,8.013 11.625,8.4062 1.5421,-3.9639 -2.8309,-4.4444 -4.0625,-7.125 4.5746,-1.9354 9.0745,-4.3453 14.1563,-4.5937 0.9935,-0.8487 1.9106,-1.7885 2.5937,-2.9063 -4.3262,0.021 -8.6425,-0.032 -12.9687,-0.1562 -1.5525,0 -4.6976,-0.021 -6.25,-0.031 3.5603,-4.585 11.4419,-4.3282 13.75,-9.9688 -1.8423,-1.273 -3.9723,-2.014 -6.125,-2.5625 z m -0.3126,2.2187 c 0.5917,-0.054 1.3257,0.2871 2.0626,1.2813 l -3.0313,1.25 c -0.5711,-1.2493 -0.017,-2.4408 0.9687,-2.5313 z m -3.75,13.6876 c 0.3312,-0.011 0.6663,-0.013 1,0 -1.4179,1.9664 -3.5411,3.4965 -3.4687,6.1874 -2.3598,-0.1552 -4.7409,-2.6087 -4.9375,-4.9374 1.4904,-0.2588 2.9991,-0.4505 4.4688,-0.8438 0.9702,-0.2484 1.9439,-0.3747 2.9374,-0.4062 z"
         transform="matrix(0.96620249,0,0,0.96620249,1894.4103,1211.59)"
         id="path5667-9-6-5" />
      <path
         id="path5669-1-2-2"
         d="m 144.77,131.11 c 2.3,-0.11 5.26,2.07 3.96,4.59 -0.76,2.54 -2.94,4.14 -5.45,4.7 0.03,1.25 0.23,2.49 0.34,3.74 l -1.02,0.19 c -0.43,-1.73 -0.65,-3.51 -0.88,-5.27 2.2,-2.21 3.32,-4.78 3.05,-7.95 z"
         inkscape:connector-curvature="0"
         style="fill:#000000;fill-opacity:1;stroke:none" />
      <path
         id="path5671-8-9-0"
         d="m 215.32,132.08 c 1.74,0.45 1.88,2.18 1.61,3.7 -2.29,0.74 -6.15,2.27 -6.06,-1.63 2.27,1.42 3.9,0.47 4.45,-2.07 z"
         inkscape:connector-curvature="0"
         style="fill:#000000;fill-opacity:1;stroke:none" />
      <path
         id="path5673-1-1-3"
         d="m 232.19,133.14 c 3.84,-1 -0.61,1.83 -0.17,3.65 3.94,-0.39 -0.06,3.79 -2.01,3.26 -0.42,-2.53 0.49,-5.03 2.18,-6.91 z"
         inkscape:connector-curvature="0"
         style="fill:#000000;fill-opacity:1;stroke:none" />
      <path
         id="path5675-9-5-7"
         d="m 256.18,137.14 c 4.15,-0.98 -1.59,2.5 -0.1,4.61 3.5,-0.22 0.53,4.72 -1.91,3.16 -1.93,-2.72 0.6,-5.48 2.01,-7.77 z"
         inkscape:connector-curvature="0"
         style="fill:#000000;fill-opacity:1;stroke:none" />
      <path
         id="path5677-5-0-2"
         d="m 271.39,144.05 c -0.6,-1.92 -4.24,-4.89 -0.7,-5.91 2.38,2.86 2.53,6.54 2.12,10.13 -0.55,-1.39 -0.81,-2.86 -1.42,-4.22 z"
         inkscape:connector-curvature="0"
         style="fill:#000000;fill-opacity:1;stroke:none" />
      <path
         id="path5679-3-3-9"
         d="m 193.21,144.28 c 1.6,-1.05 0.38,2.71 0.84,3.63 0.51,-0.21 1.55,-0.61 2.07,-0.81 -0.11,2.38 -2.46,3.66 -4.08,5.07 -1.06,-2.89 -0.04,-5.47 1.17,-7.89 z"
         inkscape:connector-curvature="0"
         style="fill:#000000;fill-opacity:1;stroke:none" />
      <path
         id="path5681-2-6-7"
         d="m 232.15,149.31 c 1.31,-0.85 1.13,1.87 1.74,2.59 -5.22,1.55 -7.98,8.09 -13.98,7.16 4.03,-2.99 9.11,-5.35 12.24,-9.75 z"
         inkscape:connector-curvature="0"
         style="fill:#000000;fill-opacity:1;stroke:none" />
      <path
         id="path5683-5-4-5"
         d="m 146.98,153.02 c 9.1,-3.59 3.86,4.83 0.31,5.09 0.31,-1.71 -0.17,-3.4 -0.31,-5.09 z"
         inkscape:connector-curvature="0"
         style="fill:#000000;fill-opacity:1;stroke:none" />
      <path
         id="path5685-2-9-3"
         d="m 161.16,153.11 c 2.88,-1.47 2.58,4.48 0.04,4.25 2.53,7.68 -1.74,3.92 -5.17,5.66 -0.07,-1.36 -0.07,-2.72 0.01,-4.07 1.36,-0.03 2.65,0.43 3.92,0.88 -0.04,-2.34 0.36,-4.58 1.2,-6.72 z"
         inkscape:connector-curvature="0"
         style="fill:#000000;fill-opacity:1;stroke:none" />
      <path
         id="path5687-5-2-4"
         d="m 209.24,154.25 c 1.75,-1.11 -0.08,1.84 -0.01,2.59 3.19,-0.2 0.29,2.71 -0.36,4.09 -3.41,-0.74 -1.43,-5.15 0.37,-6.68 z"
         inkscape:connector-curvature="0"
         style="fill:#000000;fill-opacity:1;stroke:none" />
      <path
         id="path5689-8-9-3"
         d="m 256.16,160.1 c 0.77,-0.61 2.38,-4.37 2.75,-2.21 0.36,2.04 0.99,4.04 1.13,6.13 -2.54,0.71 -5.02,-1.24 -3.88,-3.92 z"
         inkscape:connector-curvature="0"
         style="fill:#000000;fill-opacity:1;stroke:none" />
      <path
         id="path5691-6-3-2"
         d="m 279.52,167.15 c -1.8,-2.47 -0.21,-7.28 3.06,-6.96 0.52,1.42 1.19,2.77 2.45,3.69 -1.89,0.99 -3.78,2.02 -5.51,3.27 z"
         inkscape:connector-curvature="0"
         style="fill:#000000;fill-opacity:1;stroke:none" />
    </g>
    <g
       id="#2f2f30ff-7-4-1"
       style="fill:#000000;fill-opacity:1;stroke:none">
      <path
         id="path5694-7-4-1"
         d="m 236.97,107.86 c -0.38,-3.94 4.21,-2.87 6.31,-1.53 -1.02,2.91 -3.5,4.54 -6.51,3.21 0.94,0.02 5.09,-1.1 2.24,-1.53 -0.51,-0.04 -1.53,-0.12 -2.04,-0.15 z"
         inkscape:connector-curvature="0"
         style="fill:#000000;fill-opacity:1;stroke:none" />
    </g>
    <g
       id="#1f1f20ff-2-0-3"
       style="fill:#000000;fill-opacity:1;stroke:none">
      <path
         id="path5730-2-5-2"
         d="m 214.02,109.88 c -0.34,-1.22 0.39,-2.57 1.68,-2.73 0.74,1.64 2.57,3.1 1.83,5.09 0.08,2.15 1.92,3.9 2.5,5.98 0.04,1.19 0.09,2.38 0.14,3.58 -1.89,5.14 -9.04,7.4 -13.02,3.31 -1.97,3.14 -5.11,6.18 -9.09,5.87 -2.48,-0.44 -4.03,-2.58 -4.21,-5.01 0.22,-1.73 0.55,-3.44 0.88,-5.15 -2.49,0.14 -2.09,3.38 -2.65,5.18 -0.28,2.2 0.5,4.96 -1.77,6.31 -2.17,2.13 -5.64,-0.84 -5.43,-3.37 0.18,-0.53 0.53,-1.59 0.7,-2.12 0.33,1.67 1.98,4.6 3.74,2.51 2.36,-4.61 2.59,-11.8 7.68,-14.39 0.15,3.64 -1.51,7.22 -0.86,10.85 1.94,2.84 6.67,1.09 8.58,-1.06 2.49,-4.12 -0.3,-9.25 0.26,-13.74 0.5,0.29 1.5,0.87 2,1.16 0.6,3.54 0.37,7.4 2.32,10.55 2.62,2.24 6.16,0.76 8.67,-0.88 -0.32,-4.19 -3.3,-7.73 -3.95,-11.94 z"
         inkscape:connector-curvature="0"
         style="fill:#000000;fill-opacity:1;stroke:none" />
    </g>
    <g
       id="#303132ff-9-9-5"
       style="fill:#000000;fill-opacity:1;stroke:none">
      <path
         id="path5733-4-6-3"
         d="m 251.13,107.19 c 1.79,0.54 3.66,0.97 5.15,2.17 -1.74,2.41 -4.47,3 -7.31,2.72 -0.9,-2.35 3.94,0.11 2.79,-1.85 -2.15,0.19 -2.15,-2.15 -0.63,-3.04 z"
         inkscape:connector-curvature="0"
         style="fill:#000000;fill-opacity:1;stroke:none" />
    </g>
    <g
       id="#272727ff-1-3-5"
       style="fill:#000000;fill-opacity:1;stroke:none">
      <path
         id="path5888-9-4-1"
         d="m 254.22,121.19 c 3.33,-1.09 0.57,1.48 -0.47,2.56 -1.39,1.27 -1.01,3.92 1.3,3.5 -0.67,1.78 -2.37,1.96 -4.05,1.77 -0.55,-3.03 0.98,-5.9 3.22,-7.83 z"
         inkscape:connector-curvature="0"
         style="fill:#000000;fill-opacity:1;stroke:none" />
    </g>
    <g
       id="#2b2b2bff-6-2-2"
       style="fill:#000000;fill-opacity:1;stroke:none">
      <path
         id="path5918-9-8-2"
         d="m 242.2,126.34 c 1.38,-0.53 1.15,3.39 1.82,4.64 -3.53,1.64 -4.16,-3.15 -1.82,-4.64 z"
         inkscape:connector-curvature="0"
         style="fill:#000000;fill-opacity:1;stroke:none" />
      <path
         id="path5920-8-8-2"
         d="m 173.03,168.9 c 0.84,0.84 1.63,1.74 2.63,2.43 -0.51,1.56 -0.17,4.38 -2.61,3.68 -0.13,-2.04 -0.11,-4.08 -0.02,-6.11 z"
         inkscape:connector-curvature="0"
         style="fill:#000000;fill-opacity:1;stroke:none" />
    </g>
    <g
       id="#1d1d1dff-2-7-6"
       style="fill:#000000;fill-opacity:1;stroke:none">
      <path
         id="path5929-5-5-4"
         d="m 288.98,128.88 c 2.95,1.99 4.61,8.73 2.19,10.05 0.29,-3.64 -2.88,-6.39 -2.19,-10.05 z"
         inkscape:connector-curvature="0"
         style="fill:#000000;fill-opacity:1;stroke:none" />
    </g>
    <g
       id="#212120ff-5-8-0"
       style="fill:#000000;fill-opacity:1;stroke:none">
      <path
         id="path6019-4-1-7"
         d="m 149.29,139.73 c 0.18,0.31 0.56,0.94 0.75,1.25 -0.16,3.67 1.14,8.49 -3.04,10.18 -2.52,-1.43 -4.32,-3.87 -4.4,-6.83 l 1.02,-0.19 c 0.95,1.59 1.86,4.22 4.18,3.82 0.79,-2.69 1.19,-5.46 1.49,-8.23 z"
         inkscape:connector-curvature="0"
         style="fill:#000000;fill-opacity:1;stroke:none" />
    </g>
    <g
       id="#2d2c2cff-9-2-0"
       style="fill:#000000;fill-opacity:1;stroke:none">
      <path
         id="path6076-1-5-3"
         d="m 180.21,155.28 c 1.6,-1.05 0.38,2.71 0.84,3.63 0.52,-0.2 1.56,-0.6 2.08,-0.81 -0.49,2.48 -1.89,4.77 -4.08,6.08 -0.4,-3.04 -0.45,-6.23 1.16,-8.9 z"
         inkscape:connector-curvature="0"
         style="fill:#000000;fill-opacity:1;stroke:none" />
    </g>
  </g>
  <g
     id="g4280-0-4"
     style="fill:#000000"
     transform="matrix(0.57444587,0,0,0.60126199,1523.7109,1139.5555)">
    <g
       id="#0a0908ff-2-7-8-0"
       transform="translate(-2478.1216,-1899.0329)"
       style="fill:#000000">
      <path
         id="path39-7-2-3-0"
         d="m 694.58,331.59 c 8.75,-3.33 17.05,-8.29 26.48,-9.46 -0.74,2.04 -1.16,4.53 -3.18,5.74 -3.75,2.36 -8.21,3.1 -12.28,4.71 -12.49,4.12 -24.37,9.82 -36.72,14.32 -6.76,2.31 -12.83,6.35 -19.81,8.03 0.6,-2.51 1.04,-5.16 2.46,-7.37 1.01,-0.73 2.17,-1.19 3.33,-1.65 13.23,-4.78 26.66,-9.04 39.72,-14.32 z"
         inkscape:connector-curvature="0"
         style="fill:#000000" />
      <path
         id="path41-6-2-9-5"
         d="m 99.61,414.11 c 1.45,-8.73 3.35,-18.5 10.49,-24.47 3.44,0.31 5.74,3.44 6.69,6.51 0.02,2.24 -1.11,4.29 -1.79,6.38 -2,-1.42 -3.95,-2.9 -5.9,-4.36 -4.95,7.68 -6.87,16.87 -8.43,25.74 2.59,2.92 7.03,3.74 9.39,7.04 2.82,3.09 1.67,8.24 -1.38,10.72 -4.19,2.78 -9.92,1.9 -13.87,5.12 -2.27,2.24 -0.41,5.48 0.26,8.02 3.15,8 3.93,16.67 4.25,25.19 -0.03,5.23 0.28,10.81 -2.31,15.57 -0.79,-5.11 -0.04,-10.33 -1.06,-15.4 -0.9,-4.91 -0.77,-9.98 -2.32,-14.76 -2.02,-6.95 -4.42,-14.3 -2.71,-21.57 0.99,-4.49 5.94,-5.68 9.2,-8.06 0,-1.35 -0.67,-1.92 -1.99,-1.71 -1.97,1.04 -3.6,2.59 -5.38,3.92 -0.62,-5.2 2.98,-9.26 4.33,-13.97 -1.32,-5.09 -2.79,-10.24 -5.12,-14.96 -1.85,-3.78 -7.18,-1.2 -9.59,-4.42 -5.27,-3.7 1.43,-13.39 6.85,-9.87 6.9,3.86 7.79,12.61 10.39,19.34 z"
         inkscape:connector-curvature="0"
         style="fill:#000000" />
    </g>
    <g
       id="#090909ff-6-8-3-3"
       transform="translate(-2478.1216,-1899.0329)"
       style="fill:#000000">
      <path
         id="path178-0-2-9-1"
         d="m 163.23,158.24 c 0.48,-2.03 1.86,-3.57 3.53,-4.74 0.78,1.84 1.58,3.68 2.08,5.62 0.36,1.45 0.7,2.92 0.99,4.4 0.71,4.6 1.26,9.27 2.78,13.7 4.29,12.68 4.81,26.18 7.72,39.17 0.99,6.96 1.58,13.97 3.17,20.84 1.96,11.5 2.32,23.19 3.79,34.76 0.57,5.03 2.07,9.93 2.24,15.01 0.22,6.34 0.08,12.67 0.23,19.01 0.14,5.46 1.45,10.8 1.73,16.25 0.49,9.85 0.14,19.76 1.59,29.54 0.74,5.03 0.43,10.13 0.84,15.19 1.61,22.35 3.18,44.71 4.96,67.05 6.79,-3.74 14.08,-6.37 21.32,-9.08 -6.85,-9.93 -9.85,-22.99 -5.87,-34.6 2.38,-6.99 9.18,-11.21 16.03,-12.91 6.07,-1.85 12.35,0.58 17.71,3.39 9.05,4.96 17.91,10.51 25.35,17.74 3.41,3.42 6.84,8.12 5.45,13.23 -1.28,5.4 -3.62,10.47 -5.44,15.7 -0.7,2.39 -3.47,2.72 -5.49,3.36 -7.79,1.8 -15.04,5.33 -22.83,7.08 -2.37,0.86 -5.75,0.64 -7.14,3.04 -0.83,3.53 -0.67,7.2 -1.09,10.79 -0.61,-0.05 -1.82,-0.15 -2.43,-0.2 -1.4,-2.67 -2.89,-5.28 -4.49,-7.82 -5.61,2.02 -11.48,3.5 -16.61,6.63 -4.22,2.53 -8.87,4.17 -13.5,5.73 -0.26,3.98 0.25,7.94 0.55,11.9 0.52,7.48 -1.58,15.03 0.16,22.44 1.34,5.59 2.8,11.27 5.67,16.29 2.57,4.4 7.63,6.45 12.38,7.53 10.18,2.3 20.77,-0.31 30.03,-4.67 9.53,-4.61 16.63,-12.68 24.9,-19.07 5.16,-3.92 8.15,-11.56 15.51,-11.7 1.01,4.49 -1.1,8.74 -1.46,13.15 -0.1,5.72 2.84,11.68 8.09,14.29 7.21,3.8 15.82,5.63 23.81,3.47 10.35,-2.69 20.25,-7.8 27.68,-15.59 5.92,-5.94 9.92,-14.31 17.97,-17.75 0.6,5.22 -3.11,10.01 -1.57,15.22 1.47,5.83 5.37,11.39 11.01,13.79 5.51,2.24 11.67,0.46 16.72,-2.15 7.56,-4.08 13.68,-10.58 17.98,-17.97 2.66,-4.55 4.15,-10.61 9.65,-12.57 1.89,5.08 -1.21,10.45 0.8,15.49 1.79,5.86 6.04,11.2 12.07,13.01 7.9,2.59 16.29,-0.33 23.21,-4.24 2.8,-1.71 6.39,-3.08 7.64,-6.39 1.42,-4.04 1.67,-8.38 1.84,-12.62 0.2,-11.53 0.16,-23.15 -1.99,-34.52 -1.08,-5.69 -0.55,-11.49 -0.95,-17.22 -1.98,-21.05 -2.2,-42.24 -4.68,-63.24 -0.66,-8.32 0.27,-16.72 -1.15,-24.98 -1.66,-8.58 -0.86,-17.35 -1.59,-26.02 -0.8,-8.89 0.7,-18.14 -2.47,-26.69 -0.84,-2.69 -2.45,-5.35 -1.99,-8.26 0.78,-4.74 3.17,-8.97 5,-13.36 1.05,-2.33 1.82,-4.83 3.37,-6.89 2.32,0.3 2.6,3.02 3.49,4.75 2.39,7.11 5.67,13.88 7.93,21.04 1.75,5.42 3.64,10.81 5.96,16.02 2.24,5.21 4.75,10.82 3.45,16.63 -4.32,-1.82 -7.01,-5.84 -10.61,-8.64 -1.51,9.51 1.36,18.86 1.4,28.35 0.04,9.02 1.86,17.91 1.86,26.94 1.34,9.24 1.83,18.57 1.89,27.9 1.21,11.38 2.09,22.81 2.1,34.26 0.37,5.66 1.52,11.27 1.11,16.97 -0.09,6.91 1.76,13.76 0.72,20.67 -1.09,7.17 -0.93,14.53 -2.92,21.54 -2.31,8.6 -4.23,17.53 -8.95,25.21 -4.55,7.52 -10.83,14.28 -18.83,18.12 -7.71,3.64 -17.36,2.16 -23.72,-3.49 -5.34,-4.2 -8.13,-10.52 -11.55,-16.19 -1.39,8.29 -3.26,16.69 -2.2,25.14 0.56,7.17 3.32,13.92 6.57,20.26 3.73,7.19 9,13.66 15.73,18.23 10.28,6.97 22.6,10.21 34.75,11.97 7.03,1.18 13.9,-1.17 20.86,-1.73 8.26,-0.8 16.66,-1.31 24.58,-4.01 20.22,-6.84 40.08,-15.32 57.89,-27.22 5.89,-4.08 11.89,-8.02 17.6,-12.35 5.04,-4.16 10.96,-8.21 13.38,-14.53 1,-6.28 -0.94,-12.78 -4.12,-18.18 -7.65,3.25 -16.08,2.03 -24.14,1.95 -8.04,-0.41 -16.81,-2.05 -22.69,-7.99 -4.38,-4.38 -5.37,-11.04 -4.17,-16.91 1.33,-6.37 2.76,-13.01 6.84,-18.27 3.17,-4.11 6.63,-8.04 10.51,-11.5 5.35,-4.82 13.59,-5.55 20,-2.49 5.85,2.79 10.39,7.66 14.3,12.72 4.21,5.25 6.01,12.04 10.76,16.92 10.82,-4.39 22.23,-11.36 25.8,-23.21 2.35,-13.82 -0.45,-27.82 -0.49,-41.7 -1.09,-7.52 -0.24,-15.14 -1.27,-22.65 -1.41,-12.07 -1.68,-24.26 -3.49,-36.29 -0.79,-6.08 -0.73,-12.27 -2.19,-18.26 -2.67,-11.12 -3.84,-22.87 -1.33,-34.14 0.91,-3.95 2.19,-7.94 4.88,-11.07 1.21,2.91 2.11,5.95 2.73,9.04 1.58,7.48 4.23,14.74 5.12,22.36 0.38,2.98 0.92,5.94 1.51,8.9 2.56,12.73 2.4,25.84 5.21,38.54 1.54,6.8 0.46,13.81 1.42,20.67 0.98,6.62 -0.46,13.29 0.3,19.93 0.62,6.04 0.01,12.14 0.82,18.18 1.15,8.23 -0.2,16.57 0.99,24.8 1.1,7.42 0.29,15 1.84,22.38 1.84,9.88 1.47,20.54 6.43,29.58 3.47,6.29 10.96,9.12 17.88,8.61 18.79,-0.91 36.27,-11.14 48.27,-25.31 3.71,-4.23 7.73,-9.34 13.77,-9.9 2.8,1.94 1.04,5.6 0.72,8.29 -1.35,5.01 0.76,10.09 3.21,14.4 1.57,2.66 4.05,5.08 7.24,5.56 6.52,0.87 13.13,-0.17 19.41,-1.98 10.7,-2.78 21.55,-5.5 31.47,-10.51 4.72,-2.55 9.38,-5.26 13.95,-8.07 2.14,-1.51 5.26,-3.86 3.98,-6.84 -1.85,-5.49 -7.78,-7.78 -12.75,-9.61 -12,-5.02 -25.29,-0.07 -37.6,-3.39 -6.48,-2.02 -10.48,-8.36 -12.36,-14.54 -1.79,-5.64 -0.86,-11.69 1.09,-17.15 3.2,-9.68 8.04,-19.54 16.62,-25.52 5.32,-3.81 12.51,-4.06 18.4,-1.43 9.41,4.19 17.7,11.08 23.2,19.83 5.8,9.54 10.26,20.26 10.88,31.53 1.13,8.59 1.5,17.47 -0.69,25.94 -4.16,13.45 -13.07,25.28 -24.66,33.24 -10.39,7.12 -22.38,11.83 -34.73,14.19 -9.69,1.41 -21.13,1.3 -28.38,-6.31 -5.7,-5.52 -6.28,-13.78 -7.26,-21.18 -3.88,1.02 -6.03,4.59 -8.6,7.34 -9.04,10.07 -18.75,20.71 -32.05,24.92 -10.14,3.95 -22.15,3.14 -31.33,-2.84 -7.47,-4.91 -11.88,-13.24 -14.27,-21.64 -4.19,-14.92 -3.83,-30.56 -4.15,-45.91 -1.41,2.14 -2.13,4.62 -2.89,7.04 -3.52,10.51 -11.16,19.52 -21.03,24.6 -1.57,1.08 -4.19,1.57 -4.34,3.85 -1.09,6.7 -0.47,13.59 -1.94,20.24 -1.46,6.38 -3.21,12.75 -5.99,18.7 -2.89,6.43 -9.05,10.33 -13.82,15.24 -24.67,21.88 -54.38,38.07 -86.15,46.93 -12.54,3.98 -25.92,4.21 -38.92,3.11 -12.56,-1.5 -25.57,-4.85 -35.28,-13.41 -11.91,-10.36 -20.56,-25.11 -21.93,-41 -1.17,-7.59 -3.23,-15.25 -2.19,-22.99 0.76,-5.35 1.46,-10.73 1.28,-16.14 -3.79,4.33 -6.49,9.65 -11.02,13.31 -5.74,4.15 -13.32,5.03 -20.16,3.85 -6.03,-1.06 -12.28,-4.23 -14.91,-10.05 -2.3,-5.13 -3.06,-10.76 -4.79,-16.08 -7,7.14 -12.59,15.67 -20.59,21.83 -8.08,6.76 -18.9,10.92 -29.49,8.86 -5.68,-1.2 -12.25,-1.8 -16.31,-6.46 -4.28,-4.95 -6.41,-11.55 -6.49,-18.04 -0.32,-1.81 0.42,-4.92 -2.39,-4.55 -4.23,3.95 -7.45,8.86 -11.64,12.86 -8.56,8.48 -18.31,16.53 -30.1,19.9 -9.59,2.31 -20.09,1.65 -29.13,-2.43 -6.6,-2.99 -10.57,-9.54 -13.09,-16.05 -6.87,-18.25 -6.49,-38.07 -7.3,-57.27 -5.32,2.06 -9.59,5.97 -14.58,8.63 -5.5,2.95 -9.41,7.94 -14.31,11.69 -6.13,4.82 -11.8,10.21 -17.09,15.95 -6.02,6.31 -11.25,13.36 -17.82,19.15 -8.83,7.83 -15.33,18.11 -25.22,24.76 -6.14,3.93 -13.34,7.12 -20.77,6.56 -9.33,-1.15 -16.33,-8.39 -21.54,-15.66 -6.5,-9.05 -9.04,-20.57 -7.37,-31.54 1.97,-16.94 9.58,-32.38 15.92,-47.98 1.68,-3.9 3.42,-8.1 7.23,-10.4 0.23,5.27 -1.98,10.15 -3.43,15.1 -4.42,14.96 -11.81,29.29 -12.45,45.16 -0.34,6.4 0.07,13.34 3.99,18.7 3.88,5.48 11.28,7.32 17.64,6.27 7.75,-1.24 14.21,-6.06 20.32,-10.66 22.77,-17.1 37.62,-42.53 60.73,-59.25 6.63,-4.76 12.79,-10.28 20.12,-13.96 2.66,-1.48 6.04,-2.58 7.36,-5.58 0.7,-2.29 0.16,-4.71 0.04,-7.04 -0.84,-9.46 -0.12,-18.97 -0.48,-28.44 -0.17,-5.69 -1.65,-11.26 -1.45,-16.96 0.1,-4.27 0.28,-8.54 -0.02,-12.79 -0.51,-6.56 0.15,-13.17 -0.87,-19.69 -1.34,-9.47 -0.59,-19.08 -1.81,-28.56 -0.54,-4.38 -0.07,-8.81 -0.76,-13.18 -1.52,-9.17 -0.54,-18.56 -2.32,-27.7 -1.5,-7.27 -1.07,-14.78 -2.71,-22.02 -3.69,-16.13 -3.94,-32.85 -8.01,-48.9 -1.97,-7.92 -2.11,-16.17 -4.32,-24.03 -1.53,-5.64 -3.61,-11.24 -3.61,-17.15 -0.24,-5.56 2.51,-10.57 4.07,-15.76 m 59.03,243.33 c 0.61,7.13 4.69,13.22 8.12,19.29 7.43,-2.16 15.31,-3.83 21.67,-8.47 -8.74,-6.1 -18.8,-11.33 -29.79,-10.82 m 547.6,32.26 c -2.74,3.26 0.53,7.33 3.86,8.38 7.45,2.64 15.56,2.62 23.38,2.37 -4.09,-4.12 -7.73,-8.9 -12.79,-11.89 -4.45,-2.17 -10.61,-2.29 -14.45,1.14 m -210.21,39.86 c -2.48,3.31 0.99,7.55 4.43,8.21 6.88,1.48 14.14,1.68 20.99,-0.12 -3.84,-4.48 -7.57,-10.39 -14.05,-10.88 -3.85,-0.5 -8.99,-1.04 -11.37,2.79 z"
         inkscape:connector-curvature="0"
         style="fill:#000000" />
      <path
         id="path180-1-8-6-0"
         d="m 482.35,270.24 c 1.78,-4.57 3.05,-9.4 5.7,-13.57 1.74,0.83 2.13,2.85 2.92,4.44 1.96,4.91 4.63,9.51 6.35,14.52 2.39,6.88 4.45,13.89 7.34,20.59 2.52,6.03 5.41,12.35 4.42,19.07 -4.16,-2.49 -7.18,-6.43 -11.33,-8.93 0.44,8.55 0.78,17.11 1.54,25.64 -0.03,6.71 0.16,13.44 1.59,20.02 2.46,14.58 0.64,29.48 2.67,44.1 2.57,13.83 1.92,27.99 3.32,41.95 0.72,5.98 -0.04,12.06 1.12,18 1.42,7.76 1.8,15.73 0.72,23.56 -0.92,6.58 -0.61,13.31 -2.22,19.79 -1.57,6.59 -3.15,13.21 -5.48,19.6 -1.74,4.49 -2.29,9.81 -6.3,13.03 -1.4,-4.29 0.32,-8.68 0.1,-13.03 -0.3,-7.39 1.54,-14.64 1.38,-22.02 -0.01,-6.02 -0.97,-11.98 -1.36,-17.97 -0.22,-14.71 -2.35,-29.3 -2.47,-44.01 -0.78,-13.35 -2.54,-26.65 -2.6,-40.04 0.13,-5.96 -1.4,-11.75 -2.07,-17.63 -0.89,-10.43 -0.61,-20.93 -1.59,-31.36 -1,-7.05 -0.68,-14.19 -1.55,-21.25 -1.48,-11.52 -0.61,-23.17 -1.72,-34.72 -0.43,-3.85 -2.56,-7.24 -3.16,-11.04 0.35,-3.05 1.67,-5.87 2.68,-8.74 z"
         inkscape:connector-curvature="0"
         style="fill:#000000" />
      <path
         id="path182-6-9-7-6"
         d="m 328.51,385.99 c 3.61,-9.61 8.86,-18.53 13.47,-27.69 10.62,1.98 17.59,10.92 26.5,16.17 1.91,1.44 4.93,2.71 4.77,5.55 -0.25,7.14 -4.56,13.22 -8.08,19.16 -1.84,2.82 -3.11,6.09 -5.55,8.47 -2.47,0.41 -4.33,-1.82 -6.37,-2.85 -6.6,-3.91 -11.93,-9.62 -18.67,-13.3 -2.24,-1.46 -5.51,-2.56 -6.07,-5.51 z"
         inkscape:connector-curvature="0"
         style="fill:#000000" />
      <path
         id="path184-5-0-9-7"
         d="m 564.25,402.15 c 6.76,2.51 12.79,6.67 18.14,11.45 1.2,1.29 2.88,2.53 3.15,4.38 -0.79,2.85 -2.26,5.45 -3.37,8.18 -1.6,3.52 -3.07,7.43 -6.36,9.73 -6.77,-3.72 -12.39,-9.43 -19.66,-12.37 -2.33,5.05 -4.48,10.48 -8.99,14.04 -6.11,-5.7 -13.22,-10.13 -20.17,-14.71 2.98,-4.94 4.77,-10.44 7.32,-15.58 0.84,-1.4 2.17,-4.1 4.17,-2.75 6.38,3.69 13.02,7.16 18.41,12.28 2.88,-4.66 5.03,-9.71 7.36,-14.65 z"
         inkscape:connector-curvature="0"
         style="fill:#000000" />
      <path
         id="path186-7-7-9-5"
         d="m 362.52,425.11 c 3.39,-7.39 6.31,-15.16 11.48,-21.55 10.31,3.05 17.71,11.21 26.41,17.04 2.03,1.48 4.91,3.29 4.23,6.27 -1.19,5.69 -3.52,11.16 -6.86,15.93 -2.57,3.7 -4.32,7.99 -7.63,11.13 -4.37,-3.38 -9.28,-6 -13.61,-9.45 -4.82,-3.73 -9.61,-7.68 -15.4,-9.84 -3.61,7.47 -6.76,15.37 -12.45,21.57 -8.55,-6.92 -17.35,-13.6 -27.05,-18.86 -1.33,-1.04 -4.01,-2.07 -3.17,-4.18 2.81,-7.98 8.02,-14.84 10.98,-22.76 0.79,-1.91 1.93,-4.5 4.45,-4.18 3.12,0.78 5.77,2.75 8.47,4.43 4.73,3.22 9.75,6.09 13.97,10 1.85,1.75 3.92,3.25 6.18,4.45 z"
         inkscape:connector-curvature="0"
         style="fill:#000000" />
      <path
         id="path188-5-8-7-0"
         d="m 874.49,558.5 c 4.5,-3.48 7.47,-8.59 12.35,-11.63 -6.27,6.39 -11.41,13.94 -18.68,19.29 -10.54,8.4 -19.6,18.52 -30.44,26.55 -26.65,19.37 -53.67,38.81 -84.06,51.94 -15.75,6.74 -31.15,14.51 -47.66,19.28 -16.3,4.86 -33.03,8.02 -49.43,12.47 -8.14,2.26 -16.68,1.87 -24.95,3.35 -9.09,1.83 -18.27,3.72 -27.59,3.49 -6.72,-0.31 -13.36,1.01 -20.06,1.09 -10.99,0.26 -21.99,-0.02 -32.98,0.15 -6.68,0.04 -13.4,0.47 -20.03,-0.54 -9.93,-1.57 -20.07,-0.52 -30,-2.07 -9.44,-1.34 -19,-1.59 -28.4,-3.2 -12.07,-1.68 -24.23,-2.83 -36.17,-5.34 -12.4,-2.25 -25.01,-3.44 -37.24,-6.58 -5.36,-1.43 -10.99,-1.3 -16.35,-2.72 -12.31,-3.25 -25.12,-4.13 -37.36,-7.64 -7.88,-2.24 -15.8,-4.55 -24,-5.28 -7.09,17.14 -19.59,31.35 -27.04,48.32 -3.15,6.85 -3.67,14.97 -0.89,22.03 1.45,3.63 4.45,6.27 6.61,9.46 -6.46,-3.11 -13.16,-6.85 -16.61,-13.46 -5.07,-8.06 -2.72,-18.09 0.5,-26.37 4.06,-11 8.2,-22.01 13.74,-32.37 2.02,-3.65 3.51,-7.58 4.38,-11.66 -2.19,-0.42 -4.56,-1.99 -6.73,-0.74 -3.38,1.62 -6.38,4.01 -9.99,5.15 -7.05,2.21 -13.8,5.35 -20.99,7.14 -17.71,4.72 -36.15,5.99 -54.42,5.78 -16.63,0.2 -33.21,-2 -49.38,-5.76 -11.3,-1.12 -22.19,-4.42 -33.27,-6.73 -8.93,-1.23 -17.68,-3.48 -26.59,-4.83 -19.56,-4.46 -39.74,-8.52 -59.87,-6.07 -9.45,2.31 -19.93,2.81 -27.88,9.01 -3.11,2.37 -6.32,4.71 -10.07,5.99 11.67,-14.81 27.5,-26.12 44.92,-33.17 8.52,-3.43 17.25,-6.33 26.05,-8.97 9.46,-2.92 19.46,-3.12 29.16,-4.86 11.92,-0.68 23.84,-2.51 35.8,-1.38 12.6,1.83 25.43,-0.04 38.04,1.72 9.71,1.67 19.63,1.52 29.33,3.3 10.15,0.96 20.14,3.11 30.31,3.95 11.26,0.89 22.1,4.25 33.32,5.39 12.18,2.2 24.14,5.6 36.49,6.84 0.07,-7.06 -0.75,-14.22 -3.29,-20.85 -2.1,-5.51 -5.47,-10.4 -8.98,-15.09 -2.84,-3.83 -7.15,-6.19 -10.09,-9.93 4.95,3.03 9.61,6.52 14.7,9.34 11.74,6.81 19.89,18.4 24.9,30.8 4.92,-1.9 8.87,-5.46 13.29,-8.21 -3.21,4.11 -6.93,7.78 -10.85,11.2 -2.01,1.32 -1.23,3.96 -1.44,5.98 11.62,2.4 23.47,3.49 34.98,6.42 15.19,3.5 30.87,4.25 46,8.07 6.61,1.76 13.56,1.21 20.18,2.89 13.76,3.21 28.03,3.12 41.86,5.9 9.62,2.09 19.58,1.21 29.25,2.96 11.4,2.2 23.13,1.14 34.58,3.06 9.81,0.59 19.66,0.73 29.49,0.94 8,0.64 16.06,1.29 24.07,0.26 10.58,-1.56 21.32,-0.66 31.96,-1.37 10.88,-1.61 21.96,-1.22 32.78,-3.32 5.89,-1.1 11.95,-1 17.8,-2.36 11.36,-2.46 23.02,-3.5 34.19,-6.83 29.68,-8.55 59.86,-16.75 86.98,-31.96 21.06,-10.98 41.35,-23.46 60.62,-37.35 8.89,-6.34 16.52,-14.21 25.15,-20.87 M 108.9,622.57 c -13.12,0.22 -26.03,2.94 -38.94,5.08 -2.2,0.33 -4.33,0.97 -6.37,1.86 10.6,0.57 21.3,0.3 31.81,2.05 10.03,1.65 20.28,1.65 30.2,4.02 15.94,3.51 32.33,4.29 48.29,7.73 5.7,1.26 11.57,0.73 17.33,1.54 17.38,3.41 35.19,2.21 52.79,2.35 11.5,-1.25 22.98,-2.82 34.35,-4.97 -6,-1.96 -12.4,-2.24 -18.43,-4.14 -10.68,-3.2 -21.78,-4.3 -32.71,-6.27 -14.24,-3.55 -28.99,-3.93 -43.35,-6.79 -14.5,-2.25 -29.21,-2.77 -43.86,-2.85 -10.37,-0.01 -20.78,-0.94 -31.11,0.39 z"
         inkscape:connector-curvature="0"
         style="fill:#000000" />
      <path
         id="path190-4-1-6-0"
         d="m 726.53,550.06 c 6.35,1.62 11.81,5.47 16.76,9.63 1.74,1.59 3.61,3.26 4.45,5.54 -0.03,1.5 -0.73,2.87 -1.26,4.26 -2.25,5 -4.14,10.43 -8.43,14.12 -6.35,-4.49 -12.41,-9.53 -19.59,-12.65 -1.88,5.13 -4.58,9.9 -7.74,14.35 -6.9,-2.57 -11.46,-8.7 -17.81,-12.19 -1.23,-0.9 -3.71,-1.95 -2.79,-3.86 2.25,-5.09 4.47,-10.21 7.11,-15.1 0.83,-0.99 1.68,-3.4 3.33,-2.53 6.49,3.85 13.17,7.5 18.92,12.46 1.71,-4.98 4.2,-9.62 7.05,-14.03 z"
         inkscape:connector-curvature="0"
         style="fill:#000000" />
    </g>
    <g
       id="#090808ff-3-5-9-4"
       transform="translate(-2478.1216,-1899.0329)"
       style="fill:#000000">
      <path
         id="path332-3-8-3-5"
         d="m 377.29,291.23 c 6.5,-2.26 12.82,-5.21 19.66,-6.35 -0.89,2.88 -1.51,6.12 -3.84,8.25 -2.52,2.28 -5.95,2.99 -9.11,3.93 -4.01,1.06 -7.79,2.75 -11.63,4.28 -21.43,8.06 -42.84,16.23 -63.93,25.14 -5.88,2.52 -11.5,5.78 -17.82,7.1 0.98,-3.81 1.27,-8.05 3.58,-11.35 2.6,-1.86 5.97,-2.03 8.92,-3.1 10.29,-3.49 20.28,-7.77 30.45,-11.6 14.51,-5.59 29.11,-10.96 43.72,-16.3 z"
         inkscape:connector-curvature="0"
         style="fill:#000000" />
    </g>
    <g
       id="#0a0909ff-7-6-5-4"
       transform="translate(-2478.1216,-1899.0329)"
       style="fill:#000000">
      <path
         id="path335-4-1-7-9"
         d="m 555.79,311.73 c 2.52,-6.5 5.06,-13.12 9.13,-18.84 -2.17,12.65 -8.91,24.79 -6.63,37.97 -0.02,3.35 4.44,6.15 7.12,3.67 2.54,-2.25 3.4,-5.89 6.29,-7.85 -0.07,6.33 -1.63,13.18 -6.3,17.73 -2.9,2.89 -9.16,3.67 -10.92,-0.82 -4.33,-10.19 -2.29,-21.78 1.31,-31.86 z"
         inkscape:connector-curvature="0"
         style="fill:#000000" />
      <path
         id="path337-3-2-6-5"
         d="m 250.86,324.65 c 2.27,-10.14 5.23,-20.69 11.95,-28.83 -0.79,5.06 -3.2,9.64 -4.5,14.56 -2.1,7.59 -3.46,15.65 -2.06,23.49 0.21,2.53 2.99,4.29 5.4,3.84 3.49,-2.16 5.1,-6.23 8.16,-8.89 -0.89,5.32 -2.62,10.48 -4.46,15.54 -1.95,5.28 -10.4,6.78 -13.44,1.69 -3.59,-6.53 -2.27,-14.4 -1.05,-21.4 z"
         inkscape:connector-curvature="0"
         style="fill:#000000" />
      <path
         id="path339-8-4-6-6"
         d="m 419.02,362.03 c 2.99,-3.12 8.37,-4.85 12.17,-2.18 2.98,4.01 3.16,9.53 1.79,14.18 -2.22,6.7 -6.84,12.26 -11.82,17.12 -3.09,2.95 -6.22,6.18 -10.46,7.39 5.45,-6.88 12.48,-12.84 15.48,-21.37 0.67,-2.13 1.7,-5.29 -0.99,-6.45 -3.17,-1.06 -6.43,0.98 -9.58,1.45 0.8,-3.46 1.31,-7.18 3.41,-10.14 z"
         inkscape:connector-curvature="0"
         style="fill:#000000" />
      <path
         id="path341-0-2-5-4"
         d="m 713.54,427.61 c 3.28,-2.54 8.5,-2.8 11.41,0.44 2.12,2.09 1.64,5.27 1.45,7.95 -0.83,8.43 -5.45,16.14 -11.73,21.69 -3.66,3.15 -7.14,6.8 -11.77,8.51 5.7,-7.44 13.17,-13.75 16.93,-22.55 1.1,-2.15 0.34,-5.66 -2.31,-6.14 -3.2,-0.55 -6.28,0.89 -9.38,1.42 1.06,-4 1.65,-8.84 5.4,-11.32 z"
         inkscape:connector-curvature="0"
         style="fill:#000000" />
      <path
         id="path343-8-5-8-8"
         d="m 475.95,540.02 c 3.16,-1.04 7.53,-1.87 9.83,1.24 2.17,1.97 1.94,5.09 1.91,7.77 -0.03,6.73 -4.36,12.33 -8.13,17.53 -4.3,5.22 -8.94,11 -15.75,12.84 5.3,-6.84 11.96,-12.71 16.06,-20.44 1.14,-2.65 1.72,-6.9 -1.35,-8.47 -3.26,-0.68 -6.42,1.13 -9.56,1.78 0.65,-4.7 2.15,-10.28 6.99,-12.25 z"
         inkscape:connector-curvature="0"
         style="fill:#000000" />
      <path
         id="path345-8-8-2-2"
         d="m 375.45,554.26 c 0.4,-4.54 2.12,-9.1 6.26,-11.48 2.82,5.73 -0.63,11.54 -3.48,16.47 -1.64,2.61 -4.04,5.31 -7.35,5.43 -4.26,0.33 -7.3,-3.26 -10.79,-5.09 -3.41,1.89 -6.99,4.39 -11.09,3.8 -7.1,-0.88 -12.9,-5.85 -19.98,-6.76 -4.18,-0.47 -8.25,0.9 -12.19,2.11 -8.67,2.73 -16.73,7.03 -24.64,11.44 -4.87,2.7 -9.64,5.91 -15.2,6.98 -4.45,0.75 -9,0.4 -13.45,-0.13 5.08,-3.73 11.52,-4.29 17.36,-6.16 7.41,-2.08 13.58,-6.88 19.91,-11.04 8.01,-5.5 16.5,-10.67 26,-13.09 6.95,-1.55 14.76,-0.49 20.51,3.92 2.85,2.22 6.8,3.72 10.23,1.82 4.32,-2.57 6.83,-7.95 12.3,-8.54 -0.98,2.44 -2.12,4.82 -3.23,7.22 2.72,1.58 5.7,2.66 8.83,3.1 z"
         inkscape:connector-curvature="0"
         style="fill:#000000" />
    </g>
    <g
       id="#090908ff-0-6-5-1"
       transform="translate(-2478.1216,-1899.0329)"
       style="fill:#000000">
      <path
         id="path348-6-2-4-6"
         d="m 725.35,347.35 c 1.51,-4.05 4.36,-8.19 8.87,-9.11 3.51,-1.22 5.89,2.48 7.5,5.01 2.2,3.52 0.51,7.62 -1.21,10.93 -3.15,-1.53 -5.28,-4.94 -9.02,-5.11 -4.25,8.45 -7.2,17.62 -8.16,27.06 -0.4,4.83 -3.71,8.63 -5.23,13.1 -5.8,12.21 -16.78,21.29 -28.69,27.26 -6.96,3.64 -14.46,6.09 -21.51,9.52 -3.2,1.54 -6.63,2.58 -10.16,2.95 2.06,-3.09 5.26,-5.07 8.54,-6.66 13.14,-6.27 24.57,-15.41 36.75,-23.26 4.91,-3.28 10.44,-6.6 12.85,-12.27 1.75,-3.69 -0.71,-7.4 -1.64,-10.94 -1.93,-5.28 -2.6,-11.31 -6.33,-15.73 -1.92,-2.24 -5.13,1.06 -7.33,-0.68 -2.29,-1.68 -4.45,-3.6 -6.12,-5.9 -0.26,-3.7 2.01,-7.07 4.37,-9.72 1.9,-2.9 5.48,-0.56 7.72,0.68 8.99,5.75 10.74,17.17 13.2,26.7 1.98,-7.91 2.85,-16.12 5.6,-23.83 z"
         inkscape:connector-curvature="0"
         style="fill:#000000" />
      <path
         id="path350-8-6-4-8"
         d="m 166.71,505.69 c 0.97,-2.24 2.28,-4.34 4.08,-6.01 -0.52,2.65 -1.38,5.22 -2.37,7.73 -2.4,6.11 -3.65,12.58 -5.07,18.96 -0.92,4.45 -1.25,9.71 1.87,13.42 1.12,1.28 3.28,2.77 4.85,1.3 2.86,-2.36 4.71,-5.65 7.14,-8.41 -0.13,5.37 -1.61,10.72 -4.03,15.49 -2.06,2.98 -5.96,6.51 -9.76,4.49 -4.7,-4.05 -6.07,-10.73 -5.82,-16.67 0.53,-10.68 4.73,-20.7 9.11,-30.3 z"
         inkscape:connector-curvature="0"
         style="fill:#000000" />
    </g>
    <g
       id="#080808ff-1-5-1-3"
       transform="translate(-2478.1216,-1899.0329)"
       style="fill:#000000">
      <path
         id="path353-9-3-6-1"
         d="m 750.35,364.88 c 6.18,2.15 11.6,6.03 16.54,10.25 1.62,1.65 3.78,3.33 4.12,5.76 -1.27,4.19 -3.22,8.15 -4.91,12.18 -0.95,2.43 -2.9,4.21 -4.92,5.76 -4.53,-3.9 -9.26,-7.63 -14.58,-10.38 -1.87,-1.09 -4.03,-1.98 -5.24,-3.85 -0.5,-1.47 0.59,-2.79 1.18,-4.05 2.99,-5.02 5.16,-10.46 7.81,-15.67 z"
         inkscape:connector-curvature="0"
         style="fill:#000000" />
    </g>
    <g
       id="#7a7879ff-8-9-1-4"
       transform="translate(-2478.1216,-1899.0329)"
       style="fill:#000000">
      <path
         id="path359-9-2-6-8"
         d="m 340.12,610.99 c 3.36,-0.61 -0.12,4.23 -0.89,1.14 0.23,-0.29 0.67,-0.86 0.89,-1.14 z"
         inkscape:connector-curvature="0"
         style="fill:#000000" />
    </g>
  </g>
</svg>
