<?xml version="1.0" encoding="UTF-8" standalone="no"?>
<svg
   xmlns:dc="http://purl.org/dc/elements/1.1/"
   xmlns:cc="http://creativecommons.org/ns#"
   xmlns:rdf="http://www.w3.org/1999/02/22-rdf-syntax-ns#"
   xmlns:svg="http://www.w3.org/2000/svg"
   xmlns="http://www.w3.org/2000/svg"
   xmlns:xlink="http://www.w3.org/1999/xlink"
   xmlns:sodipodi="http://sodipodi.sourceforge.net/DTD/sodipodi-0.dtd"
   xmlns:inkscape="http://www.inkscape.org/namespaces/inkscape"
   version="1.1"
   width="300"
   height="300"
   viewBox="0 0 340 340"
   xml:space="preserve"
   id="svg2"
   inkscape:version="0.92.3 (2405546, 2018-03-11)"
   sodipodi:docname="Syrian National Army.svg"><metadata
   id="metadata236"><rdf:RDF><cc:Work
       rdf:about=""><dc:format>image/svg+xml</dc:format><dc:type
         rdf:resource="http://purl.org/dc/dcmitype/StillImage" /><dc:title></dc:title></cc:Work></rdf:RDF></metadata><defs
   id="defs234"><clipPath
   id="SVGID_2_-0"><path
     d="m 187.795,174.218 c 0,29.145 -30.505,48.746 -30.781,48.924 -0.276,-0.178 -30.781,-19.779 -30.781,-48.924 0,-14.471 0,-16.278 0,-16.278 l 14.956,-18.733 h 15.825 10e-4 15.825 l 14.956,18.733 c -0.001,-0.001 -0.001,1.807 -0.001,16.278 z"
     id="use198-9"
     inkscape:connector-curvature="0" /></clipPath><clipPath
   id="clipPath4054"><path
     d="m 187.795,174.218 c 0,29.145 -30.505,48.746 -30.781,48.924 -0.276,-0.178 -30.781,-19.779 -30.781,-48.924 0,-14.471 0,-16.278 0,-16.278 l 14.956,-18.733 h 15.825 10e-4 15.825 l 14.956,18.733 c -0.001,-0.001 -0.001,1.807 -0.001,16.278 z"
     id="use4056"
     inkscape:connector-curvature="0" /></clipPath><clipPath
   id="clipPath4058"><path
     d="m 187.795,174.218 c 0,29.145 -30.505,48.746 -30.781,48.924 -0.276,-0.178 -30.781,-19.779 -30.781,-48.924 0,-14.471 0,-16.278 0,-16.278 l 14.956,-18.733 h 15.825 10e-4 15.825 l 14.956,18.733 c -0.001,-0.001 -0.001,1.807 -0.001,16.278 z"
     id="use4060"
     inkscape:connector-curvature="0" /></clipPath><clipPath
   id="clipPath4062"><path
     d="m 187.795,174.218 c 0,29.145 -30.505,48.746 -30.781,48.924 -0.276,-0.178 -30.781,-19.779 -30.781,-48.924 0,-14.471 0,-16.278 0,-16.278 l 14.956,-18.733 h 15.825 10e-4 15.825 l 14.956,18.733 c -0.001,-0.001 -0.001,1.807 -0.001,16.278 z"
     id="use4064"
     inkscape:connector-curvature="0" /></clipPath><clipPath
   id="SVGID_2_-0-6"><path
     d="m 187.795,174.218 c 0,29.145 -30.505,48.746 -30.781,48.924 -0.276,-0.178 -30.781,-19.779 -30.781,-48.924 0,-14.471 0,-16.278 0,-16.278 l 14.956,-18.733 h 15.825 10e-4 15.825 l 14.956,18.733 c -0.001,-0.001 -0.001,1.807 -0.001,16.278 z"
     id="use198-9-0"
     inkscape:connector-curvature="0" /></clipPath><clipPath
   id="clipPath4452"><path
     d="m 187.795,174.218 c 0,29.145 -30.505,48.746 -30.781,48.924 -0.276,-0.178 -30.781,-19.779 -30.781,-48.924 0,-14.471 0,-16.278 0,-16.278 l 14.956,-18.733 h 15.825 10e-4 15.825 l 14.956,18.733 c -0.001,-0.001 -0.001,1.807 -0.001,16.278 z"
     id="use4454"
     inkscape:connector-curvature="0" /></clipPath><clipPath
   id="clipPath4456"><path
     d="m 187.795,174.218 c 0,29.145 -30.505,48.746 -30.781,48.924 -0.276,-0.178 -30.781,-19.779 -30.781,-48.924 0,-14.471 0,-16.278 0,-16.278 l 14.956,-18.733 h 15.825 10e-4 15.825 l 14.956,18.733 c -0.001,-0.001 -0.001,1.807 -0.001,16.278 z"
     id="use4458"
     inkscape:connector-curvature="0" /></clipPath><clipPath
   id="clipPath4460"><path
     d="m 187.795,174.218 c 0,29.145 -30.505,48.746 -30.781,48.924 -0.276,-0.178 -30.781,-19.779 -30.781,-48.924 0,-14.471 0,-16.278 0,-16.278 l 14.956,-18.733 h 15.825 10e-4 15.825 l 14.956,18.733 c -0.001,-0.001 -0.001,1.807 -0.001,16.278 z"
     id="use4462"
     inkscape:connector-curvature="0" /></clipPath><clipPath
   id="SVGID_2_-0-6-1"><use
     height="1"
     width="1"
     y="0"
     x="0"
     style="overflow:visible"
     xlink:href="#SVGID_1_-9-3-3"
     overflow="visible"
     id="use198-9-0-7" /></clipPath><clipPath
   id="clipPath3341"><use
     height="1"
     width="1"
     y="0"
     x="0"
     style="overflow:visible"
     xlink:href="#SVGID_1_-9-3-3"
     overflow="visible"
     id="use3343" /></clipPath><clipPath
   id="clipPath3345"><use
     height="1"
     width="1"
     y="0"
     x="0"
     style="overflow:visible"
     xlink:href="#SVGID_1_-9-3-3"
     overflow="visible"
     id="use3347" /></clipPath><clipPath
   id="clipPath3349"><use
     height="1"
     width="1"
     y="0"
     x="0"
     style="overflow:visible"
     xlink:href="#SVGID_1_-9-3-3"
     overflow="visible"
     id="use3351" /></clipPath><path
   inkscape:connector-curvature="0"
   id="SVGID_1_-9-3-3"
   d="m 187.795,174.218 c 0,29.145 -30.505,48.746 -30.781,48.924 -0.276,-0.178 -30.781,-19.779 -30.781,-48.924 0,-14.471 0,-16.278 0,-16.278 l 14.956,-18.733 h 15.825 10e-4 15.825 l 14.956,18.733 c -0.001,-0.001 -0.001,1.807 -0.001,16.278 z" />
	

	
	
	
	
	
	
	
	
	
	
	
	
	
	
	
	
	
	
	
	
	
	
	
	
	
	
	
	
	
	
	
	
	
	
	
	
	
	
	
	
	
	
	
	
	
	
	
	
	
	
	
	
	
	
	
	
	
	
	
	
	
	
	
	
	
	
	
	
	
	
	
	
	
	
	
	
	
	
	
	
	
	
	
	
	
	
	
		
	
		
	
	
	
	
	
</defs><sodipodi:namedview
   pagecolor="#ffffff"
   bordercolor="#666666"
   borderopacity="1"
   objecttolerance="10"
   gridtolerance="10"
   guidetolerance="10"
   inkscape:pageopacity="0"
   inkscape:pageshadow="2"
   inkscape:window-width="1920"
   inkscape:window-height="1001"
   id="namedview232"
   showgrid="false"
   inkscape:zoom="1.3"
   inkscape:cx="212.03456"
   inkscape:cy="85.807868"
   inkscape:window-x="-9"
   inkscape:window-y="-9"
   inkscape:window-maximized="1"
   inkscape:current-layer="svg2" />
<circle
   style="opacity:1;fill:#ffffff;fill-opacity:1;fill-rule:evenodd;stroke:#cc975e;stroke-width:5.040874;stroke-miterlimit:4;stroke-dasharray:none;stroke-dashoffset:0;stroke-opacity:1"
   id="path15799"
   cx="170"
   cy="170"
   r="167.47957" /><g
   id="Layer_2"
   transform="matrix(1.0081748,0,0,1.0081748,11.869803,11.212463)"
   style="opacity:1">
	<g
   id="g5">
		<path
   d="M 200.195,17.781 C 251.319,35.995 288,85.623 288,144 c 0,79.941 -58.644,133.667 -130.986,133.667 70.879,0 140.653,-56.67 140.653,-133.146 0,-59.27 -40.918,-109.485 -97.472,-126.74 z"
   id="path7"
   style="fill:#007a3d;fill-opacity:1"
   inkscape:connector-curvature="0" />
	</g>
	<g
   id="g9">
		<path
   d="M 113.832,17.781 C 62.708,35.995 26.027,85.623 26.027,144 c 0,79.941 58.644,133.667 130.986,133.667 -70.879,0 -140.653,-56.67 -140.653,-133.146 0,-59.27 40.918,-109.485 97.472,-126.74 z"
   id="path11"
   style="fill:#007a3d;fill-opacity:1"
   inkscape:connector-curvature="0" />
	</g>
	<path
   d="m 272.555,52.624 c 22.664,26.522 36.355,60.942 36.355,98.563 C 308.91,235.031 240.941,303 157.098,303 73.254,303 5.286,235.031 5.286,151.188 5.286,113.567 18.977,79.149 41.639,52.626 15.854,80.599 0.098,117.957 0.098,159 c 0,86.709 70.292,157 157,157 86.708,0 157,-70.291 157,-157 0,-41.044 -15.756,-78.403 -41.543,-106.376 z"
   id="path13"
   inkscape:connector-curvature="0"
   style="fill:#9f9fa2" />
	<g
   id="g15">
		<polygon
   points="157,-0.625 160.164,6.978 168.238,7.005 162.119,12.996 164.328,21.042 157,16.715 149.673,21.042 151.881,12.996 145.762,7.005 153.837,6.978 "
   id="polygon17"
   style="fill:#d30300;fill-opacity:1" />
		<polygon
   points="126.75,10.188 128.533,14.471 133.083,14.487 129.635,17.862 130.879,22.396 126.75,19.958 122.622,22.396 123.866,17.862 120.418,14.487 124.968,14.471 "
   id="polygon19"
   style="fill:#d30300;fill-opacity:1" />
		<polygon
   points="187.25,10.188 189.033,14.471 193.582,14.487 190.135,17.862 191.379,22.396 187.25,19.958 183.121,22.396 184.367,17.862 180.918,14.487 185.469,14.471 "
   id="polygon21"
   style="fill:#d30300;fill-opacity:1" />
	</g>
</g>
<path
   inkscape:connector-curvature="0"
   style="opacity:1;fill:#cc975e;fill-opacity:1;stroke-width:1.00817478"
   id="path24"
   d="m 276.26365,59.100766 c 0,0 3.78066,12.350142 -5.29292,22.179846 -9.07357,9.829704 -16.13079,15.122622 -16.13079,15.122622 0,0 2.26839,6.553136 0,15.122616 0,0 30.49728,-15.122616 31.7575,-34.782025 0,-11.59401 -10.33379,-17.643059 -10.33379,-17.643059 z" /><path
   inkscape:connector-curvature="0"
   style="opacity:1;fill:#cc975e;fill-opacity:1;stroke-width:1.00817478"
   id="path26"
   d="m 256.60424,117.32286 c 0,0 27.97685,-15.54303 35.28612,-32.009549 0,0 7.05722,20.163499 -8.82153,32.009549 -15.87875,11.84605 -30.49729,16.88692 -30.49729,16.88692 0,0 3.94902,-7.05722 4.0327,-16.88692 z" /><path
   inkscape:connector-curvature="0"
   style="opacity:1;fill:#cc975e;fill-opacity:1;stroke-width:1.00817478"
   id="path28"
   d="m 252.57154,138.32616 c 0,0 19.7441,-3.69697 38.73105,-21.75943 0,0 -1.17654,8.9052 -6.38577,16.21447 -5.20924,7.30927 -15.20631,16.04712 -35.53716,19.65941 0,0 3.94801,-5.04087 3.19188,-14.11445 z" /><path
   inkscape:connector-curvature="0"
   style="opacity:1;fill:#cc975e;fill-opacity:1;stroke-width:1.00817478"
   id="path30"
   d="m 247.19495,157.06208 c 0,0 0.0131,5.54496 -6.12668,12.60219 0,0 20.24012,1.3449 29.7341,-5.3766 9.49398,-6.7215 13.19096,-15.03894 14.28281,-19.99614 0,0 -20.83595,13.27464 -37.89023,12.77055 z" /><path
   inkscape:connector-curvature="0"
   style="opacity:1;fill:#cc975e;fill-opacity:1;stroke-width:1.00817478"
   id="path32"
   d="m 271.72686,169.77315 c 0,0 -10.41747,16.02191 -23.44006,16.27396 -13.02259,0.25204 -20.66758,-1.00818 -20.66758,-1.00818 0,0 6.04905,-2.60411 10.08174,-10.25011 0,0 21.25535,1.42858 34.0259,-5.01567 z" /><path
   inkscape:connector-curvature="0"
   style="opacity:1;fill:#cc975e;fill-opacity:1;stroke-width:1.00817478"
   id="path34"
   d="m 211.06902,195.12068 c 0,0 4.28575,-1.00817 10.7542,-6.7215 0,0 11.00524,2.93984 19.74309,2.60412 8.73785,-0.33573 12.5175,-1.42859 15.96243,-3.02453 0,0 -7.39295,11.84706 -20.75126,11.93074 -13.35832,0.0837 -25.70846,-4.78883 -25.70846,-4.78883 z" /><path
   inkscape:connector-curvature="0"
   style="opacity:1;fill:#cc975e;fill-opacity:1;stroke-width:1.00817478"
   id="path36"
   d="m 207.96082,197.89316 c 0,0 -0.0847,5.46129 -2.68881,9.82971 0,0 5.88069,4.61945 15.45835,4.20005 9.57766,-0.4194 17.15107,-5.03986 20.33791,-8.73684 0,0 -10.17249,0.9245 -19.07769,-0.50409 -8.90521,-1.42858 -14.02976,-4.78883 -14.02976,-4.78883 z" /><path
   inkscape:connector-curvature="0"
   style="opacity:1;fill:#cc975e;fill-opacity:1;stroke-width:1.00817478"
   id="path38"
   d="m 204.18016,211.94914 c 0,0 -1.84798,3.9218 -3.02452,5.51874 0,0 6.20531,3.94903 11.42564,3.94903 4.36842,0 10.50216,-2.85616 14.11445,-6.3011 0,0 -6.65496,0.96583 -12.76954,0.25205 -4.48437,-0.52425 -8.67938,-2.5769 -9.74603,-3.41872 z" /><path
   inkscape:connector-curvature="0"
   style="opacity:1;fill:#cc975e;fill-opacity:1;stroke-width:1.00817478"
   id="path40"
   d="m 200.20896,219.33805 c 0,0 -3.90668,5.797 -6.74267,9.01107 l 6.74267,8.06539 c 0,0 4.41076,-2.07885 9.51515,-5.73449 z" /><path
   inkscape:connector-curvature="0"
   style="opacity:1;fill:#cc975e;fill-opacity:1;stroke-width:1.00817478"
   id="path42"
   d="m 191.91269,230.57517 c 0,0 -5.37761,5.46027 -8.82153,8.14907 l 2.77248,4.28474 c 0,0 6.97355,-2.35207 11.76238,-5.37659 z" /><polygon
   style="opacity:1;fill:#cc975e;fill-opacity:1"
   id="polygon44"
   points="167.75,227.167 169.833,230.584 158.5,234.834 158.5,233.001 "
   transform="matrix(1.0081748,0,0,1.0081748,11.869803,11.212463)" /><path
   inkscape:connector-curvature="0"
   style="opacity:1;fill:#cc975e;fill-opacity:1;stroke-width:1.00817478"
   id="path46"
   d="m 251.64705,98.587949 c 0,0 3.52861,7.561311 0,14.114441 -3.52862,6.55314 -16.80224,11.59401 -21.84312,12.77055 -5.04087,1.17654 -10.7542,6.38477 -10.7542,7.39295 0,0 -2.35308,-5.71232 2.85616,-11.42565 5.20924,-5.71332 24.02783,-14.11545 29.74116,-22.852291 z" /><path
   inkscape:connector-curvature="0"
   style="opacity:1;fill:#cc975e;fill-opacity:1;stroke-width:1.00817478"
   id="path48"
   d="m 202.66689,157.73353 4.28474,4.53678 c 0,0 4.53578,-5.62964 5.88069,-7.72967 1.3449,-2.10003 4.78883,-9.24093 4.78883,-14.45017 0,-5.20924 -2.2684,-6.46946 -2.2684,-12.51851 0,-6.04905 10.31262,-10.31262 10.88023,-15.10145 0.42444,-3.58708 -0.18954,-3.08703 -0.79848,-1.19771 -0.70068,2.17464 -2.01635,3.69698 -3.61229,4.45311 -1.59594,0.75613 -9.8297,4.53678 -9.8297,10.7542 0,6.21741 1.59594,9.74602 1.59594,13.94608 0,7.81436 -10.92156,17.30734 -10.92156,17.30734 z" /><path
   inkscape:connector-curvature="0"
   style="opacity:1;fill:#cc975e;fill-opacity:1;stroke-width:1.00817478"
   id="path50"
   d="m 252.57154,119.50758 c 0,0 -0.25103,17.22264 -8.40112,18.90327 -8.15008,1.68063 -15.45834,-0.0837 -19.65941,1.68063 -4.20106,1.7643 -4.53678,3.69697 -4.70515,0.92449 -0.16836,-2.77248 0.16635,-7.53207 6.56826,-10.58583 8.80641,-4.20107 12.00232,-2.55472 19.1402,-6.46946 5.20924,-2.85716 7.05722,-4.4531 7.05722,-4.4531 z" /><path
   inkscape:connector-curvature="0"
   style="opacity:1;fill:#cc975e;fill-opacity:1;stroke-width:1.00817478"
   id="path52"
   d="m 215.01703,156.64167 c 0,0 5.10338,-10.64834 9.70368,-12.35014 4.60031,-1.7018 13.73639,1.38624 18.4617,-0.50408 4.72532,-1.89033 5.92303,-4.0327 5.92303,-4.0327 0,0 -0.34681,17.70556 -17.8326,17.70556 -17.48578,0 -16.25581,-0.81864 -16.25581,-0.81864 z" /><path
   inkscape:connector-curvature="0"
   style="opacity:1;fill:#cc975e;fill-opacity:1;stroke-width:1.00817478"
   id="path54"
   d="m 209.03049,164.32901 c 0,0 11.11916,7.56131 17.34262,7.56131 6.22347,0 13.78478,-3.02453 16.17919,-13.98843 0,0 -8.03616,3.52861 -12.47616,3.52861 -4.61543,0 -9.45164,-1.95384 -13.48434,-1.95384 -4.0327,0 -7.56131,4.85235 -7.56131,4.85235 z" /><path
   inkscape:connector-curvature="0"
   style="opacity:1;fill:#cc975e;fill-opacity:1;stroke-width:1.00817478"
   id="path56"
   d="m 210.39253,168.42522 0.0877,13.25347 c 0,0 0.81864,2.10003 8.0402,2.10003 9.55246,0 15.77793,-9.91339 15.77793,-9.91339 0,0 -4.6628,1.51226 -9.70368,1.3439 -5.04087,-0.16837 -14.20216,-6.78401 -14.20216,-6.78401 z" /><path
   inkscape:connector-curvature="0"
   style="opacity:1;fill:#cc975e;fill-opacity:1;stroke-width:1.00817478"
   id="path58"
   d="m 210.39253,184.87057 c 0,0 -0.41637,6.67916 -0.66842,7.81335 0,0 7.05723,-3.36125 9.1996,-4.70515 0,0 -6.35049,-1.974 -8.53118,-3.1082 z" /><path
   inkscape:connector-curvature="0"
   style="opacity:1;fill:#007a3d;fill-opacity:1;stroke-width:1.00817478"
   id="path60"
   d="m 183.13048,254.6655 c 5.3776,-1.04648 10.44167,4.95518 10.44167,4.95518 -8.36584,2.49624 -13.28674,-3.9833 -13.28674,-3.9833 v 0 c 0,0 -0.44158,-8.04927 7.52401,-11.62022 0.001,-10e-4 0.0766,7.92829 -4.67894,10.64834" /><path
   inkscape:connector-curvature="0"
   style="opacity:1;fill:#007a3d;fill-opacity:1;stroke-width:1.00817478"
   id="path62"
   d="m 189.61103,252.01501 c 5.24755,-1.25518 10.48602,4.34322 10.48602,4.34322 -8.1279,2.80373 -13.2454,-3.26649 -13.2454,-3.26649 v 0 c 0,0 -0.69866,-7.90409 6.98968,-11.75229 0,-0.001 0.33572,7.79924 -4.2303,10.67556" /><path
   inkscape:connector-curvature="0"
   style="opacity:1;fill:#007a3d;fill-opacity:1;stroke-width:1.00817478"
   id="path64"
   d="m 195.90204,249.10945 c 5.11749,-1.46084 10.53038,3.72924 10.53038,3.72924 -7.88896,3.11425 -13.20305,-2.54967 -13.20305,-2.54967 v 0 c 0,0 -0.95676,-7.75589 6.45433,-11.88034 0.001,0 0.59382,7.67121 -3.78166,10.70077" /><path
   inkscape:connector-curvature="0"
   style="opacity:1;fill:#007a3d;fill-opacity:1;stroke-width:1.00817478"
   id="path66"
   d="m 201.92891,246.52247 c 4.98945,-1.66953 10.57575,3.11526 10.57575,3.11526 -7.65306,3.42377 -13.16172,-1.83286 -13.16172,-1.83286 v 0 c 0,0 -1.21687,-7.6097 5.91899,-12.01038 0,0 0.85292,7.54316 -3.33302,10.72798" /><path
   inkscape:connector-curvature="0"
   style="opacity:1;fill:#007a3d;fill-opacity:1;stroke-width:1.00817478"
   id="path68"
   d="m 208.38627,243.30438 c 4.8594,-1.87924 10.62112,2.50128 10.62112,2.50128 -7.41513,3.73428 -13.1214,-1.11605 -13.1214,-1.11605 v 0 c 0,0 -1.47395,-7.46352 5.38567,-12.13943 0,0 1.11202,7.41311 -2.88539,10.7542" /><path
   inkscape:connector-curvature="0"
   style="opacity:1;fill:#007a3d;fill-opacity:1;stroke-width:1.00817478"
   id="path70"
   d="m 214.03003,239.42593 c 4.72834,-2.08692 10.66447,1.8873 10.66447,1.8873 -7.1772,4.04379 -13.07905,-0.39923 -13.07905,-0.39923 v 0 c 0,0 -1.73204,-7.31734 4.85033,-12.26848 0,0 1.37112,7.28406 -2.43575,10.78041" /><path
   inkscape:connector-curvature="0"
   style="opacity:1;fill:#007a3d;fill-opacity:1;stroke-width:1.00817478"
   id="path72"
   d="m 219.67278,235.38214 c 4.6003,-2.2936 10.70884,1.27534 10.70884,1.27534 -6.93927,4.35229 -13.03671,0.31758 -13.03671,0.31758 v 0 c 0,0 -1.99115,-7.17216 4.31499,-12.39954 0.001,0 1.63021,7.15501 -1.98712,10.80662" /><path
   inkscape:connector-curvature="0"
   style="opacity:1;fill:#007a3d;fill-opacity:1;stroke-width:1.00817478"
   id="path74"
   d="m 225.40123,231.37969 c 4.47126,-2.5033 10.7542,0.65934 10.7542,0.65934 -6.70033,4.66382 -12.99537,1.03439 -12.99537,1.03439 v 0 c 0,0 -2.24823,-7.02395 3.77965,-12.52859 0,0.001 1.88932,7.02597 -1.53848,10.83486" /><path
   inkscape:connector-curvature="0"
   style="opacity:1;fill:#007a3d;fill-opacity:1;stroke-width:1.00817478"
   id="path76"
   d="m 230.82622,226.97901 c 4.3412,-2.70998 10.79957,0.0464 10.79957,0.0464 -6.46341,4.97434 -12.95404,1.7512 -12.95404,1.7512 v 0 c 0,0 -2.50834,-6.87777 3.24532,-12.65864 0,0 2.14842,6.89793 -1.09085,10.86107" /><path
   inkscape:connector-curvature="0"
   style="opacity:1;fill:#007a3d;fill-opacity:1;stroke-width:1.00817478"
   id="path78"
   d="m 236.02235,222.27688 c 4.21216,-2.91968 10.84393,-0.5666 10.84393,-0.5666 -6.22548,5.28284 -12.9127,2.46802 -12.9127,2.46802 v 0 c 0,0 -2.76542,-6.7326 2.70997,-12.7887 0.001,0.001 2.40752,6.76989 -0.6412,10.88728" /><path
   inkscape:connector-curvature="0"
   style="opacity:1;fill:#007a3d;fill-opacity:1;stroke-width:1.00817478"
   id="path80"
   d="m 244.80658,216.48592 c -2.22403,2.97109 -5.28485,3.71815 -5.7476,3.33605 -0.58475,-0.48392 -0.64826,-3.48526 1.57577,-6.45736 2.22404,-2.9721 5.69922,-4.12948 6.11257,-3.81997 0.40327,0.30144 0.28329,3.96817 -1.94074,6.94128 z" /><path
   inkscape:connector-curvature="0"
   style="opacity:1;fill:#007a3d;fill-opacity:1;stroke-width:1.00817478"
   id="path82"
   d="m 175.38971,257.2303 c 4.9451,-2.56379 5.12859,-10.62314 5.12859,-10.62314 -6.7709,2.70897 -7.85368,8.71466 -8.02507,10.77537 -0.85897,0.4194 -2.23109,1.3187 -2.32687,2.80979 0,0 1.00817,-0.46477 1.5052,1.17351 0,0 -0.50106,-2.40248 0.91039,-3.10014 0.75411,0.99406 5.35945,6.52693 13.20507,4.53477 10e-4,0 -4.88965,-6.40795 -10.39731,-5.57016 z" /><path
   inkscape:connector-curvature="0"
   style="opacity:1;fill:#cc975e;fill-opacity:1;stroke-width:1.00817478"
   id="path84"
   d="m 172.14843,263.22894 c 0,0 -1.38926,8.48984 3.67581,8.59671 5.92302,0.12602 17.13897,-2.89851 21.80178,-5.92303 0,0 0.63011,-0.63011 -0.63011,-1.89033 -1.26022,-1.26022 -2.14237,-2.64646 -2.39442,-3.08703 0,0 -16.32033,6.67815 -22.45306,2.30368 z" /><path
   inkscape:connector-curvature="0"
   style="opacity:1;fill:#cc975e;fill-opacity:1;stroke-width:1.00817478"
   id="path86"
   d="m 197.62602,259.23153 c 0,0 3.65463,3.85727 3.97019,4.36136 0.31556,0.50409 1.74313,0.84082 2.49926,0.42041 0.75613,-0.42041 12.12431,-6.43921 12.95203,-6.91608 0.82771,-0.47687 0.40528,-1.52839 -0.51821,-2.17867 -0.92348,-0.65027 -4.02463,-3.59111 -4.02463,-3.59111 0,0 -6.90902,4.49041 -14.87864,7.90409 z" /><path
   inkscape:connector-curvature="0"
   style="opacity:1;fill:#cc975e;fill-opacity:1;stroke-width:1.00817478"
   id="path88"
   d="m 214.84967,249.64681 c 0,0 5.1548,-2.77349 9.84483,-6.63783 0,0 3.81897,0.75614 4.75859,1.42859 0.93962,0.67245 0.68757,1.44673 -0.57265,2.78155 -1.26022,1.33483 -5.62763,5.36753 -6.97253,6.12366 -1.34491,0.75613 -1.93368,0.33673 -2.89951,-0.4194 -0.96584,-0.75614 -4.15873,-3.27657 -4.15873,-3.27657 z" /><path
   inkscape:connector-curvature="0"
   style="opacity:1;fill:#cc975e;fill-opacity:1;stroke-width:1.00817478"
   id="path90"
   d="m 240.7265,236.36511 c 2.23613,1.55965 2.69686,3.8603 1.8379,4.79992 -0.85897,0.94063 -3.14954,0.76319 -4.94409,-1.39834 -1.79758,-2.16152 -2.51943,-4.78883 -2.20589,-5.13362 0.29641,-0.32262 3.00537,0.124 5.31208,1.73204 z" /><path
   inkscape:connector-curvature="0"
   style="opacity:1;fill:#cc975e;fill-opacity:1;stroke-width:1.00817478"
   id="path92"
   d="m 236.63936,241.40498 c 1.82479,1.49311 1.7391,3.68286 0.87005,4.35834 -0.86804,0.67749 -2.79567,0.19357 -4.01253,-1.90948 -1.21788,-2.10407 -1.15336,-4.67995 -0.83477,-4.92897 0.29942,-0.22987 2.00526,0.86602 3.97725,2.48011 z" /><path
   inkscape:connector-curvature="0"
   style="opacity:1;fill:#cc975e;fill-opacity:1;stroke-width:1.00817478"
   id="path94"
   d="m 241.405,235.06759 c 1.16142,1.41447 2.86019,1.34995 3.38343,0.67447 0.52526,-0.67346 0.14921,-2.16858 -1.48101,-3.11425 -1.63425,-0.94567 -3.63245,-0.89425 -3.82602,-0.64826 -0.17845,0.2339 0.67145,1.55763 1.9236,3.08804 z" /><path
   style="opacity:1;fill:#9f9fa2;stroke-width:1.00817478"
   inkscape:connector-curvature="0"
   id="path96"
   d="m 256.77261,234.41833 c 0,0 9.91338,3.50744 12.68586,7.28809 0,0 9.1996,-10.83788 4.91485,-28.98502 0,0 -6.80518,19.71284 -17.60071,21.69693 z" /><path
   style="opacity:1;fill:#414248;stroke-width:1.00817478"
   inkscape:connector-curvature="0"
   id="path98"
   d="m 251.14296,246.05065 c 0,0 -3.27657,-0.66943 -1.46992,-3.57801 1.80665,-2.90859 3.65463,-3.329 5.1669,-0.76622 1.51226,2.56278 9.91338,11.59401 9.40929,13.21113 0,0 8.0654,-0.28229 8.56949,-4.12142 0.13408,-1.98409 -0.33472,-2.66259 -2.18371,-4.0075 -1.84899,-1.3449 -10.16643,-7.89804 -12.77055,-9.15826 -2.60411,-1.26022 -5.54395,-0.44964 -6.88886,0.48897 -1.3449,0.93861 -7.22559,8.41725 -6.46946,9.67747 0.75614,1.26022 1.93268,1.65945 3.27657,0.57768 1.3439,-1.08177 3.36025,-2.32384 3.36025,-2.32384 z" /><path
   style="opacity:1;fill:#414248;stroke-width:1.00817478"
   inkscape:connector-curvature="0"
   id="path100"
   d="m 273.99526,250.14989 c 0,0 0.63011,6.30109 -10.33379,6.30109 -10.96391,0 -20.55568,-6.30109 -24.20326,-6.30109 -3.64757,0 -4.72531,0.75613 -6.20229,2.39441 -1.47697,1.63829 -9.6694,8.69551 -13.57608,9.95573 0,0 11.90554,-3.27657 16.47559,-3.27657 4.57006,0 13.55491,5.67098 22.48432,5.67098 6.76888,-0.11694 10.04142,-1.96695 12.46003,-4.53376 2.79768,-2.96907 4.11234,-6.89894 2.89548,-10.21079 z" /><path
   style="opacity:1;fill:#414248;stroke-width:1.00817478"
   inkscape:connector-curvature="0"
   id="path102"
   d="m 218.46196,265.69292 c 0,0 4.53679,2.01635 2.77249,3.52861 -1.76431,1.51226 -10.63423,8.14807 -13.6759,8.23276 -3.04166,0.0847 -0.10283,-2.09902 -2.70695,-4.20006 -2.60411,-2.10104 -1.09185,-3.78066 -1.09185,-3.78066 0,0 -0.0847,1.09287 1.09185,1.76431 1.17654,0.67144 1.46387,1.42959 5.60546,0.33673 4.14158,-1.09286 8.0049,-4.78883 8.0049,-5.88169 z" /><path
   style="opacity:1;fill:#414248;stroke-width:1.00817478"
   inkscape:connector-curvature="0"
   id="path104"
   d="m 215.3951,264.20284 c 0,0 -9.45063,3.03964 -10.71186,4.47226 -1.26123,1.43262 0.31455,1.95384 2.52044,1.95384 2.20588,0 6.9312,-1.38624 7.9424,-2.78155 0.34782,-0.47989 -0.69463,-0.49703 -0.63314,-1.46992 0.0524,-0.81864 0.88216,-2.17463 0.88216,-2.17463 z" /><path
   inkscape:connector-curvature="0"
   style="opacity:1;fill:#cc975e;fill-opacity:1;stroke-width:1.00817478"
   id="path106"
   d="m 64.07007,59.100766 c 0,0 -3.780656,12.350142 5.292918,22.179846 9.073573,9.829704 16.130797,15.122622 16.130797,15.122622 0,0 -2.268394,6.553136 0,15.122616 0,0 -30.497288,-15.122616 -31.757507,-34.782025 0,-11.59401 10.333792,-17.643059 10.333792,-17.643059 z" /><path
   inkscape:connector-curvature="0"
   style="opacity:1;fill:#cc975e;fill-opacity:1;stroke-width:1.00817478"
   id="path108"
   d="m 83.729479,117.32286 c 0,0 -27.976851,-15.54303 -35.286119,-32.009549 0,0 -7.057223,20.163499 8.82153,32.009549 15.878753,11.84605 30.497288,16.88692 30.497288,16.88692 0,0 -3.949021,-7.05722 -4.032699,-16.88692 z" /><path
   inkscape:connector-curvature="0"
   style="opacity:1;fill:#cc975e;fill-opacity:1;stroke-width:1.00817478"
   id="path110"
   d="m 87.762178,138.32616 c 0,0 -19.744096,-3.69697 -38.731052,-21.75943 0,0 1.17654,8.9052 6.38578,16.21447 5.209239,7.30927 15.2063,16.04712 35.537153,19.65941 0,0 -3.948012,-5.04087 -3.191881,-14.11445 z" /><path
   inkscape:connector-curvature="0"
   style="opacity:1;fill:#cc975e;fill-opacity:1;stroke-width:1.00817478"
   id="path112"
   d="m 93.138774,157.06208 c 0,0 -0.01311,5.54496 6.126678,12.60219 0,0 -20.240117,1.3449 -29.734099,-5.3766 -9.493982,-6.7215 -13.190959,-15.03894 -14.282813,-19.99614 0,0 20.835949,13.27464 37.890234,12.77055 z" /><path
   inkscape:connector-curvature="0"
   style="opacity:1;fill:#cc975e;fill-opacity:1;stroke-width:1.00817478"
   id="path114"
   d="m 68.606857,169.77315 c 0,0 10.41747,16.02191 23.440064,16.27396 13.022599,0.25204 20.667579,-1.00818 20.667579,-1.00818 0,0 -6.04904,-2.60411 -10.08174,-10.25011 0,0 -21.255353,1.42858 -34.025903,-5.01567 z" /><path
   inkscape:connector-curvature="0"
   style="opacity:1;fill:#cc975e;fill-opacity:1;stroke-width:1.00817478"
   id="path116"
   d="m 129.26471,195.12068 c 0,0 -4.28575,-1.00817 -10.7542,-6.7215 0,0 -11.00524,2.93984 -19.743096,2.60412 -8.737851,-0.33573 -12.517498,-1.42859 -15.962432,-3.02453 0,0 7.392946,11.84706 20.751258,11.93074 13.35833,0.0837 25.70847,-4.78883 25.70847,-4.78883 z" /><path
   inkscape:connector-curvature="0"
   style="opacity:1;fill:#cc975e;fill-opacity:1;stroke-width:1.00817478"
   id="path118"
   d="m 132.37291,197.89316 c 0,0 0.0847,5.46129 2.6888,9.82971 0,0 -5.88068,4.61945 -15.45834,4.20005 -9.57767,-0.4194 -17.15108,-5.03986 -20.337918,-8.73684 0,0 10.172488,0.9245 19.077698,-0.50409 8.90521,-1.42858 14.02976,-4.78883 14.02976,-4.78883 z" /><path
   inkscape:connector-curvature="0"
   style="opacity:1;fill:#cc975e;fill-opacity:1;stroke-width:1.00817478"
   id="path120"
   d="m 136.15357,211.94914 c 0,0 1.84798,3.9218 3.02452,5.51874 0,0 -6.20532,3.94903 -11.42565,3.94903 -4.36842,0 -10.50215,-2.85616 -14.11444,-6.3011 0,0 6.65496,0.96583 12.76954,0.25205 4.48537,-0.52425 8.68038,-2.5769 9.74603,-3.41872 z" /><path
   inkscape:connector-curvature="0"
   style="opacity:1;fill:#cc975e;fill-opacity:1;stroke-width:1.00817478"
   id="path122"
   d="m 140.12477,219.33805 c 0,0 3.90667,5.797 6.74267,9.01107 l -6.74267,8.06539 c 0,0 -4.41077,-2.07885 -9.51516,-5.73449 z" /><path
   inkscape:connector-curvature="0"
   style="opacity:1;fill:#cc975e;fill-opacity:1;stroke-width:1.00817478"
   id="path124"
   d="m 148.42104,230.57517 c 0,0 5.3776,5.46027 8.82153,8.14907 l -2.77248,4.28474 c 0,0 -6.97355,-2.35207 -11.76238,-5.37659 z" /><polygon
   style="opacity:1;fill:#cc975e;fill-opacity:1"
   id="polygon126"
   points="146.277,227.167 144.194,230.584 155.527,234.834 155.527,233.001 "
   transform="matrix(1.0081748,0,0,1.0081748,11.869803,11.212463)" /><path
   inkscape:connector-curvature="0"
   style="opacity:1;fill:#cc975e;fill-opacity:1;stroke-width:1.00817478"
   id="path128"
   d="m 88.686674,98.587949 c 0,0 -3.528612,7.561311 0,14.114441 3.528612,6.55314 16.802246,11.59401 21.843116,12.77055 5.04088,1.17654 10.75421,6.38477 10.75421,7.39295 0,0 2.35308,-5.71232 -2.85616,-11.42565 -5.20925,-5.71332 -24.027839,-14.11545 -29.741166,-22.852291 z" /><path
   inkscape:connector-curvature="0"
   style="opacity:1;fill:#cc975e;fill-opacity:1;stroke-width:1.00817478"
   id="path130"
   d="m 137.66684,157.73353 -4.28475,4.53678 c 0,0 -4.53578,-5.62964 -5.88068,-7.72967 -1.34491,-2.10003 -4.78883,-9.24093 -4.78883,-14.45017 0,-5.20924 2.26839,-6.46946 2.26839,-12.51851 0,-6.04905 -10.31262,-10.31262 -10.88022,-15.10145 -0.42444,-3.58708 0.18954,-3.08703 0.79847,-1.19771 0.70069,2.17464 2.01635,3.69698 3.61229,4.45311 1.59595,0.75613 9.82971,4.53678 9.82971,10.7542 0,6.21741 -1.59594,9.74602 -1.59594,13.94608 0,7.81436 10.92156,17.30734 10.92156,17.30734 z" /><path
   inkscape:connector-curvature="0"
   style="opacity:1;fill:#cc975e;fill-opacity:1;stroke-width:1.00817478"
   id="path132"
   d="m 87.762178,119.50758 c 0,0 0.251035,17.22264 8.401121,18.90327 8.150081,1.68063 15.458341,-0.0837 19.659411,1.68063 4.20107,1.7643 4.53679,3.69697 4.70515,0.92449 0.16837,-2.77248 -0.16634,-7.53207 -6.56825,-10.58583 -8.80642,-4.20107 -12.00233,-2.55472 -19.140208,-6.46946 -5.20924,-2.85716 -7.057224,-4.4531 -7.057224,-4.4531 z" /><path
   inkscape:connector-curvature="0"
   style="opacity:1;fill:#cc975e;fill-opacity:1;stroke-width:1.00817478"
   id="path134"
   d="m 125.31669,156.64167 c 0,0 -5.10338,-10.64834 -9.70368,-12.35014 -4.6003,-1.7018 -13.73638,1.38624 -18.4617,-0.50408 -4.725315,-1.89033 -5.923027,-4.0327 -5.923027,-4.0327 0,0 0.346812,17.70556 17.832597,17.70556 17.48579,0 16.25581,-0.81864 16.25581,-0.81864 z" /><path
   inkscape:connector-curvature="0"
   style="opacity:1;fill:#cc975e;fill-opacity:1;stroke-width:1.00817478"
   id="path136"
   d="m 131.30324,164.32901 c 0,0 -11.11916,7.56131 -17.34263,7.56131 -6.22346,0 -13.78478,-3.02453 -16.179191,-13.98843 0,0 8.036161,3.52861 12.476161,3.52861 4.61543,0 9.45165,-1.95384 13.48435,-1.95384 4.03269,0 7.56131,4.85235 7.56131,4.85235 z" /><path
   inkscape:connector-curvature="0"
   style="opacity:1;fill:#cc975e;fill-opacity:1;stroke-width:1.00817478"
   id="path138"
   d="m 129.94119,168.42522 -0.0877,13.25347 c 0,0 -0.81864,2.10003 -8.04019,2.10003 -9.55246,0 -15.77794,-9.91339 -15.77794,-9.91339 0,0 4.66281,1.51226 9.70368,1.3439 5.04088,-0.16837 14.20216,-6.78401 14.20216,-6.78401 z" /><path
   inkscape:connector-curvature="0"
   style="opacity:1;fill:#cc975e;fill-opacity:1;stroke-width:1.00817478"
   id="path140"
   d="m 129.94119,184.87057 c 0,0 0.41638,6.67916 0.66842,7.81335 0,0 -7.05722,-3.36125 -9.19959,-4.70515 0,0 6.35049,-1.974 8.53117,-3.1082 z" /><path
   inkscape:connector-curvature="0"
   style="opacity:1;fill:#007a3d;fill-opacity:1;stroke-width:1.00817478"
   id="path142"
   d="m 157.20325,254.6655 c -5.37761,-1.04648 -10.44167,4.95518 -10.44167,4.95518 8.36584,2.49624 13.28674,-3.9833 13.28674,-3.9833 v 0 c 0,0 0.44158,-8.04927 -7.52401,-11.62022 0,-10e-4 -0.0766,7.92829 4.67894,10.64834" /><path
   inkscape:connector-curvature="0"
   style="opacity:1;fill:#007a3d;fill-opacity:1;stroke-width:1.00817478"
   id="path144"
   d="m 150.72371,252.01501 c -5.24755,-1.25518 -10.48603,4.34322 -10.48603,4.34322 8.12791,2.80373 13.2454,-3.26649 13.2454,-3.26649 v 0 c 0,0 0.69867,-7.90409 -6.98967,-11.75229 -0.001,-0.001 -0.33673,7.79924 4.2303,10.67556" /><path
   inkscape:connector-curvature="0"
   style="opacity:1;fill:#007a3d;fill-opacity:1;stroke-width:1.00817478"
   id="path146"
   d="m 144.43169,249.10945 c -5.1175,-1.46084 -10.53039,3.72924 -10.53039,3.72924 7.88897,3.11425 13.20306,-2.54967 13.20306,-2.54967 v 0 c 0,0 0.95676,-7.75589 -6.45433,-11.88034 -10e-4,0 -0.59382,7.67121 3.78166,10.70077" /><path
   inkscape:connector-curvature="0"
   style="opacity:1;fill:#007a3d;fill-opacity:1;stroke-width:1.00817478"
   id="path148"
   d="m 138.40583,246.52247 c -4.98946,-1.66953 -10.57576,3.11526 -10.57576,3.11526 7.65306,3.42377 13.16173,-1.83286 13.16173,-1.83286 v 0 c 0,0 1.21686,-7.6097 -5.919,-12.01038 -0.001,0 -0.85392,7.54316 3.33303,10.72798" /><path
   inkscape:connector-curvature="0"
   style="opacity:1;fill:#007a3d;fill-opacity:1;stroke-width:1.00817478"
   id="path150"
   d="m 131.94746,243.30438 c -4.8594,-1.87924 -10.62112,2.50128 -10.62112,2.50128 7.41512,3.73428 13.12139,-1.11605 13.12139,-1.11605 v 0 c 0,0 1.47396,-7.46352 -5.38567,-12.13943 0,0 -1.111,7.41311 2.8854,10.7542" /><path
   inkscape:connector-curvature="0"
   style="opacity:1;fill:#007a3d;fill-opacity:1;stroke-width:1.00817478"
   id="path152"
   d="m 126.30471,239.42593 c -4.72834,-2.08692 -10.66448,1.8873 -10.66448,1.8873 7.1772,4.04379 13.07905,-0.39923 13.07905,-0.39923 v 0 c 0,0 1.73205,-7.31734 -4.85032,-12.26848 0,0 -1.37213,7.28406 2.43575,10.78041" /><path
   inkscape:connector-curvature="0"
   style="opacity:1;fill:#007a3d;fill-opacity:1;stroke-width:1.00817478"
   id="path154"
   d="m 120.66094,235.38214 c -4.6003,-2.2936 -10.70883,1.27534 -10.70883,1.27534 6.93927,4.35229 13.03671,0.31758 13.03671,0.31758 v 0 c 0,0 1.99114,-7.17216 -4.31499,-12.39954 0,0 -1.63022,7.15501 1.98711,10.80662" /><path
   inkscape:connector-curvature="0"
   style="opacity:1;fill:#007a3d;fill-opacity:1;stroke-width:1.00817478"
   id="path156"
   d="m 114.9335,231.37969 c -4.47126,-2.5033 -10.7542,0.65934 -10.7542,0.65934 6.70033,4.66382 12.99537,1.03439 12.99537,1.03439 v 0 c 0,0 2.24823,-7.02395 -3.77964,-12.52859 -0.001,0.001 -1.89033,7.02597 1.53847,10.83486" /><path
   inkscape:connector-curvature="0"
   style="opacity:1;fill:#007a3d;fill-opacity:1;stroke-width:1.00817478"
   id="path158"
   d="m 109.50851,226.97901 c -4.3412,-2.70998 -10.79957,0.0464 -10.79957,0.0464 6.46341,4.97434 12.95404,1.7512 12.95404,1.7512 v 0 c 0,0 2.50834,-6.87777 -3.24532,-12.65864 0,0 -2.14842,6.89793 1.09085,10.86107" /><path
   inkscape:connector-curvature="0"
   style="opacity:1;fill:#007a3d;fill-opacity:1;stroke-width:1.00817478"
   id="path160"
   d="m 104.31137,222.27688 c -4.21216,-2.91968 -10.843931,-0.5666 -10.843931,-0.5666 6.22548,5.28284 12.912701,2.46802 12.912701,2.46802 v 0 c 0,0 2.76543,-6.7326 -2.70997,-12.7887 0,0.001 -2.40752,6.76989 0.6412,10.88728" /><path
   inkscape:connector-curvature="0"
   style="opacity:1;fill:#007a3d;fill-opacity:1;stroke-width:1.00817478"
   id="path162"
   d="m 95.52714,216.48592 c 2.224034,2.97109 5.28485,3.71815 5.74761,3.33605 0.58474,-0.48392 0.64825,-3.48526 -1.575782,-6.45736 -2.224034,-2.9721 -5.699213,-4.12948 -6.112564,-3.81997 -0.40327,0.30144 -0.283297,3.96817 1.940736,6.94128 z" /><path
   inkscape:connector-curvature="0"
   style="opacity:1;fill:#007a3d;fill-opacity:1;stroke-width:1.00817478"
   id="path164"
   d="m 167.84151,257.38253 c -0.17139,-2.06071 -1.25518,-8.0664 -8.02507,-10.77537 0,0 0.18348,8.05935 5.12858,10.62314 -5.50766,-0.83779 -10.39731,5.56916 -10.39731,5.56916 7.84461,1.99215 12.45096,-3.54071 13.20508,-4.53477 1.41144,0.69765 0.91038,3.10013 0.91038,3.10013 0.49703,-1.63828 1.50521,-1.17351 1.50521,-1.17351 -0.0968,-1.49109 -1.46892,-2.38938 -2.32687,-2.80878 z" /><path
   inkscape:connector-curvature="0"
   style="opacity:1;fill:#cc975e;fill-opacity:1;stroke-width:1.00817478"
   id="path166"
   d="m 168.1853,263.22894 c 0,0 1.38926,8.48984 -3.67581,8.59671 -5.92303,0.12602 -17.13897,-2.89851 -21.80178,-5.92303 0,0 -0.63011,-0.63011 0.63011,-1.89033 1.26022,-1.26022 2.14237,-2.64646 2.39441,-3.08703 0,0 16.32034,6.67815 22.45307,2.30368 z" /><path
   inkscape:connector-curvature="0"
   style="opacity:1;fill:#cc975e;fill-opacity:1;stroke-width:1.00817478"
   id="path168"
   d="m 142.70771,259.23153 c 0,0 -3.65463,3.85727 -3.97019,4.36136 -0.31556,0.50409 -1.74314,0.84082 -2.49927,0.42041 -0.75613,-0.42041 -12.12431,-6.43921 -12.95202,-6.91608 -0.82771,-0.47687 -0.40529,-1.52839 0.5182,-2.17867 0.92349,-0.65027 4.02464,-3.59111 4.02464,-3.59111 0,0 6.90902,4.49041 14.87864,7.90409 z" /><path
   inkscape:connector-curvature="0"
   style="opacity:1;fill:#cc975e;fill-opacity:1;stroke-width:1.00817478"
   id="path170"
   d="m 125.48405,249.64681 c 0,0 -5.1548,-2.77349 -9.84483,-6.63783 0,0 -3.81897,0.75614 -4.75859,1.42859 -0.93961,0.67245 -0.68757,1.44673 0.57265,2.78155 1.26022,1.33483 5.62763,5.36753 6.97254,6.12366 1.3449,0.75613 1.93368,0.33673 2.89951,-0.4194 0.96583,-0.75614 4.15872,-3.27657 4.15872,-3.27657 z" /><path
   inkscape:connector-curvature="0"
   style="opacity:1;fill:#cc975e;fill-opacity:1;stroke-width:1.00817478"
   id="path172"
   d="m 99.607224,236.36511 c -2.236132,1.55965 -2.696868,3.8603 -1.837903,4.79992 0.858965,0.94063 3.149539,0.76319 4.944089,-1.39834 1.79758,-2.16152 2.51943,-4.78883 2.20589,-5.13362 -0.29641,-0.32262 -3.00537,0.124 -5.312076,1.73204 z" /><path
   inkscape:connector-curvature="0"
   style="opacity:1;fill:#cc975e;fill-opacity:1;stroke-width:1.00817478"
   id="path174"
   d="m 103.69436,241.40498 c -1.82479,1.49311 -1.7391,3.68286 -0.87005,4.35834 0.86804,0.67749 2.79567,0.19357 4.01254,-1.90948 1.21787,-2.10407 1.15335,-4.67995 0.83476,-4.92897 -0.29842,-0.22987 -2.00526,0.86602 -3.97725,2.48011 z" /><path
   inkscape:connector-curvature="0"
   style="opacity:1;fill:#cc975e;fill-opacity:1;stroke-width:1.00817478"
   id="path176"
   d="m 98.92973,235.06759 c -1.161417,1.41447 -2.860192,1.34995 -3.383434,0.67447 -0.52526,-0.67346 -0.14921,-2.16858 1.481008,-3.11425 1.634252,-0.94567 3.632456,-0.89425 3.826026,-0.64826 0.17744,0.2339 -0.67145,1.55763 -1.9236,3.08804 z" /><path
   style="opacity:1;fill:#9f9fa2;stroke-width:1.00817478"
   inkscape:connector-curvature="0"
   id="path178"
   d="m 83.561113,234.41833 c 0,0 -9.913382,3.50744 -12.685863,7.28809 0,0 -9.199595,-10.83788 -4.914852,-28.98502 0,0 6.80518,19.71284 17.600715,21.69693 z" /><path
   style="opacity:1;fill:#414248;stroke-width:1.00817478"
   inkscape:connector-curvature="0"
   id="path180"
   d="m 89.190762,246.05065 c 0,0 3.276568,-0.66943 1.469918,-3.57801 -1.806649,-2.90859 -3.654633,-3.329 -5.166895,-0.76622 -1.512263,2.56278 -9.913383,11.59401 -9.409296,13.21113 0,0 -8.065398,-0.28229 -8.569486,-4.12142 -0.134087,-1.98409 0.334714,-2.66259 2.183707,-4.0075 1.848992,-1.3449 10.166435,-7.89804 12.77055,-9.15826 2.604116,-1.26022 5.543953,-0.44964 6.888859,0.48897 1.344905,0.93861 7.225588,8.41725 6.469457,9.67747 -0.756131,1.26022 -1.932671,1.65945 -3.276568,0.57768 -1.343897,-1.08177 -3.360246,-2.32384 -3.360246,-2.32384 z" /><path
   style="opacity:1;fill:#414248;stroke-width:1.00817478"
   inkscape:connector-curvature="0"
   id="path182"
   d="m 66.338463,250.14989 c 0,0 -0.630109,6.30109 10.333792,6.30109 10.963901,0 20.555676,-6.30109 24.203255,-6.30109 3.64757,0 4.72531,0.75613 6.20229,2.39441 1.47698,1.63829 9.66941,8.69551 13.57609,9.95573 0,0 -11.90554,-3.27657 -16.4756,-3.27657 -4.570058,0 -13.554912,5.67098 -22.484316,5.67098 -6.768886,-0.11694 -10.041421,-1.96695 -12.460033,-4.53376 -2.797685,-2.96907 -4.112345,-6.89894 -2.895478,-10.21079 z" /><path
   style="opacity:1;fill:#414248;stroke-width:1.00817478"
   inkscape:connector-curvature="0"
   id="path184"
   d="m 249.04293,277.87469 c -2.64646,-2.39441 -6.55314,-10.20777 -6.80921,-12.22412 -0.25608,-2.01634 -1.25619,-4.72632 -6.88987,-4.72632 -5.63368,0 -16.33646,3.27859 -16.33646,3.27859 5.68711,2.96 8.10774,3.46408 -5.0812,12.41164 -13.12442,8.9042 -43.46242,9.32158 -43.75882,9.32561 -0.29641,-0.004 -30.6344,-0.42141 -43.75882,-9.32561 -13.18895,-8.94756 -10.76832,-9.45164 -5.0812,-12.41164 0,0 -10.70279,-3.27859 -16.33647,-3.27859 -5.633684,0 -6.633793,2.70998 -6.889869,4.72632 -0.256077,2.01635 -4.162754,9.82971 -6.809213,12.22412 -2.646459,2.39442 -2.268393,4.53679 1.38624,6.67916 3.653626,2.14237 34.138822,21.79271 77.476222,21.80178 v 0 c 0.004,0 0.009,0 0.0141,0 0.005,0 0.009,0 0.0141,0 v 0 c 43.33639,-0.009 73.82259,-19.65941 77.47622,-21.80178 3.65261,-2.14237 4.03068,-4.28474 1.38422,-6.67916 z" /><path
   style="opacity:1;fill:#414248;stroke-width:1.00817478"
   inkscape:connector-curvature="0"
   id="path186"
   d="m 121.87176,265.69292 c 0,0 -4.53679,2.01635 -2.77248,3.52861 1.76431,1.51226 10.63423,8.14807 13.67589,8.23276 3.04167,0.0847 0.10284,-2.09902 2.70695,-4.20006 2.60412,-2.10104 1.09185,-3.78066 1.09185,-3.78066 0,0 0.0847,1.09287 -1.09185,1.76431 -1.17654,0.67144 -1.46387,1.42959 -5.60545,0.33673 -4.14158,-1.09286 -8.00491,-4.78883 -8.00491,-5.88169 z" /><path
   style="opacity:1;fill:#414248;stroke-width:1.00817478"
   inkscape:connector-curvature="0"
   id="path188"
   d="m 124.93863,264.20284 c 0,0 9.45063,3.03964 10.71186,4.47226 1.26122,1.43262 -0.31455,1.95384 -2.52044,1.95384 -2.20589,0 -6.9312,-1.38624 -7.9424,-2.78155 -0.34782,-0.47989 0.69463,-0.49703 0.63313,-1.46992 -0.0514,-0.81864 -0.88215,-2.17463 -0.88215,-2.17463 z" /><path
   style="opacity:1;fill:#cc975e;fill-opacity:1;stroke-width:1.00817478"
   inkscape:connector-curvature="0"
   id="path190"
   d="m 189.39225,144.62725 h -19.22488 -19.22489 l -18.1663,22.17985 c 0,0 0,2.14036 0,19.27328 0,34.38582 36.78628,57.54863 37.37707,57.91762 v 0.0182 c 0,0 0.0131,-0.008 0.0141,-0.009 0.001,10e-4 0.0141,0.009 0.0141,0.009 v -0.0182 c 0.59079,-0.36899 37.37707,-23.5318 37.37707,-57.91762 0,-17.13292 0,-19.27328 0,-19.27328 z m 13.97028,41.73743 c 0,31.43187 -32.89775,52.57128 -33.19617,52.76182 -0.29741,-0.19054 -33.19617,-21.32995 -33.19617,-52.76182 0,-15.60553 0,-17.55534 0,-17.55534 l 16.12878,-20.20282 h 17.06638 0.001 17.06638 l 16.12878,20.20282 c 10e-4,0.001 10e-4,1.94981 10e-4,17.55534 z" /><g
   id="g192"
   transform="matrix(1.0081748,0,0,1.0081748,11.869803,11.212463)"
   style="opacity:1">
		<defs
   id="defs194"><path
     inkscape:connector-curvature="0"
     d="m 187.795,174.218 c 0,29.145 -30.505,48.746 -30.781,48.924 -0.276,-0.178 -30.781,-19.779 -30.781,-48.924 0,-14.471 0,-16.278 0,-16.278 l 14.956,-18.733 h 15.825 10e-4 15.825 l 14.956,18.733 c -0.001,-0.001 -0.001,1.807 -0.001,16.278 z"
     id="SVGID_1_" /></defs>
		<clipPath
   id="SVGID_2_">
			<use
   height="100%"
   width="100%"
   y="0"
   x="0"
   style="overflow:visible"
   id="use198"
   overflow="visible"
   xlink:href="#SVGID_1_" />
		</clipPath>
		<rect
   style="fill:#ffffff"
   id="rect200"
   height="76.464996"
   width="23.759001"
   clip-path="url(#SVGID_2_)"
   y="139.207"
   x="145.12" />
		<rect
   style="fill:#000000"
   id="rect202"
   height="79.094002"
   width="23.759001"
   clip-path="url(#SVGID_2_)"
   y="136.28101"
   x="123.222" />
		<rect
   style="fill:#007a3d;fill-opacity:1"
   id="rect204"
   height="79.094002"
   width="23.759001"
   clip-path="url(#SVGID_2_)"
   y="135.786"
   x="167.047" />
		<g
   id="g206"
   clip-path="url(#SVGID_2_)">
			<polygon
   style="fill:#ce1126;fill-opacity:1"
   id="polygon208"
   points="163.216,154.17 159.839,157.476 161.058,161.916 157.014,159.528 152.97,161.916 154.188,157.476 150.812,154.17 155.268,154.155 157.014,149.959 158.76,154.155 " />
			<polygon
   style="fill:#ce1126;fill-opacity:1"
   id="polygon210"
   points="163.216,175.379 159.839,178.684 161.058,183.125 157.014,180.736 152.97,183.125 154.188,178.684 150.812,175.379 155.268,175.363 157.014,171.168 158.76,175.363 " />
			<polygon
   style="fill:#ce1126;fill-opacity:1"
   id="polygon212"
   points="163.216,196.588 159.839,199.893 161.058,204.334 157.014,201.945 152.97,204.334 154.188,199.893 150.812,196.588 155.268,196.572 157.014,192.377 158.76,196.572 " />
		</g>
	</g><path
   inkscape:connector-curvature="0"
   style="opacity:1;fill:#cc975e;fill-opacity:1;stroke-width:1.00817478"
   id="path214"
   d="m 197.12193,89.598054 c -7.39295,0.08368 -8.69551,-0.002 -8.69551,-0.002 0,0 0.37807,-3.212045 -5.7345,-3.212045 -6.11256,0 -14.87058,2.394415 -18.52521,7.498804 -3.65463,5.104389 -5.48245,11.720037 -11.97208,18.461707 0,0 0.94567,1.1342 4.22224,0.56659 0,0 -1.44975,3.84317 -5.85951,8.56949 0,0 1.07068,1.57476 3.90668,0.75613 0,0 -3.9702,5.797 -6.3636,8.31743 0,0 1.95384,0.94567 4.0952,0.63011 0,0 -9.89221,14.27878 -9.76719,20.37219 l 7.89703,-9.95371 h 39.15045 l 9.24194,10.83788 c 0,0 3.19188,3.36025 0.67144,-5.41894 -2.52043,-8.77919 -9.07357,-14.15679 -9.07357,-14.15679 0,0 0.16937,-1.84799 2.60512,0 2.43575,1.84798 2.18472,-0.33572 1.51227,-2.35207 -0.67246,-2.01635 -1.59695,-3.78066 -2.68881,-4.45311 -1.09185,-0.67245 -10e-4,-1.76431 1.09186,-1.09185 1.09286,0.67245 1.68062,-0.75614 1.17654,-2.6888 -0.50409,-1.93267 -2.52145,-6.38477 -4.45311,-8.31744 0,0 0.12602,-7.72968 0.12602,-8.73786 0,-1.00817 1.1342,-5.965369 6.80518,-6.049047 4.0327,-0.06049 5.50262,-2.184715 3.40259,-2.184715 -2.10003,0 -6.05006,-0.672453 -7.22559,0 -1.17553,0.672452 -3.27556,0.830736 -1.42757,-0.29842 1.84798,-1.129156 8.54529,-3.397549 9.60689,-2.222017 1.06161,1.175532 0.97894,1.693734 1.81875,-0.329673 0.83981,-2.023407 1.84899,-4.625506 -5.54395,-4.541828 z m -15.37467,0.08368 c 4.62047,0 6.80518,2.940846 3.94902,4.158721 -2.85616,1.217875 0.25205,-1.890328 -4.53678,-1.890328 -4.78883,0 -10.99213,3.780656 -10.99213,3.780656 -2.87028,0.924496 6.95943,-6.049049 11.57989,-6.049049 z m 1.26022,4.011527 c 0,1.701799 -0.18954,3.276568 -2.83499,3.276568 -2.64545,0 -4.02161,-2.537576 -3.78267,-2.962017 0.40126,-0.71278 6.61766,-2.015342 6.61766,-0.314551 z m -21.54974,19.830799 c 0,0 1.21788,2.14238 3.78066,2.14238 2.56278,0 3.823,-2.14238 3.823,-2.14238 0,0 1.44975,2.16052 3.92785,2.16052 2.47809,0 4.26357,-1.78245 4.26357,-1.78245 0,0 1.72196,2.56278 3.73831,2.56278 2.01635,0 3.823,-2.43676 3.823,-2.43676 l 2.26839,4.05085 -2.26839,-1.89033 c 0,0 -1.80665,2.43676 -3.823,2.43676 -2.01635,0 -3.73831,-2.56278 -3.73831,-2.56278 0,0 -1.78548,1.7018 -4.26357,1.7018 -2.4781,0 -3.92785,-2.07886 -3.92785,-2.07886 0,0 -1.26022,2.14237 -3.823,2.14237 -2.56278,0 -3.78066,-2.14237 -3.78066,-2.14237 -0.33572,0.42041 -2.56278,1.38624 -2.56278,1.38624 0,0 2.22706,-3.12837 2.56278,-3.54777 z m -3.10517,9.60286 c 0,0 1.41749,2.14237 4.40068,2.14237 2.98319,0 4.45008,-2.14237 4.45008,-2.14237 0,0 1.71188,2.43676 4.59627,2.43676 2.88338,0 4.93703,-2.0587 4.93703,-2.0587 0,0 2.00426,2.56278 4.35129,2.56278 2.34703,0 4.44907,-2.43675 4.44907,-2.43675 l 2.64041,4.05084 -2.64041,-1.89033 c 0,0 -2.10204,2.43676 -4.44907,2.43676 -2.34703,0 -4.35129,-2.56278 -4.35129,-2.56278 0,0 -2.07885,2.32788 -4.96223,2.32788 -2.88439,0 -4.57208,-2.70594 -4.57208,-2.70594 0,0 -1.46689,2.14237 -4.45008,2.14237 -2.98218,0 -4.40068,-2.14237 -4.40068,-2.14237 -0.39117,0.42041 -2.98218,1.38624 -2.98218,1.38624 0,0 2.59302,-3.12736 2.98319,-3.54676 z m 32.85944,15.31014 -3.26246,-2.09297 c 0,0 -2.59705,2.69788 -5.49757,2.69788 -2.89951,0 -5.3766,-2.83701 -5.3766,-2.83701 0,0 -2.56782,2.83701 -6.13172,2.83701 -3.5639,0 -5.6488,-3.2554 -5.6488,-3.2554 0,0 -1.7885,2.79264 -5.4754,2.79264 -3.68488,0 -5.46027,-2.79264 -5.46027,-2.79264 -0.48292,0.46477 -3.68488,1.53444 -3.68488,1.53444 0,0 3.20196,-3.46207 3.68488,-3.92785 0,0 1.7522,2.37224 5.43708,2.37224 3.68589,0 5.49859,-2.37224 5.49859,-2.37224 0,0 2.11616,2.69788 5.67905,2.69788 3.56289,0 6.10046,-2.27848 6.10046,-2.27848 0,0 2.47709,2.83701 5.3766,2.83701 2.90052,0 5.49758,-2.69788 5.49758,-2.69788 z" /><ellipse
   style="opacity:1;fill:#414248;stroke-width:1.00820303"
   id="ellipse216"
   ry="1.3872874"
   rx="1.9387745"
   cy="119.03855"
   cx="229.78717"
   transform="rotate(42.686073)" /><ellipse
   style="opacity:1;fill:#414248;stroke-width:1.00820303"
   id="ellipse218"
   ry="1.3872874"
   rx="1.9387745"
   cy="-349.77005"
   cx="-20.36998"
   transform="rotate(137.31393)" /><path
   style="opacity:1;fill:#ffffff;stroke-width:1.00817478"
   inkscape:connector-curvature="0"
   id="path220"
   d="m 181.74726,89.681733 c 4.62047,0 6.80518,2.940846 3.94902,4.158721 -2.85616,1.217875 0.25205,-1.890328 -4.53678,-1.890328 -4.78883,0 -10.99213,3.780656 -10.99213,3.780656 -2.87028,0.924496 6.95943,-6.049049 11.57989,-6.049049 z" /><path
   style="opacity:1;fill:#ffffff;stroke-width:1.00817478"
   inkscape:connector-curvature="0"
   id="path222"
   d="m 183.00748,93.69326 c 0,1.701799 -0.18954,3.276568 -2.83499,3.276568 -2.64545,0 -4.02161,-2.537576 -3.78267,-2.962017 0.40126,-0.71278 6.61766,-2.015342 6.61766,-0.314551 z" /><path
   style="opacity:1;fill:#ffffff;stroke-width:1.00817478"
   inkscape:connector-curvature="0"
   id="path224"
   d="m 161.45774,113.52406 c 0,0 1.21788,2.14238 3.78066,2.14238 2.56278,0 3.823,-2.14238 3.823,-2.14238 0,0 1.44975,2.16052 3.92785,2.16052 2.47809,0 4.26357,-1.78245 4.26357,-1.78245 0,0 1.72196,2.56278 3.73831,2.56278 2.01635,0 3.823,-2.43676 3.823,-2.43676 l 2.26839,4.05085 -2.26839,-1.89033 c 0,0 -1.80665,2.43676 -3.823,2.43676 -2.01635,0 -3.73831,-2.56278 -3.73831,-2.56278 0,0 -1.78548,1.7018 -4.26357,1.7018 -2.4781,0 -3.92785,-2.07886 -3.92785,-2.07886 0,0 -1.26022,2.14237 -3.823,2.14237 -2.56278,0 -3.78066,-2.14237 -3.78066,-2.14237 -0.33572,0.42041 -2.56278,1.38624 -2.56278,1.38624 0,0 2.22706,-3.12837 2.56278,-3.54777 z" /><path
   style="opacity:1;fill:#ffffff;stroke-width:1.00817478"
   inkscape:connector-curvature="0"
   id="path226"
   d="m 158.35257,123.12692 c 0,0 1.41749,2.14237 4.40068,2.14237 2.98319,0 4.45008,-2.14237 4.45008,-2.14237 0,0 1.71188,2.43676 4.59627,2.43676 2.88338,0 4.93703,-2.0587 4.93703,-2.0587 0,0 2.00426,2.56278 4.35129,2.56278 2.34703,0 4.44907,-2.43675 4.44907,-2.43675 l 2.64041,4.05084 -2.64041,-1.89033 c 0,0 -2.10204,2.43676 -4.44907,2.43676 -2.34703,0 -4.35129,-2.56278 -4.35129,-2.56278 0,0 -2.07885,2.32788 -4.96223,2.32788 -2.88439,0 -4.57208,-2.70594 -4.57208,-2.70594 0,0 -1.46689,2.14237 -4.45008,2.14237 -2.98218,0 -4.40068,-2.14237 -4.40068,-2.14237 -0.39117,0.42041 -2.98218,1.38624 -2.98218,1.38624 0,0 2.59302,-3.12736 2.98319,-3.54676 z" /><path
   style="opacity:1;fill:#ffffff;stroke-width:1.00817478"
   inkscape:connector-curvature="0"
   id="path228"
   d="m 191.21201,138.43706 -3.26246,-2.09297 c 0,0 -2.59705,2.69788 -5.49757,2.69788 -2.89951,0 -5.3766,-2.83701 -5.3766,-2.83701 0,0 -2.56782,2.83701 -6.13172,2.83701 -3.5639,0 -5.6488,-3.2554 -5.6488,-3.2554 0,0 -1.7885,2.79264 -5.4754,2.79264 -3.68488,0 -5.46027,-2.79264 -5.46027,-2.79264 -0.48292,0.46477 -3.68488,1.53444 -3.68488,1.53444 0,0 3.20196,-3.46207 3.68488,-3.92785 0,0 1.7522,2.37224 5.43708,2.37224 3.68589,0 5.49859,-2.37224 5.49859,-2.37224 0,0 2.11616,2.69788 5.67905,2.69788 3.56289,0 6.10046,-2.27848 6.10046,-2.27848 0,0 2.47709,2.83701 5.3766,2.83701 2.90052,0 5.49758,-2.69788 5.49758,-2.69788 z" />

<path
   inkscape:connector-curvature="0"
   id="path15627"
   style="font-style:normal;font-variant:normal;font-weight:normal;font-stretch:normal;font-size:medium;line-height:1.25;font-family:'Segoe UI Emoji';-inkscape-font-specification:'Segoe UI Emoji, Normal';font-variant-ligatures:normal;font-variant-caps:normal;font-variant-numeric:normal;font-feature-settings:normal;text-align:start;letter-spacing:0px;word-spacing:0px;writing-mode:lr-tb;text-anchor:start;opacity:1;fill:#ffffff;fill-opacity:1;stroke:none;stroke-width:0.53454578"
   d="m 239.57742,279.59442 q 0.35794,0.75074 0.41772,1.58256 0.0364,0.4416 -0.0499,1.47877 l -0.21592,-0.0144 q -0.10127,-0.28538 -0.25221,-0.6508 -0.14149,-0.36984 -0.19966,-0.49184 -0.46532,-0.97594 -1.45918,-2.64633 -0.98882,-1.68418 -2.11581,-3.48761 -0.68346,-1.09244 -1.41781,-2.21854 -0.007,-0.5012 0.002,-1.09017 0.0191,-0.59338 0.0365,-1.11721 0.66221,0.99915 1.77633,2.75124 1.12362,1.74767 1.96815,3.17793 1.05707,1.77857 1.50896,2.72637 z" /><path
   inkscape:connector-curvature="0"
   id="path15629"
   style="font-style:normal;font-variant:normal;font-weight:normal;font-stretch:normal;font-size:medium;line-height:1.25;font-family:'Segoe UI Emoji';-inkscape-font-specification:'Segoe UI Emoji, Normal';font-variant-ligatures:normal;font-variant-caps:normal;font-variant-numeric:normal;font-feature-settings:normal;text-align:start;letter-spacing:0px;word-spacing:0px;writing-mode:lr-tb;text-anchor:start;opacity:1;fill:#ffffff;fill-opacity:1;stroke:none;stroke-width:0.53454578"
   d="m 237.57528,283.44785 -4.7525,2.06242 -0.73616,-1.65185 3.78084,-1.64075 -4.73256,-7.55357 -0.60603,-0.0203 q -0.29193,-0.65503 -0.43032,-1.27474 -0.14264,-0.6292 -0.1529,-1.27052 l 0.19085,0.0418 q 0.24538,0.5506 0.99339,0.55454 0.56565,-0.0188 1.1409,-0.0419 0.21155,0.47468 0.37574,1.04919 0.16419,0.57453 0.17682,0.88628 l -0.52946,0.0485 4.45215,6.95017 z" /><path
   inkscape:connector-curvature="0"
   id="path15631"
   style="font-style:normal;font-variant:normal;font-weight:normal;font-stretch:normal;font-size:medium;line-height:1.25;font-family:'Segoe UI Emoji';-inkscape-font-specification:'Segoe UI Emoji, Normal';font-variant-ligatures:normal;font-variant-caps:normal;font-variant-numeric:normal;font-feature-settings:normal;text-align:start;letter-spacing:0px;word-spacing:0px;writing-mode:lr-tb;text-anchor:start;opacity:1;fill:#ffffff;fill-opacity:1;stroke:none;stroke-width:0.53454578"
   d="m 233.66579,285.23469 -11.32381,4.31466 -0.65871,-1.68339 7.99038,-3.04455 q -1.29908,-0.38326 -2.15193,-0.54745 -1.06118,-0.20711 -1.86171,-0.18002 -0.90014,0.0317 -1.71389,0.34176 -0.5,0.19053 -0.98332,0.4525 0.005,-0.82427 0.29463,-1.43519 0.42061,-0.88288 1.44025,-1.27139 1.00002,-0.38103 2.74137,0.0672 0.86575,0.22596 2.92519,0.99767 1.59893,0.60253 2.05458,0.52896 l 0.58826,-0.22414 z m -4.15303,3.98369 -0.2158,1.69421 -1.90627,-0.20749 0.1728,-1.68894 z" /><path
   inkscape:connector-curvature="0"
   id="path15633"
   style="font-style:normal;font-variant:normal;font-weight:normal;font-stretch:normal;font-size:medium;line-height:1.25;font-family:'Segoe UI Emoji';-inkscape-font-specification:'Segoe UI Emoji, Normal';font-variant-ligatures:normal;font-variant-caps:normal;font-variant-numeric:normal;font-feature-settings:normal;text-align:start;letter-spacing:0px;word-spacing:0px;writing-mode:lr-tb;text-anchor:start;opacity:1;fill:#ffffff;fill-opacity:1;stroke:none;stroke-width:0.53454578"
   d="m 223.14263,289.16978 -5.6866,1.85887 -0.57504,-1.71298 4.95831,-1.62081 q -0.38996,-1.16168 -0.87422,-1.68074 -0.33166,-0.36137 -1.34759,-0.9142 l 0.23949,-1.85906 q 1.01904,0.66106 1.36716,1.10444 0.52385,0.66999 1.11211,2.42235 z m 0.56458,1.97859 -0.25906,1.66884 -1.91375,-0.29213 0.279,-1.67534 z m -1.9673,1.65913 -0.27564,1.65239 -1.92704,-0.29871 0.30227,-1.67201 z" /><path
   inkscape:connector-curvature="0"
   id="path15635"
   style="font-style:normal;font-variant:normal;font-weight:normal;font-stretch:normal;font-size:medium;line-height:1.25;font-family:'Segoe UI Emoji';-inkscape-font-specification:'Segoe UI Emoji, Normal';font-variant-ligatures:normal;font-variant-caps:normal;font-variant-numeric:normal;font-feature-settings:normal;text-align:start;letter-spacing:0px;word-spacing:0px;writing-mode:lr-tb;text-anchor:start;opacity:1;fill:#ffffff;fill-opacity:1;stroke:none;stroke-width:0.53454578"
   d="m 218.38836,290.94766 -0.80395,0.20462 q -0.6106,0.15541 -1.12071,0.11388 -0.50257,-0.0542 -1.07537,-0.29394 -0.32767,0.49038 -0.62937,0.7064 -0.43106,0.3025 -1.34695,0.53561 l -1.25173,0.31859 q 0.24149,0.92388 0.022,1.91152 -0.28346,1.2824 -1.30089,2.24823 -1.27811,1.21426 -3.52712,1.78667 -2.03533,0.51803 -3.29778,0.0896 -1.38259,-0.47278 -1.79993,-2.0695 -0.22574,-0.86363 -0.24301,-1.80173 -0.0172,-0.9381 0.11552,-1.9251 0.0822,-0.59927 0.33771,-1.86385 l 0.45431,0.0771 q -0.3344,1.62739 -0.35059,2.52046 -0.006,0.89049 0.17508,1.5834 0.32547,1.24523 1.39162,1.67003 1.07371,0.41219 2.74267,-0.0126 1.9539,-0.4973 3.31471,-1.56124 1.69533,-1.32044 1.30423,-2.81674 -0.26247,-1.00422 -0.87523,-1.81218 -0.48148,-0.63788 -1.19145,-1.15334 l 0.30656,-2.27363 q 0.72406,0.69396 1.07261,1.27999 0.48803,0.82899 0.89224,2.3755 l 1.25172,-0.31859 q 0.96677,-0.24606 1.29772,-0.64089 0.29056,-0.34171 0.15408,-0.8639 -0.0761,-0.29122 -0.19296,-0.57209 -0.10927,-0.29349 -0.27237,-0.62685 l 0.24958,-0.70613 0.41743,0.93265 q 0.48111,0.92716 0.97051,1.26312 0.54322,0.37584 1.30647,0.18158 0.23406,-0.0596 0.31943,-0.23124 0.093,-0.18431 0.0352,-0.40523 -0.13124,-0.50212 -0.59633,-0.99423 -0.34429,-0.36219 -0.84126,-0.68555 l 0.39573,-1.26813 q 0.68042,0.6515 0.85568,0.90679 0.38925,0.57567 0.70423,1.78074 z m -5.65927,-10.19094 -0.40038,1.6656 -1.85398,-0.44921 0.36984,-1.65783 z m 2.472,1.27725 -0.41581,1.64811 -1.87434,-0.44404 0.3879,-1.63029 z m -2.10438,1.49953 -0.39283,1.65296 -1.86909,-0.42393 0.37247,-1.6478 z" /><path
   inkscape:connector-curvature="0"
   id="path15637"
   style="font-style:normal;font-variant:normal;font-weight:normal;font-stretch:normal;font-size:medium;line-height:1.25;font-family:'Segoe UI Emoji';-inkscape-font-specification:'Segoe UI Emoji, Normal';font-variant-ligatures:normal;font-variant-caps:normal;font-variant-numeric:normal;font-feature-settings:normal;text-align:start;letter-spacing:0px;word-spacing:0px;writing-mode:lr-tb;text-anchor:start;opacity:1;fill:#ffffff;fill-opacity:1;stroke:none;stroke-width:0.511383"
   d="m 193.04076,295.06944 q 0.13166,0.72883 -0.0553,1.45276 -0.0946,0.38544 -0.48625,1.24814 l -0.209,-0.0657 q -0.0156,-0.26843 -0.0568,-0.61742 -0.0305,-0.35038 -0.0519,-0.46883 -0.17116,-0.94749 -0.65911,-2.61817 -0.47889,-1.68122 -1.059,-3.49838 -0.35219,-1.10095 -0.74467,-2.24326 0.14151,-0.42889 0.32497,-0.92856 0.19416,-0.50107 0.36613,-0.94328 0.35874,1.01615 0.94133,2.78637 0.59326,1.7688 1.00468,3.19773 0.51839,1.77861 0.68462,2.69878 z" /><path
   inkscape:connector-curvature="0"
   id="path15639"
   style="font-style:normal;font-variant:normal;font-weight:normal;font-stretch:normal;font-size:medium;line-height:1.25;font-family:'Segoe UI Emoji';-inkscape-font-specification:'Segoe UI Emoji, Normal';font-variant-ligatures:normal;font-variant-caps:normal;font-variant-numeric:normal;font-feature-settings:normal;text-align:start;letter-spacing:0px;word-spacing:0px;writing-mode:lr-tb;text-anchor:start;opacity:1;fill:#ffffff;fill-opacity:1;stroke:none;stroke-width:0.511383"
   d="m 189.92582,297.85661 -5.30307,0.57638 -0.23835,-1.59096 4.21883,-0.45854 -2.43906,-7.61478 -0.59248,-0.16792 q -0.0945,-0.6309 -0.0478,-1.19351 0.0453,-0.57174 0.22481,-1.12092 l 0.17611,0.083 q 0.0794,0.53032 0.81692,0.71965 0.56415,0.12451 1.13905,0.24789 0.0684,0.45718 0.0608,0.98768 -0.008,0.53052 -0.0875,0.79935 l -0.53718,-0.0901 2.34067,7.03077 z" /><path
   inkscape:connector-curvature="0"
   id="path15641"
   style="font-style:normal;font-variant:normal;font-weight:normal;font-stretch:normal;font-size:medium;line-height:1.25;font-family:'Segoe UI Emoji';-inkscape-font-specification:'Segoe UI Emoji, Normal';font-variant-ligatures:normal;font-variant-caps:normal;font-variant-numeric:normal;font-feature-settings:normal;text-align:start;letter-spacing:0px;word-spacing:0px;writing-mode:lr-tb;text-anchor:start;opacity:1;fill:#ffffff;fill-opacity:1;stroke:none;stroke-width:0.511383"
   d="m 185.45502,297.82942 q 0.15628,1.51505 -1.00455,3.11018 -1.29376,1.78088 -3.21269,1.92448 -0.71151,0.0532 -1.48033,-0.028 -0.56023,-0.0598 -1.46981,-0.24163 -0.7225,-0.15874 -1.44406,-0.30831 l 0.1501,-0.3351 q 0.61602,0.0742 1.28689,0.15353 0.68259,0.0877 1.21082,0.0482 1.31525,-0.0985 2.43159,-0.75566 0.86992,-0.5185 1.69818,-1.44102 0.41904,-0.46626 1.17029,-1.5033 -1.45536,0.10889 -2.21838,-0.23187 -0.86573,-0.38861 -0.97182,-1.41703 -0.0975,-0.94577 0.33657,-1.7925 0.50708,-0.98178 1.4342,-1.05116 0.9379,-0.0702 1.4432,0.82656 0.39825,0.70117 0.53181,1.99587 z m -0.78242,-0.95006 q -0.32809,-0.86373 -0.69735,-1.17845 -0.32137,-0.27206 -0.74181,-0.24058 -0.30186,0.0225 -0.51025,0.21397 -0.19856,0.18141 -0.17204,0.43852 0.0464,0.44992 0.54538,0.65315 0.49803,0.19407 1.57607,0.11334 z" /><g
   id="g15693"
   transform="matrix(1.0081748,0.09555892,0,1.0081748,10.361773,-3.976257)"
   style="opacity:1"><path
     d="m 162.62499,288.06822 -11.1973,-1.40699 0.16037,-1.5853 1.35953,0.1616 q 0.60382,0.0759 1.1443,-0.0223 0.62317,-0.11545 1.43567,-0.50238 0.20037,-0.3808 0.34412,-0.82409 0.14471,-0.45238 0.18803,-0.8806 0.0987,-0.97485 0.0399,-2.1725 -0.0466,-0.87317 -0.19595,-2.06374 -0.0813,-0.6192 -0.22459,-1.51373 l -0.52197,-0.35161 q 0.11739,-0.53888 0.28448,-1.03457 0.17592,-0.49461 0.43694,-0.94159 0.0988,0.44607 0.58096,0.74655 0.39798,0.24377 1.03975,0.38901 -0.18366,0.92728 -0.25394,1.17678 -0.0702,0.24954 -0.23229,0.60747 -0.0613,-0.0164 -0.31934,-0.1324 l -0.11177,-0.0508 q 0.20298,1.10503 0.28408,2.25934 0.0909,1.14633 0.0135,1.91164 -0.0654,0.64688 -0.26988,1.42394 -0.073,0.27685 -0.24829,0.85458 1.64701,-0.72498 2.1033,-0.87986 1.37871,-0.47263 2.31995,-0.35436 1.19876,0.15068 1.72091,0.94515 0.47531,0.72406 0.35277,1.93583 z m -1.1717,-2.46315 q 0.047,-0.46467 -0.39968,-0.76068 -0.43686,-0.30403 -1.30707,-0.41337 -0.64823,-0.0814 -1.52129,0.10409 -0.71656,0.14988 -1.54036,0.47079 -0.60852,0.23725 -1.26084,0.55202 l 3.86267,0.48538 q 2.0956,0.26333 2.16657,-0.43822 z"
     style="font-style:normal;font-variant:normal;font-weight:normal;font-stretch:normal;font-size:medium;line-height:1.25;font-family:'Segoe UI Emoji';-inkscape-font-specification:'Segoe UI Emoji, Normal';font-variant-ligatures:normal;font-variant-caps:normal;font-variant-numeric:normal;font-feature-settings:normal;text-align:start;letter-spacing:0px;word-spacing:0px;writing-mode:lr-tb;text-anchor:start;fill:#ffffff;fill-opacity:1;stroke:none;stroke-width:0.46345609"
     id="path15643"
     inkscape:connector-curvature="0" /><path
     d="m 152.18368,286.68053 -5.02989,-0.88789 0.23529,-1.57399 4.38568,0.77425 q 0.15964,-1.06739 -0.004,-1.67188 -0.10951,-0.41857 -0.6618,-1.26812 l 0.90875,-1.35298 q 0.51228,0.93533 0.60215,1.4247 0.13411,0.73861 -0.10661,2.34878 z m 0.55249,-8.48151 -0.8844,1.19018 -1.31594,-1.01222 0.85045,-1.20543 z"
     style="font-style:normal;font-variant:normal;font-weight:normal;font-stretch:normal;font-size:medium;line-height:1.25;font-family:'Segoe UI Emoji';-inkscape-font-specification:'Segoe UI Emoji, Normal';font-variant-ligatures:normal;font-variant-caps:normal;font-variant-numeric:normal;font-feature-settings:normal;text-align:start;letter-spacing:0px;word-spacing:0px;writing-mode:lr-tb;text-anchor:start;fill:#ffffff;fill-opacity:1;stroke:none;stroke-width:0.46345609"
     id="path15645"
     inkscape:connector-curvature="0" /><path
     d="m 147.88817,286.00211 -1.53125,-0.34757 q -1.34751,-0.30602 -2.04419,-0.3891 -0.68793,-0.0811 -0.7304,0.13382 -0.0585,0.29572 0.75532,0.48045 0.35876,0.0814 0.5652,0.14711 0.20645,0.0657 0.89928,0.30713 0.40938,0.14913 0.55094,0.26551 0.22719,0.19202 0.1617,0.5236 -0.3311,1.67584 -1.55786,2.19326 -1.33716,0.56728 -4.04093,-0.0464 -1.88126,-0.42701 -2.86327,-1.33344 -1.04315,-0.96717 -0.78818,-2.25762 0.20535,-1.03957 0.99555,-2.07745 0.28447,-0.37551 1.41463,-1.56096 l 0.3146,0.2587 q -0.4476,0.50701 -0.88466,1.00707 -0.69351,0.87256 -0.81745,1.49987 -0.21788,1.10228 0.78891,1.93007 0.9595,0.78895 2.82327,1.21201 1.25124,0.28412 2.24394,0.30351 1.22031,0.0241 1.30353,-0.39701 0.0301,-0.15234 -0.087,-0.25384 -0.11533,-0.11032 -0.42156,-0.17994 -0.23094,-0.0806 -0.73313,-0.22265 -0.49167,-0.14905 -0.64917,-0.18478 -0.55126,-0.12511 -0.75917,-0.32217 -0.20617,-0.20596 -0.14773,-0.50168 0.21953,-1.11127 0.99817,-1.67422 0.63832,-0.45439 1.57697,-0.5316 0.70572,-0.0551 1.44071,0.11171 l 1.53128,0.34755 z m -4.75745,4.92209 -0.96601,0.586 -0.8543,-0.85873 0.95393,-0.66364 z m -1.81126,-0.41113 -0.94851,0.58997 -0.8893,-0.86667 0.98017,-0.6577 z"
     style="font-style:normal;font-variant:normal;font-weight:normal;font-stretch:normal;font-size:medium;line-height:1.25;font-family:'Segoe UI Emoji';-inkscape-font-specification:'Segoe UI Emoji, Normal';font-variant-ligatures:normal;font-variant-caps:normal;font-variant-numeric:normal;font-feature-settings:normal;text-align:start;letter-spacing:0px;word-spacing:0px;writing-mode:lr-tb;text-anchor:start;fill:#ffffff;fill-opacity:1;stroke:none;stroke-width:0.46345609"
     id="path15647"
     inkscape:connector-curvature="0" /></g><path
   inkscape:connector-curvature="0"
   id="path15649"
   style="font-style:normal;font-variant:normal;font-weight:normal;font-stretch:normal;font-size:medium;line-height:1.25;font-family:'Segoe UI Emoji';-inkscape-font-specification:'Segoe UI Emoji, Normal';font-variant-ligatures:normal;font-variant-caps:normal;font-variant-numeric:normal;font-feature-settings:normal;text-align:start;letter-spacing:0px;word-spacing:0px;writing-mode:lr-tb;text-anchor:start;opacity:1;fill:#ffffff;fill-opacity:1;stroke:none;stroke-width:0.50886393"
   d="m 142.98868,295.18105 q -0.24987,0.75478 -0.75775,1.37183 -0.26645,0.33054 -1.00993,0.9952 l -0.1386,-0.15056 q 0.11893,-0.26425 0.25644,-0.61651 0.14697,-0.34917 0.18761,-0.47183 0.32484,-0.98122 0.74539,-2.78922 0.43311,-1.81429 0.85017,-3.80138 0.2521,-1.20421 0.49149,-2.465 0.32614,-0.35265 0.72129,-0.75575 0.40461,-0.39997 0.76217,-0.7527 -0.2049,1.12559 -0.59706,3.06862 -0.3826,1.94618 -0.74711,3.49005 -0.4486,1.92435 -0.76406,2.87726 z" /><path
   inkscape:connector-curvature="0"
   id="path15651"
   style="font-style:normal;font-variant:normal;font-weight:normal;font-stretch:normal;font-size:medium;line-height:1.25;font-family:'Segoe UI Emoji';-inkscape-font-specification:'Segoe UI Emoji, Normal';font-variant-ligatures:normal;font-variant-caps:normal;font-variant-numeric:normal;font-feature-settings:normal;text-align:start;letter-spacing:0px;word-spacing:0px;writing-mode:lr-tb;text-anchor:start;opacity:1;fill:#ffffff;fill-opacity:1;stroke:none;stroke-width:0.50886393"
   d="m 139.06371,296.55181 -4.62539,-1.64614 0.57983,-1.62918 3.6797,1.30959 1.71157,-8.33649 -0.40358,-0.40734 q 0.22994,-0.64607 0.54222,-1.16787 0.31562,-0.53116 0.73028,-0.98488 l 0.10376,0.15297 q -0.19332,0.54305 0.31872,1.03121 0.40149,0.35386 0.81236,0.71107 -0.16658,0.46817 -0.43146,0.97521 -0.26484,0.50702 -0.46114,0.73254 l -0.39611,-0.30976 -1.50767,7.73391 z" /><path
   inkscape:connector-curvature="0"
   id="path15653"
   style="font-style:normal;font-variant:normal;font-weight:normal;font-stretch:normal;font-size:medium;line-height:1.25;font-family:'Segoe UI Emoji';-inkscape-font-specification:'Segoe UI Emoji, Normal';font-variant-ligatures:normal;font-variant-caps:normal;font-variant-numeric:normal;font-feature-settings:normal;text-align:start;letter-spacing:0px;word-spacing:0px;writing-mode:lr-tb;text-anchor:start;opacity:1;fill:#ffffff;fill-opacity:1;stroke:none;stroke-width:0.50886393"
   d="m 135.1668,295.23408 -0.71045,-0.28443 q -0.59048,-0.23641 -0.95212,-0.56317 -0.35792,-0.33599 -0.59031,-0.77161 -0.57033,0.16776 -0.93759,0.14921 -0.53702,-0.0224 -1.35819,-0.35103 l -0.59972,-0.24009 q -0.47977,-0.19213 -0.88566,-0.5687 -0.26571,-0.24552 -0.6162,-0.707 -0.57586,0.15484 -0.99664,0.13624 -0.41705,-0.0279 -1.24745,-0.36025 l -1.78071,-0.7129 0.64273,-1.60542 1.78073,0.71291 q 0.74734,0.2992 1.12196,0.2993 0.62011,0.002 0.87499,-0.63461 0.10716,-0.26755 0.18653,-0.54621 0.0794,-0.27864 0.13858,-0.64036 l 0.59991,-0.40214 q -0.0816,0.95226 -0.0706,1.40626 0.0256,0.79175 0.23953,1.27348 0.2582,0.5851 0.8487,0.82153 l 0.61816,0.24748 q 0.69199,0.27704 1.10915,0.19753 0.4651,-0.0922 0.67566,-0.61805 0.11455,-0.28601 0.18476,-0.56835 0.0703,-0.28234 0.13122,-0.62191 l 0.60913,-0.39846 -0.15341,0.94488 q -0.16083,1.12388 0.0401,1.66468 0.17333,0.47618 0.70847,0.69043 0.24911,0.0997 0.45584,0.0112 0.21965,-0.0941 0.31569,-0.33394 0.20686,-0.51668 0.0577,-1.24018 -0.0277,-0.11813 -0.21202,-0.78072 l 1.00236,-0.76558 q 0.14925,0.72349 0.12143,1.1941 -0.0478,0.70869 -0.46559,1.75125 z" /><path
   inkscape:connector-curvature="0"
   id="path15655"
   style="font-style:normal;font-variant:normal;font-weight:normal;font-stretch:normal;font-size:medium;line-height:1.25;font-family:'Segoe UI Emoji';-inkscape-font-specification:'Segoe UI Emoji, Normal';font-variant-ligatures:normal;font-variant-caps:normal;font-variant-numeric:normal;font-feature-settings:normal;text-align:start;letter-spacing:0px;word-spacing:0px;writing-mode:lr-tb;text-anchor:start;opacity:1;fill:#ffffff;fill-opacity:1;stroke:none;stroke-width:0.50886393"
   d="m 125.53691,290.71302 q -0.68446,1.49016 -2.46245,2.45617 -1.98322,1.07954 -3.59079,0.34116 -0.59608,-0.27377 -1.16604,-0.69964 -0.41497,-0.31091 -1.04354,-0.89489 -0.49163,-0.47736 -0.9874,-0.94568 l 0.29873,-0.24558 q 0.45183,0.3497 0.94466,0.72918 0.49772,0.39266 0.94025,0.59594 1.10182,0.50608 2.34342,0.3983 0.97092,-0.0899 2.12437,-0.57724 0.58331,-0.24609 1.7365,-0.8757 -1.21922,-0.56002 -1.64596,-1.2263 -0.48312,-0.75781 -0.0186,-1.76931 0.42726,-0.93021 1.22581,-1.52586 0.92886,-0.6889 1.70556,-0.33214 0.78573,0.36089 0.70995,1.4307 -0.0572,0.83788 -0.64168,2.11132 z m -0.11682,-1.24577 q 0.19953,-0.95827 0.0731,-1.42102 -0.1111,-0.40099 -0.46332,-0.56277 -0.25287,-0.11613 -0.52133,-0.0321 -0.25528,0.0795 -0.37143,0.33247 -0.20327,0.44253 0.0862,0.85987 0.29366,0.40832 1.1968,0.82313 z" /><path
   inkscape:connector-curvature="0"
   id="path15657"
   style="font-style:normal;font-variant:normal;font-weight:normal;font-stretch:normal;font-size:medium;line-height:1.25;font-family:'Segoe UI Emoji';-inkscape-font-specification:'Segoe UI Emoji, Normal';font-variant-ligatures:normal;font-variant-caps:normal;font-variant-numeric:normal;font-feature-settings:normal;text-align:start;letter-spacing:0px;word-spacing:0px;writing-mode:lr-tb;text-anchor:start;opacity:1;fill:#ffffff;fill-opacity:1;stroke:none;stroke-width:0.50886393"
   d="m 117.41926,287.65918 q -0.50237,0.97098 -1.87099,1.58326 -1.19878,0.54351 -2.61819,0.64837 -1.35275,0.10572 -2.01477,-0.23675 -0.60906,-0.31514 -1.22388,-0.85701 -0.46994,-0.411 -1.07409,-1.08166 -0.51223,-0.56715 -1.01564,-1.12973 l 0.33275,-0.27544 q 0.5232,0.41618 1.09053,0.85518 0.57162,0.4524 1.08357,0.71727 1.12985,0.58457 2.73129,0.49561 1.45473,-0.0866 2.76096,-0.6864 1.31079,-0.60864 1.73096,-1.42072 0.36078,-0.69733 0.3521,-1.67535 -0.007,-0.78688 -0.26036,-1.74605 l 1.22014,-1.12552 q 0.37672,1.04534 0.3739,1.89432 -0.004,0.96004 -0.48849,1.89571 z" /><path
   inkscape:connector-curvature="0"
   id="path15659"
   style="font-style:normal;font-variant:normal;font-weight:normal;font-stretch:normal;font-size:medium;line-height:1.25;font-family:'Segoe UI Emoji';-inkscape-font-specification:'Segoe UI Emoji, Normal';font-variant-ligatures:normal;font-variant-caps:normal;font-variant-numeric:normal;font-feature-settings:normal;text-align:start;letter-spacing:0px;word-spacing:0px;writing-mode:lr-tb;text-anchor:start;opacity:1;fill:#ffffff;fill-opacity:1;stroke:none;stroke-width:0.50886393"
   d="m 110.70553,278.53712 q -0.16229,0.2735 -0.386,0.53366 -0.21864,0.25163 -0.30673,0.36113 -0.0709,-0.56212 -0.35788,-1.03284 -0.27838,-0.46565 -0.70573,-0.71925 -0.7436,-0.44121 -2.07634,-0.0648 -1.22379,0.34856 -1.50274,0.81865 -0.0963,0.1624 0.0324,0.35436 0.1424,0.18851 0.59539,0.4573 l 0.68376,0.40573 q 0.61538,0.36514 0.89585,0.55468 0.29407,0.18604 0.66375,0.49785 0.36968,0.31183 0.04,0.86738 -1.27297,2.1453 -3.80913,2.15427 -2.32655,0.007 -5.258168,-1.73331 -1.521364,-0.90276 -1.974844,-1.96922 -0.491423,-1.15832 0.274395,-2.44893 0.527445,-0.88887 1.396207,-1.69081 0.663449,-0.61172 1.53842,-1.1904 0.0561,-0.036 1.14198,-0.69757 l 0.27275,0.3583 q -1.10648,0.63776 -1.894091,1.30292 -0.773997,0.66171 -1.154367,1.30273 -0.618735,1.04272 -0.210151,1.99012 0.417127,0.95244 1.759009,1.74868 1.02564,0.6086 2.62805,1.00472 1.37032,0.33937 2.59103,0.40489 1.22071,0.0656 1.35764,-0.16514 0.0963,-0.1624 0.0158,-0.2796 -0.0721,-0.1122 -0.31145,-0.25414 l -1.99999,-1.18675 q -0.36752,-0.21808 -0.49237,-0.6504 -0.12481,-0.43232 0.12369,-0.85112 0.3398,-0.57265 1.39312,-1.27662 1.14678,-0.76409 2.29929,-1.05094 1.38403,-0.34595 2.26437,0.17643 0.56409,0.33471 0.68602,0.86933 0.12192,0.53459 -0.21282,1.09869 z m -8.26366,6.52576 -1.36786,0.86402 -0.9757,-1.5497 1.38496,-0.85387 z m -2.42038,-0.36142 -1.366268,0.84186 -0.979168,-1.56332 1.396976,-0.83518 z" /></svg>