<?xml version="1.0" encoding="UTF-8" standalone="no"?>
<!-- Created with Inkscape (http://www.inkscape.org/) -->

<svg
   xmlns:dc="http://purl.org/dc/elements/1.1/"
   xmlns:cc="http://creativecommons.org/ns#"
   xmlns:rdf="http://www.w3.org/1999/02/22-rdf-syntax-ns#"
   xmlns:svg="http://www.w3.org/2000/svg"
   xmlns="http://www.w3.org/2000/svg"
   xmlns:sodipodi="http://sodipodi.sourceforge.net/DTD/sodipodi-0.dtd"
   xmlns:inkscape="http://www.inkscape.org/namespaces/inkscape"
   width="1024px"
   height="600px"
   viewBox="0 0 1024 600"
   version="1.1"
   id="SVGRoot"
   sodipodi:docname="YPJ Corregido.svg"
   inkscape:version="0.92.0 r15299">
  <sodipodi:namedview
     id="base"
     pagecolor="#ffffff"
     bordercolor="#666666"
     borderopacity="1.0"
     inkscape:pageopacity="0.0"
     inkscape:pageshadow="2"
     inkscape:zoom="0.79785156"
     inkscape:cx="289.36598"
     inkscape:cy="300"
     inkscape:document-units="px"
     inkscape:current-layer="layer1"
     showgrid="false"
     inkscape:window-width="1366"
     inkscape:window-height="705"
     inkscape:window-x="-8"
     inkscape:window-y="-8"
     inkscape:window-maximized="1"
     showguides="true"
     inkscape:guide-bbox="true">
    <sodipodi:guide
       position="954.59416,87.681241"
       orientation="0,1"
       id="guide4490"
       inkscape:locked="false" />
    <sodipodi:guide
       position="966.10938,300"
       orientation="0,1"
       id="guide4504"
       inkscape:locked="false"
       inkscape:label=""
       inkscape:color="rgb(0,0,255)" />
    <sodipodi:guide
       position="281.59622,438.15952"
       orientation="1,0"
       id="guide4506"
       inkscape:locked="false" />
    <sodipodi:guide
       position="500.195,306.882"
       orientation="0,1"
       id="guide4522"
       inkscape:locked="false"
       inkscape:label=""
       inkscape:color="rgb(0,0,255)" />
    <sodipodi:guide
       position="0,599.42578"
       orientation="1,0"
       id="guide4539"
       inkscape:locked="false" />
    <sodipodi:guide
       position="15,577.7207"
       orientation="1,0"
       id="guide4541"
       inkscape:locked="false"
       inkscape:label=""
       inkscape:color="rgb(0,0,255)" />
    <sodipodi:guide
       position="1024,299.40625"
       orientation="1,0"
       id="guide4543"
       inkscape:locked="false"
       inkscape:label=""
       inkscape:color="rgb(0,0,255)" />
    <sodipodi:guide
       position="0,0"
       orientation="-0.28115139,0.95966343"
       id="guide4545"
       inkscape:locked="false" />
    <sodipodi:guide
       position="0.2890625,0"
       orientation="0,1"
       id="guide4547"
       inkscape:locked="false"
       inkscape:label=""
       inkscape:color="rgb(0,0,255)" />
    <sodipodi:guide
       position="0,600"
       orientation="0,1"
       id="guide4549"
       inkscape:locked="false"
       inkscape:label=""
       inkscape:color="rgb(0,0,255)" />
    <sodipodi:guide
       position="0,600"
       orientation="0.28115139,0.95966343"
       id="guide4551"
       inkscape:locked="false"
       inkscape:label=""
       inkscape:color="rgb(0,0,255)" />
    <sodipodi:guide
       position="-4.217287,585.60505"
       orientation="0.28115241,0.95966313"
       id="guide4556"
       inkscape:locked="false" />
    <sodipodi:guide
       position="-4.217287,14.39495"
       orientation="-0.2811524,0.95966313"
       id="guide4563"
       inkscape:locked="false" />
  </sodipodi:namedview>
  <defs
     id="defs6199" />
  <metadata
     id="metadata6202">
    <rdf:RDF>
      <cc:Work
         rdf:about="">
        <dc:format>image/svg+xml</dc:format>
        <dc:type
           rdf:resource="http://purl.org/dc/dcmitype/StillImage" />
        <dc:title></dc:title>
      </cc:Work>
    </rdf:RDF>
  </metadata>
  <g
     id="layer1"
     inkscape:groupmode="layer"
     inkscape:label="Capa 1">
    <path
       style="fill:#ffde00;stroke:none;stroke-width:1px;stroke-linecap:butt;stroke-linejoin:miter;stroke-opacity:1;fill-opacity:1"
       d="M 0,0 V 600 L 1024,300 Z"
       id="path4567"
       inkscape:connector-curvature="0"
       sodipodi:nodetypes="cccc" />
    <path
       style="fill:#006400;stroke:none;stroke-width:1px;stroke-linecap:butt;stroke-linejoin:miter;stroke-opacity:1;fill-opacity:1"
       d="M 15,20.025037 V 579.97496 L 970.64416,300 Z"
       id="path4565"
       inkscape:connector-curvature="0"
       sodipodi:nodetypes="cccc" />
    <g
       aria-label="Y"
       transform="scale(1.0203326,0.98007258)"
       style="font-style:normal;font-variant:normal;font-weight:normal;font-stretch:normal;font-size:84.28338623px;line-height:125%;font-family:Georgia;-inkscape-font-specification:Georgia;text-align:start;letter-spacing:0px;word-spacing:0px;writing-mode:lr-tb;text-anchor:start;display:inline;fill:#006400;fill-opacity:1;stroke:none;stroke-width:3.46714807"
       id="text4014-0-0" />
    <g
       aria-label="P"
       transform="scale(1.0203326,0.98007258)"
       style="font-style:normal;font-variant:normal;font-weight:normal;font-stretch:normal;font-size:84.28338623px;line-height:125%;font-family:'Times New Roman';-inkscape-font-specification:'Times New Roman';text-align:start;letter-spacing:0px;word-spacing:0px;writing-mode:lr-tb;text-anchor:start;display:inline;fill:#006400;fill-opacity:1;stroke:none;stroke-width:3.46714807"
       id="text4014-7-6-4" />
    <g
       aria-label="G"
       transform="scale(1.0203326,0.98007258)"
       style="font-style:normal;font-variant:normal;font-weight:normal;font-stretch:normal;font-size:84.28338623px;line-height:125%;font-family:'Times New Roman';-inkscape-font-specification:'Times New Roman';text-align:start;letter-spacing:0px;word-spacing:0px;writing-mode:lr-tb;text-anchor:start;display:inline;fill:#006400;fill-opacity:1;stroke:none;stroke-width:3.46714759"
       id="text4014-7-0-3-8" />
    <path
       style="fill:#ffde00;stroke:none;stroke-width:1px;stroke-linecap:butt;stroke-linejoin:miter;stroke-opacity:1;fill-opacity:1"
       d="M 281.5957 161.83984 L 252.12305 252.55078 L 156.74414 252.55078 L 233.90625 308.61328 L 204.43359 399.32422 L 281.59766 343.26172 L 358.75977 399.32422 L 329.28516 308.61328 L 406.44922 252.55078 L 311.07031 252.55078 L 281.5957 161.83984 z "
       id="path4533" />
    <path
       style="fill:#dd281f;stroke:none;stroke-width:1px;stroke-linecap:butt;stroke-linejoin:miter;stroke-opacity:1;fill-opacity:1"
       d="M 281.5957 181.41406 L 256.51758 258.59961 L 175.35938 258.59961 L 241.01758 306.30273 L 215.93945 383.48828 L 281.5957 335.78516 L 347.25391 383.48828 L 322.17383 306.30273 L 387.83203 258.59961 L 306.67578 258.59961 L 281.5957 181.41406 z "
       id="path4536" />
    <path
       inkscape:connector-curvature="0"
       d="m 187.77445,304.63065 q -0.71383,0.0404 -2.26749,0.56467 -1.55366,0.48401 -2.22551,0.96802 -1.63764,0.96801 -2.22552,1.49236 -0.58786,0.52434 -2.26749,2.7427 -3.27528,4.43673 -6.04668,8.99446 -2.77139,4.55773 -6.92848,11.57583 -1.55366,2.58137 -2.05754,4.15439 -0.50389,1.57302 -0.50389,4.55773 v 10.93049 q 0,1.45202 0.58787,2.54103 0.62986,1.04869 2.09953,1.69403 0.88182,0.32267 3.14931,0.80668 2.26751,0.44367 3.6532,0.484 v 2.86371 H 144.8599 v -2.86371 q 1.17574,-0.0807 3.52722,-0.28233 2.35148,-0.242 3.27528,-0.60501 1.51167,-0.60501 2.05755,-1.65369 0.58787,-1.04869 0.58787,-2.58137 v -13.9152 q 0,-0.64534 -0.83982,-2.33937 -0.79782,-1.73435 -1.93158,-3.83172 -2.51944,-4.67873 -5.58477,-10.1238 -3.06532,-5.44508 -5.33283,-9.31713 -1.38569,-2.29904 -2.47745,-3.46872 -1.04976,-1.16968 -2.43546,-2.05703 -1.00778,-0.60501 -2.43547,-0.92768 -1.38569,-0.32268 -2.51944,-0.40334 v -2.86371 h 25.40441 v 2.86371 q -4.28305,0.0807 -6.04667,0.56467 -1.76361,0.48401 -1.76361,1.37136 0,0.242 0.25194,0.84701 0.25195,0.60501 0.71384,1.53268 0.54588,1.04869 1.30172,2.42004 0.75584,1.33102 1.42768,2.58137 1.97357,3.58972 4.03112,7.17944 2.05755,3.54938 5.37482,9.27679 6.59254,-10.20447 10.03579,-15.89155 3.48523,-5.72742 3.48523,-6.85676 0,-0.92769 -0.71384,-1.49236 -0.71384,-0.56468 -1.88958,-0.88735 -1.21774,-0.32267 -2.64543,-0.40334 -1.42768,-0.121 -2.64541,-0.242 v -2.86371 h 20.70144 z"
       style="font-style:normal;font-variant:normal;font-weight:normal;font-stretch:normal;font-size:84.28338623px;line-height:125%;font-family:Georgia;-inkscape-font-specification:Georgia;text-align:start;letter-spacing:0px;word-spacing:0px;writing-mode:lr-tb;text-anchor:start;display:inline;fill:#ffde00;fill-opacity:1;stroke:none;stroke-width:3.46714807"
       id="path7377" />
    <path
       inkscape:connector-curvature="0"
       d="m 309.04646,398.19406 q 0,4.47706 -1.8476,7.94577 -1.8056,3.42838 -5.03889,5.68709 -3.1913,2.25869 -7.01246,3.30738 -3.82116,1.04868 -8.10422,1.04868 h -6.67652 v 17.34358 q 0,1.41168 0.46189,2.5007 0.50389,1.04868 2.01556,1.61336 0.75583,0.28233 2.64541,0.52434 1.93158,0.242 3.52723,0.28234 v 2.8637 h -25.57237 v -2.8637 q 1.00777,-0.0807 2.89736,-0.28234 1.93158,-0.20167 2.68741,-0.52434 1.25972,-0.52435 1.8056,-1.5327 0.58788,-1.00835 0.58788,-2.58136 v -41.30192 q 0,-1.41169 -0.41991,-2.54104 -0.41991,-1.12935 -1.97357,-1.69402 -1.59565,-0.52435 -3.19131,-0.72602 -1.55365,-0.242 -2.6874,-0.32267 v -2.8637 h 27.21002 q 8.31417,0 13.47903,3.87205 5.20686,3.83172 5.20686,10.24482 z m -12.7652,9.7608 q 1.42769,-1.93603 1.88959,-3.99305 0.4619,-2.09737 0.4619,-3.75106 0,-2.29903 -0.58787,-4.67874 -0.54588,-2.37969 -1.93158,-4.15439 -1.46967,-1.89569 -3.86315,-2.94437 -2.39347,-1.04868 -5.96269,-1.04868 h -5.92069 v 25.28936 h 4.28305 q 4.53501,0 7.34838,-1.33102 2.85538,-1.37136 4.28306,-3.38805 z"
       style="font-style:normal;font-variant:normal;font-weight:normal;font-stretch:normal;font-size:84.28338623px;line-height:125%;font-family:Georgia;-inkscape-font-specification:Georgia;text-align:start;letter-spacing:0px;word-spacing:0px;writing-mode:lr-tb;text-anchor:start;display:inline;fill:#ffde00;fill-opacity:1;stroke:none;stroke-width:3.46714807"
       id="path7374" />
    <path
       inkscape:connector-curvature="0"
       d="m 423.65523,302.08757 q -1.17574,0.0404 -2.93935,0.32267 -1.72162,0.242 -2.93935,0.64534 -1.42769,0.48401 -1.93158,1.61335 -0.50389,1.12936 -0.50389,2.46038 v 33.92081 q 0,2.66203 -1.13375,5.64675 -1.09176,2.98471 -3.23329,5.32408 -2.47746,2.7427 -5.9207,4.27539 -3.40125,1.53268 -7.81028,1.53268 -6.84449,0 -11.12755,-3.67038 -4.24107,-3.71072 -4.24107,-9.96248 0,-2.7427 1.46968,-4.84007 1.46968,-2.13769 4.28306,-2.13769 2.51945,0 4.03111,1.37136 1.55366,1.33101 1.55366,3.54938 0,1.29069 -0.54588,2.58136 -0.54589,1.29069 -1.21773,2.29904 -0.62987,0.92768 -1.42769,2.17803 -0.79782,1.25035 -1.13375,2.2587 0.88181,1.33101 2.7294,2.33936 1.88958,1.00835 5.03888,1.00835 3.06534,0 4.99691,-1.33102 1.97357,-1.37134 2.93935,-3.63005 0.9238,-2.09736 1.30171,-5.16274 0.41991,-3.06537 0.41991,-6.85676 v -30.29076 q 0,-1.41169 -0.50388,-2.33937 -0.4619,-0.96801 -1.97357,-1.69402 -1.30172,-0.64535 -3.27528,-0.96802 -1.93158,-0.363 -3.1913,-0.44367 v -2.86371 h 26.28622 z"
       style="font-style:normal;font-variant:normal;font-weight:normal;font-stretch:normal;font-size:84.28338623px;line-height:125%;font-family:Georgia;-inkscape-font-specification:Georgia;text-align:start;letter-spacing:0px;word-spacing:0px;writing-mode:lr-tb;text-anchor:start;display:inline;fill:#ffde00;fill-opacity:1;stroke:none;stroke-width:3.46714759"
       id="path7380" />
  </g>
</svg>
